%TF.GenerationSoftware,KiCad,Pcbnew,(6.0.1)*%
%TF.CreationDate,2022-08-04T18:09:42+02:00*%
%TF.ProjectId,Ganimede_Esp8266,47616e69-6d65-4646-955f-457370383236,rev?*%
%TF.SameCoordinates,Original*%
%TF.FileFunction,Legend,Top*%
%TF.FilePolarity,Positive*%
%FSLAX46Y46*%
G04 Gerber Fmt 4.6, Leading zero omitted, Abs format (unit mm)*
G04 Created by KiCad (PCBNEW (6.0.1)) date 2022-08-04 18:09:42*
%MOMM*%
%LPD*%
G01*
G04 APERTURE LIST*
%ADD10C,0.200000*%
%ADD11C,0.125000*%
%ADD12C,0.150000*%
%ADD13C,0.050000*%
%ADD14C,0.120000*%
%ADD15C,0.304800*%
%ADD16C,0.127000*%
%ADD17C,0.508000*%
G04 APERTURE END LIST*
D10*
X160296704Y-61492961D02*
X159496704Y-61492961D01*
X159496704Y-61302485D01*
X159534800Y-61188200D01*
X159610990Y-61112009D01*
X159687180Y-61073914D01*
X159839561Y-61035819D01*
X159953847Y-61035819D01*
X160106228Y-61073914D01*
X160182419Y-61112009D01*
X160258609Y-61188200D01*
X160296704Y-61302485D01*
X160296704Y-61492961D01*
X160258609Y-60388200D02*
X160296704Y-60464390D01*
X160296704Y-60616771D01*
X160258609Y-60692961D01*
X160182419Y-60731057D01*
X159877657Y-60731057D01*
X159801466Y-60692961D01*
X159763371Y-60616771D01*
X159763371Y-60464390D01*
X159801466Y-60388200D01*
X159877657Y-60350104D01*
X159953847Y-60350104D01*
X160030038Y-60731057D01*
X160258609Y-60045342D02*
X160296704Y-59969152D01*
X160296704Y-59816771D01*
X160258609Y-59740580D01*
X160182419Y-59702485D01*
X160144323Y-59702485D01*
X160068133Y-59740580D01*
X160030038Y-59816771D01*
X160030038Y-59931057D01*
X159991942Y-60007247D01*
X159915752Y-60045342D01*
X159877657Y-60045342D01*
X159801466Y-60007247D01*
X159763371Y-59931057D01*
X159763371Y-59816771D01*
X159801466Y-59740580D01*
X160296704Y-59359628D02*
X159763371Y-59359628D01*
X159496704Y-59359628D02*
X159534800Y-59397723D01*
X159572895Y-59359628D01*
X159534800Y-59321533D01*
X159496704Y-59359628D01*
X159572895Y-59359628D01*
X159763371Y-58635819D02*
X160410990Y-58635819D01*
X160487180Y-58673914D01*
X160525276Y-58712009D01*
X160563371Y-58788200D01*
X160563371Y-58902485D01*
X160525276Y-58978676D01*
X160258609Y-58635819D02*
X160296704Y-58712009D01*
X160296704Y-58864390D01*
X160258609Y-58940580D01*
X160220514Y-58978676D01*
X160144323Y-59016771D01*
X159915752Y-59016771D01*
X159839561Y-58978676D01*
X159801466Y-58940580D01*
X159763371Y-58864390D01*
X159763371Y-58712009D01*
X159801466Y-58635819D01*
X159763371Y-58254866D02*
X160296704Y-58254866D01*
X159839561Y-58254866D02*
X159801466Y-58216771D01*
X159763371Y-58140580D01*
X159763371Y-58026295D01*
X159801466Y-57950104D01*
X159877657Y-57912009D01*
X160296704Y-57912009D01*
X160258609Y-57226295D02*
X160296704Y-57302485D01*
X160296704Y-57454866D01*
X160258609Y-57531057D01*
X160182419Y-57569152D01*
X159877657Y-57569152D01*
X159801466Y-57531057D01*
X159763371Y-57454866D01*
X159763371Y-57302485D01*
X159801466Y-57226295D01*
X159877657Y-57188200D01*
X159953847Y-57188200D01*
X160030038Y-57569152D01*
X160296704Y-56502485D02*
X159496704Y-56502485D01*
X160258609Y-56502485D02*
X160296704Y-56578676D01*
X160296704Y-56731057D01*
X160258609Y-56807247D01*
X160220514Y-56845342D01*
X160144323Y-56883438D01*
X159915752Y-56883438D01*
X159839561Y-56845342D01*
X159801466Y-56807247D01*
X159763371Y-56731057D01*
X159763371Y-56578676D01*
X159801466Y-56502485D01*
X159877657Y-55245342D02*
X159915752Y-55131057D01*
X159953847Y-55092961D01*
X160030038Y-55054866D01*
X160144323Y-55054866D01*
X160220514Y-55092961D01*
X160258609Y-55131057D01*
X160296704Y-55207247D01*
X160296704Y-55512009D01*
X159496704Y-55512009D01*
X159496704Y-55245342D01*
X159534800Y-55169152D01*
X159572895Y-55131057D01*
X159649085Y-55092961D01*
X159725276Y-55092961D01*
X159801466Y-55131057D01*
X159839561Y-55169152D01*
X159877657Y-55245342D01*
X159877657Y-55512009D01*
X159763371Y-54788200D02*
X160296704Y-54597723D01*
X159763371Y-54407247D02*
X160296704Y-54597723D01*
X160487180Y-54673914D01*
X160525276Y-54712009D01*
X160563371Y-54788200D01*
X161165657Y-59531057D02*
X161165657Y-59797723D01*
X161584704Y-59797723D02*
X160784704Y-59797723D01*
X160784704Y-59416771D01*
X161508514Y-59112009D02*
X161546609Y-59073914D01*
X161584704Y-59112009D01*
X161546609Y-59150104D01*
X161508514Y-59112009D01*
X161584704Y-59112009D01*
X161165657Y-58464390D02*
X161165657Y-58731057D01*
X161584704Y-58731057D02*
X160784704Y-58731057D01*
X160784704Y-58350104D01*
X161584704Y-58045342D02*
X161051371Y-58045342D01*
X160784704Y-58045342D02*
X160822800Y-58083438D01*
X160860895Y-58045342D01*
X160822800Y-58007247D01*
X160784704Y-58045342D01*
X160860895Y-58045342D01*
X161546609Y-57321533D02*
X161584704Y-57397723D01*
X161584704Y-57550104D01*
X161546609Y-57626295D01*
X161508514Y-57664390D01*
X161432323Y-57702485D01*
X161203752Y-57702485D01*
X161127561Y-57664390D01*
X161089466Y-57626295D01*
X161051371Y-57550104D01*
X161051371Y-57397723D01*
X161089466Y-57321533D01*
X161584704Y-56978676D02*
X161051371Y-56978676D01*
X160784704Y-56978676D02*
X160822800Y-57016771D01*
X160860895Y-56978676D01*
X160822800Y-56940580D01*
X160784704Y-56978676D01*
X160860895Y-56978676D01*
X161584704Y-56483438D02*
X161546609Y-56559628D01*
X161470419Y-56597723D01*
X160784704Y-56597723D01*
X161584704Y-56178676D02*
X161051371Y-56178676D01*
X160784704Y-56178676D02*
X160822800Y-56216771D01*
X160860895Y-56178676D01*
X160822800Y-56140580D01*
X160784704Y-56178676D01*
X160860895Y-56178676D01*
D11*
%TO.C,C7*%
X160546266Y-98019371D02*
X160522457Y-98043180D01*
X160451028Y-98066990D01*
X160403409Y-98066990D01*
X160331980Y-98043180D01*
X160284361Y-97995561D01*
X160260552Y-97947942D01*
X160236742Y-97852704D01*
X160236742Y-97781276D01*
X160260552Y-97686038D01*
X160284361Y-97638419D01*
X160331980Y-97590800D01*
X160403409Y-97566990D01*
X160451028Y-97566990D01*
X160522457Y-97590800D01*
X160546266Y-97614609D01*
X160712933Y-97566990D02*
X161046266Y-97566990D01*
X160831980Y-98066990D01*
D12*
%TO.C,CN5*%
X159888323Y-102776742D02*
X159840704Y-102824361D01*
X159697847Y-102871980D01*
X159602609Y-102871980D01*
X159459752Y-102824361D01*
X159364514Y-102729123D01*
X159316895Y-102633885D01*
X159269276Y-102443409D01*
X159269276Y-102300552D01*
X159316895Y-102110076D01*
X159364514Y-102014838D01*
X159459752Y-101919600D01*
X159602609Y-101871980D01*
X159697847Y-101871980D01*
X159840704Y-101919600D01*
X159888323Y-101967219D01*
X160316895Y-102871980D02*
X160316895Y-101871980D01*
X160888323Y-102871980D01*
X160888323Y-101871980D01*
X161840704Y-101871980D02*
X161364514Y-101871980D01*
X161316895Y-102348171D01*
X161364514Y-102300552D01*
X161459752Y-102252933D01*
X161697847Y-102252933D01*
X161793085Y-102300552D01*
X161840704Y-102348171D01*
X161888323Y-102443409D01*
X161888323Y-102681504D01*
X161840704Y-102776742D01*
X161793085Y-102824361D01*
X161697847Y-102871980D01*
X161459752Y-102871980D01*
X161364514Y-102824361D01*
X161316895Y-102776742D01*
X161107380Y-113228190D02*
X160107380Y-113228190D01*
X160107380Y-112847238D01*
X160155000Y-112752000D01*
X160202619Y-112704380D01*
X160297857Y-112656761D01*
X160440714Y-112656761D01*
X160535952Y-112704380D01*
X160583571Y-112752000D01*
X160631190Y-112847238D01*
X160631190Y-113228190D01*
X161107380Y-112085333D02*
X161059761Y-112180571D01*
X161012142Y-112228190D01*
X160916904Y-112275809D01*
X160631190Y-112275809D01*
X160535952Y-112228190D01*
X160488333Y-112180571D01*
X160440714Y-112085333D01*
X160440714Y-111942476D01*
X160488333Y-111847238D01*
X160535952Y-111799619D01*
X160631190Y-111752000D01*
X160916904Y-111752000D01*
X161012142Y-111799619D01*
X161059761Y-111847238D01*
X161107380Y-111942476D01*
X161107380Y-112085333D01*
X160440714Y-111418666D02*
X161107380Y-111228190D01*
X160631190Y-111037714D01*
X161107380Y-110847238D01*
X160440714Y-110656761D01*
X161059761Y-109894857D02*
X161107380Y-109990095D01*
X161107380Y-110180571D01*
X161059761Y-110275809D01*
X160964523Y-110323428D01*
X160583571Y-110323428D01*
X160488333Y-110275809D01*
X160440714Y-110180571D01*
X160440714Y-109990095D01*
X160488333Y-109894857D01*
X160583571Y-109847238D01*
X160678809Y-109847238D01*
X160774047Y-110323428D01*
X161107380Y-109418666D02*
X160440714Y-109418666D01*
X160631190Y-109418666D02*
X160535952Y-109371047D01*
X160488333Y-109323428D01*
X160440714Y-109228190D01*
X160440714Y-109132952D01*
D11*
%TO.C,R3*%
X138981666Y-67182590D02*
X138815000Y-66944495D01*
X138695952Y-67182590D02*
X138695952Y-66682590D01*
X138886428Y-66682590D01*
X138934047Y-66706400D01*
X138957857Y-66730209D01*
X138981666Y-66777828D01*
X138981666Y-66849257D01*
X138957857Y-66896876D01*
X138934047Y-66920685D01*
X138886428Y-66944495D01*
X138695952Y-66944495D01*
X139148333Y-66682590D02*
X139457857Y-66682590D01*
X139291190Y-66873066D01*
X139362619Y-66873066D01*
X139410238Y-66896876D01*
X139434047Y-66920685D01*
X139457857Y-66968304D01*
X139457857Y-67087352D01*
X139434047Y-67134971D01*
X139410238Y-67158780D01*
X139362619Y-67182590D01*
X139219761Y-67182590D01*
X139172142Y-67158780D01*
X139148333Y-67134971D01*
%TO.C,C1*%
X128702571Y-106966533D02*
X128726380Y-106990342D01*
X128750190Y-107061771D01*
X128750190Y-107109390D01*
X128726380Y-107180819D01*
X128678761Y-107228438D01*
X128631142Y-107252247D01*
X128535904Y-107276057D01*
X128464476Y-107276057D01*
X128369238Y-107252247D01*
X128321619Y-107228438D01*
X128274000Y-107180819D01*
X128250190Y-107109390D01*
X128250190Y-107061771D01*
X128274000Y-106990342D01*
X128297809Y-106966533D01*
X128750190Y-106490342D02*
X128750190Y-106776057D01*
X128750190Y-106633200D02*
X128250190Y-106633200D01*
X128321619Y-106680819D01*
X128369238Y-106728438D01*
X128393047Y-106776057D01*
%TO.C,R8*%
X149476590Y-73997333D02*
X149238495Y-74164000D01*
X149476590Y-74283047D02*
X148976590Y-74283047D01*
X148976590Y-74092571D01*
X149000400Y-74044952D01*
X149024209Y-74021142D01*
X149071828Y-73997333D01*
X149143257Y-73997333D01*
X149190876Y-74021142D01*
X149214685Y-74044952D01*
X149238495Y-74092571D01*
X149238495Y-74283047D01*
X149190876Y-73711619D02*
X149167066Y-73759238D01*
X149143257Y-73783047D01*
X149095638Y-73806857D01*
X149071828Y-73806857D01*
X149024209Y-73783047D01*
X149000400Y-73759238D01*
X148976590Y-73711619D01*
X148976590Y-73616380D01*
X149000400Y-73568761D01*
X149024209Y-73544952D01*
X149071828Y-73521142D01*
X149095638Y-73521142D01*
X149143257Y-73544952D01*
X149167066Y-73568761D01*
X149190876Y-73616380D01*
X149190876Y-73711619D01*
X149214685Y-73759238D01*
X149238495Y-73783047D01*
X149286114Y-73806857D01*
X149381352Y-73806857D01*
X149428971Y-73783047D01*
X149452780Y-73759238D01*
X149476590Y-73711619D01*
X149476590Y-73616380D01*
X149452780Y-73568761D01*
X149428971Y-73544952D01*
X149381352Y-73521142D01*
X149286114Y-73521142D01*
X149238495Y-73544952D01*
X149214685Y-73568761D01*
X149190876Y-73616380D01*
%TO.C,C2*%
X136467066Y-115037371D02*
X136443257Y-115061180D01*
X136371828Y-115084990D01*
X136324209Y-115084990D01*
X136252780Y-115061180D01*
X136205161Y-115013561D01*
X136181352Y-114965942D01*
X136157542Y-114870704D01*
X136157542Y-114799276D01*
X136181352Y-114704038D01*
X136205161Y-114656419D01*
X136252780Y-114608800D01*
X136324209Y-114584990D01*
X136371828Y-114584990D01*
X136443257Y-114608800D01*
X136467066Y-114632609D01*
X136657542Y-114632609D02*
X136681352Y-114608800D01*
X136728971Y-114584990D01*
X136848019Y-114584990D01*
X136895638Y-114608800D01*
X136919447Y-114632609D01*
X136943257Y-114680228D01*
X136943257Y-114727847D01*
X136919447Y-114799276D01*
X136633733Y-115084990D01*
X136943257Y-115084990D01*
D12*
%TO.C,U2*%
X130871980Y-114198304D02*
X131681504Y-114198304D01*
X131776742Y-114150685D01*
X131824361Y-114103066D01*
X131871980Y-114007828D01*
X131871980Y-113817352D01*
X131824361Y-113722114D01*
X131776742Y-113674495D01*
X131681504Y-113626876D01*
X130871980Y-113626876D01*
X130967219Y-113198304D02*
X130919600Y-113150685D01*
X130871980Y-113055447D01*
X130871980Y-112817352D01*
X130919600Y-112722114D01*
X130967219Y-112674495D01*
X131062457Y-112626876D01*
X131157695Y-112626876D01*
X131300552Y-112674495D01*
X131871980Y-113245923D01*
X131871980Y-112626876D01*
D11*
%TO.C,R6*%
X149476590Y-70085733D02*
X149238495Y-70252400D01*
X149476590Y-70371447D02*
X148976590Y-70371447D01*
X148976590Y-70180971D01*
X149000400Y-70133352D01*
X149024209Y-70109542D01*
X149071828Y-70085733D01*
X149143257Y-70085733D01*
X149190876Y-70109542D01*
X149214685Y-70133352D01*
X149238495Y-70180971D01*
X149238495Y-70371447D01*
X148976590Y-69657161D02*
X148976590Y-69752400D01*
X149000400Y-69800019D01*
X149024209Y-69823828D01*
X149095638Y-69871447D01*
X149190876Y-69895257D01*
X149381352Y-69895257D01*
X149428971Y-69871447D01*
X149452780Y-69847638D01*
X149476590Y-69800019D01*
X149476590Y-69704780D01*
X149452780Y-69657161D01*
X149428971Y-69633352D01*
X149381352Y-69609542D01*
X149262304Y-69609542D01*
X149214685Y-69633352D01*
X149190876Y-69657161D01*
X149167066Y-69704780D01*
X149167066Y-69800019D01*
X149190876Y-69847638D01*
X149214685Y-69871447D01*
X149262304Y-69895257D01*
D12*
%TO.C,U3*%
X154178095Y-97692380D02*
X154178095Y-98501904D01*
X154225714Y-98597142D01*
X154273333Y-98644761D01*
X154368571Y-98692380D01*
X154559047Y-98692380D01*
X154654285Y-98644761D01*
X154701904Y-98597142D01*
X154749523Y-98501904D01*
X154749523Y-97692380D01*
X155130476Y-97692380D02*
X155749523Y-97692380D01*
X155416190Y-98073333D01*
X155559047Y-98073333D01*
X155654285Y-98120952D01*
X155701904Y-98168571D01*
X155749523Y-98263809D01*
X155749523Y-98501904D01*
X155701904Y-98597142D01*
X155654285Y-98644761D01*
X155559047Y-98692380D01*
X155273333Y-98692380D01*
X155178095Y-98644761D01*
X155130476Y-98597142D01*
%TO.C,CN1*%
X139041142Y-126166476D02*
X139088761Y-126214095D01*
X139136380Y-126356952D01*
X139136380Y-126452190D01*
X139088761Y-126595047D01*
X138993523Y-126690285D01*
X138898285Y-126737904D01*
X138707809Y-126785523D01*
X138564952Y-126785523D01*
X138374476Y-126737904D01*
X138279238Y-126690285D01*
X138184000Y-126595047D01*
X138136380Y-126452190D01*
X138136380Y-126356952D01*
X138184000Y-126214095D01*
X138231619Y-126166476D01*
X139136380Y-125737904D02*
X138136380Y-125737904D01*
X139136380Y-125166476D01*
X138136380Y-125166476D01*
X139136380Y-124166476D02*
X139136380Y-124737904D01*
X139136380Y-124452190D02*
X138136380Y-124452190D01*
X138279238Y-124547428D01*
X138374476Y-124642666D01*
X138422095Y-124737904D01*
D11*
%TO.C,R12*%
X149933790Y-118736228D02*
X149695695Y-118902895D01*
X149933790Y-119021942D02*
X149433790Y-119021942D01*
X149433790Y-118831466D01*
X149457600Y-118783847D01*
X149481409Y-118760038D01*
X149529028Y-118736228D01*
X149600457Y-118736228D01*
X149648076Y-118760038D01*
X149671885Y-118783847D01*
X149695695Y-118831466D01*
X149695695Y-119021942D01*
X149933790Y-118260038D02*
X149933790Y-118545752D01*
X149933790Y-118402895D02*
X149433790Y-118402895D01*
X149505219Y-118450514D01*
X149552838Y-118498133D01*
X149576647Y-118545752D01*
X149481409Y-118069561D02*
X149457600Y-118045752D01*
X149433790Y-117998133D01*
X149433790Y-117879085D01*
X149457600Y-117831466D01*
X149481409Y-117807657D01*
X149529028Y-117783847D01*
X149576647Y-117783847D01*
X149648076Y-117807657D01*
X149933790Y-118093371D01*
X149933790Y-117783847D01*
%TO.C,R14*%
X156182190Y-128591428D02*
X155944095Y-128758095D01*
X156182190Y-128877142D02*
X155682190Y-128877142D01*
X155682190Y-128686666D01*
X155706000Y-128639047D01*
X155729809Y-128615238D01*
X155777428Y-128591428D01*
X155848857Y-128591428D01*
X155896476Y-128615238D01*
X155920285Y-128639047D01*
X155944095Y-128686666D01*
X155944095Y-128877142D01*
X156182190Y-128115238D02*
X156182190Y-128400952D01*
X156182190Y-128258095D02*
X155682190Y-128258095D01*
X155753619Y-128305714D01*
X155801238Y-128353333D01*
X155825047Y-128400952D01*
X155848857Y-127686666D02*
X156182190Y-127686666D01*
X155658380Y-127805714D02*
X156015523Y-127924761D01*
X156015523Y-127615238D01*
%TO.C,R2*%
X139235666Y-121384190D02*
X139069000Y-121146095D01*
X138949952Y-121384190D02*
X138949952Y-120884190D01*
X139140428Y-120884190D01*
X139188047Y-120908000D01*
X139211857Y-120931809D01*
X139235666Y-120979428D01*
X139235666Y-121050857D01*
X139211857Y-121098476D01*
X139188047Y-121122285D01*
X139140428Y-121146095D01*
X138949952Y-121146095D01*
X139426142Y-120931809D02*
X139449952Y-120908000D01*
X139497571Y-120884190D01*
X139616619Y-120884190D01*
X139664238Y-120908000D01*
X139688047Y-120931809D01*
X139711857Y-120979428D01*
X139711857Y-121027047D01*
X139688047Y-121098476D01*
X139402333Y-121384190D01*
X139711857Y-121384190D01*
%TO.C,R4*%
X140251666Y-67182590D02*
X140085000Y-66944495D01*
X139965952Y-67182590D02*
X139965952Y-66682590D01*
X140156428Y-66682590D01*
X140204047Y-66706400D01*
X140227857Y-66730209D01*
X140251666Y-66777828D01*
X140251666Y-66849257D01*
X140227857Y-66896876D01*
X140204047Y-66920685D01*
X140156428Y-66944495D01*
X139965952Y-66944495D01*
X140680238Y-66849257D02*
X140680238Y-67182590D01*
X140561190Y-66658780D02*
X140442142Y-67015923D01*
X140751666Y-67015923D01*
D12*
%TO.C,CN3*%
X151963523Y-54967142D02*
X151915904Y-55014761D01*
X151773047Y-55062380D01*
X151677809Y-55062380D01*
X151534952Y-55014761D01*
X151439714Y-54919523D01*
X151392095Y-54824285D01*
X151344476Y-54633809D01*
X151344476Y-54490952D01*
X151392095Y-54300476D01*
X151439714Y-54205238D01*
X151534952Y-54110000D01*
X151677809Y-54062380D01*
X151773047Y-54062380D01*
X151915904Y-54110000D01*
X151963523Y-54157619D01*
X152392095Y-55062380D02*
X152392095Y-54062380D01*
X152963523Y-55062380D01*
X152963523Y-54062380D01*
X153344476Y-54062380D02*
X153963523Y-54062380D01*
X153630190Y-54443333D01*
X153773047Y-54443333D01*
X153868285Y-54490952D01*
X153915904Y-54538571D01*
X153963523Y-54633809D01*
X153963523Y-54871904D01*
X153915904Y-54967142D01*
X153868285Y-55014761D01*
X153773047Y-55062380D01*
X153487333Y-55062380D01*
X153392095Y-55014761D01*
X153344476Y-54967142D01*
D13*
%TO.C,CN2*%
X135831514Y-56605500D02*
X135736276Y-56557880D01*
X135593419Y-56557880D01*
X135450561Y-56605500D01*
X135355323Y-56700738D01*
X135307704Y-56795976D01*
X135260085Y-56986452D01*
X135260085Y-57129309D01*
X135307704Y-57319785D01*
X135355323Y-57415023D01*
X135450561Y-57510261D01*
X135593419Y-57557880D01*
X135688657Y-57557880D01*
X135831514Y-57510261D01*
X135879133Y-57462642D01*
X135879133Y-57129309D01*
X135688657Y-57129309D01*
X136307704Y-57557880D02*
X136307704Y-56557880D01*
X136879133Y-57557880D01*
X136879133Y-56557880D01*
X137355323Y-57557880D02*
X137355323Y-56557880D01*
X137593419Y-56557880D01*
X137736276Y-56605500D01*
X137831514Y-56700738D01*
X137879133Y-56795976D01*
X137926752Y-56986452D01*
X137926752Y-57129309D01*
X137879133Y-57319785D01*
X137831514Y-57415023D01*
X137736276Y-57510261D01*
X137593419Y-57557880D01*
X137355323Y-57557880D01*
X152955714Y-75052166D02*
X153431904Y-75052166D01*
X152860476Y-75337880D02*
X153193809Y-74337880D01*
X153527142Y-75337880D01*
X153860476Y-75337880D02*
X153860476Y-74337880D01*
X154431904Y-75337880D01*
X154431904Y-74337880D01*
X135879133Y-70257880D02*
X135545800Y-69781690D01*
X135307704Y-70257880D02*
X135307704Y-69257880D01*
X135688657Y-69257880D01*
X135783895Y-69305500D01*
X135831514Y-69353119D01*
X135879133Y-69448357D01*
X135879133Y-69591214D01*
X135831514Y-69686452D01*
X135783895Y-69734071D01*
X135688657Y-69781690D01*
X135307704Y-69781690D01*
X136212466Y-69257880D02*
X136879133Y-70257880D01*
X136879133Y-69257880D02*
X136212466Y-70257880D01*
X135307704Y-75210880D02*
X135307704Y-74210880D01*
X135688656Y-74210880D01*
X135783894Y-74258500D01*
X135831513Y-74306119D01*
X135879132Y-74401357D01*
X135879132Y-74544214D01*
X135831513Y-74639452D01*
X135783894Y-74687071D01*
X135688656Y-74734690D01*
X135307704Y-74734690D01*
X136212466Y-74210880D02*
X136450561Y-75210880D01*
X136641037Y-74496595D01*
X136831513Y-75210880D01*
X137069608Y-74210880D01*
X137450561Y-75210880D02*
X137450561Y-74210880D01*
X137783894Y-74925166D01*
X138117227Y-74210880D01*
X138117227Y-75210880D01*
X151289047Y-62637880D02*
X151289047Y-61637880D01*
X151622380Y-62352166D01*
X151955714Y-61637880D01*
X151955714Y-62637880D01*
X152622380Y-61637880D02*
X152812856Y-61637880D01*
X152908095Y-61685500D01*
X153003333Y-61780738D01*
X153050952Y-61971214D01*
X153050952Y-62304547D01*
X153003333Y-62495023D01*
X152908095Y-62590261D01*
X152812856Y-62637880D01*
X152622380Y-62637880D01*
X152527142Y-62590261D01*
X152431904Y-62495023D01*
X152384285Y-62304547D01*
X152384285Y-61971214D01*
X152431904Y-61780738D01*
X152527142Y-61685500D01*
X152622380Y-61637880D01*
X153431904Y-62590261D02*
X153574761Y-62637880D01*
X153812856Y-62637880D01*
X153908095Y-62590261D01*
X153955714Y-62542642D01*
X154003333Y-62447404D01*
X154003333Y-62352166D01*
X153955714Y-62256928D01*
X153908095Y-62209309D01*
X153812856Y-62161690D01*
X153622380Y-62114071D01*
X153527142Y-62066452D01*
X153479523Y-62018833D01*
X153431904Y-61923595D01*
X153431904Y-61828357D01*
X153479523Y-61733119D01*
X153527142Y-61685500D01*
X153622380Y-61637880D01*
X153860476Y-61637880D01*
X154003333Y-61685500D01*
X154431904Y-62637880D02*
X154431904Y-61637880D01*
X141501666Y-74140880D02*
X141501666Y-73474214D01*
X141501666Y-73569452D02*
X141549285Y-73521833D01*
X141644523Y-73474214D01*
X141787380Y-73474214D01*
X141882619Y-73521833D01*
X141930238Y-73617071D01*
X141930238Y-74140880D01*
X141930238Y-73617071D02*
X141977857Y-73521833D01*
X142073095Y-73474214D01*
X142215952Y-73474214D01*
X142311190Y-73521833D01*
X142358809Y-73617071D01*
X142358809Y-74140880D01*
X142835000Y-74140880D02*
X142835000Y-73474214D01*
X142835000Y-73140880D02*
X142787380Y-73188500D01*
X142835000Y-73236119D01*
X142882619Y-73188500D01*
X142835000Y-73140880D01*
X142835000Y-73236119D01*
X143311190Y-74140880D02*
X143311190Y-73140880D01*
X143406428Y-73759928D02*
X143692142Y-74140880D01*
X143692142Y-73474214D02*
X143311190Y-73855166D01*
X144120714Y-74140880D02*
X144120714Y-73474214D01*
X144120714Y-73664690D02*
X144168333Y-73569452D01*
X144215952Y-73521833D01*
X144311190Y-73474214D01*
X144406428Y-73474214D01*
X144882619Y-74140880D02*
X144787380Y-74093261D01*
X144739761Y-74045642D01*
X144692142Y-73950404D01*
X144692142Y-73664690D01*
X144739761Y-73569452D01*
X144787380Y-73521833D01*
X144882619Y-73474214D01*
X145025476Y-73474214D01*
X145120714Y-73521833D01*
X145168333Y-73569452D01*
X145215952Y-73664690D01*
X145215952Y-73950404D01*
X145168333Y-74045642D01*
X145120714Y-74093261D01*
X145025476Y-74140880D01*
X144882619Y-74140880D01*
X145406428Y-72858500D02*
X146406428Y-72858500D01*
X145977857Y-73617071D02*
X146120714Y-73664690D01*
X146168333Y-73712309D01*
X146215952Y-73807547D01*
X146215952Y-73950404D01*
X146168333Y-74045642D01*
X146120714Y-74093261D01*
X146025476Y-74140880D01*
X145644523Y-74140880D01*
X145644523Y-73140880D01*
X145977857Y-73140880D01*
X146073095Y-73188500D01*
X146120714Y-73236119D01*
X146168333Y-73331357D01*
X146168333Y-73426595D01*
X146120714Y-73521833D01*
X146073095Y-73569452D01*
X145977857Y-73617071D01*
X145644523Y-73617071D01*
X146406428Y-72858500D02*
X147454047Y-72858500D01*
X146644523Y-73140880D02*
X146644523Y-73950404D01*
X146692142Y-74045642D01*
X146739761Y-74093261D01*
X146835000Y-74140880D01*
X147025476Y-74140880D01*
X147120714Y-74093261D01*
X147168333Y-74045642D01*
X147215952Y-73950404D01*
X147215952Y-73140880D01*
X147454047Y-72858500D02*
X148406428Y-72858500D01*
X147644523Y-74093261D02*
X147787380Y-74140880D01*
X148025476Y-74140880D01*
X148120714Y-74093261D01*
X148168333Y-74045642D01*
X148215952Y-73950404D01*
X148215952Y-73855166D01*
X148168333Y-73759928D01*
X148120714Y-73712309D01*
X148025476Y-73664690D01*
X147835000Y-73617071D01*
X147739761Y-73569452D01*
X147692142Y-73521833D01*
X147644523Y-73426595D01*
X147644523Y-73331357D01*
X147692142Y-73236119D01*
X147739761Y-73188500D01*
X147835000Y-73140880D01*
X148073095Y-73140880D01*
X148215952Y-73188500D01*
X135164847Y-66717880D02*
X135736275Y-66717880D01*
X135450561Y-67717880D02*
X135450561Y-66717880D01*
X135974371Y-66717880D02*
X136641037Y-67717880D01*
X136641037Y-66717880D02*
X135974371Y-67717880D01*
X135307704Y-59716928D02*
X136069609Y-59716928D01*
X135688657Y-60097880D02*
X135688657Y-59335976D01*
X137021990Y-59097880D02*
X136545799Y-59097880D01*
X136498180Y-59574071D01*
X136545799Y-59526452D01*
X136641038Y-59478833D01*
X136879133Y-59478833D01*
X136974371Y-59526452D01*
X137021990Y-59574071D01*
X137069609Y-59669309D01*
X137069609Y-59907404D01*
X137021990Y-60002642D01*
X136974371Y-60050261D01*
X136879133Y-60097880D01*
X136641038Y-60097880D01*
X136545799Y-60050261D01*
X136498180Y-60002642D01*
X137355323Y-59097880D02*
X137688657Y-60097880D01*
X138021990Y-59097880D01*
X135260085Y-62590261D02*
X135402942Y-62637880D01*
X135641037Y-62637880D01*
X135736275Y-62590261D01*
X135783894Y-62542642D01*
X135831513Y-62447404D01*
X135831513Y-62352166D01*
X135783894Y-62256928D01*
X135736275Y-62209309D01*
X135641037Y-62161690D01*
X135450561Y-62114071D01*
X135355323Y-62066452D01*
X135307704Y-62018833D01*
X135260085Y-61923595D01*
X135260085Y-61828357D01*
X135307704Y-61733119D01*
X135355323Y-61685500D01*
X135450561Y-61637880D01*
X135688656Y-61637880D01*
X135831513Y-61685500D01*
X136260085Y-62637880D02*
X136260085Y-61637880D01*
X136498180Y-61637880D01*
X136641037Y-61685500D01*
X136736275Y-61780738D01*
X136783894Y-61875976D01*
X136831513Y-62066452D01*
X136831513Y-62209309D01*
X136783894Y-62399785D01*
X136736275Y-62495023D01*
X136641037Y-62590261D01*
X136498180Y-62637880D01*
X136260085Y-62637880D01*
X137212466Y-62352166D02*
X137688656Y-62352166D01*
X137117228Y-62637880D02*
X137450561Y-61637880D01*
X137783894Y-62637880D01*
X152765237Y-72797880D02*
X152431904Y-72321690D01*
X152193809Y-72797880D02*
X152193809Y-71797880D01*
X152574761Y-71797880D01*
X152669999Y-71845500D01*
X152717618Y-71893119D01*
X152765237Y-71988357D01*
X152765237Y-72131214D01*
X152717618Y-72226452D01*
X152669999Y-72274071D01*
X152574761Y-72321690D01*
X152193809Y-72321690D01*
X153146190Y-72750261D02*
X153289047Y-72797880D01*
X153527142Y-72797880D01*
X153622380Y-72750261D01*
X153669999Y-72702642D01*
X153717618Y-72607404D01*
X153717618Y-72512166D01*
X153669999Y-72416928D01*
X153622380Y-72369309D01*
X153527142Y-72321690D01*
X153336666Y-72274071D01*
X153241428Y-72226452D01*
X153193809Y-72178833D01*
X153146190Y-72083595D01*
X153146190Y-71988357D01*
X153193809Y-71893119D01*
X153241428Y-71845500D01*
X153336666Y-71797880D01*
X153574761Y-71797880D01*
X153717618Y-71845500D01*
X154003333Y-71797880D02*
X154574761Y-71797880D01*
X154289047Y-72797880D02*
X154289047Y-71797880D01*
X135307704Y-72797880D02*
X135307704Y-71797880D01*
X135783894Y-72797880D02*
X135783894Y-71797880D01*
X136355323Y-72797880D01*
X136355323Y-71797880D01*
X136688656Y-71797880D02*
X137260085Y-71797880D01*
X136974370Y-72797880D02*
X136974370Y-71797880D01*
X151289047Y-65177880D02*
X151289047Y-64177880D01*
X151622380Y-64892166D01*
X151955714Y-64177880D01*
X151955714Y-65177880D01*
X152431904Y-65177880D02*
X152431904Y-64177880D01*
X152860476Y-65130261D02*
X153003333Y-65177880D01*
X153241428Y-65177880D01*
X153336666Y-65130261D01*
X153384285Y-65082642D01*
X153431904Y-64987404D01*
X153431904Y-64892166D01*
X153384285Y-64796928D01*
X153336666Y-64749309D01*
X153241428Y-64701690D01*
X153050952Y-64654071D01*
X152955714Y-64606452D01*
X152908095Y-64558833D01*
X152860476Y-64463595D01*
X152860476Y-64368357D01*
X152908095Y-64273119D01*
X152955714Y-64225500D01*
X153050952Y-64177880D01*
X153289047Y-64177880D01*
X153431904Y-64225500D01*
X154050952Y-64177880D02*
X154241428Y-64177880D01*
X154336666Y-64225500D01*
X154431904Y-64320738D01*
X154479523Y-64511214D01*
X154479523Y-64844547D01*
X154431904Y-65035023D01*
X154336666Y-65130261D01*
X154241428Y-65177880D01*
X154050952Y-65177880D01*
X153955714Y-65130261D01*
X153860476Y-65035023D01*
X153812856Y-64844547D01*
X153812856Y-64511214D01*
X153860476Y-64320738D01*
X153955714Y-64225500D01*
X154050952Y-64177880D01*
X153527143Y-70162642D02*
X153479524Y-70210261D01*
X153336667Y-70257880D01*
X153241429Y-70257880D01*
X153098571Y-70210261D01*
X153003333Y-70115023D01*
X152955714Y-70019785D01*
X152908095Y-69829309D01*
X152908095Y-69686452D01*
X152955714Y-69495976D01*
X153003333Y-69400738D01*
X153098571Y-69305500D01*
X153241429Y-69257880D01*
X153336667Y-69257880D01*
X153479524Y-69305500D01*
X153527143Y-69353119D01*
X153908095Y-70210261D02*
X154050952Y-70257880D01*
X154289048Y-70257880D01*
X154384286Y-70210261D01*
X154431905Y-70162642D01*
X154479524Y-70067404D01*
X154479524Y-69972166D01*
X154431905Y-69876928D01*
X154384286Y-69829309D01*
X154289048Y-69781690D01*
X154098571Y-69734071D01*
X154003333Y-69686452D01*
X153955714Y-69638833D01*
X153908095Y-69543595D01*
X153908095Y-69448357D01*
X153955714Y-69353119D01*
X154003333Y-69305500D01*
X154098571Y-69257880D01*
X154336667Y-69257880D01*
X154479524Y-69305500D01*
X151908095Y-67670261D02*
X152050952Y-67717880D01*
X152289048Y-67717880D01*
X152384286Y-67670261D01*
X152431905Y-67622642D01*
X152479524Y-67527404D01*
X152479524Y-67432166D01*
X152431905Y-67336928D01*
X152384286Y-67289309D01*
X152289048Y-67241690D01*
X152098571Y-67194071D01*
X152003333Y-67146452D01*
X151955714Y-67098833D01*
X151908095Y-67003595D01*
X151908095Y-66908357D01*
X151955714Y-66813119D01*
X152003333Y-66765500D01*
X152098571Y-66717880D01*
X152336667Y-66717880D01*
X152479524Y-66765500D01*
X153479524Y-67622642D02*
X153431905Y-67670261D01*
X153289048Y-67717880D01*
X153193810Y-67717880D01*
X153050952Y-67670261D01*
X152955714Y-67575023D01*
X152908095Y-67479785D01*
X152860476Y-67289309D01*
X152860476Y-67146452D01*
X152908095Y-66955976D01*
X152955714Y-66860738D01*
X153050952Y-66765500D01*
X153193810Y-66717880D01*
X153289048Y-66717880D01*
X153431905Y-66765500D01*
X153479524Y-66813119D01*
X153908095Y-67717880D02*
X153908095Y-66717880D01*
X154479524Y-67717880D02*
X154050952Y-67146452D01*
X154479524Y-66717880D02*
X153908095Y-67289309D01*
X135260085Y-65130261D02*
X135402942Y-65177880D01*
X135641038Y-65177880D01*
X135736276Y-65130261D01*
X135783895Y-65082642D01*
X135831514Y-64987404D01*
X135831514Y-64892166D01*
X135783895Y-64796928D01*
X135736276Y-64749309D01*
X135641038Y-64701690D01*
X135450562Y-64654071D01*
X135355323Y-64606452D01*
X135307704Y-64558833D01*
X135260085Y-64463595D01*
X135260085Y-64368357D01*
X135307704Y-64273119D01*
X135355323Y-64225500D01*
X135450562Y-64177880D01*
X135688657Y-64177880D01*
X135831514Y-64225500D01*
X136831514Y-65082642D02*
X136783895Y-65130261D01*
X136641038Y-65177880D01*
X136545800Y-65177880D01*
X136402942Y-65130261D01*
X136307704Y-65035023D01*
X136260085Y-64939785D01*
X136212466Y-64749309D01*
X136212466Y-64606452D01*
X136260085Y-64415976D01*
X136307704Y-64320738D01*
X136402942Y-64225500D01*
X136545800Y-64177880D01*
X136641038Y-64177880D01*
X136783895Y-64225500D01*
X136831514Y-64273119D01*
X137736276Y-65177880D02*
X137260085Y-65177880D01*
X137260085Y-64177880D01*
X152384286Y-56605500D02*
X152289048Y-56557880D01*
X152146191Y-56557880D01*
X152003333Y-56605500D01*
X151908095Y-56700738D01*
X151860476Y-56795976D01*
X151812857Y-56986452D01*
X151812857Y-57129309D01*
X151860476Y-57319785D01*
X151908095Y-57415023D01*
X152003333Y-57510261D01*
X152146191Y-57557880D01*
X152241429Y-57557880D01*
X152384286Y-57510261D01*
X152431905Y-57462642D01*
X152431905Y-57129309D01*
X152241429Y-57129309D01*
X152860476Y-57557880D02*
X152860476Y-56557880D01*
X153431905Y-57557880D01*
X153431905Y-56557880D01*
X153908095Y-57557880D02*
X153908095Y-56557880D01*
X154146191Y-56557880D01*
X154289048Y-56605500D01*
X154384286Y-56700738D01*
X154431905Y-56795976D01*
X154479524Y-56986452D01*
X154479524Y-57129309D01*
X154431905Y-57319785D01*
X154384286Y-57415023D01*
X154289048Y-57510261D01*
X154146191Y-57557880D01*
X153908095Y-57557880D01*
X150908095Y-59716928D02*
X151670000Y-59716928D01*
X151289047Y-60097880D02*
X151289047Y-59335976D01*
X152050952Y-59097880D02*
X152670000Y-59097880D01*
X152336666Y-59478833D01*
X152479523Y-59478833D01*
X152574761Y-59526452D01*
X152622380Y-59574071D01*
X152670000Y-59669309D01*
X152670000Y-59907404D01*
X152622380Y-60002642D01*
X152574761Y-60050261D01*
X152479523Y-60097880D01*
X152193809Y-60097880D01*
X152098571Y-60050261D01*
X152050952Y-60002642D01*
X152955714Y-59097880D02*
X153289047Y-60097880D01*
X153622380Y-59097880D01*
X153860476Y-59097880D02*
X154479523Y-59097880D01*
X154146190Y-59478833D01*
X154289047Y-59478833D01*
X154384285Y-59526452D01*
X154431904Y-59574071D01*
X154479523Y-59669309D01*
X154479523Y-59907404D01*
X154431904Y-60002642D01*
X154384285Y-60050261D01*
X154289047Y-60097880D01*
X154003333Y-60097880D01*
X153908095Y-60050261D01*
X153860476Y-60002642D01*
D11*
%TO.C,Y1*%
X157597504Y-110579695D02*
X157597504Y-110817790D01*
X157430838Y-110317790D02*
X157597504Y-110579695D01*
X157764171Y-110317790D01*
X158192742Y-110817790D02*
X157907028Y-110817790D01*
X158049885Y-110817790D02*
X158049885Y-110317790D01*
X158002266Y-110389219D01*
X157954647Y-110436838D01*
X157907028Y-110460647D01*
%TO.C,C8*%
X159327066Y-98019371D02*
X159303257Y-98043180D01*
X159231828Y-98066990D01*
X159184209Y-98066990D01*
X159112780Y-98043180D01*
X159065161Y-97995561D01*
X159041352Y-97947942D01*
X159017542Y-97852704D01*
X159017542Y-97781276D01*
X159041352Y-97686038D01*
X159065161Y-97638419D01*
X159112780Y-97590800D01*
X159184209Y-97566990D01*
X159231828Y-97566990D01*
X159303257Y-97590800D01*
X159327066Y-97614609D01*
X159612780Y-97781276D02*
X159565161Y-97757466D01*
X159541352Y-97733657D01*
X159517542Y-97686038D01*
X159517542Y-97662228D01*
X159541352Y-97614609D01*
X159565161Y-97590800D01*
X159612780Y-97566990D01*
X159708019Y-97566990D01*
X159755638Y-97590800D01*
X159779447Y-97614609D01*
X159803257Y-97662228D01*
X159803257Y-97686038D01*
X159779447Y-97733657D01*
X159755638Y-97757466D01*
X159708019Y-97781276D01*
X159612780Y-97781276D01*
X159565161Y-97805085D01*
X159541352Y-97828895D01*
X159517542Y-97876514D01*
X159517542Y-97971752D01*
X159541352Y-98019371D01*
X159565161Y-98043180D01*
X159612780Y-98066990D01*
X159708019Y-98066990D01*
X159755638Y-98043180D01*
X159779447Y-98019371D01*
X159803257Y-97971752D01*
X159803257Y-97876514D01*
X159779447Y-97828895D01*
X159755638Y-97805085D01*
X159708019Y-97781276D01*
D12*
%TO.C,CN7*%
X144455123Y-47855142D02*
X144407504Y-47902761D01*
X144264647Y-47950380D01*
X144169409Y-47950380D01*
X144026552Y-47902761D01*
X143931314Y-47807523D01*
X143883695Y-47712285D01*
X143836076Y-47521809D01*
X143836076Y-47378952D01*
X143883695Y-47188476D01*
X143931314Y-47093238D01*
X144026552Y-46998000D01*
X144169409Y-46950380D01*
X144264647Y-46950380D01*
X144407504Y-46998000D01*
X144455123Y-47045619D01*
X144883695Y-47950380D02*
X144883695Y-46950380D01*
X145455123Y-47950380D01*
X145455123Y-46950380D01*
X145836076Y-46950380D02*
X146502742Y-46950380D01*
X146074171Y-47950380D01*
D11*
%TO.C,C5*%
X151164571Y-111995733D02*
X151188380Y-112019542D01*
X151212190Y-112090971D01*
X151212190Y-112138590D01*
X151188380Y-112210019D01*
X151140761Y-112257638D01*
X151093142Y-112281447D01*
X150997904Y-112305257D01*
X150926476Y-112305257D01*
X150831238Y-112281447D01*
X150783619Y-112257638D01*
X150736000Y-112210019D01*
X150712190Y-112138590D01*
X150712190Y-112090971D01*
X150736000Y-112019542D01*
X150759809Y-111995733D01*
X150712190Y-111543352D02*
X150712190Y-111781447D01*
X150950285Y-111805257D01*
X150926476Y-111781447D01*
X150902666Y-111733828D01*
X150902666Y-111614780D01*
X150926476Y-111567161D01*
X150950285Y-111543352D01*
X150997904Y-111519542D01*
X151116952Y-111519542D01*
X151164571Y-111543352D01*
X151188380Y-111567161D01*
X151212190Y-111614780D01*
X151212190Y-111733828D01*
X151188380Y-111781447D01*
X151164571Y-111805257D01*
%TO.C,C6*%
X159174171Y-112148133D02*
X159197980Y-112171942D01*
X159221790Y-112243371D01*
X159221790Y-112290990D01*
X159197980Y-112362419D01*
X159150361Y-112410038D01*
X159102742Y-112433847D01*
X159007504Y-112457657D01*
X158936076Y-112457657D01*
X158840838Y-112433847D01*
X158793219Y-112410038D01*
X158745600Y-112362419D01*
X158721790Y-112290990D01*
X158721790Y-112243371D01*
X158745600Y-112171942D01*
X158769409Y-112148133D01*
X158721790Y-111719561D02*
X158721790Y-111814800D01*
X158745600Y-111862419D01*
X158769409Y-111886228D01*
X158840838Y-111933847D01*
X158936076Y-111957657D01*
X159126552Y-111957657D01*
X159174171Y-111933847D01*
X159197980Y-111910038D01*
X159221790Y-111862419D01*
X159221790Y-111767180D01*
X159197980Y-111719561D01*
X159174171Y-111695752D01*
X159126552Y-111671942D01*
X159007504Y-111671942D01*
X158959885Y-111695752D01*
X158936076Y-111719561D01*
X158912266Y-111767180D01*
X158912266Y-111862419D01*
X158936076Y-111910038D01*
X158959885Y-111933847D01*
X159007504Y-111957657D01*
%TO.C,R11*%
X150300571Y-91564590D02*
X150133904Y-91326495D01*
X150014857Y-91564590D02*
X150014857Y-91064590D01*
X150205333Y-91064590D01*
X150252952Y-91088400D01*
X150276761Y-91112209D01*
X150300571Y-91159828D01*
X150300571Y-91231257D01*
X150276761Y-91278876D01*
X150252952Y-91302685D01*
X150205333Y-91326495D01*
X150014857Y-91326495D01*
X150776761Y-91564590D02*
X150491047Y-91564590D01*
X150633904Y-91564590D02*
X150633904Y-91064590D01*
X150586285Y-91136019D01*
X150538666Y-91183638D01*
X150491047Y-91207447D01*
X151252952Y-91564590D02*
X150967238Y-91564590D01*
X151110095Y-91564590D02*
X151110095Y-91064590D01*
X151062476Y-91136019D01*
X151014857Y-91183638D01*
X150967238Y-91207447D01*
D12*
%TO.C,SW1*%
X161613809Y-122224666D02*
X161651904Y-122110380D01*
X161651904Y-121919904D01*
X161613809Y-121843714D01*
X161575714Y-121805619D01*
X161499523Y-121767523D01*
X161423333Y-121767523D01*
X161347142Y-121805619D01*
X161309047Y-121843714D01*
X161270952Y-121919904D01*
X161232857Y-122072285D01*
X161194761Y-122148476D01*
X161156666Y-122186571D01*
X161080476Y-122224666D01*
X161004285Y-122224666D01*
X160928095Y-122186571D01*
X160890000Y-122148476D01*
X160851904Y-122072285D01*
X160851904Y-121881809D01*
X160890000Y-121767523D01*
X160851904Y-121500857D02*
X161651904Y-121310380D01*
X161080476Y-121158000D01*
X161651904Y-121005619D01*
X160851904Y-120815142D01*
X161651904Y-120091333D02*
X161651904Y-120548476D01*
X161651904Y-120319904D02*
X160851904Y-120319904D01*
X160966190Y-120396095D01*
X161042380Y-120472285D01*
X161080476Y-120548476D01*
D11*
%TO.C,R13*%
X140080190Y-118685428D02*
X139842095Y-118852095D01*
X140080190Y-118971142D02*
X139580190Y-118971142D01*
X139580190Y-118780666D01*
X139604000Y-118733047D01*
X139627809Y-118709238D01*
X139675428Y-118685428D01*
X139746857Y-118685428D01*
X139794476Y-118709238D01*
X139818285Y-118733047D01*
X139842095Y-118780666D01*
X139842095Y-118971142D01*
X140080190Y-118209238D02*
X140080190Y-118494952D01*
X140080190Y-118352095D02*
X139580190Y-118352095D01*
X139651619Y-118399714D01*
X139699238Y-118447333D01*
X139723047Y-118494952D01*
X139580190Y-118042571D02*
X139580190Y-117733047D01*
X139770666Y-117899714D01*
X139770666Y-117828285D01*
X139794476Y-117780666D01*
X139818285Y-117756857D01*
X139865904Y-117733047D01*
X139984952Y-117733047D01*
X140032571Y-117756857D01*
X140056380Y-117780666D01*
X140080190Y-117828285D01*
X140080190Y-117971142D01*
X140056380Y-118018761D01*
X140032571Y-118042571D01*
%TO.C,LD2*%
X152212190Y-128095333D02*
X152212190Y-128333428D01*
X151712190Y-128333428D01*
X152212190Y-127928666D02*
X151712190Y-127928666D01*
X151712190Y-127809619D01*
X151736000Y-127738190D01*
X151783619Y-127690571D01*
X151831238Y-127666761D01*
X151926476Y-127642952D01*
X151997904Y-127642952D01*
X152093142Y-127666761D01*
X152140761Y-127690571D01*
X152188380Y-127738190D01*
X152212190Y-127809619D01*
X152212190Y-127928666D01*
X151759809Y-127452476D02*
X151736000Y-127428666D01*
X151712190Y-127381047D01*
X151712190Y-127262000D01*
X151736000Y-127214380D01*
X151759809Y-127190571D01*
X151807428Y-127166761D01*
X151855047Y-127166761D01*
X151926476Y-127190571D01*
X152212190Y-127476285D01*
X152212190Y-127166761D01*
%TO.C,R5*%
X128648590Y-96910133D02*
X128410495Y-97076800D01*
X128648590Y-97195847D02*
X128148590Y-97195847D01*
X128148590Y-97005371D01*
X128172400Y-96957752D01*
X128196209Y-96933942D01*
X128243828Y-96910133D01*
X128315257Y-96910133D01*
X128362876Y-96933942D01*
X128386685Y-96957752D01*
X128410495Y-97005371D01*
X128410495Y-97195847D01*
X128148590Y-96457752D02*
X128148590Y-96695847D01*
X128386685Y-96719657D01*
X128362876Y-96695847D01*
X128339066Y-96648228D01*
X128339066Y-96529180D01*
X128362876Y-96481561D01*
X128386685Y-96457752D01*
X128434304Y-96433942D01*
X128553352Y-96433942D01*
X128600971Y-96457752D01*
X128624780Y-96481561D01*
X128648590Y-96529180D01*
X128648590Y-96648228D01*
X128624780Y-96695847D01*
X128600971Y-96719657D01*
%TO.C,R9*%
X134084190Y-127945692D02*
X133846095Y-128112359D01*
X134084190Y-128231406D02*
X133584190Y-128231406D01*
X133584190Y-128040930D01*
X133608000Y-127993311D01*
X133631809Y-127969501D01*
X133679428Y-127945692D01*
X133750857Y-127945692D01*
X133798476Y-127969501D01*
X133822285Y-127993311D01*
X133846095Y-128040930D01*
X133846095Y-128231406D01*
X134084190Y-127707597D02*
X134084190Y-127612359D01*
X134060380Y-127564739D01*
X134036571Y-127540930D01*
X133965142Y-127493311D01*
X133869904Y-127469501D01*
X133679428Y-127469501D01*
X133631809Y-127493311D01*
X133608000Y-127517120D01*
X133584190Y-127564739D01*
X133584190Y-127659978D01*
X133608000Y-127707597D01*
X133631809Y-127731406D01*
X133679428Y-127755216D01*
X133798476Y-127755216D01*
X133846095Y-127731406D01*
X133869904Y-127707597D01*
X133893714Y-127659978D01*
X133893714Y-127564739D01*
X133869904Y-127517120D01*
X133846095Y-127493311D01*
X133798476Y-127469501D01*
D12*
%TO.C,SW2*%
X137483809Y-122224666D02*
X137521904Y-122110380D01*
X137521904Y-121919904D01*
X137483809Y-121843714D01*
X137445714Y-121805619D01*
X137369523Y-121767523D01*
X137293333Y-121767523D01*
X137217142Y-121805619D01*
X137179047Y-121843714D01*
X137140952Y-121919904D01*
X137102857Y-122072285D01*
X137064761Y-122148476D01*
X137026666Y-122186571D01*
X136950476Y-122224666D01*
X136874285Y-122224666D01*
X136798095Y-122186571D01*
X136760000Y-122148476D01*
X136721904Y-122072285D01*
X136721904Y-121881809D01*
X136760000Y-121767523D01*
X136721904Y-121500857D02*
X137521904Y-121310380D01*
X136950476Y-121158000D01*
X137521904Y-121005619D01*
X136721904Y-120815142D01*
X136798095Y-120548476D02*
X136760000Y-120510380D01*
X136721904Y-120434190D01*
X136721904Y-120243714D01*
X136760000Y-120167523D01*
X136798095Y-120129428D01*
X136874285Y-120091333D01*
X136950476Y-120091333D01*
X137064761Y-120129428D01*
X137521904Y-120586571D01*
X137521904Y-120091333D01*
%TO.C,U1*%
X130810095Y-81933380D02*
X130810095Y-82742904D01*
X130857714Y-82838142D01*
X130905333Y-82885761D01*
X131000571Y-82933380D01*
X131191047Y-82933380D01*
X131286285Y-82885761D01*
X131333904Y-82838142D01*
X131381523Y-82742904D01*
X131381523Y-81933380D01*
X132381523Y-82933380D02*
X131810095Y-82933380D01*
X132095809Y-82933380D02*
X132095809Y-81933380D01*
X132000571Y-82076238D01*
X131905333Y-82171476D01*
X131810095Y-82219095D01*
D11*
%TO.C,C4*%
X131285466Y-110008171D02*
X131261657Y-110031980D01*
X131190228Y-110055790D01*
X131142609Y-110055790D01*
X131071180Y-110031980D01*
X131023561Y-109984361D01*
X130999752Y-109936742D01*
X130975942Y-109841504D01*
X130975942Y-109770076D01*
X130999752Y-109674838D01*
X131023561Y-109627219D01*
X131071180Y-109579600D01*
X131142609Y-109555790D01*
X131190228Y-109555790D01*
X131261657Y-109579600D01*
X131285466Y-109603409D01*
X131714038Y-109722457D02*
X131714038Y-110055790D01*
X131594990Y-109531980D02*
X131475942Y-109889123D01*
X131785466Y-109889123D01*
%TO.C,C3*%
X136416266Y-110160571D02*
X136392457Y-110184380D01*
X136321028Y-110208190D01*
X136273409Y-110208190D01*
X136201980Y-110184380D01*
X136154361Y-110136761D01*
X136130552Y-110089142D01*
X136106742Y-109993904D01*
X136106742Y-109922476D01*
X136130552Y-109827238D01*
X136154361Y-109779619D01*
X136201980Y-109732000D01*
X136273409Y-109708190D01*
X136321028Y-109708190D01*
X136392457Y-109732000D01*
X136416266Y-109755809D01*
X136582933Y-109708190D02*
X136892457Y-109708190D01*
X136725790Y-109898666D01*
X136797219Y-109898666D01*
X136844838Y-109922476D01*
X136868647Y-109946285D01*
X136892457Y-109993904D01*
X136892457Y-110112952D01*
X136868647Y-110160571D01*
X136844838Y-110184380D01*
X136797219Y-110208190D01*
X136654361Y-110208190D01*
X136606742Y-110184380D01*
X136582933Y-110160571D01*
%TO.C,R7*%
X149476590Y-75114933D02*
X149238495Y-75281600D01*
X149476590Y-75400647D02*
X148976590Y-75400647D01*
X148976590Y-75210171D01*
X149000400Y-75162552D01*
X149024209Y-75138742D01*
X149071828Y-75114933D01*
X149143257Y-75114933D01*
X149190876Y-75138742D01*
X149214685Y-75162552D01*
X149238495Y-75210171D01*
X149238495Y-75400647D01*
X148976590Y-74948266D02*
X148976590Y-74614933D01*
X149476590Y-74829219D01*
%TO.C,LD1*%
X137894190Y-128095333D02*
X137894190Y-128333428D01*
X137394190Y-128333428D01*
X137894190Y-127928666D02*
X137394190Y-127928666D01*
X137394190Y-127809619D01*
X137418000Y-127738190D01*
X137465619Y-127690571D01*
X137513238Y-127666761D01*
X137608476Y-127642952D01*
X137679904Y-127642952D01*
X137775142Y-127666761D01*
X137822761Y-127690571D01*
X137870380Y-127738190D01*
X137894190Y-127809619D01*
X137894190Y-127928666D01*
X137894190Y-127166761D02*
X137894190Y-127452476D01*
X137894190Y-127309619D02*
X137394190Y-127309619D01*
X137465619Y-127357238D01*
X137513238Y-127404857D01*
X137537047Y-127452476D01*
D12*
%TO.C,CN4*%
X159939123Y-83465942D02*
X159891504Y-83513561D01*
X159748647Y-83561180D01*
X159653409Y-83561180D01*
X159510552Y-83513561D01*
X159415314Y-83418323D01*
X159367695Y-83323085D01*
X159320076Y-83132609D01*
X159320076Y-82989752D01*
X159367695Y-82799276D01*
X159415314Y-82704038D01*
X159510552Y-82608800D01*
X159653409Y-82561180D01*
X159748647Y-82561180D01*
X159891504Y-82608800D01*
X159939123Y-82656419D01*
X160367695Y-83561180D02*
X160367695Y-82561180D01*
X160939123Y-83561180D01*
X160939123Y-82561180D01*
X161843885Y-82894514D02*
X161843885Y-83561180D01*
X161605790Y-82513561D02*
X161367695Y-83227847D01*
X161986742Y-83227847D01*
D11*
%TO.C,R15*%
X160130371Y-94969790D02*
X159963704Y-94731695D01*
X159844657Y-94969790D02*
X159844657Y-94469790D01*
X160035133Y-94469790D01*
X160082752Y-94493600D01*
X160106561Y-94517409D01*
X160130371Y-94565028D01*
X160130371Y-94636457D01*
X160106561Y-94684076D01*
X160082752Y-94707885D01*
X160035133Y-94731695D01*
X159844657Y-94731695D01*
X160606561Y-94969790D02*
X160320847Y-94969790D01*
X160463704Y-94969790D02*
X160463704Y-94469790D01*
X160416085Y-94541219D01*
X160368466Y-94588838D01*
X160320847Y-94612647D01*
X161058942Y-94469790D02*
X160820847Y-94469790D01*
X160797038Y-94707885D01*
X160820847Y-94684076D01*
X160868466Y-94660266D01*
X160987514Y-94660266D01*
X161035133Y-94684076D01*
X161058942Y-94707885D01*
X161082752Y-94755504D01*
X161082752Y-94874552D01*
X161058942Y-94922171D01*
X161035133Y-94945980D01*
X160987514Y-94969790D01*
X160868466Y-94969790D01*
X160820847Y-94945980D01*
X160797038Y-94922171D01*
D12*
%TO.C,CN6*%
X149963142Y-82326076D02*
X150010761Y-82373695D01*
X150058380Y-82516552D01*
X150058380Y-82611790D01*
X150010761Y-82754647D01*
X149915523Y-82849885D01*
X149820285Y-82897504D01*
X149629809Y-82945123D01*
X149486952Y-82945123D01*
X149296476Y-82897504D01*
X149201238Y-82849885D01*
X149106000Y-82754647D01*
X149058380Y-82611790D01*
X149058380Y-82516552D01*
X149106000Y-82373695D01*
X149153619Y-82326076D01*
X150058380Y-81897504D02*
X149058380Y-81897504D01*
X150058380Y-81326076D01*
X149058380Y-81326076D01*
X149058380Y-80421314D02*
X149058380Y-80611790D01*
X149106000Y-80707028D01*
X149153619Y-80754647D01*
X149296476Y-80849885D01*
X149486952Y-80897504D01*
X149867904Y-80897504D01*
X149963142Y-80849885D01*
X150010761Y-80802266D01*
X150058380Y-80707028D01*
X150058380Y-80516552D01*
X150010761Y-80421314D01*
X149963142Y-80373695D01*
X149867904Y-80326076D01*
X149629809Y-80326076D01*
X149534571Y-80373695D01*
X149486952Y-80421314D01*
X149439333Y-80516552D01*
X149439333Y-80707028D01*
X149486952Y-80802266D01*
X149534571Y-80849885D01*
X149629809Y-80897504D01*
D11*
%TO.C,R1*%
X139235666Y-120114190D02*
X139069000Y-119876095D01*
X138949952Y-120114190D02*
X138949952Y-119614190D01*
X139140428Y-119614190D01*
X139188047Y-119638000D01*
X139211857Y-119661809D01*
X139235666Y-119709428D01*
X139235666Y-119780857D01*
X139211857Y-119828476D01*
X139188047Y-119852285D01*
X139140428Y-119876095D01*
X138949952Y-119876095D01*
X139711857Y-120114190D02*
X139426142Y-120114190D01*
X139569000Y-120114190D02*
X139569000Y-119614190D01*
X139521380Y-119685619D01*
X139473761Y-119733238D01*
X139426142Y-119757047D01*
%TO.C,R10*%
X150300571Y-95476190D02*
X150133904Y-95238095D01*
X150014857Y-95476190D02*
X150014857Y-94976190D01*
X150205333Y-94976190D01*
X150252952Y-95000000D01*
X150276761Y-95023809D01*
X150300571Y-95071428D01*
X150300571Y-95142857D01*
X150276761Y-95190476D01*
X150252952Y-95214285D01*
X150205333Y-95238095D01*
X150014857Y-95238095D01*
X150776761Y-95476190D02*
X150491047Y-95476190D01*
X150633904Y-95476190D02*
X150633904Y-94976190D01*
X150586285Y-95047619D01*
X150538666Y-95095238D01*
X150491047Y-95119047D01*
X151086285Y-94976190D02*
X151133904Y-94976190D01*
X151181523Y-95000000D01*
X151205333Y-95023809D01*
X151229142Y-95071428D01*
X151252952Y-95166666D01*
X151252952Y-95285714D01*
X151229142Y-95380952D01*
X151205333Y-95428571D01*
X151181523Y-95452380D01*
X151133904Y-95476190D01*
X151086285Y-95476190D01*
X151038666Y-95452380D01*
X151014857Y-95428571D01*
X150991047Y-95380952D01*
X150967238Y-95285714D01*
X150967238Y-95166666D01*
X150991047Y-95071428D01*
X151014857Y-95023809D01*
X151038666Y-95000000D01*
X151086285Y-94976190D01*
%TO.C,C9*%
X159936666Y-96038171D02*
X159912857Y-96061980D01*
X159841428Y-96085790D01*
X159793809Y-96085790D01*
X159722380Y-96061980D01*
X159674761Y-96014361D01*
X159650952Y-95966742D01*
X159627142Y-95871504D01*
X159627142Y-95800076D01*
X159650952Y-95704838D01*
X159674761Y-95657219D01*
X159722380Y-95609600D01*
X159793809Y-95585790D01*
X159841428Y-95585790D01*
X159912857Y-95609600D01*
X159936666Y-95633409D01*
X160174761Y-96085790D02*
X160270000Y-96085790D01*
X160317619Y-96061980D01*
X160341428Y-96038171D01*
X160389047Y-95966742D01*
X160412857Y-95871504D01*
X160412857Y-95681028D01*
X160389047Y-95633409D01*
X160365238Y-95609600D01*
X160317619Y-95585790D01*
X160222380Y-95585790D01*
X160174761Y-95609600D01*
X160150952Y-95633409D01*
X160127142Y-95681028D01*
X160127142Y-95800076D01*
X160150952Y-95847695D01*
X160174761Y-95871504D01*
X160222380Y-95895314D01*
X160317619Y-95895314D01*
X160365238Y-95871504D01*
X160389047Y-95847695D01*
X160412857Y-95800076D01*
D14*
%TO.C,C7*%
X160989600Y-99320236D02*
X160989600Y-99104564D01*
X160269600Y-99320236D02*
X160269600Y-99104564D01*
%TO.C,CN5*%
X159248800Y-104749600D02*
X159248800Y-103419600D01*
X159248800Y-103419600D02*
X160578800Y-103419600D01*
X159248800Y-108619600D02*
X161908800Y-108619600D01*
X161908800Y-106019600D02*
X161908800Y-108619600D01*
X159248800Y-106019600D02*
X159248800Y-108619600D01*
X159248800Y-106019600D02*
X161908800Y-106019600D01*
%TO.C,R3*%
X139495800Y-65738441D02*
X139495800Y-65431159D01*
X138735800Y-65738441D02*
X138735800Y-65431159D01*
%TO.C,C1*%
X129798400Y-106724564D02*
X129798400Y-106940236D01*
X129078400Y-106724564D02*
X129078400Y-106940236D01*
%TO.C,R8*%
X150519159Y-73534000D02*
X150826441Y-73534000D01*
X150519159Y-74294000D02*
X150826441Y-74294000D01*
%TO.C,kibuzzard-62924A8F*%
G36*
X135202295Y-130343910D02*
G01*
X135239125Y-130428365D01*
X135202295Y-130512185D01*
X135127365Y-130540125D01*
X134967345Y-130540125D01*
X134967345Y-130315335D01*
X135126095Y-130315335D01*
X135202295Y-130343910D01*
G37*
G36*
X138154691Y-129575041D02*
G01*
X138250377Y-129589235D01*
X138344210Y-129612739D01*
X138435288Y-129645327D01*
X138522733Y-129686686D01*
X138605704Y-129736416D01*
X138683400Y-129794040D01*
X138755074Y-129859001D01*
X138820036Y-129930675D01*
X138877659Y-130008372D01*
X138927390Y-130091342D01*
X138968748Y-130178787D01*
X139001336Y-130269865D01*
X139024840Y-130363698D01*
X139039034Y-130459384D01*
X139043780Y-130556000D01*
X139039034Y-130652616D01*
X139024840Y-130748302D01*
X139001336Y-130842135D01*
X138968748Y-130933213D01*
X138927390Y-131020658D01*
X138877659Y-131103628D01*
X138820036Y-131181325D01*
X138755074Y-131252999D01*
X138683400Y-131317960D01*
X138605704Y-131375584D01*
X138522733Y-131425314D01*
X138435288Y-131466673D01*
X138344210Y-131499261D01*
X138250377Y-131522765D01*
X138154691Y-131536959D01*
X138058075Y-131541705D01*
X134229925Y-131541705D01*
X134133309Y-131536959D01*
X134037623Y-131522765D01*
X133943790Y-131499261D01*
X133852712Y-131466673D01*
X133765267Y-131425314D01*
X133682296Y-131375584D01*
X133604600Y-131317960D01*
X133532926Y-131252999D01*
X133467964Y-131181325D01*
X133410341Y-131103628D01*
X133360610Y-131020658D01*
X133319252Y-130933213D01*
X133309928Y-130907155D01*
X134742555Y-130907155D01*
X134750175Y-130973195D01*
X134783830Y-131008438D01*
X134854315Y-131020185D01*
X134919720Y-131011613D01*
X134953375Y-130985895D01*
X134965440Y-130952240D01*
X134967345Y-130908425D01*
X134967345Y-130764915D01*
X135126095Y-130764915D01*
X135200602Y-130755884D01*
X135273415Y-130728791D01*
X135344535Y-130683635D01*
X135391843Y-130637439D01*
X135429625Y-130577590D01*
X135454390Y-130506946D01*
X135462645Y-130428365D01*
X135454390Y-130349625D01*
X135429625Y-130278505D01*
X135391843Y-130218180D01*
X135349719Y-130176905D01*
X135513445Y-130176905D01*
X135527415Y-130239135D01*
X135772525Y-130943985D01*
X135781415Y-130963035D01*
X135816340Y-131001135D01*
X135883015Y-131020185D01*
X135952865Y-130990975D01*
X135973185Y-130965575D01*
X135984615Y-130943985D01*
X135991168Y-130924579D01*
X136008796Y-130872459D01*
X136037498Y-130787623D01*
X136077274Y-130670071D01*
X136128125Y-130519805D01*
X136276715Y-130957955D01*
X136312910Y-130999230D01*
X136377680Y-131020185D01*
X136442450Y-130999230D01*
X136476105Y-130965575D01*
X136484995Y-130943985D01*
X136497736Y-130907155D01*
X136813925Y-130907155D01*
X136821545Y-130973195D01*
X136855200Y-131008438D01*
X136925685Y-131020185D01*
X136991090Y-131011613D01*
X137024745Y-130985895D01*
X137036810Y-130952240D01*
X137038715Y-130908425D01*
X137038715Y-130764915D01*
X137198735Y-130764915D01*
X137238105Y-130762375D01*
X137287494Y-130879356D01*
X137320514Y-130955979D01*
X137337165Y-130992245D01*
X137360660Y-131017010D01*
X137401300Y-131029075D01*
X137466705Y-131011295D01*
X137525760Y-130974465D01*
X137545445Y-130930015D01*
X137526395Y-130863975D01*
X137490835Y-130783118D01*
X137462048Y-130716655D01*
X137440035Y-130664585D01*
X137492952Y-130597134D01*
X137524702Y-130518394D01*
X137535285Y-130428365D01*
X137527030Y-130349625D01*
X137502265Y-130278505D01*
X137464800Y-130218180D01*
X137418445Y-130171825D01*
X137347466Y-130126669D01*
X137275076Y-130099576D01*
X137201275Y-130090545D01*
X136926955Y-130090545D01*
X136861550Y-130099117D01*
X136827895Y-130124835D01*
X136815830Y-130158490D01*
X136813925Y-130202305D01*
X136813925Y-130907155D01*
X136497736Y-130907155D01*
X136728835Y-130239135D01*
X136744075Y-130176905D01*
X136722803Y-130131185D01*
X136658985Y-130095625D01*
X136599295Y-130082925D01*
X136556750Y-130096260D01*
X136533255Y-130123565D01*
X136516745Y-130166745D01*
X136377045Y-130593465D01*
X136230995Y-130152775D01*
X136195435Y-130111500D01*
X136135110Y-130090545D01*
X136082405Y-130099435D01*
X136042718Y-130128010D01*
X136017635Y-130173095D01*
X135879205Y-130590925D01*
X135739505Y-130166745D01*
X135710930Y-130104515D01*
X135665210Y-130084195D01*
X135598535Y-130096895D01*
X135534718Y-130131502D01*
X135513445Y-130176905D01*
X135349719Y-130176905D01*
X135344535Y-130171825D01*
X135273556Y-130126669D01*
X135201166Y-130099576D01*
X135127365Y-130090545D01*
X134855585Y-130090545D01*
X134790180Y-130099117D01*
X134756525Y-130124835D01*
X134744460Y-130158490D01*
X134742555Y-130202305D01*
X134742555Y-130907155D01*
X133309928Y-130907155D01*
X133286664Y-130842135D01*
X133263160Y-130748302D01*
X133248966Y-130652616D01*
X133244220Y-130556000D01*
X133248966Y-130459384D01*
X133263160Y-130363698D01*
X133286664Y-130269865D01*
X133319252Y-130178787D01*
X133360610Y-130091342D01*
X133410341Y-130008372D01*
X133467964Y-129930675D01*
X133532926Y-129859001D01*
X133604600Y-129794040D01*
X133682296Y-129736416D01*
X133765267Y-129686686D01*
X133852712Y-129645327D01*
X133943790Y-129612739D01*
X134037623Y-129589235D01*
X134133309Y-129575041D01*
X134229925Y-129570295D01*
X138058075Y-129570295D01*
X138154691Y-129575041D01*
G37*
G36*
X137274935Y-130343910D02*
G01*
X137311765Y-130428365D01*
X137274935Y-130512185D01*
X137201275Y-130540125D01*
X137038715Y-130540125D01*
X137038715Y-130315335D01*
X137198735Y-130315335D01*
X137274935Y-130343910D01*
G37*
%TO.C,C2*%
X136165000Y-113430164D02*
X136165000Y-113645836D01*
X136885000Y-113430164D02*
X136885000Y-113645836D01*
%TO.C,U2*%
X135468800Y-112369600D02*
X135468800Y-113169600D01*
X135468800Y-112369600D02*
X135468800Y-111569600D01*
X132348800Y-112369600D02*
X132348800Y-114169600D01*
X132348800Y-112369600D02*
X132348800Y-111569600D01*
%TO.C,R6*%
X150724841Y-69673200D02*
X150417559Y-69673200D01*
X150724841Y-70433200D02*
X150417559Y-70433200D01*
%TO.C,U3*%
X154940000Y-99080000D02*
X151490000Y-99080000D01*
X154940000Y-109200000D02*
X152990000Y-109200000D01*
X154940000Y-99080000D02*
X156890000Y-99080000D01*
X154940000Y-109200000D02*
X156890000Y-109200000D01*
%TO.C,kibuzzard-629258C9*%
G36*
X143030760Y-62520870D02*
G01*
X143030760Y-68463570D01*
X143025729Y-68565975D01*
X143010685Y-68667393D01*
X142985773Y-68766848D01*
X142951233Y-68863383D01*
X142907396Y-68956067D01*
X142854686Y-69044008D01*
X142793611Y-69126359D01*
X142724757Y-69202327D01*
X142648789Y-69271181D01*
X142566438Y-69332256D01*
X142478497Y-69384966D01*
X142385812Y-69428803D01*
X142289278Y-69463343D01*
X142189823Y-69488255D01*
X142088404Y-69503299D01*
X141986000Y-69508330D01*
X141883596Y-69503299D01*
X141782177Y-69488255D01*
X141682722Y-69463343D01*
X141586188Y-69428803D01*
X141493503Y-69384966D01*
X141405562Y-69332256D01*
X141323211Y-69271181D01*
X141247243Y-69202327D01*
X141178389Y-69126359D01*
X141117314Y-69044008D01*
X141064604Y-68956067D01*
X141020767Y-68863383D01*
X140986227Y-68766848D01*
X140961315Y-68667393D01*
X140946271Y-68565975D01*
X140941240Y-68463570D01*
X140941240Y-67856960D01*
X141524990Y-67856960D01*
X141537690Y-67923000D01*
X141565630Y-67944590D01*
X141619605Y-67950940D01*
X141673580Y-67944590D01*
X141703425Y-67919190D01*
X141712950Y-67858230D01*
X141712950Y-67512790D01*
X142342870Y-67512790D01*
X142408910Y-67506440D01*
X142444153Y-67471832D01*
X142455900Y-67401030D01*
X142447328Y-67335625D01*
X142421610Y-67301970D01*
X142387955Y-67289905D01*
X142344140Y-67288000D01*
X141638020Y-67288000D01*
X141573250Y-67295620D01*
X141537055Y-67329275D01*
X141524990Y-67399760D01*
X141524990Y-67856960D01*
X140941240Y-67856960D01*
X140941240Y-66892395D01*
X141512290Y-66892395D01*
X141517370Y-66953831D01*
X141532610Y-67017490D01*
X141565630Y-67103215D01*
X141592300Y-67147030D01*
X141624050Y-67187035D01*
X141668500Y-67204180D01*
X141739620Y-67176240D01*
X141792960Y-67132107D01*
X141810740Y-67091150D01*
X141785340Y-67030190D01*
X141768830Y-67007330D01*
X141748510Y-66957165D01*
X141738350Y-66882870D01*
X141752320Y-66800637D01*
X141794230Y-66721580D01*
X141874240Y-66656810D01*
X141928374Y-66637760D01*
X141989175Y-66631410D01*
X142049976Y-66637760D01*
X142104110Y-66656810D01*
X142182850Y-66720310D01*
X142225713Y-66800955D01*
X142240000Y-66882870D01*
X142229205Y-66962880D01*
X142196820Y-67025110D01*
X142168880Y-67089880D01*
X142186025Y-67131790D01*
X142237460Y-67178780D01*
X142307945Y-67205450D01*
X142368270Y-67172430D01*
X142391130Y-67136870D01*
X142408910Y-67106390D01*
X142446375Y-67013045D01*
X142460186Y-66951926D01*
X142464790Y-66891760D01*
X142457170Y-66808081D01*
X142434310Y-66724684D01*
X142396210Y-66641570D01*
X142356364Y-66579181D01*
X142307945Y-66524095D01*
X142248255Y-66477264D01*
X142174595Y-66439640D01*
X142089346Y-66414875D01*
X141994890Y-66406620D01*
X141899481Y-66415034D01*
X141811375Y-66440275D01*
X141734540Y-66478534D01*
X141672945Y-66526000D01*
X141623097Y-66581404D01*
X141581505Y-66643475D01*
X141549437Y-66707927D01*
X141528165Y-66770475D01*
X141516259Y-66831752D01*
X141512290Y-66892395D01*
X140941240Y-66892395D01*
X140941240Y-66004030D01*
X141512290Y-66004030D01*
X141519769Y-66080371D01*
X141542206Y-66153608D01*
X141579600Y-66223740D01*
X141621034Y-66272000D01*
X141676755Y-66310100D01*
X141744541Y-66334865D01*
X141822170Y-66343120D01*
X141898211Y-66335024D01*
X141961235Y-66310735D01*
X142009336Y-66274381D01*
X142040610Y-66230090D01*
X142061724Y-66179607D01*
X142079345Y-66124680D01*
X142093156Y-66069752D01*
X142102840Y-66019270D01*
X142132050Y-65938625D01*
X142188565Y-65906240D01*
X142243175Y-65933545D01*
X142262860Y-66002125D01*
X142246350Y-66070070D01*
X142229840Y-66089755D01*
X142217140Y-66104360D01*
X142191740Y-66170400D01*
X142207615Y-66215485D01*
X142255240Y-66259300D01*
X142325090Y-66289780D01*
X142387320Y-66250410D01*
X142411450Y-66218660D01*
X142451455Y-66131665D01*
X142466219Y-66065466D01*
X142471140Y-65992600D01*
X142461897Y-65903629D01*
X142434169Y-65828064D01*
X142387955Y-65765905D01*
X142329323Y-65719691D01*
X142264342Y-65691963D01*
X142193010Y-65682720D01*
X142117604Y-65690816D01*
X142053945Y-65715105D01*
X142003939Y-65751459D01*
X141969490Y-65795750D01*
X141944566Y-65845915D01*
X141923135Y-65899890D01*
X141906149Y-65953865D01*
X141894560Y-66004030D01*
X141865985Y-66084675D01*
X141817090Y-66117060D01*
X141763468Y-66103937D01*
X141731294Y-66064567D01*
X141720570Y-65998950D01*
X141740255Y-65937990D01*
X141781530Y-65887190D01*
X141829155Y-65830675D01*
X141845030Y-65788130D01*
X141814550Y-65720820D01*
X141766449Y-65679862D01*
X141728825Y-65666210D01*
X141655800Y-65699230D01*
X141641830Y-65710660D01*
X141603095Y-65747490D01*
X141563090Y-65804640D01*
X141526895Y-65891000D01*
X141515941Y-65945927D01*
X141512290Y-66004030D01*
X140941240Y-66004030D01*
X140941240Y-65120110D01*
X141453870Y-65120110D01*
X141463395Y-65155035D01*
X141483080Y-65174085D01*
X141514830Y-65189960D01*
X142361920Y-65597630D01*
X142425420Y-65615410D01*
X142463203Y-65598265D01*
X142497810Y-65546830D01*
X142518130Y-65482695D01*
X142513050Y-65452850D01*
X142457170Y-65409670D01*
X141602460Y-65000730D01*
X141538960Y-64985490D01*
X141506575Y-65000095D01*
X141472920Y-65056610D01*
X141453870Y-65120110D01*
X140941240Y-65120110D01*
X140941240Y-64615920D01*
X141507210Y-64615920D01*
X141517723Y-64701574D01*
X141549261Y-64777351D01*
X141601825Y-64843250D01*
X141668994Y-64894050D01*
X141744347Y-64924530D01*
X141827885Y-64934690D01*
X141910999Y-64923966D01*
X141985083Y-64891792D01*
X142050135Y-64838170D01*
X142100582Y-64771142D01*
X142130851Y-64698752D01*
X142140940Y-64621000D01*
X142138400Y-64576550D01*
X142234920Y-64589250D01*
X142234920Y-64811500D01*
X142236825Y-64852775D01*
X142248890Y-64883890D01*
X142280323Y-64907702D01*
X142341600Y-64915640D01*
X142408910Y-64907067D01*
X142443200Y-64881350D01*
X142455265Y-64848330D01*
X142457170Y-64803880D01*
X142457170Y-64684500D01*
X142458440Y-64491460D01*
X142446375Y-64440025D01*
X142419070Y-64407005D01*
X142384780Y-64388590D01*
X142358110Y-64379700D01*
X142305405Y-64372397D01*
X142162530Y-64353030D01*
X142017433Y-64333980D01*
X141958060Y-64327630D01*
X141926945Y-64341600D01*
X141888210Y-64400655D01*
X141864080Y-64480665D01*
X141893290Y-64549880D01*
X141916150Y-64610840D01*
X141891385Y-64678785D01*
X141824075Y-64708630D01*
X141757400Y-64681325D01*
X141733270Y-64597505D01*
X141759940Y-64518130D01*
X141800580Y-64433040D01*
X141758670Y-64359380D01*
X141676120Y-64312390D01*
X141599920Y-64360650D01*
X141591030Y-64370810D01*
X141566900Y-64402560D01*
X141533739Y-64468600D01*
X141513842Y-64539720D01*
X141507210Y-64615920D01*
X140941240Y-64615920D01*
X140941240Y-63804390D01*
X141509750Y-63804390D01*
X141518600Y-63897100D01*
X141545151Y-63982190D01*
X141589403Y-64059660D01*
X141651355Y-64129510D01*
X141725888Y-64187295D01*
X141807882Y-64228570D01*
X141897338Y-64253335D01*
X141994255Y-64261590D01*
X142090815Y-64252938D01*
X142179199Y-64226982D01*
X142259407Y-64183723D01*
X142331440Y-64123160D01*
X142390892Y-64050849D01*
X142433358Y-63972347D01*
X142458837Y-63887654D01*
X142467330Y-63796770D01*
X142458440Y-63710410D01*
X142431770Y-63626590D01*
X142389543Y-63548802D01*
X142333980Y-63480540D01*
X142264289Y-63423390D01*
X142179675Y-63378940D01*
X142084266Y-63350365D01*
X141982190Y-63340840D01*
X141889004Y-63349293D01*
X141802485Y-63374654D01*
X141722634Y-63416921D01*
X141649450Y-63476095D01*
X141588331Y-63547334D01*
X141544675Y-63625796D01*
X141518481Y-63711482D01*
X141509750Y-63804390D01*
X140941240Y-63804390D01*
X140941240Y-63145260D01*
X141524990Y-63145260D01*
X141533562Y-63210665D01*
X141559280Y-63244320D01*
X141592300Y-63256385D01*
X141636750Y-63258290D01*
X142342870Y-63258290D01*
X142408910Y-63251940D01*
X142444153Y-63217332D01*
X142455900Y-63146530D01*
X142447328Y-63081125D01*
X142421610Y-63047470D01*
X142387955Y-63035405D01*
X142344140Y-63033500D01*
X141638020Y-63033500D01*
X141573250Y-63041120D01*
X141537055Y-63074775D01*
X141524990Y-63145260D01*
X140941240Y-63145260D01*
X140941240Y-62520870D01*
X143030760Y-62520870D01*
G37*
G36*
X142059166Y-63573673D02*
G01*
X142120338Y-63597803D01*
X142172055Y-63638020D01*
X142224919Y-63714855D01*
X142242540Y-63800580D01*
X142225078Y-63886464D01*
X142172690Y-63963775D01*
X142121043Y-64004344D01*
X142059237Y-64028686D01*
X141987270Y-64036800D01*
X141915444Y-64028757D01*
X141854061Y-64004627D01*
X141803120Y-63964410D01*
X141751685Y-63887575D01*
X141734540Y-63801850D01*
X141752161Y-63715966D01*
X141805025Y-63638655D01*
X141856742Y-63598086D01*
X141917914Y-63573744D01*
X141988540Y-63565630D01*
X142059166Y-63573673D01*
G37*
%TO.C,kibuzzard-6275539F*%
G36*
X131306887Y-116310569D02*
G01*
X131352925Y-116416137D01*
X131306887Y-116520912D01*
X131214812Y-116555837D01*
X131011612Y-116555837D01*
X131011612Y-116274850D01*
X131211637Y-116274850D01*
X131306887Y-116310569D01*
G37*
G36*
X133922294Y-116576475D02*
G01*
X133950075Y-116635213D01*
X133889750Y-116686013D01*
X133689725Y-116686013D01*
X133740525Y-116596319D01*
X133842919Y-116554250D01*
X133922294Y-116576475D01*
G37*
G36*
X135574291Y-115486552D02*
G01*
X135681535Y-115502460D01*
X135786702Y-115528803D01*
X135888781Y-115565328D01*
X135986789Y-115611682D01*
X136079781Y-115667419D01*
X136166862Y-115732003D01*
X136247194Y-115804811D01*
X136320002Y-115885143D01*
X136384586Y-115972224D01*
X136440323Y-116065216D01*
X136486677Y-116163224D01*
X136523202Y-116265303D01*
X136549545Y-116370471D01*
X136565453Y-116477714D01*
X136570773Y-116586000D01*
X136565453Y-116694286D01*
X136549545Y-116801529D01*
X136523202Y-116906697D01*
X136486677Y-117008776D01*
X136440323Y-117106784D01*
X136384586Y-117199776D01*
X136320002Y-117286857D01*
X136247194Y-117367189D01*
X136166862Y-117439997D01*
X136079781Y-117504581D01*
X135986789Y-117560318D01*
X135888781Y-117606672D01*
X135786702Y-117643197D01*
X135681535Y-117669540D01*
X135574291Y-117685448D01*
X135466005Y-117690768D01*
X130217995Y-117690768D01*
X130109709Y-117685448D01*
X130002465Y-117669540D01*
X129897298Y-117643197D01*
X129795218Y-117606672D01*
X129697211Y-117560318D01*
X129604219Y-117504581D01*
X129517138Y-117439997D01*
X129436806Y-117367189D01*
X129363998Y-117286857D01*
X129299414Y-117199776D01*
X129243677Y-117106784D01*
X129200089Y-117014625D01*
X130730625Y-117014625D01*
X130740150Y-117097175D01*
X130782219Y-117141228D01*
X130870325Y-117155913D01*
X130952081Y-117145197D01*
X130994150Y-117113050D01*
X131009231Y-117070981D01*
X131011612Y-117016213D01*
X131011612Y-116836825D01*
X131211637Y-116836825D01*
X131260850Y-116833650D01*
X131322586Y-116979876D01*
X131363861Y-117075656D01*
X131384675Y-117120988D01*
X131414044Y-117151944D01*
X131464844Y-117167025D01*
X131546600Y-117144800D01*
X131620419Y-117098763D01*
X131645025Y-117043200D01*
X131621212Y-116960650D01*
X131576762Y-116859579D01*
X131540779Y-116776500D01*
X131526685Y-116743163D01*
X131708525Y-116743163D01*
X131719637Y-116845644D01*
X131752975Y-116941424D01*
X131808537Y-117030500D01*
X131869458Y-117090627D01*
X131950619Y-117137656D01*
X132048448Y-117168017D01*
X132159375Y-117178138D01*
X132307310Y-117169307D01*
X132412978Y-117142816D01*
X132476379Y-117098663D01*
X132497512Y-117036850D01*
X132493474Y-117022563D01*
X132618162Y-117022563D01*
X132648325Y-117082888D01*
X132743840Y-117132276D01*
X132842000Y-117161910D01*
X132942806Y-117171788D01*
X133039203Y-117166319D01*
X133124134Y-117149915D01*
X133197600Y-117122575D01*
X133284119Y-117036056D01*
X133307336Y-116971961D01*
X133315075Y-116895563D01*
X133307336Y-116819958D01*
X133284119Y-116758244D01*
X133269038Y-116743163D01*
X133394450Y-116743163D01*
X133405562Y-116845644D01*
X133438900Y-116941424D01*
X133494462Y-117030500D01*
X133555383Y-117090627D01*
X133636544Y-117137656D01*
X133734373Y-117168017D01*
X133845300Y-117178138D01*
X133993235Y-117169307D01*
X134098903Y-117142816D01*
X134162304Y-117098663D01*
X134183437Y-117036850D01*
X134162800Y-116963825D01*
X134075487Y-116892388D01*
X134011987Y-116909850D01*
X133994525Y-116916200D01*
X133932216Y-116930488D01*
X133850062Y-116935250D01*
X133745287Y-116905088D01*
X133692900Y-116830475D01*
X134069137Y-116830475D01*
X134176294Y-116783644D01*
X134212608Y-116724113D01*
X134224712Y-116639181D01*
X134211219Y-116545320D01*
X134181160Y-116481225D01*
X134288212Y-116481225D01*
X134311231Y-116573300D01*
X134369175Y-116600288D01*
X134434262Y-116595525D01*
X134434262Y-116830475D01*
X134443787Y-116937543D01*
X134472362Y-117021681D01*
X134519987Y-117082888D01*
X134585957Y-117124339D01*
X134669565Y-117149210D01*
X134770812Y-117157500D01*
X134823994Y-117155119D01*
X134866062Y-117141625D01*
X134899400Y-117099953D01*
X134910512Y-117019388D01*
X134874000Y-116913025D01*
X134831931Y-116897944D01*
X134774781Y-116895563D01*
X134723981Y-116876513D01*
X134710487Y-116814600D01*
X134710487Y-116595525D01*
X134813675Y-116601875D01*
X134868444Y-116599494D01*
X134910512Y-116586000D01*
X134942659Y-116544328D01*
X134953375Y-116463762D01*
X134943056Y-116382403D01*
X134912100Y-116341525D01*
X134870031Y-116326444D01*
X134816056Y-116324062D01*
X134710487Y-116330412D01*
X134710487Y-116174837D01*
X134702550Y-116093875D01*
X134660084Y-116049822D01*
X134573962Y-116035137D01*
X134492603Y-116045059D01*
X134451725Y-116074825D01*
X134436644Y-116112925D01*
X134434262Y-116166900D01*
X134434262Y-116330412D01*
X134381875Y-116324062D01*
X134318375Y-116344700D01*
X134296150Y-116386769D01*
X134288212Y-116481225D01*
X134181160Y-116481225D01*
X134170737Y-116459000D01*
X134111802Y-116390936D01*
X134038181Y-116342319D01*
X133949877Y-116313148D01*
X133846887Y-116303425D01*
X133724915Y-116316742D01*
X133617229Y-116356694D01*
X133523831Y-116423281D01*
X133451953Y-116512093D01*
X133408826Y-116618720D01*
X133394450Y-116743163D01*
X133269038Y-116743163D01*
X133207125Y-116681250D01*
X133107112Y-116641563D01*
X133003925Y-116620925D01*
X132922962Y-116598303D01*
X132895975Y-116559012D01*
X132989637Y-116524087D01*
X133101556Y-116547900D01*
X133172200Y-116571712D01*
X133243637Y-116516150D01*
X133278562Y-116422487D01*
X133223000Y-116358987D01*
X133105525Y-116318506D01*
X132991225Y-116305012D01*
X132867209Y-116315045D01*
X132770753Y-116345144D01*
X132701855Y-116395309D01*
X132660517Y-116465540D01*
X132646737Y-116555837D01*
X132654278Y-116634220D01*
X132676900Y-116701094D01*
X132753100Y-116790788D01*
X132851922Y-116839603D01*
X132951537Y-116865400D01*
X133031309Y-116883656D01*
X133057900Y-116909850D01*
X133033691Y-116938425D01*
X132961062Y-116947950D01*
X132840412Y-116909056D01*
X132734844Y-116870163D01*
X132678487Y-116897150D01*
X132633244Y-116970572D01*
X132618162Y-117022563D01*
X132493474Y-117022563D01*
X132476875Y-116963825D01*
X132389562Y-116892388D01*
X132326062Y-116909850D01*
X132308600Y-116916200D01*
X132246291Y-116930488D01*
X132164137Y-116935250D01*
X132059362Y-116905088D01*
X132006975Y-116830475D01*
X132383212Y-116830475D01*
X132490369Y-116783644D01*
X132526683Y-116724113D01*
X132538787Y-116639181D01*
X132525294Y-116545320D01*
X132484812Y-116459000D01*
X132425877Y-116390936D01*
X132352256Y-116342319D01*
X132263952Y-116313148D01*
X132160962Y-116303425D01*
X132038990Y-116316742D01*
X131931304Y-116356694D01*
X131837906Y-116423281D01*
X131766028Y-116512093D01*
X131722901Y-116618720D01*
X131708525Y-116743163D01*
X131526685Y-116743163D01*
X131513262Y-116711413D01*
X131579408Y-116627099D01*
X131619096Y-116528674D01*
X131632325Y-116416137D01*
X131622006Y-116317712D01*
X131591050Y-116228812D01*
X131544219Y-116153406D01*
X131486275Y-116095462D01*
X131397551Y-116039018D01*
X131307064Y-116005151D01*
X131214812Y-115993862D01*
X130871912Y-115993862D01*
X130790156Y-116004578D01*
X130748087Y-116036725D01*
X130733006Y-116078794D01*
X130730625Y-116133562D01*
X130730625Y-117014625D01*
X129200089Y-117014625D01*
X129197323Y-117008776D01*
X129160798Y-116906697D01*
X129134455Y-116801529D01*
X129118547Y-116694286D01*
X129113227Y-116586000D01*
X129118547Y-116477714D01*
X129134455Y-116370471D01*
X129160798Y-116265303D01*
X129197323Y-116163224D01*
X129243677Y-116065216D01*
X129299414Y-115972224D01*
X129363998Y-115885143D01*
X129436806Y-115804811D01*
X129517138Y-115732003D01*
X129604219Y-115667419D01*
X129697211Y-115611682D01*
X129795218Y-115565328D01*
X129897298Y-115528803D01*
X130002465Y-115502460D01*
X130109709Y-115486552D01*
X130217995Y-115481232D01*
X135466005Y-115481232D01*
X135574291Y-115486552D01*
G37*
G36*
X132236369Y-116576475D02*
G01*
X132264150Y-116635213D01*
X132203825Y-116686013D01*
X132003800Y-116686013D01*
X132054600Y-116596319D01*
X132156994Y-116554250D01*
X132236369Y-116576475D01*
G37*
%TO.C,CN1*%
X140080000Y-131540000D02*
X140080000Y-133440000D01*
X149480000Y-127640000D02*
X149480000Y-129640000D01*
X140080000Y-133440000D02*
X149480000Y-133440000D01*
X140080000Y-127640000D02*
X140080000Y-129640000D01*
X149480000Y-131540000D02*
X149480000Y-133440000D01*
%TO.C,kibuzzard-6292591F*%
G36*
X148981160Y-65160115D02*
G01*
X148963856Y-65250444D01*
X148911945Y-65328390D01*
X148834316Y-65382206D01*
X148739860Y-65400145D01*
X148645721Y-65381730D01*
X148569045Y-65326485D01*
X148518086Y-65248380D01*
X148501100Y-65161385D01*
X148501100Y-65038195D01*
X148981160Y-65038195D01*
X148981160Y-65160115D01*
G37*
G36*
X149730310Y-66234866D02*
G01*
X149716016Y-66331229D01*
X149692345Y-66425728D01*
X149659526Y-66517451D01*
X149617875Y-66605516D01*
X149567792Y-66689074D01*
X149509760Y-66767321D01*
X149444338Y-66839503D01*
X149372156Y-66904925D01*
X149293909Y-66962957D01*
X149210351Y-67013040D01*
X149122286Y-67054691D01*
X149030563Y-67087510D01*
X148936064Y-67111181D01*
X148839701Y-67125475D01*
X148742400Y-67130255D01*
X148645099Y-67125475D01*
X148548736Y-67111181D01*
X148454237Y-67087510D01*
X148362514Y-67054691D01*
X148274449Y-67013040D01*
X148190891Y-66962957D01*
X148112644Y-66904925D01*
X148040462Y-66839503D01*
X147975040Y-66767321D01*
X147917008Y-66689074D01*
X147866925Y-66605516D01*
X147825274Y-66517451D01*
X147792455Y-66425728D01*
X147768784Y-66331229D01*
X147754490Y-66234866D01*
X147749710Y-66137565D01*
X147749710Y-65157575D01*
X148276310Y-65157575D01*
X148284962Y-65251118D01*
X148310917Y-65337439D01*
X148354177Y-65416536D01*
X148414740Y-65488410D01*
X148487408Y-65548140D01*
X148566981Y-65590804D01*
X148653460Y-65616402D01*
X148746845Y-65624935D01*
X148839873Y-65616204D01*
X148925280Y-65590010D01*
X149003068Y-65546354D01*
X149073235Y-65485235D01*
X149131298Y-65412607D01*
X149172771Y-65334422D01*
X149197655Y-65250682D01*
X149205950Y-65161385D01*
X149207220Y-64926435D01*
X149198648Y-64861030D01*
X149172930Y-64827375D01*
X149139910Y-64815310D01*
X149095460Y-64813405D01*
X148389340Y-64813405D01*
X148308060Y-64828645D01*
X148284247Y-64862300D01*
X148276310Y-64925165D01*
X148276310Y-65157575D01*
X147749710Y-65157575D01*
X147749710Y-64598775D01*
X148275040Y-64598775D01*
X148283612Y-64664180D01*
X148309330Y-64697835D01*
X148342350Y-64709900D01*
X148386800Y-64711805D01*
X149091650Y-64711805D01*
X149156420Y-64704185D01*
X149183090Y-64688310D01*
X149198330Y-64655290D01*
X149204680Y-64596870D01*
X149197060Y-64536545D01*
X149167215Y-64500350D01*
X149096730Y-64488285D01*
X148667470Y-64488285D01*
X148713296Y-64453289D01*
X148772880Y-64408416D01*
X148846223Y-64353665D01*
X148933323Y-64289036D01*
X149034183Y-64214529D01*
X149148800Y-64130145D01*
X149181820Y-64100935D01*
X149197695Y-64069820D01*
X149204680Y-64009495D01*
X149197060Y-63947265D01*
X149167215Y-63911070D01*
X149096730Y-63899005D01*
X148388070Y-63899005D01*
X148343620Y-63900910D01*
X148309330Y-63912975D01*
X148283612Y-63945995D01*
X148275040Y-64009495D01*
X148283612Y-64074900D01*
X148309330Y-64108555D01*
X148342350Y-64120620D01*
X148386800Y-64122525D01*
X148804630Y-64122525D01*
X148758346Y-64158014D01*
X148697386Y-64204369D01*
X148621750Y-64261590D01*
X148531439Y-64329676D01*
X148426452Y-64408628D01*
X148306790Y-64498445D01*
X148282660Y-64530195D01*
X148275040Y-64598775D01*
X147749710Y-64598775D01*
X147749710Y-63441805D01*
X148262340Y-63441805D01*
X148269246Y-63541817D01*
X148289962Y-63628495D01*
X148324491Y-63701837D01*
X148372830Y-63761845D01*
X148450300Y-63797405D01*
X148729700Y-63797405D01*
X148800820Y-63784705D01*
X148836380Y-63700885D01*
X148836380Y-63477365D01*
X148824950Y-63416405D01*
X148797010Y-63395450D01*
X148743035Y-63389735D01*
X148689695Y-63394815D01*
X148659850Y-63416405D01*
X148649690Y-63472285D01*
X148649690Y-63572615D01*
X148511260Y-63572615D01*
X148494115Y-63513242D01*
X148488400Y-63446885D01*
X148507609Y-63355445D01*
X148565235Y-63274165D01*
X148620127Y-63231832D01*
X148682357Y-63206432D01*
X148751925Y-63197965D01*
X148851303Y-63216697D01*
X148929725Y-63272895D01*
X148980684Y-63353222D01*
X148997670Y-63444345D01*
X148988939Y-63512925D01*
X148962745Y-63571345D01*
X148927820Y-63648815D01*
X148944648Y-63691677D01*
X148995130Y-63738985D01*
X149066885Y-63768195D01*
X149123400Y-63733905D01*
X149178433Y-63643171D01*
X149211453Y-63548767D01*
X149222460Y-63450695D01*
X149214007Y-63357350D01*
X149188646Y-63270355D01*
X149146379Y-63189710D01*
X149087205Y-63115415D01*
X149015410Y-63053185D01*
X148935281Y-63008735D01*
X148846818Y-62982065D01*
X148750020Y-62973175D01*
X148652746Y-62981906D01*
X148562854Y-63008100D01*
X148480343Y-63051756D01*
X148405215Y-63112875D01*
X148342707Y-63185821D01*
X148298059Y-63264957D01*
X148271270Y-63350286D01*
X148262340Y-63441805D01*
X147749710Y-63441805D01*
X147749710Y-62460545D01*
X149735090Y-62460545D01*
X149735090Y-66137565D01*
X149730310Y-66234866D01*
G37*
%TO.C,R12*%
X151154400Y-118261159D02*
X151154400Y-118568441D01*
X150394400Y-118261159D02*
X150394400Y-118568441D01*
%TO.C,R14*%
X155320000Y-128423641D02*
X155320000Y-128116359D01*
X154560000Y-128423641D02*
X154560000Y-128116359D01*
%TO.C,R2*%
X141377641Y-121538000D02*
X141070359Y-121538000D01*
X141377641Y-120778000D02*
X141070359Y-120778000D01*
%TO.C,R4*%
X139955000Y-65738441D02*
X139955000Y-65431159D01*
X140715000Y-65738441D02*
X140715000Y-65431159D01*
%TO.C,CN3*%
X148588000Y-56262000D02*
X148588000Y-54002000D01*
X149148000Y-60222000D02*
X149428000Y-60222000D01*
X147788000Y-58362000D02*
X142788000Y-58362000D01*
X141148000Y-61822000D02*
X141148000Y-60222000D01*
X149588000Y-56262000D02*
X148588000Y-56262000D01*
X140988000Y-57862000D02*
X140988000Y-56262000D01*
X147788000Y-54002000D02*
X147788000Y-58362000D01*
X141988000Y-56262000D02*
X141988000Y-57862000D01*
X150348000Y-54002000D02*
X140228000Y-54002000D01*
X149428000Y-60222000D02*
X149428000Y-61822000D01*
X140228000Y-61822000D02*
X141148000Y-61822000D01*
X140228000Y-54002000D02*
X140228000Y-61822000D01*
X148588000Y-56262000D02*
X148588000Y-57862000D01*
X148588000Y-57862000D02*
X149588000Y-57862000D01*
X149148000Y-60222000D02*
X149148000Y-61437000D01*
X150348000Y-60222000D02*
X149428000Y-60222000D01*
X142788000Y-58362000D02*
X142788000Y-54002000D01*
X141148000Y-60222000D02*
X141428000Y-60222000D01*
X149088000Y-56262000D02*
X149088000Y-54002000D01*
X150348000Y-61822000D02*
X150348000Y-54002000D01*
X140228000Y-60222000D02*
X141148000Y-60222000D01*
X141988000Y-57862000D02*
X140988000Y-57862000D01*
X140988000Y-56262000D02*
X141988000Y-56262000D01*
X149428000Y-61822000D02*
X150348000Y-61822000D01*
X149588000Y-57862000D02*
X149588000Y-56262000D01*
D15*
%TO.C,CN2*%
X145923000Y-76517500D02*
X145923000Y-78168500D01*
X143637000Y-76517500D02*
X143637000Y-78168500D01*
D16*
X134620000Y-76390500D02*
X132080000Y-76390500D01*
X157480000Y-73850500D02*
X157480000Y-56070500D01*
X158750000Y-78295500D02*
X158750000Y-54800500D01*
D15*
X145923000Y-76517500D02*
X144780000Y-76517500D01*
D16*
X154940000Y-73850500D02*
X154940000Y-76390500D01*
X157480000Y-76390500D02*
X157480000Y-73850500D01*
D15*
X144780000Y-76517500D02*
X144780000Y-74993500D01*
D16*
X130810000Y-78295500D02*
X130810000Y-54800500D01*
X134620000Y-73850500D02*
X132080000Y-73850500D01*
X132080000Y-56070500D02*
X134610000Y-53480500D01*
D15*
X144780000Y-76517500D02*
X143637000Y-76517500D01*
D16*
X134620000Y-73850500D02*
X134620000Y-56070500D01*
X154940000Y-76390500D02*
X157480000Y-76390500D01*
X157480000Y-56070500D02*
X154940000Y-56070500D01*
D15*
X146939000Y-76517500D02*
X145923000Y-76517500D01*
D16*
X132080000Y-76390500D02*
X132080000Y-56070500D01*
X134620000Y-76390500D02*
X134620000Y-73850500D01*
D15*
X142494000Y-76517500D02*
X142494000Y-74993500D01*
D16*
X154940000Y-56070500D02*
X154940000Y-73850500D01*
X134620000Y-56070500D02*
X132080000Y-56070500D01*
D15*
X143637000Y-76517500D02*
X142494000Y-76517500D01*
D16*
X156210000Y-52260500D02*
X133350000Y-52260500D01*
X157480000Y-73850500D02*
X154940000Y-73850500D01*
D15*
X146939000Y-76517500D02*
X146939000Y-74993500D01*
D16*
X156210000Y-80835500D02*
G75*
G03*
X158750000Y-78295500I-1J2540001D01*
G01*
X130810000Y-78295500D02*
G75*
G03*
X133350000Y-80835500I2540001J1D01*
G01*
X133350000Y-52260500D02*
G75*
G03*
X130810000Y-54800500I1J-2540001D01*
G01*
X158750000Y-54800500D02*
G75*
G03*
X156210000Y-52260500I-2540001J-1D01*
G01*
X133350000Y-52260500D02*
G75*
G03*
X130810000Y-54800500I1J-2540001D01*
G01*
D17*
X142722600Y-74993500D02*
G75*
G03*
X142722600Y-74993500I-228600J0D01*
G01*
X146151600Y-78168500D02*
G75*
G03*
X146151600Y-78168500I-228600J0D01*
G01*
X143865600Y-78168500D02*
G75*
G03*
X143865600Y-78168500I-228600J0D01*
G01*
X145008600Y-74993500D02*
G75*
G03*
X145008600Y-74993500I-228600J0D01*
G01*
X147167600Y-74993500D02*
G75*
G03*
X147167600Y-74993500I-228600J0D01*
G01*
D14*
%TO.C,Y1*%
X153041600Y-110262400D02*
X153041600Y-113562400D01*
X153041600Y-113562400D02*
X157041600Y-113562400D01*
%TO.C,C8*%
X159050400Y-99320236D02*
X159050400Y-99104564D01*
X159770400Y-99320236D02*
X159770400Y-99104564D01*
%TO.C,kibuzzard-62924A99*%
G36*
X155761959Y-129568722D02*
G01*
X155858261Y-129583007D01*
X155952699Y-129606662D01*
X156044363Y-129639461D01*
X156132372Y-129681085D01*
X156215877Y-129731136D01*
X156294073Y-129789131D01*
X156366209Y-129854511D01*
X156431589Y-129926647D01*
X156489584Y-130004844D01*
X156539635Y-130088348D01*
X156581260Y-130176357D01*
X156614058Y-130268022D01*
X156637713Y-130362460D01*
X156651998Y-130458762D01*
X156656775Y-130556000D01*
X156651998Y-130653238D01*
X156637713Y-130749540D01*
X156614058Y-130843978D01*
X156581260Y-130935643D01*
X156539635Y-131023652D01*
X156489584Y-131107156D01*
X156431589Y-131185353D01*
X156366209Y-131257489D01*
X156294073Y-131322869D01*
X156215877Y-131380864D01*
X156132372Y-131430915D01*
X156044363Y-131472539D01*
X155952699Y-131505338D01*
X155858261Y-131528993D01*
X155761959Y-131543278D01*
X155664720Y-131548055D01*
X152183280Y-131548055D01*
X152086041Y-131543278D01*
X151989739Y-131528993D01*
X151895301Y-131505338D01*
X151803637Y-131472540D01*
X151715628Y-131430915D01*
X151632124Y-131380864D01*
X151553927Y-131322869D01*
X151481791Y-131257489D01*
X151416411Y-131185353D01*
X151358416Y-131107156D01*
X151308365Y-131023652D01*
X151266740Y-130935643D01*
X151256093Y-130905885D01*
X152695910Y-130905885D01*
X152703530Y-130970655D01*
X152737185Y-131006850D01*
X152807670Y-131018915D01*
X152873075Y-131010343D01*
X152906730Y-130984625D01*
X152918795Y-130951605D01*
X152920700Y-130907155D01*
X152920700Y-130561715D01*
X153003250Y-130561715D01*
X153011704Y-130654901D01*
X153037064Y-130741420D01*
X153079331Y-130821271D01*
X153138505Y-130894455D01*
X153209744Y-130955574D01*
X153288206Y-130999230D01*
X153373892Y-131025424D01*
X153466800Y-131034155D01*
X153559510Y-131025305D01*
X153644600Y-130998754D01*
X153722070Y-130954502D01*
X153791920Y-130892550D01*
X153849705Y-130818017D01*
X153890980Y-130736023D01*
X153915745Y-130646567D01*
X153924000Y-130549650D01*
X153915348Y-130453090D01*
X153895407Y-130385185D01*
X153974800Y-130385185D01*
X154014805Y-130463925D01*
X154091640Y-130508375D01*
X154180540Y-130469005D01*
X154197050Y-130453765D01*
X154197050Y-130907155D01*
X154198955Y-130953510D01*
X154211020Y-130988435D01*
X154244993Y-131013200D01*
X154308810Y-131021455D01*
X154374215Y-131012883D01*
X154407870Y-130987165D01*
X154419935Y-130953510D01*
X154421840Y-130909695D01*
X154421840Y-130655695D01*
X154504390Y-130655695D01*
X154513703Y-130760611D01*
X154541643Y-130851839D01*
X154588210Y-130929380D01*
X154653121Y-130988294D01*
X154736095Y-131023642D01*
X154837130Y-131035425D01*
X154920033Y-131025829D01*
X154994328Y-130997043D01*
X155060015Y-130949065D01*
X155111168Y-130886835D01*
X155141860Y-130815292D01*
X155152090Y-130734435D01*
X155142142Y-130667337D01*
X155112297Y-130604895D01*
X155062555Y-130547110D01*
X154998843Y-130500896D01*
X154927088Y-130473168D01*
X154847290Y-130463925D01*
X154753310Y-130485515D01*
X154759660Y-130467735D01*
X154783155Y-130423285D01*
X154828240Y-130373755D01*
X154905075Y-130330575D01*
X155006040Y-130312795D01*
X155079700Y-130305175D01*
X155105100Y-130288665D01*
X155120340Y-130255645D01*
X155126690Y-130197225D01*
X155119070Y-130136265D01*
X155089225Y-130100070D01*
X155018740Y-130088005D01*
X154927275Y-130094507D01*
X154843886Y-130114015D01*
X154768575Y-130146527D01*
X154701342Y-130192043D01*
X154642185Y-130250565D01*
X154592579Y-130318789D01*
X154553996Y-130393415D01*
X154526437Y-130474441D01*
X154509902Y-130561867D01*
X154504390Y-130655695D01*
X154421840Y-130655695D01*
X154421840Y-130202305D01*
X154415490Y-130134995D01*
X154397710Y-130107690D01*
X154364690Y-130093085D01*
X154304365Y-130086735D01*
X154232610Y-130119755D01*
X154228800Y-130122295D01*
X154020520Y-130310255D01*
X153974800Y-130385185D01*
X153895407Y-130385185D01*
X153889393Y-130364706D01*
X153846133Y-130284498D01*
X153785570Y-130212465D01*
X153713259Y-130153013D01*
X153634758Y-130110547D01*
X153550064Y-130085068D01*
X153459180Y-130076575D01*
X153372820Y-130085465D01*
X153289000Y-130112135D01*
X153211213Y-130154362D01*
X153142950Y-130209925D01*
X153085800Y-130279616D01*
X153041350Y-130364230D01*
X153012775Y-130459639D01*
X153003250Y-130561715D01*
X152920700Y-130561715D01*
X152920700Y-130201035D01*
X152914350Y-130134995D01*
X152879743Y-130099752D01*
X152808940Y-130088005D01*
X152743535Y-130096577D01*
X152709880Y-130122295D01*
X152697815Y-130155950D01*
X152695910Y-130199765D01*
X152695910Y-130905885D01*
X151256093Y-130905885D01*
X151233942Y-130843978D01*
X151210287Y-130749540D01*
X151196002Y-130653238D01*
X151191225Y-130556000D01*
X151196002Y-130458762D01*
X151210287Y-130362460D01*
X151233942Y-130268022D01*
X151266740Y-130176357D01*
X151308365Y-130088348D01*
X151358416Y-130004844D01*
X151416411Y-129926647D01*
X151481791Y-129854511D01*
X151553927Y-129789131D01*
X151632124Y-129731136D01*
X151715628Y-129681085D01*
X151803637Y-129639460D01*
X151895301Y-129606662D01*
X151989739Y-129583007D01*
X152086041Y-129568722D01*
X152183280Y-129563945D01*
X155664720Y-129563945D01*
X155761959Y-129568722D01*
G37*
G36*
X154907615Y-130687445D02*
G01*
X154929840Y-130742055D01*
X154905393Y-130805873D01*
X154832050Y-130827145D01*
X154750770Y-130797935D01*
X154738705Y-130769995D01*
X154735530Y-130733165D01*
X154761565Y-130685540D01*
X154836495Y-130662045D01*
X154907615Y-130687445D01*
G37*
G36*
X153548874Y-130318827D02*
G01*
X153626185Y-130371215D01*
X153666755Y-130422862D01*
X153691096Y-130484668D01*
X153699210Y-130556635D01*
X153691167Y-130628461D01*
X153667037Y-130689844D01*
X153626820Y-130740785D01*
X153549985Y-130792220D01*
X153464260Y-130809365D01*
X153378376Y-130791744D01*
X153301065Y-130738880D01*
X153260496Y-130687163D01*
X153236154Y-130625991D01*
X153228040Y-130555365D01*
X153236083Y-130484739D01*
X153260213Y-130423567D01*
X153300430Y-130371850D01*
X153377265Y-130318986D01*
X153462990Y-130301365D01*
X153548874Y-130318827D01*
G37*
%TO.C,CN7*%
X141437200Y-51317200D02*
X140107200Y-51317200D01*
X142707200Y-48657200D02*
X150387200Y-48657200D01*
X142707200Y-51317200D02*
X142707200Y-48657200D01*
X142707200Y-51317200D02*
X150387200Y-51317200D01*
X150387200Y-51317200D02*
X150387200Y-48657200D01*
X140107200Y-51317200D02*
X140107200Y-49987200D01*
%TO.C,kibuzzard-62925408*%
G36*
X158472783Y-86764045D02*
G01*
X156002262Y-86764045D01*
X155905397Y-86759287D01*
X155809465Y-86745056D01*
X155715390Y-86721492D01*
X155624077Y-86688820D01*
X155536407Y-86647354D01*
X155453223Y-86597496D01*
X155375326Y-86539724D01*
X155303468Y-86474595D01*
X155238339Y-86402736D01*
X155180567Y-86324840D01*
X155130708Y-86241656D01*
X155089243Y-86153985D01*
X155063667Y-86082505D01*
X156514893Y-86082505D01*
X156563153Y-86158705D01*
X156573313Y-86167595D01*
X156605063Y-86191725D01*
X156671103Y-86224886D01*
X156742223Y-86244783D01*
X156818423Y-86251415D01*
X156904077Y-86240902D01*
X156979854Y-86209364D01*
X157045753Y-86156800D01*
X157096553Y-86089631D01*
X157127033Y-86014278D01*
X157137193Y-85930740D01*
X157126468Y-85847626D01*
X157094295Y-85773542D01*
X157040673Y-85708490D01*
X156982457Y-85664675D01*
X157187993Y-85664675D01*
X157213393Y-85733255D01*
X157477553Y-86185375D01*
X157488983Y-86199345D01*
X157523908Y-86226650D01*
X157575978Y-86239985D01*
X157631223Y-86222840D01*
X157671863Y-86184105D01*
X157934753Y-85733255D01*
X157960153Y-85663405D01*
X157943643Y-85620225D01*
X157894113Y-85579585D01*
X157824263Y-85552915D01*
X157783623Y-85563710D01*
X157761398Y-85585300D01*
X157740443Y-85620225D01*
X157574073Y-85940265D01*
X157407703Y-85620225D01*
X157374048Y-85568790D01*
X157330233Y-85551645D01*
X157254033Y-85579585D01*
X157204503Y-85620542D01*
X157187993Y-85664675D01*
X156982457Y-85664675D01*
X156973645Y-85658043D01*
X156901255Y-85627774D01*
X156823503Y-85617685D01*
X156779053Y-85620225D01*
X156791753Y-85523705D01*
X157014003Y-85523705D01*
X157055278Y-85521800D01*
X157086393Y-85509735D01*
X157110205Y-85478302D01*
X157118143Y-85417025D01*
X157109570Y-85349715D01*
X157083853Y-85315425D01*
X157050833Y-85303360D01*
X157006383Y-85301455D01*
X156887003Y-85301455D01*
X156693963Y-85300185D01*
X156642528Y-85312250D01*
X156609508Y-85339555D01*
X156591093Y-85373845D01*
X156582203Y-85400515D01*
X156574900Y-85453220D01*
X156555533Y-85596095D01*
X156536483Y-85741192D01*
X156530133Y-85800565D01*
X156544103Y-85831680D01*
X156603158Y-85870415D01*
X156683168Y-85894545D01*
X156752383Y-85865335D01*
X156813343Y-85842475D01*
X156881288Y-85867240D01*
X156911133Y-85934550D01*
X156883828Y-86001225D01*
X156800008Y-86025355D01*
X156720633Y-85998685D01*
X156635543Y-85958045D01*
X156561883Y-85999955D01*
X156514893Y-86082505D01*
X155063667Y-86082505D01*
X155056571Y-86062672D01*
X155033006Y-85968597D01*
X155018776Y-85872665D01*
X155014017Y-85775800D01*
X155018776Y-85678935D01*
X155033006Y-85583003D01*
X155056571Y-85488928D01*
X155089243Y-85397615D01*
X155130708Y-85309944D01*
X155180567Y-85226760D01*
X155238339Y-85148864D01*
X155303468Y-85077005D01*
X155375326Y-85011876D01*
X155453223Y-84954104D01*
X155536407Y-84904246D01*
X155624077Y-84862780D01*
X155715390Y-84830108D01*
X155809465Y-84806544D01*
X155905397Y-84792313D01*
X156002262Y-84787555D01*
X158472783Y-84787555D01*
X158472783Y-86764045D01*
G37*
%TO.C,C5*%
X151786000Y-112020236D02*
X151786000Y-111804564D01*
X152506000Y-112020236D02*
X152506000Y-111804564D01*
%TO.C,C6*%
X158195600Y-111956964D02*
X158195600Y-112172636D01*
X157475600Y-111956964D02*
X157475600Y-112172636D01*
%TO.C,kibuzzard-629249FD*%
G36*
X139316010Y-50523960D02*
G01*
X133225990Y-50523960D01*
X133225990Y-49879250D01*
X133738620Y-49879250D01*
X133746240Y-49945290D01*
X133779895Y-49980533D01*
X133850380Y-49992280D01*
X133915785Y-49983708D01*
X133949440Y-49957990D01*
X133961505Y-49924335D01*
X133963410Y-49880520D01*
X133963410Y-49621440D01*
X134299960Y-49621440D01*
X134299960Y-49879250D01*
X134307580Y-49945290D01*
X134341235Y-49980533D01*
X134411720Y-49992280D01*
X134477125Y-49983708D01*
X134510780Y-49957990D01*
X134522845Y-49924335D01*
X134524750Y-49880520D01*
X134524750Y-49175670D01*
X134522186Y-49149000D01*
X134594600Y-49149000D01*
X134608570Y-49211230D01*
X134853680Y-49916080D01*
X134862570Y-49935130D01*
X134897495Y-49973230D01*
X134964170Y-49992280D01*
X135034020Y-49963070D01*
X135054340Y-49937670D01*
X135065770Y-49916080D01*
X135072323Y-49896674D01*
X135089951Y-49844554D01*
X135118653Y-49759718D01*
X135158429Y-49642166D01*
X135209280Y-49491900D01*
X135357870Y-49930050D01*
X135394065Y-49971325D01*
X135458835Y-49992280D01*
X135523605Y-49971325D01*
X135557260Y-49937670D01*
X135566150Y-49916080D01*
X135736179Y-49424590D01*
X136184640Y-49424590D01*
X136210040Y-49493170D01*
X136474200Y-49945290D01*
X136485630Y-49959260D01*
X136520555Y-49986565D01*
X136572625Y-49999900D01*
X136627870Y-49982755D01*
X136668510Y-49944020D01*
X136910665Y-49528730D01*
X137007600Y-49528730D01*
X137011692Y-49617771D01*
X137023969Y-49700321D01*
X137044430Y-49776380D01*
X137071894Y-49840198D01*
X137106025Y-49894490D01*
X137150793Y-49940051D01*
X137210165Y-49977675D01*
X137281761Y-50002916D01*
X137363200Y-50011330D01*
X137444321Y-50003075D01*
X137514965Y-49978310D01*
X137573226Y-49940845D01*
X137617200Y-49894490D01*
X137629220Y-49874170D01*
X137779760Y-49874170D01*
X137779760Y-49879250D01*
X137804525Y-49970690D01*
X137842308Y-49988788D01*
X137906125Y-49994820D01*
X137968514Y-49985613D01*
X138002010Y-49957990D01*
X138015345Y-49923065D01*
X138017250Y-49877980D01*
X138017250Y-49872900D01*
X137995660Y-49784000D01*
X137954544Y-49763998D01*
X137889615Y-49757330D01*
X137827226Y-49766855D01*
X137793730Y-49795430D01*
X137781665Y-49829720D01*
X137779760Y-49874170D01*
X137629220Y-49874170D01*
X137660539Y-49821227D01*
X137691495Y-49736058D01*
X137710069Y-49638982D01*
X137716260Y-49530000D01*
X137712027Y-49446039D01*
X137703272Y-49390300D01*
X138080750Y-49390300D01*
X138087100Y-49455070D01*
X138121708Y-49491265D01*
X138192510Y-49503330D01*
X138257280Y-49495710D01*
X138291570Y-49472850D01*
X138303635Y-49441100D01*
X138305540Y-49399190D01*
X138305540Y-49391570D01*
X138310620Y-49362360D01*
X138344275Y-49303305D01*
X138414760Y-49273460D01*
X138478260Y-49284890D01*
X138511915Y-49309655D01*
X138531600Y-49343945D01*
X138540490Y-49376330D01*
X138528584Y-49431892D01*
X138492865Y-49484280D01*
X138440319Y-49532381D01*
X138377930Y-49575085D01*
X138310620Y-49615408D01*
X138243310Y-49656365D01*
X138180921Y-49701768D01*
X138128375Y-49755425D01*
X138092656Y-49815909D01*
X138080750Y-49881790D01*
X138113770Y-49961800D01*
X138192510Y-49996090D01*
X138689080Y-49996090D01*
X138767820Y-49980850D01*
X138795125Y-49947830D01*
X138803380Y-49883695D01*
X138795760Y-49818925D01*
X138765915Y-49782095D01*
X138691620Y-49770030D01*
X138459210Y-49770030D01*
X138459210Y-49763680D01*
X138490960Y-49750980D01*
X138569700Y-49708118D01*
X138658600Y-49637950D01*
X138699875Y-49592230D01*
X138734800Y-49533810D01*
X138758613Y-49467135D01*
X138766550Y-49396650D01*
X138755967Y-49309373D01*
X138724217Y-49228728D01*
X138671300Y-49154715D01*
X138601379Y-49095801D01*
X138518618Y-49060453D01*
X138423015Y-49048670D01*
X138327483Y-49060312D01*
X138244933Y-49095237D01*
X138175365Y-49153445D01*
X138122801Y-49226329D01*
X138091263Y-49305281D01*
X138080750Y-49390300D01*
X137703272Y-49390300D01*
X137699327Y-49365182D01*
X137678160Y-49287430D01*
X137651649Y-49223295D01*
X137617835Y-49168050D01*
X137573385Y-49121377D01*
X137514965Y-49082960D01*
X137444004Y-49057242D01*
X137361930Y-49048670D01*
X137279539Y-49057401D01*
X137207625Y-49083595D01*
X137148411Y-49122647D01*
X137104120Y-49169955D01*
X137069036Y-49231074D01*
X137037445Y-49311560D01*
X137020864Y-49375766D01*
X137010916Y-49448156D01*
X137007600Y-49528730D01*
X136910665Y-49528730D01*
X136931400Y-49493170D01*
X136956800Y-49423320D01*
X136940290Y-49380140D01*
X136890760Y-49339500D01*
X136820910Y-49312830D01*
X136780270Y-49323625D01*
X136758045Y-49345215D01*
X136737090Y-49380140D01*
X136570720Y-49700180D01*
X136404350Y-49380140D01*
X136370695Y-49328705D01*
X136326880Y-49311560D01*
X136250680Y-49339500D01*
X136201150Y-49380457D01*
X136184640Y-49424590D01*
X135736179Y-49424590D01*
X135809990Y-49211230D01*
X135825230Y-49149000D01*
X135803957Y-49103280D01*
X135740140Y-49067720D01*
X135680450Y-49055020D01*
X135637905Y-49068355D01*
X135614410Y-49095660D01*
X135597900Y-49138840D01*
X135458200Y-49565560D01*
X135312150Y-49124870D01*
X135276590Y-49083595D01*
X135216265Y-49062640D01*
X135163560Y-49071530D01*
X135123872Y-49100105D01*
X135098790Y-49145190D01*
X134960360Y-49563020D01*
X134820660Y-49138840D01*
X134792085Y-49076610D01*
X134746365Y-49056290D01*
X134679690Y-49068990D01*
X134615872Y-49103597D01*
X134594600Y-49149000D01*
X134522186Y-49149000D01*
X134518400Y-49109630D01*
X134500620Y-49084230D01*
X134467600Y-49068990D01*
X134409180Y-49062640D01*
X134348220Y-49070260D01*
X134313930Y-49096930D01*
X134301865Y-49130585D01*
X134299960Y-49174400D01*
X134299960Y-49434750D01*
X133963410Y-49434750D01*
X133963410Y-49175670D01*
X133957060Y-49109630D01*
X133922452Y-49074387D01*
X133851650Y-49062640D01*
X133786245Y-49071212D01*
X133752590Y-49096930D01*
X133740525Y-49130585D01*
X133738620Y-49174400D01*
X133738620Y-49879250D01*
X133225990Y-49879250D01*
X133225990Y-48536040D01*
X139316010Y-48536040D01*
X139316010Y-50523960D01*
G37*
G36*
X137418604Y-49289414D02*
G01*
X137459085Y-49337277D01*
X137483374Y-49417049D01*
X137491470Y-49528730D01*
X137491470Y-49536350D01*
X137483294Y-49645253D01*
X137458768Y-49723040D01*
X137417889Y-49769713D01*
X137360660Y-49785270D01*
X137304542Y-49769276D01*
X137264458Y-49721294D01*
X137240407Y-49641323D01*
X137232390Y-49529365D01*
X137240486Y-49417407D01*
X137264775Y-49337436D01*
X137305256Y-49289454D01*
X137361930Y-49273460D01*
X137418604Y-49289414D01*
G37*
%TO.C,R11*%
X150775641Y-92683600D02*
X150468359Y-92683600D01*
X150775641Y-91923600D02*
X150468359Y-91923600D01*
%TO.C,SW1*%
X153615000Y-122458000D02*
X153615000Y-119858000D01*
X160075000Y-122458000D02*
X160075000Y-119858000D01*
X160075000Y-124358000D02*
X160075000Y-124388000D01*
X160075000Y-117928000D02*
X153615000Y-117928000D01*
X160075000Y-117928000D02*
X160075000Y-117958000D01*
X153615000Y-117928000D02*
X153615000Y-117958000D01*
X153615000Y-124388000D02*
X153615000Y-124358000D01*
X160075000Y-124388000D02*
X153615000Y-124388000D01*
%TO.C,R13*%
X139064000Y-118210359D02*
X139064000Y-118517641D01*
X138304000Y-118210359D02*
X138304000Y-118517641D01*
%TO.C,LD2*%
X154151000Y-129247000D02*
X154151000Y-126962000D01*
X152681000Y-129247000D02*
X154151000Y-129247000D01*
X152681000Y-126962000D02*
X152681000Y-129247000D01*
%TO.C,kibuzzard-62755551*%
G36*
X146092069Y-122700256D02*
G01*
X146118263Y-122755819D01*
X146113500Y-122812969D01*
X146037300Y-122846306D01*
X145939669Y-122868531D01*
X145910300Y-122959812D01*
X145938875Y-123051094D01*
X146024600Y-123073319D01*
X146113500Y-123086019D01*
X146142869Y-123117769D01*
X146151600Y-123178094D01*
X146126597Y-123259056D01*
X146051588Y-123286044D01*
X145791238Y-123286044D01*
X145791238Y-122684381D01*
X146013488Y-122684381D01*
X146092069Y-122700256D01*
G37*
G36*
X147054360Y-121878663D02*
G01*
X147162451Y-121894697D01*
X147268449Y-121921248D01*
X147371335Y-121958061D01*
X147470117Y-122004782D01*
X147563845Y-122060959D01*
X147651614Y-122126054D01*
X147732580Y-122199437D01*
X147805964Y-122280404D01*
X147871058Y-122368173D01*
X147927236Y-122461900D01*
X147973957Y-122560682D01*
X148010770Y-122663568D01*
X148037321Y-122769567D01*
X148053355Y-122877658D01*
X148058717Y-122986800D01*
X148053355Y-123095942D01*
X148037321Y-123204033D01*
X148010770Y-123310032D01*
X147973957Y-123412918D01*
X147927236Y-123511700D01*
X147871058Y-123605427D01*
X147805964Y-123693196D01*
X147732580Y-123774163D01*
X147651614Y-123847546D01*
X147563845Y-123912641D01*
X147470117Y-123968818D01*
X147371335Y-124015539D01*
X147268449Y-124052352D01*
X147162451Y-124078903D01*
X147054360Y-124094937D01*
X146945218Y-124100299D01*
X142919582Y-124100299D01*
X142810440Y-124094937D01*
X142702349Y-124078903D01*
X142596351Y-124052352D01*
X142493465Y-124015539D01*
X142394683Y-123968818D01*
X142300955Y-123912641D01*
X142213186Y-123847546D01*
X142132220Y-123774163D01*
X142058836Y-123693196D01*
X141993742Y-123605427D01*
X141937564Y-123511700D01*
X141890843Y-123412918D01*
X141854030Y-123310032D01*
X141827479Y-123204033D01*
X141811445Y-123095942D01*
X141807838Y-123022519D01*
X143432213Y-123022519D01*
X143440249Y-123126103D01*
X143464359Y-123224131D01*
X143504543Y-123316603D01*
X143560800Y-123403519D01*
X143632039Y-123478131D01*
X143721931Y-123536869D01*
X143826706Y-123574969D01*
X143942594Y-123587669D01*
X144058680Y-123575167D01*
X144164050Y-123537663D01*
X144254934Y-123479917D01*
X144327563Y-123406694D01*
X144384514Y-123318588D01*
X144386600Y-123313825D01*
X144560925Y-123313825D01*
X144602200Y-123405106D01*
X144616488Y-123422569D01*
X144662525Y-123470988D01*
X144733963Y-123520994D01*
X144841913Y-123566238D01*
X144910572Y-123579930D01*
X144983200Y-123584494D01*
X145078626Y-123575145D01*
X145170172Y-123547099D01*
X145257838Y-123500356D01*
X145318163Y-123448564D01*
X145334852Y-123424156D01*
X145510250Y-123424156D01*
X145519775Y-123506706D01*
X145561844Y-123551950D01*
X145649950Y-123567031D01*
X146067463Y-123567031D01*
X146162977Y-123555125D01*
X146248438Y-123519406D01*
X146323844Y-123459875D01*
X146382846Y-123382705D01*
X146419094Y-123294069D01*
X146432588Y-123193969D01*
X146422181Y-123104892D01*
X146390960Y-123021813D01*
X146338925Y-122944731D01*
X146384169Y-122853053D01*
X146399250Y-122752644D01*
X146387785Y-122660922D01*
X146353389Y-122578372D01*
X146296063Y-122504994D01*
X146225154Y-122448549D01*
X146143663Y-122414683D01*
X146051588Y-122403394D01*
X145651538Y-122403394D01*
X145569781Y-122414109D01*
X145527713Y-122446256D01*
X145512631Y-122487531D01*
X145510250Y-122543094D01*
X145510250Y-123424156D01*
X145334852Y-123424156D01*
X145365788Y-123378913D01*
X145396744Y-123294180D01*
X145407063Y-123197144D01*
X145396942Y-123102092D01*
X145366581Y-123023313D01*
X145321139Y-122963186D01*
X145265775Y-122924094D01*
X145202672Y-122897702D01*
X145134013Y-122875675D01*
X145065353Y-122858411D01*
X145002250Y-122846306D01*
X144901444Y-122809794D01*
X144860963Y-122739150D01*
X144895094Y-122670887D01*
X144980819Y-122646281D01*
X145065750Y-122666919D01*
X145090356Y-122687556D01*
X145108613Y-122703431D01*
X145191163Y-122735181D01*
X145247519Y-122715337D01*
X145302288Y-122655806D01*
X145340388Y-122568494D01*
X145291175Y-122490706D01*
X145251488Y-122460544D01*
X145142744Y-122410537D01*
X145059995Y-122392083D01*
X144968913Y-122385931D01*
X144857699Y-122397485D01*
X144763243Y-122432145D01*
X144685544Y-122489912D01*
X144627776Y-122563202D01*
X144593116Y-122644429D01*
X144581563Y-122733594D01*
X144591683Y-122827852D01*
X144622044Y-122907425D01*
X144667486Y-122969933D01*
X144722850Y-123012994D01*
X144785556Y-123044148D01*
X144853025Y-123070938D01*
X144920494Y-123092170D01*
X144983200Y-123106656D01*
X145084006Y-123142375D01*
X145124488Y-123203494D01*
X145108083Y-123270522D01*
X145058871Y-123310738D01*
X144976850Y-123324144D01*
X144900650Y-123299538D01*
X144837150Y-123247944D01*
X144766506Y-123188413D01*
X144713325Y-123168569D01*
X144629188Y-123206669D01*
X144577991Y-123266795D01*
X144560925Y-123313825D01*
X144386600Y-123313825D01*
X144425194Y-123225719D01*
X144449602Y-123128088D01*
X144457738Y-123025694D01*
X144457738Y-122546269D01*
X144448213Y-122463719D01*
X144427575Y-122430381D01*
X144386300Y-122411331D01*
X144314069Y-122403394D01*
X144238663Y-122412919D01*
X144192625Y-122447844D01*
X144176750Y-122535156D01*
X144176750Y-123020931D01*
X144162463Y-123126897D01*
X144119600Y-123219369D01*
X144047766Y-123283663D01*
X143946563Y-123305094D01*
X143833850Y-123278106D01*
X143762413Y-123206669D01*
X143726694Y-123116975D01*
X143714788Y-123022519D01*
X143714788Y-122546269D01*
X143695738Y-122446256D01*
X143654463Y-122412919D01*
X143573500Y-122403394D01*
X143492538Y-122412919D01*
X143449675Y-122446256D01*
X143434594Y-122488325D01*
X143432213Y-122544681D01*
X143432213Y-123022519D01*
X141807838Y-123022519D01*
X141806083Y-122986800D01*
X141811445Y-122877658D01*
X141827479Y-122769567D01*
X141854030Y-122663568D01*
X141890843Y-122560682D01*
X141937564Y-122461900D01*
X141993742Y-122368173D01*
X142058836Y-122280404D01*
X142132220Y-122199437D01*
X142213186Y-122126054D01*
X142300955Y-122060959D01*
X142394683Y-122004782D01*
X142493465Y-121958061D01*
X142596351Y-121921248D01*
X142702349Y-121894697D01*
X142810440Y-121878663D01*
X142919582Y-121873301D01*
X146945218Y-121873301D01*
X147054360Y-121878663D01*
G37*
%TO.C,R5*%
X129058400Y-96978441D02*
X129058400Y-96671159D01*
X129818400Y-96978441D02*
X129818400Y-96671159D01*
%TO.C,kibuzzard-627569F9*%
G36*
X154477720Y-78510765D02*
G01*
X154508200Y-78587600D01*
X154475180Y-78663800D01*
X154395170Y-78698090D01*
X154317065Y-78663800D01*
X154285950Y-78588235D01*
X154315795Y-78511400D01*
X154396440Y-78475840D01*
X154477720Y-78510765D01*
G37*
G36*
X153714450Y-78491080D02*
G01*
X153743978Y-78529498D01*
X153753820Y-78583790D01*
X153743343Y-78638400D01*
X153711910Y-78677770D01*
X153628090Y-78709520D01*
X153545540Y-78678405D01*
X153515060Y-78639670D01*
X153504900Y-78585695D01*
X153514743Y-78531561D01*
X153544270Y-78492350D01*
X153629360Y-78460600D01*
X153714450Y-78491080D01*
G37*
G36*
X157639335Y-78336157D02*
G01*
X157644200Y-78435200D01*
X157639335Y-78534243D01*
X157624784Y-78632333D01*
X157600690Y-78728524D01*
X157567283Y-78821890D01*
X157524885Y-78911532D01*
X157473905Y-78996587D01*
X157414834Y-79076235D01*
X157348241Y-79149710D01*
X157274766Y-79216304D01*
X157195117Y-79275375D01*
X157110063Y-79326355D01*
X157020420Y-79368753D01*
X156927054Y-79402160D01*
X156830863Y-79426254D01*
X156732774Y-79440805D01*
X156633730Y-79445670D01*
X150096670Y-79445670D01*
X149997626Y-79440805D01*
X149899537Y-79426254D01*
X149803346Y-79402160D01*
X149709980Y-79368753D01*
X149620338Y-79326355D01*
X149535283Y-79275375D01*
X149455634Y-79216304D01*
X149382160Y-79149710D01*
X149315566Y-79076236D01*
X149256495Y-78996587D01*
X149205515Y-78911532D01*
X149163117Y-78821890D01*
X149157900Y-78807310D01*
X150609300Y-78807310D01*
X150611205Y-78853030D01*
X150623270Y-78886050D01*
X150656925Y-78911768D01*
X150719790Y-78920340D01*
X150784560Y-78911768D01*
X150818850Y-78886050D01*
X150830915Y-78853665D01*
X150832820Y-78809850D01*
X150832820Y-78381860D01*
X150856315Y-78413451D01*
X150914100Y-78492985D01*
X150976648Y-78578551D01*
X151014430Y-78628240D01*
X151024590Y-78642210D01*
X151058245Y-78668245D01*
X151110315Y-78681580D01*
X151163655Y-78666975D01*
X151194770Y-78644115D01*
X151217630Y-78614270D01*
X151245253Y-78576646D01*
X151295100Y-78506955D01*
X151348758Y-78432819D01*
X151387810Y-78381860D01*
X151387810Y-78807310D01*
X151394160Y-78873350D01*
X151411940Y-78898750D01*
X151444960Y-78913990D01*
X151503380Y-78920340D01*
X151564340Y-78912720D01*
X151600535Y-78879383D01*
X151612600Y-78809850D01*
X151714200Y-78809850D01*
X151716105Y-78854300D01*
X151726900Y-78887320D01*
X151760238Y-78913038D01*
X151824690Y-78921610D01*
X151889778Y-78913355D01*
X151922480Y-78888590D01*
X151934545Y-78854935D01*
X151936450Y-78811120D01*
X151936450Y-78809850D01*
X152038050Y-78809850D01*
X152039955Y-78853665D01*
X152050750Y-78887320D01*
X152084088Y-78913038D01*
X152148540Y-78921610D01*
X152213628Y-78913355D01*
X152246330Y-78888590D01*
X152258395Y-78854935D01*
X152260300Y-78811120D01*
X152260300Y-78713330D01*
X152299353Y-78747461D01*
X152353010Y-78799055D01*
X152406033Y-78850331D01*
X152443180Y-78883510D01*
X152455880Y-78892400D01*
X152533350Y-78929230D01*
X152609550Y-78875890D01*
X152624087Y-78845410D01*
X152718770Y-78845410D01*
X152741630Y-78900020D01*
X152829260Y-78921610D01*
X152894030Y-78913355D01*
X152928320Y-78888590D01*
X152940385Y-78854935D01*
X152942290Y-78811120D01*
X152942290Y-78587600D01*
X153280110Y-78587600D01*
X153293604Y-78683961D01*
X153334085Y-78769845D01*
X153394251Y-78840648D01*
X153466800Y-78891765D01*
X153546810Y-78922721D01*
X153629360Y-78933040D01*
X153711751Y-78923356D01*
X153791285Y-78894305D01*
X153863516Y-78844775D01*
X153894298Y-78808580D01*
X154061160Y-78808580D01*
X154063065Y-78852395D01*
X154073860Y-78886050D01*
X154107198Y-78911768D01*
X154171650Y-78920340D01*
X154248485Y-78904783D01*
X154280870Y-78858110D01*
X154342148Y-78903830D01*
X154434540Y-78919070D01*
X154504955Y-78907993D01*
X154572265Y-78874761D01*
X154636470Y-78819375D01*
X154688681Y-78749243D01*
X154720008Y-78671773D01*
X154730450Y-78586965D01*
X154730214Y-78585060D01*
X154813000Y-78585060D01*
X154822384Y-78673466D01*
X154850536Y-78752418D01*
X154897455Y-78821915D01*
X154958627Y-78875890D01*
X155029535Y-78908275D01*
X155110180Y-78919070D01*
X155204160Y-78891130D01*
X155238450Y-78863190D01*
X155261310Y-78837790D01*
X155274010Y-78889860D01*
X155306713Y-78912720D01*
X155369260Y-78920340D01*
X155433078Y-78912085D01*
X155467050Y-78887320D01*
X155479115Y-78854935D01*
X155480963Y-78813660D01*
X155563570Y-78813660D01*
X155587700Y-78861920D01*
X155664112Y-78901431D01*
X155742640Y-78925138D01*
X155823285Y-78933040D01*
X155900402Y-78928666D01*
X155968347Y-78915542D01*
X156027120Y-78893670D01*
X156096335Y-78824455D01*
X156114909Y-78773179D01*
X156121100Y-78712060D01*
X156114909Y-78651576D01*
X156096335Y-78602205D01*
X156034740Y-78540610D01*
X155954730Y-78508860D01*
X155872180Y-78492350D01*
X155807410Y-78474253D01*
X155785820Y-78442820D01*
X155860750Y-78414880D01*
X155950285Y-78433930D01*
X156006800Y-78452980D01*
X156063950Y-78408530D01*
X156091890Y-78333600D01*
X156047440Y-78282800D01*
X155953460Y-78250415D01*
X155862020Y-78239620D01*
X155762808Y-78247646D01*
X155685642Y-78271726D01*
X155630524Y-78311858D01*
X155597454Y-78368042D01*
X155586430Y-78440280D01*
X155592463Y-78502986D01*
X155610560Y-78556485D01*
X155671520Y-78628240D01*
X155750578Y-78667293D01*
X155830270Y-78687930D01*
X155894088Y-78702535D01*
X155915360Y-78723490D01*
X155895993Y-78746350D01*
X155837890Y-78753970D01*
X155741370Y-78722855D01*
X155656915Y-78691740D01*
X155611830Y-78713330D01*
X155575635Y-78772068D01*
X155563570Y-78813660D01*
X155480963Y-78813660D01*
X155481020Y-78812390D01*
X155481020Y-78362810D01*
X155479115Y-78318995D01*
X155468320Y-78285340D01*
X155434983Y-78259622D01*
X155370530Y-78251050D01*
X155305443Y-78259305D01*
X155272740Y-78284070D01*
X155260675Y-78317725D01*
X155258770Y-78361540D01*
X155258770Y-78586330D01*
X155227655Y-78666340D01*
X155146375Y-78696820D01*
X155066365Y-78667610D01*
X155036520Y-78586330D01*
X155036520Y-78364080D01*
X155028900Y-78299310D01*
X154995245Y-78263115D01*
X154924760Y-78251050D01*
X154859355Y-78259622D01*
X154825700Y-78285340D01*
X154814905Y-78318360D01*
X154813000Y-78362810D01*
X154813000Y-78585060D01*
X154730214Y-78585060D01*
X154719937Y-78502087D01*
X154688399Y-78424405D01*
X154635835Y-78353920D01*
X154570712Y-78298181D01*
X154501497Y-78264738D01*
X154428190Y-78253590D01*
X154345005Y-78269147D01*
X154283410Y-78315820D01*
X154283410Y-78051660D01*
X154281505Y-78007845D01*
X154269440Y-77974190D01*
X154237055Y-77948472D01*
X154172920Y-77939900D01*
X154107515Y-77948472D01*
X154073860Y-77974190D01*
X154063065Y-78006575D01*
X154061160Y-78050390D01*
X154061160Y-78808580D01*
X153894298Y-78808580D01*
X153924000Y-78773655D01*
X153964958Y-78685866D01*
X153978610Y-78586330D01*
X153966898Y-78490727D01*
X153931761Y-78407119D01*
X153873200Y-78335505D01*
X153799399Y-78280824D01*
X153718542Y-78248016D01*
X153630630Y-78237080D01*
X153542577Y-78248087D01*
X153461297Y-78281107D01*
X153386790Y-78336140D01*
X153327523Y-78408107D01*
X153291963Y-78491927D01*
X153280110Y-78587600D01*
X152942290Y-78587600D01*
X152942290Y-78544420D01*
X152972135Y-78486000D01*
X153036270Y-78461870D01*
X153091515Y-78472030D01*
X153135330Y-78482190D01*
X153205180Y-78433930D01*
X153229310Y-78345030D01*
X153213435Y-78285975D01*
X153173430Y-78259940D01*
X153128980Y-78249145D01*
X153078815Y-78245970D01*
X153009600Y-78267560D01*
X152958165Y-78301850D01*
X152939750Y-78323440D01*
X152925780Y-78281530D01*
X152892443Y-78259622D01*
X152830530Y-78252320D01*
X152765125Y-78260892D01*
X152731470Y-78286610D01*
X152720675Y-78318995D01*
X152718770Y-78362810D01*
X152718770Y-78845410D01*
X152624087Y-78845410D01*
X152648920Y-78793340D01*
X152640665Y-78766670D01*
X152600660Y-78726030D01*
X152431750Y-78586330D01*
X152557480Y-78479650D01*
X152604470Y-78411070D01*
X152563195Y-78330425D01*
X152490170Y-78278990D01*
X152413970Y-78313280D01*
X152398730Y-78323440D01*
X152260300Y-78452980D01*
X152260300Y-78050390D01*
X152259030Y-78014830D01*
X152236170Y-77958950D01*
X152149810Y-77937360D01*
X152084405Y-77945932D01*
X152050750Y-77971650D01*
X152039955Y-78005305D01*
X152038050Y-78049120D01*
X152038050Y-78809850D01*
X151936450Y-78809850D01*
X151936450Y-78366620D01*
X151935180Y-78329790D01*
X151912320Y-78275180D01*
X151825960Y-78253590D01*
X151760555Y-78261845D01*
X151726900Y-78286610D01*
X151716105Y-78320265D01*
X151714200Y-78364080D01*
X151714200Y-78809850D01*
X151612600Y-78809850D01*
X151612600Y-78105000D01*
X151610695Y-78060550D01*
X151607120Y-78050390D01*
X151714200Y-78050390D01*
X151716105Y-78094205D01*
X151727535Y-78127860D01*
X151761190Y-78154530D01*
X151825325Y-78162150D01*
X151889460Y-78154530D01*
X151923115Y-78128495D01*
X151934545Y-78095475D01*
X151936450Y-78051660D01*
X151934545Y-78007845D01*
X151922480Y-77974190D01*
X151890095Y-77948472D01*
X151825960Y-77939900D01*
X151760555Y-77948472D01*
X151726900Y-77974190D01*
X151716105Y-78006575D01*
X151714200Y-78050390D01*
X151607120Y-78050390D01*
X151598630Y-78026260D01*
X151565134Y-78000542D01*
X151500205Y-77991970D01*
X151434324Y-78000542D01*
X151397970Y-78026260D01*
X151363274Y-78070608D01*
X151317096Y-78130502D01*
X151259438Y-78205940D01*
X151190300Y-78296922D01*
X151109680Y-78403450D01*
X150821390Y-78024990D01*
X150813770Y-78017370D01*
X150781385Y-78000225D01*
X150722330Y-77991970D01*
X150657560Y-78000225D01*
X150623270Y-78024990D01*
X150611205Y-78058645D01*
X150609300Y-78102460D01*
X150609300Y-78807310D01*
X149157900Y-78807310D01*
X149129710Y-78728524D01*
X149105616Y-78632333D01*
X149091065Y-78534243D01*
X149086200Y-78435200D01*
X149091065Y-78336157D01*
X149105616Y-78238067D01*
X149129710Y-78141876D01*
X149163117Y-78048510D01*
X149205515Y-77958868D01*
X149256495Y-77873813D01*
X149315566Y-77794164D01*
X149382160Y-77720690D01*
X149455634Y-77654096D01*
X149535283Y-77595025D01*
X149620338Y-77544045D01*
X149709980Y-77501647D01*
X149803346Y-77468240D01*
X149899537Y-77444146D01*
X149997626Y-77429595D01*
X150096670Y-77424730D01*
X156633730Y-77424730D01*
X156732774Y-77429595D01*
X156830863Y-77444146D01*
X156927054Y-77468240D01*
X157020420Y-77501647D01*
X157110063Y-77544045D01*
X157195117Y-77595025D01*
X157274766Y-77654096D01*
X157348241Y-77720690D01*
X157414834Y-77794165D01*
X157473905Y-77873813D01*
X157524885Y-77958868D01*
X157567283Y-78048510D01*
X157600690Y-78141876D01*
X157624784Y-78238067D01*
X157639335Y-78336157D01*
G37*
%TO.C,R9*%
X135254000Y-128169641D02*
X135254000Y-127862359D01*
X134494000Y-128169641D02*
X134494000Y-127862359D01*
%TO.C,SW2*%
X129485000Y-124388000D02*
X129485000Y-124358000D01*
X129485000Y-122458000D02*
X129485000Y-119858000D01*
X135945000Y-117928000D02*
X135945000Y-117958000D01*
X135945000Y-117928000D02*
X129485000Y-117928000D01*
X135945000Y-122458000D02*
X135945000Y-119858000D01*
X129485000Y-117928000D02*
X129485000Y-117958000D01*
X135945000Y-124358000D02*
X135945000Y-124388000D01*
X135945000Y-124388000D02*
X129485000Y-124388000D01*
%TO.C,kibuzzard-62925915*%
G36*
X147521142Y-65901871D02*
G01*
X147506839Y-65998296D01*
X147483153Y-66092855D01*
X147450313Y-66184637D01*
X147408635Y-66272758D01*
X147358520Y-66356370D01*
X147300451Y-66434666D01*
X147234987Y-66506895D01*
X147162759Y-66572358D01*
X147084462Y-66630427D01*
X147000850Y-66680542D01*
X146912729Y-66722220D01*
X146820947Y-66755061D01*
X146726388Y-66778746D01*
X146629963Y-66793050D01*
X146532600Y-66797833D01*
X146435237Y-66793050D01*
X146338812Y-66778746D01*
X146244253Y-66755061D01*
X146152471Y-66722220D01*
X146064350Y-66680542D01*
X145980738Y-66630427D01*
X145902441Y-66572358D01*
X145830213Y-66506895D01*
X145764749Y-66434666D01*
X145706680Y-66356370D01*
X145656565Y-66272758D01*
X145614887Y-66184637D01*
X145582047Y-66092855D01*
X145558361Y-65998296D01*
X145544058Y-65901871D01*
X145539275Y-65804508D01*
X145539275Y-64935007D01*
X146051905Y-64935007D01*
X146061712Y-65031669D01*
X146091134Y-65116759D01*
X146140170Y-65190277D01*
X146204305Y-65246722D01*
X146279023Y-65280589D01*
X146364325Y-65291877D01*
X146429095Y-65281400D01*
X146486245Y-65249967D01*
X146527520Y-65209962D01*
X146554825Y-65172497D01*
X146563715Y-65172497D01*
X146603579Y-65227531D01*
X146657131Y-65260551D01*
X146724370Y-65271557D01*
X146795984Y-65261539D01*
X146862659Y-65231482D01*
X146924395Y-65181387D01*
X146973784Y-65113936D01*
X147003417Y-65031810D01*
X147013295Y-64935007D01*
X147008850Y-64871984D01*
X146995515Y-64814992D01*
X146956145Y-64731172D01*
X146905980Y-64678467D01*
X146865975Y-64650527D01*
X146779615Y-64621317D01*
X146734213Y-64637192D01*
X146694525Y-64684817D01*
X146671665Y-64754667D01*
X146687540Y-64802927D01*
X146735165Y-64838487D01*
X146750405Y-64846107D01*
X146780885Y-64879127D01*
X146796125Y-64950882D01*
X146771995Y-65021367D01*
X146721195Y-65046767D01*
X146684048Y-65022637D01*
X146671665Y-64950247D01*
X146665315Y-64884207D01*
X146630708Y-64848965D01*
X146559905Y-64837217D01*
X146494817Y-64845790D01*
X146462115Y-64871507D01*
X146449415Y-64904527D01*
X146446875Y-64962312D01*
X146420840Y-65035972D01*
X146360515Y-65067087D01*
X146298920Y-65035337D01*
X146278441Y-64994697D01*
X146271615Y-64936277D01*
X146279235Y-64882937D01*
X146340195Y-64813087D01*
X146406235Y-64774987D01*
X146418935Y-64707677D01*
X146400520Y-64614332D01*
X146345275Y-64583217D01*
X146276695Y-64597187D01*
X146263995Y-64599727D01*
X146230975Y-64613697D01*
X146180492Y-64645130D01*
X146140805Y-64681007D01*
X146091416Y-64754385D01*
X146061783Y-64839052D01*
X146051905Y-64935007D01*
X145539275Y-64935007D01*
X145539275Y-64148242D01*
X146062065Y-64148242D01*
X146079210Y-64203487D01*
X146117945Y-64244127D01*
X146568795Y-64507017D01*
X146638645Y-64532417D01*
X146681825Y-64515907D01*
X146722465Y-64466377D01*
X146749135Y-64396527D01*
X146738340Y-64355887D01*
X146716750Y-64333662D01*
X146681825Y-64312707D01*
X146361785Y-64146337D01*
X146681825Y-63979967D01*
X146733260Y-63946312D01*
X146750405Y-63902497D01*
X146722465Y-63826297D01*
X146681508Y-63776767D01*
X146637375Y-63760257D01*
X146568795Y-63785657D01*
X146116675Y-64049817D01*
X146102705Y-64061247D01*
X146075400Y-64096172D01*
X146062065Y-64148242D01*
X145539275Y-64148242D01*
X145539275Y-63352587D01*
X146051905Y-63352587D01*
X146061712Y-63449249D01*
X146091134Y-63534339D01*
X146140170Y-63607857D01*
X146204305Y-63664302D01*
X146279023Y-63698169D01*
X146364325Y-63709457D01*
X146429095Y-63698980D01*
X146486245Y-63667547D01*
X146527520Y-63627542D01*
X146554825Y-63590077D01*
X146563715Y-63590077D01*
X146603579Y-63645111D01*
X146657131Y-63678131D01*
X146724370Y-63689137D01*
X146795984Y-63679119D01*
X146862659Y-63649062D01*
X146924395Y-63598967D01*
X146973784Y-63531516D01*
X147003417Y-63449390D01*
X147013295Y-63352587D01*
X147008850Y-63289564D01*
X146995515Y-63232572D01*
X146956145Y-63148752D01*
X146905980Y-63096047D01*
X146865975Y-63068107D01*
X146779615Y-63038897D01*
X146734213Y-63054772D01*
X146694525Y-63102397D01*
X146671665Y-63172247D01*
X146687540Y-63220507D01*
X146735165Y-63256067D01*
X146750405Y-63263687D01*
X146780885Y-63296707D01*
X146796125Y-63368462D01*
X146771995Y-63438947D01*
X146721195Y-63464347D01*
X146684048Y-63440217D01*
X146671665Y-63367827D01*
X146665315Y-63301787D01*
X146630708Y-63266545D01*
X146559905Y-63254797D01*
X146494817Y-63263370D01*
X146462115Y-63289087D01*
X146449415Y-63322107D01*
X146446875Y-63379892D01*
X146420840Y-63453552D01*
X146360515Y-63484667D01*
X146298920Y-63452917D01*
X146278441Y-63412277D01*
X146271615Y-63353857D01*
X146279235Y-63300517D01*
X146340195Y-63230667D01*
X146406235Y-63192567D01*
X146418935Y-63125257D01*
X146400520Y-63031912D01*
X146345275Y-63000797D01*
X146276695Y-63014767D01*
X146263995Y-63017307D01*
X146230975Y-63031277D01*
X146180492Y-63062710D01*
X146140805Y-63098587D01*
X146091416Y-63171965D01*
X146061783Y-63256632D01*
X146051905Y-63352587D01*
X145539275Y-63352587D01*
X145539275Y-62488167D01*
X147525925Y-62488167D01*
X147525925Y-65804508D01*
X147521142Y-65901871D01*
G37*
%TO.C,U1*%
X133700000Y-107936000D02*
X131580000Y-107936000D01*
X131580000Y-107936000D02*
X131580000Y-107316000D01*
X131580000Y-83696000D02*
X147820000Y-83696000D01*
X147820000Y-107316000D02*
X147820000Y-107936000D01*
X131580000Y-91316000D02*
X130970000Y-91316000D01*
X131580000Y-91316000D02*
X131580000Y-83696000D01*
X147820000Y-107936000D02*
X145700000Y-107936000D01*
X147820000Y-83696000D02*
X147820000Y-91316000D01*
%TO.C,C4*%
X131008800Y-111093364D02*
X131008800Y-111309036D01*
X131728800Y-111093364D02*
X131728800Y-111309036D01*
%TO.C,C3*%
X136910400Y-111245764D02*
X136910400Y-111461436D01*
X136190400Y-111245764D02*
X136190400Y-111461436D01*
%TO.C,R7*%
X150826441Y-74702400D02*
X150519159Y-74702400D01*
X150826441Y-75462400D02*
X150519159Y-75462400D01*
%TO.C,kibuzzard-6292541E*%
G36*
X157632334Y-90939144D02*
G01*
X157710280Y-90991055D01*
X157764096Y-91068684D01*
X157782035Y-91163140D01*
X157763620Y-91257279D01*
X157708375Y-91333955D01*
X157630270Y-91384914D01*
X157543275Y-91401900D01*
X157420085Y-91401900D01*
X157420085Y-90921840D01*
X157542005Y-90921840D01*
X157632334Y-90939144D01*
G37*
G36*
X158519455Y-92153290D02*
G01*
X154842435Y-92153290D01*
X154745134Y-92148510D01*
X154648771Y-92134216D01*
X154554272Y-92110545D01*
X154462549Y-92077726D01*
X154374484Y-92036075D01*
X154290926Y-91985992D01*
X154212679Y-91927960D01*
X154140497Y-91862538D01*
X154075075Y-91790356D01*
X154017043Y-91712109D01*
X153966960Y-91628551D01*
X153925309Y-91540486D01*
X153892490Y-91448763D01*
X153868819Y-91354264D01*
X153854525Y-91257901D01*
X153849745Y-91160600D01*
X153850119Y-91152980D01*
X155355065Y-91152980D01*
X155363796Y-91250254D01*
X155389990Y-91340146D01*
X155433646Y-91422657D01*
X155494765Y-91497785D01*
X155567711Y-91560293D01*
X155646848Y-91604941D01*
X155732176Y-91631730D01*
X155823695Y-91640660D01*
X155923708Y-91633754D01*
X156010385Y-91613038D01*
X156083728Y-91578509D01*
X156143735Y-91530170D01*
X156150730Y-91514930D01*
X156280895Y-91514930D01*
X156282800Y-91559380D01*
X156294865Y-91593670D01*
X156327885Y-91619388D01*
X156391385Y-91627960D01*
X156456790Y-91619388D01*
X156490445Y-91593670D01*
X156502510Y-91560650D01*
X156504415Y-91516200D01*
X156504415Y-91098370D01*
X156539905Y-91144654D01*
X156586260Y-91205614D01*
X156643480Y-91281250D01*
X156711566Y-91371561D01*
X156790518Y-91476548D01*
X156880335Y-91596210D01*
X156912085Y-91620340D01*
X156980665Y-91627960D01*
X157046070Y-91619388D01*
X157079725Y-91593670D01*
X157091790Y-91560650D01*
X157093695Y-91516200D01*
X157093695Y-91513660D01*
X157195295Y-91513660D01*
X157210535Y-91594940D01*
X157244190Y-91618753D01*
X157307055Y-91626690D01*
X157539465Y-91626690D01*
X157633009Y-91618038D01*
X157719329Y-91592083D01*
X157798426Y-91548823D01*
X157870300Y-91488260D01*
X157930030Y-91415592D01*
X157972694Y-91336019D01*
X157998292Y-91249540D01*
X158006825Y-91156155D01*
X157998094Y-91063127D01*
X157971900Y-90977720D01*
X157928244Y-90899932D01*
X157867125Y-90829765D01*
X157794497Y-90771702D01*
X157716313Y-90730229D01*
X157632572Y-90705345D01*
X157543275Y-90697050D01*
X157308325Y-90695780D01*
X157242920Y-90704352D01*
X157209265Y-90730070D01*
X157197200Y-90763090D01*
X157195295Y-90807540D01*
X157195295Y-91513660D01*
X157093695Y-91513660D01*
X157093695Y-90811350D01*
X157086075Y-90746580D01*
X157070200Y-90719910D01*
X157037180Y-90704670D01*
X156978760Y-90698320D01*
X156918435Y-90705940D01*
X156882240Y-90735785D01*
X156870175Y-90806270D01*
X156870175Y-91235530D01*
X156835180Y-91189704D01*
X156790306Y-91130120D01*
X156735555Y-91056777D01*
X156670926Y-90969677D01*
X156596420Y-90868817D01*
X156512035Y-90754200D01*
X156482825Y-90721180D01*
X156451710Y-90705305D01*
X156391385Y-90698320D01*
X156329155Y-90705940D01*
X156292960Y-90735785D01*
X156280895Y-90806270D01*
X156280895Y-91514930D01*
X156150730Y-91514930D01*
X156179295Y-91452700D01*
X156179295Y-91173300D01*
X156166595Y-91102180D01*
X156082775Y-91066620D01*
X155859255Y-91066620D01*
X155798295Y-91078050D01*
X155777340Y-91105990D01*
X155771625Y-91159965D01*
X155776705Y-91213305D01*
X155798295Y-91243150D01*
X155854175Y-91253310D01*
X155954505Y-91253310D01*
X155954505Y-91391740D01*
X155895133Y-91408885D01*
X155828775Y-91414600D01*
X155737335Y-91395391D01*
X155656055Y-91337765D01*
X155613722Y-91282873D01*
X155588322Y-91220643D01*
X155579855Y-91151075D01*
X155598588Y-91051697D01*
X155654785Y-90973275D01*
X155735113Y-90922316D01*
X155826235Y-90905330D01*
X155894815Y-90914061D01*
X155953235Y-90940255D01*
X156030705Y-90975180D01*
X156073568Y-90958352D01*
X156120875Y-90907870D01*
X156150085Y-90836115D01*
X156115795Y-90779600D01*
X156025061Y-90724567D01*
X155930657Y-90691547D01*
X155832585Y-90680540D01*
X155739240Y-90688993D01*
X155652245Y-90714354D01*
X155571600Y-90756621D01*
X155497305Y-90815795D01*
X155435075Y-90887590D01*
X155390625Y-90967719D01*
X155363955Y-91056182D01*
X155355065Y-91152980D01*
X153850119Y-91152980D01*
X153854525Y-91063299D01*
X153868819Y-90966936D01*
X153892490Y-90872437D01*
X153925309Y-90780714D01*
X153966960Y-90692649D01*
X154017043Y-90609091D01*
X154075075Y-90530844D01*
X154140497Y-90458662D01*
X154212679Y-90393240D01*
X154290926Y-90335208D01*
X154374484Y-90285125D01*
X154462549Y-90243474D01*
X154554272Y-90210655D01*
X154648771Y-90186984D01*
X154745134Y-90172690D01*
X154842435Y-90167910D01*
X158519455Y-90167910D01*
X158519455Y-92153290D01*
G37*
%TO.C,kibuzzard-629258DB*%
G36*
X144370566Y-63526048D02*
G01*
X144431738Y-63550178D01*
X144483455Y-63590395D01*
X144536319Y-63667230D01*
X144553940Y-63752955D01*
X144536478Y-63838839D01*
X144484090Y-63916150D01*
X144432443Y-63956719D01*
X144370637Y-63981061D01*
X144298670Y-63989175D01*
X144226844Y-63981132D01*
X144165461Y-63957002D01*
X144114520Y-63916785D01*
X144063085Y-63839950D01*
X144045940Y-63754225D01*
X144063561Y-63668341D01*
X144116425Y-63591030D01*
X144168142Y-63550460D01*
X144229314Y-63526119D01*
X144299940Y-63518005D01*
X144370566Y-63526048D01*
G37*
G36*
X144542510Y-66803495D02*
G01*
X144525206Y-66893824D01*
X144473295Y-66971770D01*
X144395666Y-67025586D01*
X144301210Y-67043525D01*
X144207071Y-67025110D01*
X144130395Y-66969865D01*
X144079436Y-66891760D01*
X144062450Y-66804765D01*
X144062450Y-66681575D01*
X144542510Y-66681575D01*
X144542510Y-66803495D01*
G37*
G36*
X144600678Y-69764968D02*
G01*
X144501223Y-69789880D01*
X144399804Y-69804924D01*
X144297400Y-69809955D01*
X144194996Y-69804924D01*
X144093577Y-69789880D01*
X143994122Y-69764968D01*
X143897588Y-69730428D01*
X143804903Y-69686591D01*
X143716962Y-69633881D01*
X143634611Y-69572806D01*
X143558643Y-69503952D01*
X143489789Y-69427984D01*
X143428714Y-69345633D01*
X143376004Y-69257692D01*
X143332167Y-69165008D01*
X143297627Y-69068473D01*
X143272715Y-68969018D01*
X143257671Y-68867600D01*
X143252640Y-68765195D01*
X143252640Y-68110960D01*
X143823690Y-68110960D01*
X143845280Y-68178905D01*
X143884332Y-68234150D01*
X143927830Y-68252565D01*
X143992600Y-68230975D01*
X144701260Y-67888075D01*
X144750790Y-67846165D01*
X144767300Y-67786475D01*
X144749520Y-67726150D01*
X144702530Y-67683605D01*
X143992600Y-67340705D01*
X143927830Y-67319115D01*
X143884650Y-67337530D01*
X143846550Y-67392775D01*
X143824960Y-67460720D01*
X143837025Y-67501360D01*
X143860520Y-67524220D01*
X143897350Y-67543905D01*
X144034510Y-67609945D01*
X144034510Y-67961735D01*
X143897350Y-68027775D01*
X143859250Y-68047460D01*
X143835120Y-68070320D01*
X143823690Y-68110960D01*
X143252640Y-68110960D01*
X143252640Y-66800955D01*
X143837660Y-66800955D01*
X143846312Y-66894498D01*
X143872267Y-66980819D01*
X143915527Y-67059916D01*
X143976090Y-67131790D01*
X144048758Y-67191520D01*
X144128331Y-67234184D01*
X144214810Y-67259782D01*
X144308195Y-67268315D01*
X144401223Y-67259584D01*
X144486630Y-67233390D01*
X144564418Y-67189734D01*
X144634585Y-67128615D01*
X144692648Y-67055987D01*
X144734121Y-66977802D01*
X144759005Y-66894062D01*
X144767300Y-66804765D01*
X144768570Y-66569815D01*
X144759998Y-66504410D01*
X144734280Y-66470755D01*
X144701260Y-66458690D01*
X144656810Y-66456785D01*
X143950690Y-66456785D01*
X143869410Y-66472025D01*
X143845597Y-66505680D01*
X143837660Y-66568545D01*
X143837660Y-66800955D01*
X143252640Y-66800955D01*
X143252640Y-66035145D01*
X143823690Y-66035145D01*
X143831169Y-66111486D01*
X143853606Y-66184723D01*
X143891000Y-66254855D01*
X143932434Y-66303115D01*
X143988155Y-66341215D01*
X144055941Y-66365980D01*
X144133570Y-66374235D01*
X144209611Y-66366139D01*
X144272635Y-66341850D01*
X144320736Y-66305496D01*
X144352010Y-66261205D01*
X144373124Y-66210722D01*
X144390745Y-66155795D01*
X144404556Y-66100867D01*
X144414240Y-66050385D01*
X144443450Y-65969740D01*
X144499965Y-65937355D01*
X144554575Y-65964660D01*
X144574260Y-66033240D01*
X144557750Y-66101185D01*
X144541240Y-66120870D01*
X144528540Y-66135475D01*
X144503140Y-66201515D01*
X144519015Y-66246600D01*
X144566640Y-66290415D01*
X144636490Y-66320895D01*
X144698720Y-66281525D01*
X144722850Y-66249775D01*
X144762855Y-66162780D01*
X144777619Y-66096581D01*
X144782540Y-66023715D01*
X144773297Y-65934744D01*
X144745569Y-65859179D01*
X144699355Y-65797020D01*
X144640723Y-65750806D01*
X144575742Y-65723078D01*
X144504410Y-65713835D01*
X144429004Y-65721931D01*
X144365345Y-65746220D01*
X144315339Y-65782574D01*
X144280890Y-65826865D01*
X144255966Y-65877030D01*
X144234535Y-65931005D01*
X144217549Y-65984980D01*
X144205960Y-66035145D01*
X144177385Y-66115790D01*
X144128490Y-66148175D01*
X144074868Y-66135052D01*
X144042694Y-66095682D01*
X144031970Y-66030065D01*
X144051655Y-65969105D01*
X144092930Y-65918305D01*
X144140555Y-65861790D01*
X144156430Y-65819245D01*
X144125950Y-65751935D01*
X144077849Y-65710977D01*
X144040225Y-65697325D01*
X143967200Y-65730345D01*
X143953230Y-65741775D01*
X143914495Y-65778605D01*
X143874490Y-65835755D01*
X143838295Y-65922115D01*
X143827341Y-65977042D01*
X143823690Y-66035145D01*
X143252640Y-66035145D01*
X143252640Y-65151225D01*
X143765270Y-65151225D01*
X143774795Y-65186150D01*
X143794480Y-65205200D01*
X143826230Y-65221075D01*
X144673320Y-65628745D01*
X144736820Y-65646525D01*
X144774603Y-65629380D01*
X144809210Y-65577945D01*
X144829530Y-65513810D01*
X144824450Y-65483965D01*
X144768570Y-65440785D01*
X143913860Y-65031845D01*
X143850360Y-65016605D01*
X143817975Y-65031210D01*
X143784320Y-65087725D01*
X143765270Y-65151225D01*
X143252640Y-65151225D01*
X143252640Y-64836265D01*
X143837660Y-64836265D01*
X143845280Y-64897860D01*
X143876395Y-64934690D01*
X143949420Y-64946755D01*
X144655540Y-64946755D01*
X144699990Y-64944850D01*
X144733645Y-64932785D01*
X144760315Y-64898495D01*
X144768570Y-64834360D01*
X144761585Y-64769590D01*
X144736820Y-64734665D01*
X144705070Y-64722600D01*
X144661890Y-64720695D01*
X144315180Y-64720695D01*
X144315180Y-64513685D01*
X144625060Y-64591155D01*
X144628870Y-64592425D01*
X144682210Y-64601315D01*
X144731105Y-64579090D01*
X144763490Y-64512415D01*
X144772380Y-64453995D01*
X144758410Y-64410180D01*
X144729200Y-64387320D01*
X144684750Y-64373985D01*
X144259300Y-64268575D01*
X144208500Y-64264765D01*
X144153890Y-64271115D01*
X144117695Y-64305722D01*
X144105630Y-64376525D01*
X144105630Y-64720695D01*
X143950690Y-64720695D01*
X143884650Y-64728315D01*
X143859250Y-64744825D01*
X143844010Y-64777845D01*
X143837660Y-64836265D01*
X143252640Y-64836265D01*
X143252640Y-63756765D01*
X143821150Y-63756765D01*
X143830000Y-63849475D01*
X143856551Y-63934565D01*
X143900803Y-64012035D01*
X143962755Y-64081885D01*
X144037288Y-64139670D01*
X144119282Y-64180945D01*
X144208738Y-64205710D01*
X144305655Y-64213965D01*
X144402215Y-64205313D01*
X144490599Y-64179357D01*
X144570807Y-64136098D01*
X144642840Y-64075535D01*
X144702292Y-64003224D01*
X144744758Y-63924722D01*
X144770237Y-63840029D01*
X144778730Y-63749145D01*
X144769840Y-63662785D01*
X144743170Y-63578965D01*
X144700943Y-63501177D01*
X144645380Y-63432915D01*
X144575689Y-63375765D01*
X144491075Y-63331315D01*
X144395666Y-63302740D01*
X144293590Y-63293215D01*
X144200404Y-63301668D01*
X144113885Y-63327029D01*
X144034034Y-63369296D01*
X143960850Y-63428470D01*
X143899731Y-63499709D01*
X143856075Y-63578171D01*
X143829881Y-63663857D01*
X143821150Y-63756765D01*
X143252640Y-63756765D01*
X143252640Y-63097635D01*
X143836390Y-63097635D01*
X143844962Y-63163040D01*
X143870680Y-63196695D01*
X143903700Y-63208760D01*
X143948150Y-63210665D01*
X144654270Y-63210665D01*
X144720310Y-63204315D01*
X144755553Y-63169707D01*
X144767300Y-63098905D01*
X144758728Y-63033500D01*
X144733010Y-62999845D01*
X144699355Y-62987780D01*
X144655540Y-62985875D01*
X143949420Y-62985875D01*
X143884650Y-62993495D01*
X143848455Y-63027150D01*
X143836390Y-63097635D01*
X143252640Y-63097635D01*
X143252640Y-62473245D01*
X145342160Y-62473245D01*
X145342160Y-68765195D01*
X145337129Y-68867600D01*
X145322085Y-68969018D01*
X145297173Y-69068473D01*
X145262633Y-69165008D01*
X145218796Y-69257692D01*
X145166086Y-69345633D01*
X145105011Y-69427984D01*
X145036157Y-69503952D01*
X144960189Y-69572806D01*
X144877838Y-69633881D01*
X144789897Y-69686591D01*
X144697212Y-69730428D01*
X144600678Y-69764968D01*
G37*
G36*
X144396460Y-67785205D02*
G01*
X144222470Y-67870295D01*
X144222470Y-67701385D01*
X144396460Y-67785205D01*
G37*
%TO.C,LD1*%
X135663000Y-129247000D02*
X137133000Y-129247000D01*
X137133000Y-129247000D02*
X137133000Y-126962000D01*
X135663000Y-126962000D02*
X135663000Y-129247000D01*
%TO.C,CN4*%
X159299600Y-85917800D02*
X159299600Y-84587800D01*
X161959600Y-87187800D02*
X161959600Y-92327800D01*
X159299600Y-92327800D02*
X161959600Y-92327800D01*
X159299600Y-84587800D02*
X160629600Y-84587800D01*
X159299600Y-87187800D02*
X161959600Y-87187800D01*
X159299600Y-87187800D02*
X159299600Y-92327800D01*
%TO.C,R15*%
X160605441Y-93193600D02*
X160298159Y-93193600D01*
X160605441Y-93953600D02*
X160298159Y-93953600D01*
%TO.C,CN6*%
X148284400Y-80305600D02*
X148284400Y-81635600D01*
X138004400Y-80305600D02*
X138004400Y-82965600D01*
X146954400Y-80305600D02*
X148284400Y-80305600D01*
X145684400Y-80305600D02*
X138004400Y-80305600D01*
X145684400Y-82965600D02*
X138004400Y-82965600D01*
X145684400Y-80305600D02*
X145684400Y-82965600D01*
%TO.C,kibuzzard-62755375*%
G36*
X159384985Y-115456535D02*
G01*
X159495157Y-115472877D01*
X159603196Y-115499940D01*
X159708062Y-115537461D01*
X159808745Y-115585081D01*
X159904276Y-115642340D01*
X159993735Y-115708687D01*
X160076260Y-115783483D01*
X160151056Y-115866008D01*
X160217403Y-115955467D01*
X160274662Y-116050998D01*
X160322281Y-116151681D01*
X160359803Y-116256547D01*
X160386866Y-116364586D01*
X160403208Y-116474757D01*
X160408673Y-116586000D01*
X160403208Y-116697243D01*
X160386866Y-116807414D01*
X160359803Y-116915453D01*
X160322281Y-117020319D01*
X160274662Y-117121002D01*
X160217403Y-117216533D01*
X160151056Y-117305992D01*
X160076260Y-117388517D01*
X159993735Y-117463313D01*
X159904276Y-117529660D01*
X159808745Y-117586919D01*
X159708062Y-117634539D01*
X159603196Y-117672060D01*
X159495157Y-117699123D01*
X159384985Y-117715465D01*
X159273743Y-117720930D01*
X154162257Y-117720930D01*
X154051015Y-117715465D01*
X153940843Y-117699123D01*
X153832804Y-117672060D01*
X153727938Y-117634539D01*
X153627255Y-117586919D01*
X153531724Y-117529660D01*
X153442265Y-117463313D01*
X153359740Y-117388517D01*
X153284944Y-117305992D01*
X153218597Y-117216533D01*
X153161338Y-117121002D01*
X153129046Y-117052725D01*
X154674887Y-117052725D01*
X154684413Y-117133688D01*
X154726481Y-117178931D01*
X154814587Y-117194013D01*
X154896344Y-117183297D01*
X154938412Y-117151150D01*
X154953494Y-117109875D01*
X154955875Y-117054313D01*
X154955875Y-116859050D01*
X155686125Y-116859050D01*
X155697237Y-117005894D01*
X155730575Y-117106700D01*
X155788519Y-117159484D01*
X155889325Y-117187663D01*
X156016325Y-117194806D01*
X156086175Y-117178138D01*
X156109987Y-117136466D01*
X156117925Y-117055900D01*
X156086175Y-116943188D01*
X156059187Y-116929694D01*
X156015531Y-116927313D01*
X155973462Y-116912231D01*
X155963937Y-116840000D01*
X155963937Y-116774119D01*
X156181425Y-116774119D01*
X156194478Y-116880217D01*
X156233636Y-116977319D01*
X156298900Y-117065425D01*
X156379422Y-117135099D01*
X156464353Y-117176903D01*
X156553694Y-117190838D01*
X156671367Y-117169803D01*
X156749750Y-117106700D01*
X156783881Y-117169406D01*
X156899769Y-117190838D01*
X156970214Y-117180519D01*
X157008513Y-117149563D01*
X157022006Y-117107494D01*
X157024112Y-117059075D01*
X157127575Y-117059075D01*
X157157738Y-117119400D01*
X157253252Y-117168789D01*
X157351413Y-117198422D01*
X157452219Y-117208300D01*
X157548615Y-117202832D01*
X157633547Y-117186428D01*
X157707013Y-117159088D01*
X157793531Y-117072569D01*
X157800144Y-117054313D01*
X157927675Y-117054313D01*
X157930056Y-117109875D01*
X157943550Y-117151150D01*
X157985222Y-117183297D01*
X158065788Y-117194013D01*
X158147147Y-117183694D01*
X158188025Y-117152738D01*
X158203106Y-117110669D01*
X158205488Y-117055900D01*
X158205488Y-116747925D01*
X158254700Y-116670931D01*
X158353919Y-116636800D01*
X158446788Y-116673313D01*
X158483300Y-116774913D01*
X158483300Y-117052725D01*
X158485681Y-117109875D01*
X158500763Y-117152738D01*
X158542831Y-117183694D01*
X158621413Y-117194013D01*
X158702772Y-117183694D01*
X158743650Y-117152738D01*
X158758731Y-117110669D01*
X158761113Y-117055900D01*
X158761113Y-116776500D01*
X158749383Y-116666081D01*
X158714193Y-116567656D01*
X158655544Y-116481225D01*
X158579256Y-116414197D01*
X158491149Y-116373981D01*
X158391225Y-116360575D01*
X158291609Y-116384784D01*
X158205488Y-116457412D01*
X158205488Y-116106575D01*
X158203106Y-116051806D01*
X158188025Y-116009737D01*
X158147544Y-115977591D01*
X158067375Y-115966875D01*
X157985619Y-115977591D01*
X157943550Y-116009737D01*
X157930056Y-116050219D01*
X157927675Y-116104987D01*
X157927675Y-117054313D01*
X157800144Y-117054313D01*
X157816748Y-117008473D01*
X157824488Y-116932075D01*
X157816748Y-116856470D01*
X157793531Y-116794756D01*
X157716538Y-116717763D01*
X157616525Y-116678075D01*
X157513338Y-116657438D01*
X157432375Y-116634816D01*
X157405388Y-116595525D01*
X157499050Y-116560600D01*
X157610969Y-116584412D01*
X157681613Y-116608225D01*
X157753050Y-116552662D01*
X157787975Y-116459000D01*
X157732412Y-116395500D01*
X157614938Y-116355019D01*
X157500638Y-116341525D01*
X157376622Y-116351558D01*
X157280166Y-116381657D01*
X157211268Y-116431822D01*
X157169930Y-116502053D01*
X157156150Y-116592350D01*
X157163691Y-116670733D01*
X157186313Y-116737606D01*
X157262513Y-116827300D01*
X157361334Y-116876116D01*
X157460950Y-116901913D01*
X157540722Y-116920169D01*
X157567313Y-116946363D01*
X157543103Y-116974938D01*
X157470475Y-116984463D01*
X157349825Y-116945569D01*
X157244256Y-116906675D01*
X157187900Y-116933663D01*
X157142656Y-117007084D01*
X157127575Y-117059075D01*
X157024112Y-117059075D01*
X157024388Y-117052725D01*
X157024388Y-116497100D01*
X157022006Y-116442331D01*
X157007719Y-116400262D01*
X156965650Y-116366925D01*
X156873575Y-116357400D01*
X156784278Y-116379625D01*
X156748163Y-116446300D01*
X156719588Y-116413756D01*
X156657675Y-116378037D01*
X156559250Y-116358987D01*
X156467616Y-116372834D01*
X156381097Y-116414374D01*
X156299694Y-116483606D01*
X156233989Y-116571272D01*
X156194566Y-116668109D01*
X156181425Y-116774119D01*
X155963937Y-116774119D01*
X155963937Y-116104987D01*
X155961556Y-116049425D01*
X155946475Y-116006562D01*
X155904406Y-115974416D01*
X155825825Y-115963700D01*
X155744069Y-115974416D01*
X155702000Y-116006562D01*
X155688506Y-116048631D01*
X155686125Y-116103400D01*
X155686125Y-116859050D01*
X154955875Y-116859050D01*
X154955875Y-116754275D01*
X155267025Y-116754275D01*
X155347987Y-116746338D01*
X155393231Y-116703078D01*
X155408312Y-116614575D01*
X155397994Y-116532422D01*
X155367037Y-116489162D01*
X155324969Y-116474081D01*
X155268612Y-116471700D01*
X154955875Y-116471700D01*
X154955875Y-116311362D01*
X155441650Y-116311362D01*
X155498006Y-116308981D01*
X155540075Y-116294694D01*
X155573412Y-116252625D01*
X155582937Y-116171662D01*
X155573412Y-116090700D01*
X155540869Y-116047837D01*
X155499594Y-116032756D01*
X155444825Y-116030375D01*
X154819350Y-116030375D01*
X154705050Y-116059744D01*
X154674887Y-116170075D01*
X154674887Y-117052725D01*
X153129046Y-117052725D01*
X153113719Y-117020319D01*
X153076197Y-116915453D01*
X153049134Y-116807414D01*
X153032792Y-116697243D01*
X153027327Y-116586000D01*
X153032792Y-116474757D01*
X153049134Y-116364586D01*
X153076197Y-116256547D01*
X153113719Y-116151681D01*
X153161338Y-116050998D01*
X153218597Y-115955467D01*
X153284944Y-115866008D01*
X153359740Y-115783483D01*
X153442265Y-115708687D01*
X153531724Y-115642340D01*
X153627255Y-115585081D01*
X153727938Y-115537461D01*
X153832804Y-115499940D01*
X153940843Y-115472877D01*
X154051015Y-115456535D01*
X154162257Y-115451070D01*
X159273743Y-115451070D01*
X159384985Y-115456535D01*
G37*
G36*
X156699744Y-116679663D02*
G01*
X156737050Y-116775706D01*
X156698156Y-116870163D01*
X156600525Y-116913025D01*
X156500512Y-116870956D01*
X156459237Y-116776500D01*
X156498131Y-116679663D01*
X156599731Y-116635213D01*
X156699744Y-116679663D01*
G37*
%TO.C,R1*%
X141377641Y-120268000D02*
X141070359Y-120268000D01*
X141377641Y-119508000D02*
X141070359Y-119508000D01*
%TO.C,R10*%
X150775641Y-93904800D02*
X150468359Y-93904800D01*
X150775641Y-94664800D02*
X150468359Y-94664800D01*
%TO.C,kibuzzard-62925415*%
G36*
X158505485Y-89460890D02*
G01*
X155466005Y-89460890D01*
X155368704Y-89456110D01*
X155272341Y-89441816D01*
X155177842Y-89418145D01*
X155086119Y-89385326D01*
X154998054Y-89343675D01*
X154914496Y-89293592D01*
X154836249Y-89235560D01*
X154764067Y-89170138D01*
X154698645Y-89097956D01*
X154640613Y-89019709D01*
X154590530Y-88936151D01*
X154548879Y-88848086D01*
X154538826Y-88819990D01*
X155978635Y-88819990D01*
X155986255Y-88884760D01*
X156019910Y-88920955D01*
X156090395Y-88933020D01*
X156155800Y-88924448D01*
X156189455Y-88898730D01*
X156201520Y-88865710D01*
X156203425Y-88821260D01*
X156203425Y-88475820D01*
X156285975Y-88475820D01*
X156294429Y-88569006D01*
X156319789Y-88655525D01*
X156362056Y-88735376D01*
X156421230Y-88808560D01*
X156492469Y-88869679D01*
X156570931Y-88913335D01*
X156656617Y-88939529D01*
X156749525Y-88948260D01*
X156842235Y-88939410D01*
X156927325Y-88912859D01*
X157004795Y-88868607D01*
X157074645Y-88806655D01*
X157132430Y-88732122D01*
X157173705Y-88650128D01*
X157198470Y-88560672D01*
X157206725Y-88463755D01*
X157198073Y-88367195D01*
X157187083Y-88329770D01*
X157270225Y-88329770D01*
X157276575Y-88394540D01*
X157311183Y-88430735D01*
X157381985Y-88442800D01*
X157446755Y-88435180D01*
X157481045Y-88412320D01*
X157493110Y-88380570D01*
X157495015Y-88338660D01*
X157495015Y-88331040D01*
X157500095Y-88301830D01*
X157533750Y-88242775D01*
X157604235Y-88212930D01*
X157667735Y-88224360D01*
X157701390Y-88249125D01*
X157721075Y-88283415D01*
X157729965Y-88315800D01*
X157718059Y-88371362D01*
X157682340Y-88423750D01*
X157629794Y-88471851D01*
X157567405Y-88514555D01*
X157500095Y-88554878D01*
X157432785Y-88595835D01*
X157370396Y-88641238D01*
X157317850Y-88694895D01*
X157282131Y-88755379D01*
X157270225Y-88821260D01*
X157303245Y-88901270D01*
X157381985Y-88935560D01*
X157878555Y-88935560D01*
X157957295Y-88920320D01*
X157984600Y-88887300D01*
X157992855Y-88823165D01*
X157985235Y-88758395D01*
X157955390Y-88721565D01*
X157881095Y-88709500D01*
X157648685Y-88709500D01*
X157648685Y-88703150D01*
X157680435Y-88690450D01*
X157759175Y-88647588D01*
X157848075Y-88577420D01*
X157889350Y-88531700D01*
X157924275Y-88473280D01*
X157948088Y-88406605D01*
X157956025Y-88336120D01*
X157945442Y-88248843D01*
X157913692Y-88168198D01*
X157860775Y-88094185D01*
X157790855Y-88035271D01*
X157708093Y-87999923D01*
X157612490Y-87988140D01*
X157516958Y-87999782D01*
X157434408Y-88034707D01*
X157364840Y-88092915D01*
X157312276Y-88165799D01*
X157280738Y-88244751D01*
X157270225Y-88329770D01*
X157187083Y-88329770D01*
X157172118Y-88278811D01*
X157128858Y-88198603D01*
X157068295Y-88126570D01*
X156995984Y-88067118D01*
X156917483Y-88024652D01*
X156832789Y-87999173D01*
X156741905Y-87990680D01*
X156655545Y-87999570D01*
X156571725Y-88026240D01*
X156493938Y-88068467D01*
X156425675Y-88124030D01*
X156368525Y-88193721D01*
X156324075Y-88278335D01*
X156295500Y-88373744D01*
X156285975Y-88475820D01*
X156203425Y-88475820D01*
X156203425Y-88115140D01*
X156197075Y-88049100D01*
X156162468Y-88013857D01*
X156091665Y-88002110D01*
X156026260Y-88010682D01*
X155992605Y-88036400D01*
X155980540Y-88070055D01*
X155978635Y-88113870D01*
X155978635Y-88819990D01*
X154538826Y-88819990D01*
X154516060Y-88756363D01*
X154492389Y-88661864D01*
X154478095Y-88565501D01*
X154473315Y-88468200D01*
X154478095Y-88370899D01*
X154492389Y-88274536D01*
X154516060Y-88180037D01*
X154548879Y-88088314D01*
X154590530Y-88000249D01*
X154640613Y-87916691D01*
X154698645Y-87838444D01*
X154764067Y-87766262D01*
X154836249Y-87700840D01*
X154914496Y-87642808D01*
X154998054Y-87592725D01*
X155086119Y-87551074D01*
X155177842Y-87518255D01*
X155272341Y-87494584D01*
X155368704Y-87480290D01*
X155466005Y-87475510D01*
X158505485Y-87475510D01*
X158505485Y-89460890D01*
G37*
G36*
X156831599Y-88232932D02*
G01*
X156908910Y-88285320D01*
X156949480Y-88336967D01*
X156973821Y-88398773D01*
X156981935Y-88470740D01*
X156973892Y-88542566D01*
X156949762Y-88603949D01*
X156909545Y-88654890D01*
X156832710Y-88706325D01*
X156746985Y-88723470D01*
X156661101Y-88705849D01*
X156583790Y-88652985D01*
X156543221Y-88601268D01*
X156518879Y-88540096D01*
X156510765Y-88469470D01*
X156518808Y-88398844D01*
X156542938Y-88337672D01*
X156583155Y-88285955D01*
X156659990Y-88233091D01*
X156745715Y-88215470D01*
X156831599Y-88232932D01*
G37*
%TO.C,C9*%
X159861364Y-97134000D02*
X160077036Y-97134000D01*
X159861364Y-96414000D02*
X160077036Y-96414000D01*
%TD*%
M02*
