%TF.GenerationSoftware,KiCad,Pcbnew,(6.0.1)*%
%TF.CreationDate,2022-08-04T18:09:42+02:00*%
%TF.ProjectId,Ganimede_Esp8266,47616e69-6d65-4646-955f-457370383236,rev?*%
%TF.SameCoordinates,Original*%
%TF.FileFunction,Soldermask,Top*%
%TF.FilePolarity,Negative*%
%FSLAX46Y46*%
G04 Gerber Fmt 4.6, Leading zero omitted, Abs format (unit mm)*
G04 Created by KiCad (PCBNEW (6.0.1)) date 2022-08-04 18:09:42*
%MOMM*%
%LPD*%
G01*
G04 APERTURE LIST*
G04 Aperture macros list*
%AMRoundRect*
0 Rectangle with rounded corners*
0 $1 Rounding radius*
0 $2 $3 $4 $5 $6 $7 $8 $9 X,Y pos of 4 corners*
0 Add a 4 corners polygon primitive as box body*
4,1,4,$2,$3,$4,$5,$6,$7,$8,$9,$2,$3,0*
0 Add four circle primitives for the rounded corners*
1,1,$1+$1,$2,$3*
1,1,$1+$1,$4,$5*
1,1,$1+$1,$6,$7*
1,1,$1+$1,$8,$9*
0 Add four rect primitives between the rounded corners*
20,1,$1+$1,$2,$3,$4,$5,0*
20,1,$1+$1,$4,$5,$6,$7,0*
20,1,$1+$1,$6,$7,$8,$9,0*
20,1,$1+$1,$8,$9,$2,$3,0*%
G04 Aperture macros list end*
%ADD10RoundRect,0.140000X0.170000X-0.140000X0.170000X0.140000X-0.170000X0.140000X-0.170000X-0.140000X0*%
%ADD11R,1.700000X1.700000*%
%ADD12O,1.700000X1.700000*%
%ADD13RoundRect,0.135000X0.185000X-0.135000X0.185000X0.135000X-0.185000X0.135000X-0.185000X-0.135000X0*%
%ADD14RoundRect,0.140000X-0.170000X0.140000X-0.170000X-0.140000X0.170000X-0.140000X0.170000X0.140000X0*%
%ADD15RoundRect,0.135000X-0.135000X-0.185000X0.135000X-0.185000X0.135000X0.185000X-0.135000X0.185000X0*%
%ADD16RoundRect,0.150000X0.150000X-0.512500X0.150000X0.512500X-0.150000X0.512500X-0.150000X-0.512500X0*%
%ADD17C,2.500000*%
%ADD18RoundRect,0.135000X0.135000X0.185000X-0.135000X0.185000X-0.135000X-0.185000X0.135000X-0.185000X0*%
%ADD19RoundRect,0.150000X-0.825000X-0.150000X0.825000X-0.150000X0.825000X0.150000X-0.825000X0.150000X0*%
%ADD20C,0.650000*%
%ADD21R,0.600000X1.450000*%
%ADD22R,0.300000X1.450000*%
%ADD23O,1.000000X2.100000*%
%ADD24O,1.000000X1.600000*%
%ADD25RoundRect,0.135000X-0.185000X0.135000X-0.185000X-0.135000X0.185000X-0.135000X0.185000X0.135000X0*%
%ADD26RoundRect,0.250000X0.350000X0.625000X-0.350000X0.625000X-0.350000X-0.625000X0.350000X-0.625000X0*%
%ADD27O,1.200000X1.750000*%
%ADD28R,1.676400X1.676400*%
%ADD29C,1.524000*%
%ADD30R,1.524000X1.524000*%
%ADD31R,1.400000X1.200000*%
%ADD32R,1.550000X1.300000*%
%ADD33RoundRect,0.218750X0.256250X-0.218750X0.256250X0.218750X-0.256250X0.218750X-0.256250X-0.218750X0*%
%ADD34R,2.500000X1.000000*%
%ADD35R,1.000000X1.800000*%
%ADD36RoundRect,0.140000X-0.140000X-0.170000X0.140000X-0.170000X0.140000X0.170000X-0.140000X0.170000X0*%
G04 APERTURE END LIST*
D10*
%TO.C,C7*%
X160629600Y-99692400D03*
X160629600Y-98732400D03*
%TD*%
D11*
%TO.C,CN5*%
X160578800Y-104749600D03*
D12*
X160578800Y-107289600D03*
%TD*%
D13*
%TO.C,R3*%
X139115800Y-66094800D03*
X139115800Y-65074800D03*
%TD*%
D14*
%TO.C,C1*%
X129438400Y-106352400D03*
X129438400Y-107312400D03*
%TD*%
D15*
%TO.C,R8*%
X150162800Y-73914000D03*
X151182800Y-73914000D03*
%TD*%
D14*
%TO.C,C2*%
X136525000Y-113058000D03*
X136525000Y-114018000D03*
%TD*%
D16*
%TO.C,U2*%
X132958800Y-113507100D03*
X133908800Y-113507100D03*
X134858800Y-113507100D03*
X134858800Y-111232100D03*
X132958800Y-111232100D03*
%TD*%
D17*
%TO.C,REF\u002A\u002A*%
X159385000Y-128905000D03*
%TD*%
D18*
%TO.C,R6*%
X151081200Y-70053200D03*
X150061200Y-70053200D03*
%TD*%
D19*
%TO.C,U3*%
X152465000Y-99695000D03*
X152465000Y-100965000D03*
X152465000Y-102235000D03*
X152465000Y-103505000D03*
X152465000Y-104775000D03*
X152465000Y-106045000D03*
X152465000Y-107315000D03*
X152465000Y-108585000D03*
X157415000Y-108585000D03*
X157415000Y-107315000D03*
X157415000Y-106045000D03*
X157415000Y-104775000D03*
X157415000Y-103505000D03*
X157415000Y-102235000D03*
X157415000Y-100965000D03*
X157415000Y-99695000D03*
%TD*%
D20*
%TO.C,CN1*%
X141890000Y-126940000D03*
X147670000Y-126940000D03*
D21*
X141530000Y-125495000D03*
X142330000Y-125495000D03*
D22*
X143530000Y-125495000D03*
X144530000Y-125495000D03*
X145030000Y-125495000D03*
X146030000Y-125495000D03*
D21*
X147230000Y-125495000D03*
X148030000Y-125495000D03*
X148030000Y-125495000D03*
X147230000Y-125495000D03*
D22*
X146530000Y-125495000D03*
X145530000Y-125495000D03*
X144030000Y-125495000D03*
X143030000Y-125495000D03*
D21*
X142330000Y-125495000D03*
X141530000Y-125495000D03*
D23*
X140460000Y-126410000D03*
X149100000Y-126410000D03*
D24*
X140460000Y-130590000D03*
X149100000Y-130590000D03*
%TD*%
D17*
%TO.C,REF\u002A\u002A*%
X159385000Y-49530000D03*
%TD*%
D25*
%TO.C,R12*%
X150774400Y-117904800D03*
X150774400Y-118924800D03*
%TD*%
D13*
%TO.C,R14*%
X154940000Y-128780000D03*
X154940000Y-127760000D03*
%TD*%
D18*
%TO.C,R2*%
X141734000Y-121158000D03*
X140714000Y-121158000D03*
%TD*%
D13*
%TO.C,R4*%
X140335000Y-66094800D03*
X140335000Y-65074800D03*
%TD*%
D26*
%TO.C,CN3*%
X148288000Y-60362000D03*
D27*
X146288000Y-60362000D03*
X144288000Y-60362000D03*
X142288000Y-60362000D03*
%TD*%
D28*
%TO.C,CN2*%
X156210000Y-75120500D03*
D29*
X156210000Y-72580500D03*
X156210000Y-70040500D03*
X156210000Y-67500500D03*
X156210000Y-64960500D03*
X156210000Y-62420500D03*
X156210000Y-59880500D03*
X156210000Y-57340500D03*
X133350000Y-57340500D03*
X133350000Y-59880500D03*
X133350000Y-62420500D03*
X133350000Y-64960500D03*
X133350000Y-67500500D03*
X133350000Y-70040500D03*
X133350000Y-72580500D03*
D30*
X133350000Y-75120500D03*
%TD*%
D17*
%TO.C,REF\u002A\u002A*%
X130175000Y-49530000D03*
%TD*%
D31*
%TO.C,Y1*%
X153941600Y-112762400D03*
X156141600Y-112762400D03*
X156141600Y-111062400D03*
X153941600Y-111062400D03*
%TD*%
D10*
%TO.C,C8*%
X159410400Y-99692400D03*
X159410400Y-98732400D03*
%TD*%
D11*
%TO.C,CN7*%
X141437200Y-49987200D03*
D12*
X143977200Y-49987200D03*
X146517200Y-49987200D03*
X149057200Y-49987200D03*
%TD*%
D10*
%TO.C,C5*%
X152146000Y-112392400D03*
X152146000Y-111432400D03*
%TD*%
D14*
%TO.C,C6*%
X157835600Y-111584800D03*
X157835600Y-112544800D03*
%TD*%
D18*
%TO.C,R11*%
X151132000Y-92303600D03*
X150112000Y-92303600D03*
%TD*%
D32*
%TO.C,SW1*%
X152870000Y-123408000D03*
X160820000Y-123408000D03*
X160820000Y-118908000D03*
X152870000Y-118908000D03*
%TD*%
D25*
%TO.C,R13*%
X138684000Y-117854000D03*
X138684000Y-118874000D03*
%TD*%
D33*
%TO.C,LD2*%
X153416000Y-128549500D03*
X153416000Y-126974500D03*
%TD*%
D13*
%TO.C,R5*%
X129438400Y-97334800D03*
X129438400Y-96314800D03*
%TD*%
%TO.C,R9*%
X134874000Y-128526000D03*
X134874000Y-127506000D03*
%TD*%
D32*
%TO.C,SW2*%
X136690000Y-123408000D03*
X128740000Y-123408000D03*
X136690000Y-118908000D03*
X128740000Y-118908000D03*
%TD*%
D34*
%TO.C,U1*%
X132100000Y-92316000D03*
X132100000Y-94316000D03*
X132100000Y-96316000D03*
X132100000Y-98316000D03*
X132100000Y-100316000D03*
X132100000Y-102316000D03*
X132100000Y-104316000D03*
X132100000Y-106316000D03*
D35*
X134700000Y-107816000D03*
X136700000Y-107816000D03*
X138700000Y-107816000D03*
X140700000Y-107816000D03*
X142700000Y-107816000D03*
X144700000Y-107816000D03*
D34*
X147300000Y-106316000D03*
X147300000Y-104316000D03*
X147300000Y-102316000D03*
X147300000Y-100316000D03*
X147300000Y-98316000D03*
X147300000Y-96316000D03*
X147300000Y-94316000D03*
X147300000Y-92316000D03*
%TD*%
D14*
%TO.C,C4*%
X131368800Y-110721200D03*
X131368800Y-111681200D03*
%TD*%
%TO.C,C3*%
X136550400Y-110873600D03*
X136550400Y-111833600D03*
%TD*%
D18*
%TO.C,R7*%
X151182800Y-75082400D03*
X150162800Y-75082400D03*
%TD*%
D17*
%TO.C,REF\u002A\u002A*%
X130175000Y-128905000D03*
%TD*%
D33*
%TO.C,LD1*%
X136398000Y-128549500D03*
X136398000Y-126974500D03*
%TD*%
D11*
%TO.C,CN4*%
X160629600Y-85917800D03*
D12*
X160629600Y-88457800D03*
X160629600Y-90997800D03*
%TD*%
D18*
%TO.C,R15*%
X160961800Y-93573600D03*
X159941800Y-93573600D03*
%TD*%
D11*
%TO.C,CN6*%
X146954400Y-81635600D03*
D12*
X144414400Y-81635600D03*
X141874400Y-81635600D03*
X139334400Y-81635600D03*
%TD*%
D18*
%TO.C,R1*%
X141734000Y-119888000D03*
X140714000Y-119888000D03*
%TD*%
%TO.C,R10*%
X151132000Y-94284800D03*
X150112000Y-94284800D03*
%TD*%
D36*
%TO.C,C9*%
X159489200Y-96774000D03*
X160449200Y-96774000D03*
%TD*%
M02*
