%TF.GenerationSoftware,KiCad,Pcbnew,(6.0.1)*%
%TF.CreationDate,2022-08-04T18:09:42+02:00*%
%TF.ProjectId,Ganimede_Esp8266,47616e69-6d65-4646-955f-457370383236,rev?*%
%TF.SameCoordinates,Original*%
%TF.FileFunction,Copper,L2,Bot*%
%TF.FilePolarity,Positive*%
%FSLAX46Y46*%
G04 Gerber Fmt 4.6, Leading zero omitted, Abs format (unit mm)*
G04 Created by KiCad (PCBNEW (6.0.1)) date 2022-08-04 18:09:42*
%MOMM*%
%LPD*%
G01*
G04 APERTURE LIST*
G04 Aperture macros list*
%AMRoundRect*
0 Rectangle with rounded corners*
0 $1 Rounding radius*
0 $2 $3 $4 $5 $6 $7 $8 $9 X,Y pos of 4 corners*
0 Add a 4 corners polygon primitive as box body*
4,1,4,$2,$3,$4,$5,$6,$7,$8,$9,$2,$3,0*
0 Add four circle primitives for the rounded corners*
1,1,$1+$1,$2,$3*
1,1,$1+$1,$4,$5*
1,1,$1+$1,$6,$7*
1,1,$1+$1,$8,$9*
0 Add four rect primitives between the rounded corners*
20,1,$1+$1,$2,$3,$4,$5,0*
20,1,$1+$1,$4,$5,$6,$7,0*
20,1,$1+$1,$6,$7,$8,$9,0*
20,1,$1+$1,$8,$9,$2,$3,0*%
G04 Aperture macros list end*
%TA.AperFunction,ComponentPad*%
%ADD10R,1.700000X1.700000*%
%TD*%
%TA.AperFunction,ComponentPad*%
%ADD11O,1.700000X1.700000*%
%TD*%
%TA.AperFunction,ComponentPad*%
%ADD12O,1.000000X2.100000*%
%TD*%
%TA.AperFunction,ComponentPad*%
%ADD13O,1.000000X1.600000*%
%TD*%
%TA.AperFunction,ComponentPad*%
%ADD14RoundRect,0.250000X0.350000X0.625000X-0.350000X0.625000X-0.350000X-0.625000X0.350000X-0.625000X0*%
%TD*%
%TA.AperFunction,ComponentPad*%
%ADD15O,1.200000X1.750000*%
%TD*%
%TA.AperFunction,ComponentPad*%
%ADD16R,1.676400X1.676400*%
%TD*%
%TA.AperFunction,ComponentPad*%
%ADD17C,1.524000*%
%TD*%
%TA.AperFunction,ComponentPad*%
%ADD18R,1.524000X1.524000*%
%TD*%
%TA.AperFunction,ViaPad*%
%ADD19C,0.800000*%
%TD*%
%TA.AperFunction,Conductor*%
%ADD20C,0.400000*%
%TD*%
%TA.AperFunction,Conductor*%
%ADD21C,0.250000*%
%TD*%
%TA.AperFunction,Conductor*%
%ADD22C,0.600000*%
%TD*%
%TA.AperFunction,Conductor*%
%ADD23C,0.200000*%
%TD*%
G04 APERTURE END LIST*
D10*
%TO.P,CN5,1,Pin_1*%
%TO.N,/5V*%
X160578800Y-104749600D03*
D11*
%TO.P,CN5,2,Pin_2*%
%TO.N,GND*%
X160578800Y-107289600D03*
%TD*%
D12*
%TO.P,CN1,S1,SHIELD*%
%TO.N,GND*%
X140460000Y-126410000D03*
X149100000Y-126410000D03*
D13*
X140460000Y-130590000D03*
X149100000Y-130590000D03*
%TD*%
D14*
%TO.P,CN3,1,Pin_1*%
%TO.N,GND*%
X148288000Y-60362000D03*
D15*
%TO.P,CN3,2,Pin_2*%
%TO.N,/3V3*%
X146288000Y-60362000D03*
%TO.P,CN3,3,Pin_3*%
%TO.N,/GPIO4{slash}SDA*%
X144288000Y-60362000D03*
%TO.P,CN3,4,Pin_4*%
%TO.N,/GPIO5{slash}SCL*%
X142288000Y-60362000D03*
%TD*%
D16*
%TO.P,CN2,P1,AN*%
%TO.N,/ADC*%
X156210000Y-75120500D03*
D17*
%TO.P,CN2,P2,RST*%
%TO.N,/GPIO16*%
X156210000Y-72580500D03*
%TO.P,CN2,P3,CS*%
%TO.N,/GPIO15{slash}CS*%
X156210000Y-70040500D03*
%TO.P,CN2,P4,SCK*%
%TO.N,/GPIO14{slash}SCK*%
X156210000Y-67500500D03*
%TO.P,CN2,P5,MISO*%
%TO.N,/GPIO12{slash}MISO*%
X156210000Y-64960500D03*
%TO.P,CN2,P6,MOSI*%
%TO.N,/GPIO13{slash}MOSI*%
X156210000Y-62420500D03*
%TO.P,CN2,P7,3V3*%
%TO.N,/3V3*%
X156210000Y-59880500D03*
%TO.P,CN2,P8,GND1*%
%TO.N,GND*%
X156210000Y-57340500D03*
%TO.P,CN2,P9,GND2*%
X133350000Y-57340500D03*
%TO.P,CN2,P10,5V*%
%TO.N,/5V*%
X133350000Y-59880500D03*
%TO.P,CN2,P11,SDA*%
%TO.N,/GPIO4{slash}SDA*%
X133350000Y-62420500D03*
%TO.P,CN2,P12,SCL*%
%TO.N,/GPIO5{slash}SCL*%
X133350000Y-64960500D03*
%TO.P,CN2,P13,TX*%
%TO.N,/GPIO1{slash}TX0*%
X133350000Y-67500500D03*
%TO.P,CN2,P14,RX*%
%TO.N,/GPIO3{slash}RX0*%
X133350000Y-70040500D03*
%TO.P,CN2,P15,INT*%
%TO.N,/GPIO0{slash}FLASH*%
X133350000Y-72580500D03*
D18*
%TO.P,CN2,P16,PWM*%
%TO.N,/GPIO2*%
X133350000Y-75120500D03*
%TD*%
D10*
%TO.P,CN7,1,Pin_1*%
%TO.N,/GPIO4{slash}SDA*%
X141437200Y-49987200D03*
D11*
%TO.P,CN7,2,Pin_2*%
%TO.N,/GPIO5{slash}SCL*%
X143977200Y-49987200D03*
%TO.P,CN7,3,Pin_3*%
%TO.N,/5V*%
X146517200Y-49987200D03*
%TO.P,CN7,4,Pin_4*%
%TO.N,GND*%
X149057200Y-49987200D03*
%TD*%
D10*
%TO.P,CN4,1,Pin_1*%
%TO.N,/5V*%
X160629600Y-85917800D03*
D11*
%TO.P,CN4,2,Pin_2*%
%TO.N,/GPIO2*%
X160629600Y-88457800D03*
%TO.P,CN4,3,Pin_3*%
%TO.N,GND*%
X160629600Y-90997800D03*
%TD*%
D10*
%TO.P,CN6,1,Pin_1*%
%TO.N,/GPIO4{slash}SDA*%
X146954400Y-81635600D03*
D11*
%TO.P,CN6,2,Pin_2*%
%TO.N,/GPIO5{slash}SCL*%
X144414400Y-81635600D03*
%TO.P,CN6,3,Pin_3*%
%TO.N,/5V*%
X141874400Y-81635600D03*
%TO.P,CN6,4,Pin_4*%
%TO.N,GND*%
X139334400Y-81635600D03*
%TD*%
D19*
%TO.N,/3V3*%
X153517600Y-58420000D03*
X138684000Y-116636800D03*
X137160000Y-125577600D03*
X144729200Y-56134000D03*
X146151600Y-116840000D03*
X151587200Y-116865400D03*
X130302000Y-110185200D03*
X161213800Y-95453200D03*
X143052800Y-116789200D03*
%TO.N,GND*%
X132715000Y-125095000D03*
X152400000Y-88265000D03*
X149860000Y-97155000D03*
X161798000Y-98958400D03*
X147955000Y-120650000D03*
X134620000Y-96520000D03*
X154178000Y-100076000D03*
X154940000Y-80645000D03*
X153035000Y-91440000D03*
X147320000Y-71120000D03*
X143510000Y-105410000D03*
X153670000Y-88900000D03*
X130048000Y-104648000D03*
X137160000Y-93980000D03*
X158750000Y-125095000D03*
X156845000Y-125095000D03*
X139065000Y-105410000D03*
X136063501Y-77702899D03*
X154940000Y-105410000D03*
X144780000Y-68580000D03*
X152400000Y-82296000D03*
X144780000Y-95250000D03*
X131216400Y-76948700D03*
X160020000Y-53340000D03*
X132715000Y-127000000D03*
X161290000Y-116840000D03*
X151130000Y-96520000D03*
X142240000Y-71120000D03*
X157708600Y-79375000D03*
X149225000Y-119380000D03*
X154940000Y-83185000D03*
X159385000Y-94615000D03*
X139065000Y-109855000D03*
X158826200Y-95631000D03*
X135890000Y-73660000D03*
X149225000Y-115570000D03*
X131419600Y-71272400D03*
X149352000Y-87884000D03*
X157886400Y-113639600D03*
X154940000Y-49530000D03*
X152400000Y-73914000D03*
X149352000Y-86360000D03*
X141528800Y-115138200D03*
X141478000Y-118364000D03*
X154940000Y-107315000D03*
X151638000Y-110185200D03*
X148336000Y-110185200D03*
X161290000Y-115570000D03*
X152400000Y-95250000D03*
X156845000Y-127000000D03*
X153035000Y-92710000D03*
X152400000Y-86360000D03*
X140970000Y-111125000D03*
X130556000Y-88900000D03*
X144145000Y-109855000D03*
X137795000Y-73660000D03*
X130556000Y-84836000D03*
X161290000Y-114300000D03*
X139700000Y-68580000D03*
X158445200Y-97764600D03*
X130556000Y-86868000D03*
X150647400Y-93294200D03*
X139700000Y-96520000D03*
X128828800Y-94640400D03*
X129540000Y-53340000D03*
X130810000Y-125095000D03*
X147955000Y-114935000D03*
X152400000Y-84328000D03*
X142240000Y-93980000D03*
X147955000Y-118110000D03*
X130048000Y-101092000D03*
X142875000Y-97155000D03*
X149352000Y-84836000D03*
%TO.N,/5V*%
X155371800Y-91236800D03*
X155371800Y-89001600D03*
X149707600Y-76657200D03*
X135636000Y-52984400D03*
X138379200Y-113080800D03*
X140512800Y-122986800D03*
%TO.N,Net-(C9-Pad1)*%
X158314500Y-96773682D03*
X156515500Y-98552000D03*
%TO.N,/D_P*%
X145925011Y-127254000D03*
X144526000Y-127254000D03*
%TO.N,Net-(CN1-PadB5)*%
X145745200Y-119989600D03*
X143306800Y-119989600D03*
%TO.N,/GPIO15{slash}CS*%
X156260800Y-81788000D03*
X149682200Y-99886100D03*
%TO.N,/GPIO12{slash}MISO*%
X144780000Y-103225600D03*
%TO.N,/GPIO13{slash}MOSI*%
X143713200Y-103784400D03*
%TO.N,/GPIO1{slash}TX0*%
X140277280Y-76134416D03*
X139954000Y-73152000D03*
%TO.N,/GPIO3{slash}RX0*%
X139496800Y-76758800D03*
X149453600Y-91338400D03*
X138938000Y-73101200D03*
X149402800Y-93319600D03*
%TO.N,/GPIO16*%
X153441400Y-125501400D03*
X137490200Y-98272600D03*
%TO.N,/ADC_IN*%
X134366000Y-94284800D03*
X136652000Y-75996800D03*
%TO.N,/GPIO0{slash}FLASH*%
X154990800Y-118821200D03*
X158038800Y-118872000D03*
X148742400Y-75793600D03*
X151074901Y-98446101D03*
X153075300Y-80162400D03*
X150622000Y-104485499D03*
X150622000Y-106527600D03*
%TO.N,/RST*%
X127927700Y-98298000D03*
X128981200Y-92303600D03*
%TO.N,/GPIO14{slash}SCK*%
X144780000Y-102108000D03*
%TO.N,/GPIO4{slash}SDA*%
X129679100Y-78181200D03*
X145135600Y-53086000D03*
X135839200Y-100126800D03*
%TO.N,/GPIO5{slash}SCL*%
X131876800Y-78892400D03*
X141274800Y-64160400D03*
X139141200Y-64160400D03*
X135045988Y-99402300D03*
%TO.N,/GPIO2*%
X149453600Y-90220800D03*
X144881600Y-99847400D03*
X152120600Y-90220800D03*
%TD*%
D20*
%TO.N,/3V3*%
X160641711Y-101600969D02*
X156845000Y-105397680D01*
X153517600Y-58420000D02*
X153416000Y-58318400D01*
X160641711Y-96025289D02*
X160641711Y-101600969D01*
X156845000Y-111607600D02*
X151587200Y-116865400D01*
X147624800Y-58318400D02*
X146288000Y-59655200D01*
X146151600Y-116840000D02*
X143103600Y-116840000D01*
X129997200Y-110490000D02*
X129997200Y-113182400D01*
X137160000Y-125577600D02*
X138684000Y-124053600D01*
X146288000Y-59655200D02*
X146288000Y-60362000D01*
X156845000Y-105397680D02*
X156845000Y-111607600D01*
X143103600Y-116840000D02*
X143052800Y-116789200D01*
X129997200Y-114554000D02*
X130302000Y-114858800D01*
X146288000Y-57692800D02*
X146288000Y-60362000D01*
X129997200Y-113182400D02*
X129997200Y-114554000D01*
X137617200Y-115570000D02*
X138684000Y-116636800D01*
X153416000Y-58318400D02*
X147624800Y-58318400D01*
X161213800Y-95453200D02*
X160641711Y-96025289D01*
X134315200Y-115570000D02*
X137617200Y-115570000D01*
X130302000Y-114858800D02*
X131013200Y-115570000D01*
X138684000Y-124053600D02*
X138684000Y-116636800D01*
X131013200Y-115570000D02*
X134315200Y-115570000D01*
X130302000Y-110185200D02*
X129997200Y-110490000D01*
X144729200Y-56134000D02*
X146288000Y-57692800D01*
D21*
%TO.N,GND*%
X152400000Y-79400400D02*
X157683200Y-79400400D01*
X141478000Y-118364000D02*
X141478000Y-115189000D01*
X141478000Y-115189000D02*
X141528800Y-115138200D01*
X148990289Y-82810111D02*
X152400000Y-79400400D01*
X158445200Y-97764600D02*
X156133800Y-100076000D01*
X157683200Y-79400400D02*
X157708600Y-79375000D01*
X156133800Y-100076000D02*
X154178000Y-100076000D01*
X131216400Y-71475600D02*
X131419600Y-71272400D01*
X160578800Y-112268000D02*
X160578800Y-107289600D01*
X157886400Y-113639600D02*
X159207200Y-113639600D01*
X131216400Y-76948700D02*
X131216400Y-71475600D01*
X136063501Y-78364701D02*
X136063501Y-77702899D01*
X152400000Y-73914000D02*
X152400000Y-79400400D01*
X159207200Y-113639600D02*
X160578800Y-112268000D01*
X139334400Y-81635600D02*
X140508911Y-82810111D01*
X151638000Y-110185200D02*
X148336000Y-110185200D01*
X160578800Y-107289600D02*
X161798000Y-106070400D01*
X140508911Y-82810111D02*
X148990289Y-82810111D01*
X139334400Y-81635600D02*
X136063501Y-78364701D01*
X161798000Y-106070400D02*
X161798000Y-98958400D01*
D20*
%TO.N,/5V*%
X140512800Y-115214400D02*
X138379200Y-113080800D01*
X140512800Y-122986800D02*
X140512800Y-115214400D01*
D22*
X143332200Y-62357000D02*
X136982200Y-62357000D01*
X149707600Y-68732400D02*
X143332200Y-62357000D01*
X141874400Y-81635600D02*
X146816889Y-76693111D01*
X149707600Y-76657200D02*
X149707600Y-68732400D01*
X149047200Y-76657200D02*
X149707600Y-76657200D01*
X135636000Y-52984400D02*
X135636000Y-57594500D01*
X134505700Y-59880500D02*
X133350000Y-59880500D01*
X146816889Y-76693111D02*
X149047200Y-76693111D01*
X155371800Y-91236800D02*
X155371800Y-89001600D01*
X136982200Y-62357000D02*
X134505700Y-59880500D01*
X135636000Y-57594500D02*
X133350000Y-59880500D01*
D21*
%TO.N,Net-(C9-Pad1)*%
X156536182Y-98552000D02*
X158314500Y-96773682D01*
X156515500Y-98552000D02*
X156536182Y-98552000D01*
D23*
%TO.N,/D_P*%
X144526000Y-127254000D02*
X145925011Y-127254000D01*
D21*
%TO.N,Net-(CN1-PadB5)*%
X145745200Y-119989600D02*
X143306800Y-119989600D01*
%TO.N,/GPIO15{slash}CS*%
X150659500Y-99886100D02*
X156250760Y-94294840D01*
X156250760Y-94294840D02*
X156250760Y-82565360D01*
X156250760Y-82565360D02*
X156250760Y-81798040D01*
X149682200Y-99886100D02*
X150659500Y-99886100D01*
X156250760Y-81798040D02*
X156260800Y-81788000D01*
%TO.N,/GPIO12{slash}MISO*%
X160889231Y-79632700D02*
X160889231Y-69639731D01*
X149300482Y-103225600D02*
X157599320Y-94926761D01*
X157599320Y-94926761D02*
X157599320Y-82922612D01*
X157599320Y-82922612D02*
X160889231Y-79632700D01*
X144780000Y-103225600D02*
X149300482Y-103225600D01*
X160889231Y-69639731D02*
X156210000Y-64960500D01*
%TO.N,/GPIO13{slash}MOSI*%
X158048840Y-95112958D02*
X158048840Y-83108810D01*
X143713200Y-103784400D02*
X143878911Y-103950111D01*
X158048840Y-83108810D02*
X161338751Y-79818897D01*
X143878911Y-103950111D02*
X149211689Y-103950111D01*
X161338751Y-79818897D02*
X161338751Y-67549251D01*
X161338751Y-67549251D02*
X156210000Y-62420500D01*
X149211689Y-103950111D02*
X158048840Y-95112958D01*
%TO.N,/GPIO1{slash}TX0*%
X140277280Y-76134416D02*
X139954000Y-75811136D01*
X139954000Y-75811136D02*
X139954000Y-73152000D01*
%TO.N,/GPIO3{slash}RX0*%
X149453600Y-91338400D02*
X149387500Y-91404500D01*
X138938000Y-73101200D02*
X138938000Y-76200000D01*
X138938000Y-76200000D02*
X139496800Y-76758800D01*
X149387500Y-91404500D02*
X149387500Y-93304300D01*
X149387500Y-93304300D02*
X149402800Y-93319600D01*
%TO.N,/GPIO16*%
X143027400Y-101066600D02*
X150188046Y-101066600D01*
X141681200Y-102412800D02*
X141681200Y-109685814D01*
X150188046Y-101066600D02*
X156700280Y-94554366D01*
X156700280Y-94554366D02*
X156700280Y-82542320D01*
X137541000Y-98272600D02*
X141681200Y-102412800D01*
X153441400Y-121446014D02*
X153441400Y-125501400D01*
X137490200Y-98272600D02*
X137541000Y-98272600D01*
X159740600Y-73812400D02*
X158508700Y-72580500D01*
X159740600Y-79502000D02*
X159740600Y-73812400D01*
X156700280Y-82542320D02*
X159740600Y-79502000D01*
X141681200Y-109685814D02*
X153441400Y-121446014D01*
X158508700Y-72580500D02*
X156210000Y-72580500D01*
X141681200Y-102412800D02*
X143027400Y-101066600D01*
%TO.N,/ADC_IN*%
X136196235Y-76454000D02*
X129819400Y-82830835D01*
X136196235Y-76452565D02*
X136196235Y-76454000D01*
X129819400Y-82830835D02*
X129819400Y-89575751D01*
X130604751Y-92555551D02*
X132334000Y-94284800D01*
X130604751Y-90361102D02*
X130604751Y-92555551D01*
X132334000Y-94284800D02*
X134366000Y-94284800D01*
X129819400Y-89575751D02*
X130604751Y-90361102D01*
X136652000Y-75996800D02*
X136196235Y-76452565D01*
%TO.N,/GPIO0{slash}FLASH*%
X154990800Y-118821200D02*
X157988000Y-118821200D01*
X154215489Y-83485103D02*
X154647289Y-83916903D01*
X150622000Y-104485499D02*
X150622000Y-106527600D01*
X154647289Y-91536903D02*
X155801240Y-92690854D01*
X154647289Y-83916903D02*
X154647289Y-91536903D01*
X148132800Y-75793600D02*
X144551400Y-72212200D01*
X144551400Y-72212200D02*
X135991600Y-72212200D01*
X154215489Y-81302589D02*
X154215489Y-83485103D01*
X148742400Y-75793600D02*
X148132800Y-75793600D01*
X155801240Y-92690854D02*
X155801240Y-93719762D01*
X157988000Y-118821200D02*
X158038800Y-118872000D01*
X135623300Y-72580500D02*
X133350000Y-72580500D01*
X155801240Y-93719762D02*
X151074901Y-98446101D01*
X135991600Y-72212200D02*
X135623300Y-72580500D01*
X153075300Y-80162400D02*
X154215489Y-81302589D01*
%TO.N,/RST*%
X127927700Y-98298000D02*
X127927700Y-93357100D01*
X127927700Y-93357100D02*
X128981200Y-92303600D01*
%TO.N,/GPIO14{slash}SCK*%
X160439711Y-71730211D02*
X156210000Y-67500500D01*
X157149800Y-82736414D02*
X160439711Y-79446503D01*
X160439711Y-79446503D02*
X160439711Y-71730211D01*
X144780000Y-102108000D02*
X149782364Y-102108000D01*
X149782364Y-102108000D02*
X157149800Y-94740564D01*
X157149800Y-94740564D02*
X157149800Y-82736414D01*
%TO.N,/GPIO4{slash}SDA*%
X128930400Y-82448400D02*
X128920360Y-82458441D01*
X144004689Y-59829089D02*
X143103600Y-58928000D01*
X133577882Y-100126800D02*
X135839200Y-100126800D01*
X128930400Y-66840100D02*
X128930400Y-78232000D01*
X144004689Y-60078689D02*
X144004689Y-59829089D01*
X143103600Y-55118000D02*
X144526000Y-53695600D01*
X143103600Y-58928000D02*
X143103600Y-55118000D01*
X133350000Y-62420500D02*
X128930400Y-66840100D01*
X129705711Y-96254629D02*
X133577882Y-100126800D01*
X144526000Y-53695600D02*
X145135600Y-53086000D01*
X129628300Y-78232000D02*
X128930400Y-78232000D01*
X128920360Y-89948145D02*
X129705711Y-90733497D01*
X129705711Y-90733497D02*
X129705711Y-96254629D01*
X128930400Y-79654400D02*
X128930400Y-82448400D01*
X128920360Y-82458441D02*
X128920360Y-89948145D01*
X129679100Y-78181200D02*
X129628300Y-78232000D01*
X128930400Y-78232000D02*
X128930400Y-79654400D01*
X144288000Y-60362000D02*
X144004689Y-60078689D01*
%TO.N,/GPIO5{slash}SCL*%
X129369880Y-89761948D02*
X129369880Y-82644638D01*
X142288000Y-54866800D02*
X143977200Y-53177600D01*
X133477000Y-99390200D02*
X130155231Y-96068431D01*
X139141200Y-64160400D02*
X141274800Y-64160400D01*
X130556000Y-78892400D02*
X130403600Y-78740000D01*
X130155231Y-96068431D02*
X130155231Y-90547300D01*
X129369880Y-82644638D02*
X130403600Y-81610918D01*
X133743100Y-99402300D02*
X133731000Y-99390200D01*
X143977200Y-53177600D02*
X143977200Y-49987200D01*
X131876800Y-78892400D02*
X130556000Y-78892400D01*
X142288000Y-60362000D02*
X142288000Y-54866800D01*
X130403600Y-81610918D02*
X130403600Y-78740000D01*
X130403600Y-67906900D02*
X133350000Y-64960500D01*
X133731000Y-99390200D02*
X133477000Y-99390200D01*
X130403600Y-78740000D02*
X130403600Y-67906900D01*
X135045988Y-99402300D02*
X133743100Y-99402300D01*
X130155231Y-90547300D02*
X129369880Y-89761948D01*
%TO.N,/GPIO2*%
X149377400Y-90220800D02*
X149453600Y-90220800D01*
X149453600Y-90220800D02*
X152120600Y-90220800D01*
X147040600Y-92557600D02*
X149377400Y-90220800D01*
X147040600Y-97688400D02*
X147040600Y-92557600D01*
X144881600Y-99847400D02*
X147040600Y-97688400D01*
%TD*%
%TA.AperFunction,Conductor*%
%TO.N,GND*%
G36*
X161966303Y-80183653D02*
G01*
X162024447Y-80224394D01*
X162051335Y-80290102D01*
X162052000Y-80303033D01*
X162052000Y-84611287D01*
X162031998Y-84679408D01*
X161978342Y-84725901D01*
X161908068Y-84736005D01*
X161844782Y-84707102D01*
X161842861Y-84704539D01*
X161726305Y-84617185D01*
X161589916Y-84566055D01*
X161527734Y-84559300D01*
X159731466Y-84559300D01*
X159669284Y-84566055D01*
X159532895Y-84617185D01*
X159416339Y-84704539D01*
X159328985Y-84821095D01*
X159277855Y-84957484D01*
X159271100Y-85019666D01*
X159271100Y-86815934D01*
X159277855Y-86878116D01*
X159328985Y-87014505D01*
X159416339Y-87131061D01*
X159532895Y-87218415D01*
X159541304Y-87221567D01*
X159541305Y-87221568D01*
X159650051Y-87262335D01*
X159706816Y-87304976D01*
X159731516Y-87371538D01*
X159716309Y-87440887D01*
X159696916Y-87467368D01*
X159570229Y-87599938D01*
X159444343Y-87784480D01*
X159417085Y-87843203D01*
X159358405Y-87969619D01*
X159350288Y-87987105D01*
X159290589Y-88202370D01*
X159266851Y-88424495D01*
X159279710Y-88647515D01*
X159280847Y-88652561D01*
X159280848Y-88652567D01*
X159301875Y-88745869D01*
X159328822Y-88865439D01*
X159412866Y-89072416D01*
X159447876Y-89129547D01*
X159482087Y-89185374D01*
X159529587Y-89262888D01*
X159675850Y-89431738D01*
X159847726Y-89574432D01*
X159869747Y-89587300D01*
X159921555Y-89617574D01*
X159970279Y-89669212D01*
X159983350Y-89738995D01*
X159956619Y-89804767D01*
X159916162Y-89838127D01*
X159908057Y-89842346D01*
X159899338Y-89847836D01*
X159729033Y-89975705D01*
X159721326Y-89982548D01*
X159574190Y-90136517D01*
X159567704Y-90144527D01*
X159447698Y-90320449D01*
X159442600Y-90329423D01*
X159352938Y-90522583D01*
X159349375Y-90532270D01*
X159293989Y-90731983D01*
X159295512Y-90740407D01*
X159307892Y-90743800D01*
X160757600Y-90743800D01*
X160825721Y-90763802D01*
X160872214Y-90817458D01*
X160883600Y-90869800D01*
X160883600Y-92316317D01*
X160887664Y-92330159D01*
X160901078Y-92332193D01*
X160907784Y-92331334D01*
X160917862Y-92329192D01*
X161121855Y-92267991D01*
X161131442Y-92264233D01*
X161322695Y-92170539D01*
X161331545Y-92165264D01*
X161504928Y-92041592D01*
X161512800Y-92034939D01*
X161663652Y-91884612D01*
X161670330Y-91876765D01*
X161794603Y-91703820D01*
X161799913Y-91694983D01*
X161813043Y-91668417D01*
X161861157Y-91616210D01*
X161929858Y-91598303D01*
X161997334Y-91620381D01*
X162042163Y-91675435D01*
X162052000Y-91724244D01*
X162052000Y-94698144D01*
X162031998Y-94766265D01*
X161978342Y-94812758D01*
X161908068Y-94822862D01*
X161843488Y-94793368D01*
X161832374Y-94782465D01*
X161825053Y-94774334D01*
X161699749Y-94683295D01*
X161675894Y-94665963D01*
X161675893Y-94665962D01*
X161670552Y-94662082D01*
X161664524Y-94659398D01*
X161664522Y-94659397D01*
X161502119Y-94587091D01*
X161502118Y-94587091D01*
X161496088Y-94584406D01*
X161402688Y-94564553D01*
X161315744Y-94546072D01*
X161315739Y-94546072D01*
X161309287Y-94544700D01*
X161118313Y-94544700D01*
X161111861Y-94546072D01*
X161111856Y-94546072D01*
X161024912Y-94564553D01*
X160931512Y-94584406D01*
X160925482Y-94587091D01*
X160925481Y-94587091D01*
X160763078Y-94659397D01*
X160763076Y-94659398D01*
X160757048Y-94662082D01*
X160751707Y-94665962D01*
X160751706Y-94665963D01*
X160727851Y-94683295D01*
X160602547Y-94774334D01*
X160598126Y-94779244D01*
X160598125Y-94779245D01*
X160506984Y-94880468D01*
X160474760Y-94916256D01*
X160462032Y-94938302D01*
X160384820Y-95072037D01*
X160379273Y-95081644D01*
X160320258Y-95263272D01*
X160319568Y-95269837D01*
X160315350Y-95309970D01*
X160288337Y-95375627D01*
X160279135Y-95385895D01*
X160161191Y-95503839D01*
X160154926Y-95509693D01*
X160111326Y-95547728D01*
X160106959Y-95553942D01*
X160074583Y-95600008D01*
X160070650Y-95605303D01*
X160031235Y-95655571D01*
X160028112Y-95662487D01*
X160026728Y-95664773D01*
X160018354Y-95679454D01*
X160017089Y-95681814D01*
X160012721Y-95688028D01*
X160009961Y-95695107D01*
X160009960Y-95695109D01*
X159989509Y-95747564D01*
X159986958Y-95753633D01*
X159960666Y-95811862D01*
X159959282Y-95819329D01*
X159958481Y-95821884D01*
X159953852Y-95838137D01*
X159953189Y-95840717D01*
X159950429Y-95847798D01*
X159942560Y-95907573D01*
X159942090Y-95911141D01*
X159941059Y-95917648D01*
X159929415Y-95980475D01*
X159929852Y-95988055D01*
X159929852Y-95988056D01*
X159933002Y-96042681D01*
X159933211Y-96049935D01*
X159933211Y-101255309D01*
X159913209Y-101323430D01*
X159896306Y-101344404D01*
X156364480Y-104876230D01*
X156358215Y-104882084D01*
X156314615Y-104920119D01*
X156310248Y-104926333D01*
X156277872Y-104972399D01*
X156273939Y-104977694D01*
X156234524Y-105027962D01*
X156231401Y-105034878D01*
X156230017Y-105037164D01*
X156221643Y-105051845D01*
X156220378Y-105054205D01*
X156216010Y-105060419D01*
X156213250Y-105067498D01*
X156213249Y-105067500D01*
X156192798Y-105119955D01*
X156190247Y-105126024D01*
X156163955Y-105184253D01*
X156162571Y-105191720D01*
X156161770Y-105194275D01*
X156157141Y-105210528D01*
X156156478Y-105213108D01*
X156153718Y-105220189D01*
X156152727Y-105227720D01*
X156152726Y-105227722D01*
X156145379Y-105283532D01*
X156144348Y-105290039D01*
X156132704Y-105352866D01*
X156133141Y-105360446D01*
X156133141Y-105360447D01*
X156136291Y-105415072D01*
X156136500Y-105422326D01*
X156136500Y-111261940D01*
X156116498Y-111330061D01*
X156099595Y-111351035D01*
X151520667Y-115929963D01*
X151457769Y-115964115D01*
X151304912Y-115996606D01*
X151298882Y-115999291D01*
X151298881Y-115999291D01*
X151136478Y-116071597D01*
X151136476Y-116071598D01*
X151130448Y-116074282D01*
X151125107Y-116078162D01*
X151125106Y-116078163D01*
X151094520Y-116100385D01*
X150975947Y-116186534D01*
X150971526Y-116191444D01*
X150971525Y-116191445D01*
X150889723Y-116282296D01*
X150848160Y-116328456D01*
X150844859Y-116334174D01*
X150769994Y-116463844D01*
X150752673Y-116493844D01*
X150693658Y-116675472D01*
X150692968Y-116682033D01*
X150692968Y-116682035D01*
X150677761Y-116826728D01*
X150673696Y-116865400D01*
X150674386Y-116871965D01*
X150690299Y-117023365D01*
X150693658Y-117055328D01*
X150752673Y-117236956D01*
X150848160Y-117402344D01*
X150852578Y-117407251D01*
X150852579Y-117407252D01*
X150948655Y-117513955D01*
X150975947Y-117544266D01*
X151020228Y-117576438D01*
X151099184Y-117633803D01*
X151130448Y-117656518D01*
X151136476Y-117659202D01*
X151136478Y-117659203D01*
X151247862Y-117708794D01*
X151304912Y-117734194D01*
X151398312Y-117754047D01*
X151485256Y-117772528D01*
X151485261Y-117772528D01*
X151491713Y-117773900D01*
X151682687Y-117773900D01*
X151689139Y-117772528D01*
X151689144Y-117772528D01*
X151776088Y-117754047D01*
X151869488Y-117734194D01*
X151926538Y-117708794D01*
X152037922Y-117659203D01*
X152037924Y-117659202D01*
X152043952Y-117656518D01*
X152075217Y-117633803D01*
X152154172Y-117576438D01*
X152198453Y-117544266D01*
X152225745Y-117513955D01*
X152321821Y-117407252D01*
X152321822Y-117407251D01*
X152326240Y-117402344D01*
X152421727Y-117236956D01*
X152480742Y-117055328D01*
X152485650Y-117008630D01*
X152512663Y-116942973D01*
X152521865Y-116932705D01*
X157325520Y-112129050D01*
X157331785Y-112123196D01*
X157332238Y-112122801D01*
X157375385Y-112085161D01*
X157412129Y-112032880D01*
X157416061Y-112027586D01*
X157450791Y-111983293D01*
X157455476Y-111977318D01*
X157458599Y-111970402D01*
X157459983Y-111968116D01*
X157468357Y-111953435D01*
X157469622Y-111951075D01*
X157473990Y-111944861D01*
X157497203Y-111885323D01*
X157499759Y-111879242D01*
X157522918Y-111827952D01*
X157526045Y-111821027D01*
X157527430Y-111813554D01*
X157528234Y-111810988D01*
X157532855Y-111794765D01*
X157533520Y-111792173D01*
X157536282Y-111785091D01*
X157544622Y-111721739D01*
X157545654Y-111715223D01*
X157555911Y-111659881D01*
X157557295Y-111652414D01*
X157553709Y-111590220D01*
X157553500Y-111582967D01*
X157553500Y-107557566D01*
X159247057Y-107557566D01*
X159277365Y-107692046D01*
X159280445Y-107701875D01*
X159360570Y-107899203D01*
X159365213Y-107908394D01*
X159476494Y-108089988D01*
X159482577Y-108098299D01*
X159622013Y-108259267D01*
X159629380Y-108266483D01*
X159793234Y-108402516D01*
X159801681Y-108408431D01*
X159985556Y-108515879D01*
X159994842Y-108520329D01*
X160193801Y-108596303D01*
X160203699Y-108599179D01*
X160307050Y-108620206D01*
X160321099Y-108619010D01*
X160324800Y-108608665D01*
X160324800Y-107561715D01*
X160320325Y-107546476D01*
X160318935Y-107545271D01*
X160311252Y-107543600D01*
X159262025Y-107543600D01*
X159248494Y-107547573D01*
X159247057Y-107557566D01*
X157553500Y-107557566D01*
X157553500Y-105743340D01*
X157573502Y-105675219D01*
X157590405Y-105654245D01*
X159005205Y-104239445D01*
X159067517Y-104205419D01*
X159138332Y-104210484D01*
X159195168Y-104253031D01*
X159219979Y-104319551D01*
X159220300Y-104328540D01*
X159220300Y-105647734D01*
X159227055Y-105709916D01*
X159278185Y-105846305D01*
X159365539Y-105962861D01*
X159482095Y-106050215D01*
X159490504Y-106053367D01*
X159490505Y-106053368D01*
X159599760Y-106094326D01*
X159656525Y-106136967D01*
X159681225Y-106203529D01*
X159666018Y-106272878D01*
X159646625Y-106299359D01*
X159523390Y-106428317D01*
X159516904Y-106436327D01*
X159396898Y-106612249D01*
X159391800Y-106621223D01*
X159302138Y-106814383D01*
X159298575Y-106824070D01*
X159243189Y-107023783D01*
X159244712Y-107032207D01*
X159257092Y-107035600D01*
X160706800Y-107035600D01*
X160774921Y-107055602D01*
X160821414Y-107109258D01*
X160832800Y-107161600D01*
X160832800Y-108608117D01*
X160836864Y-108621959D01*
X160850278Y-108623993D01*
X160856984Y-108623134D01*
X160867062Y-108620992D01*
X161071055Y-108559791D01*
X161080642Y-108556033D01*
X161271895Y-108462339D01*
X161280745Y-108457064D01*
X161454128Y-108333392D01*
X161462000Y-108326739D01*
X161612852Y-108176412D01*
X161619530Y-108168565D01*
X161743803Y-107995620D01*
X161749113Y-107986783D01*
X161813043Y-107857432D01*
X161861157Y-107805225D01*
X161929858Y-107787318D01*
X161997335Y-107809397D01*
X162042163Y-107864451D01*
X162052000Y-107913259D01*
X162052000Y-130125672D01*
X162050500Y-130145056D01*
X162046814Y-130168730D01*
X162048454Y-130181270D01*
X162048650Y-130182767D01*
X162049325Y-130208989D01*
X162035579Y-130383654D01*
X162032486Y-130403181D01*
X161987057Y-130592408D01*
X161985941Y-130597055D01*
X161979833Y-130615854D01*
X161903529Y-130800067D01*
X161894555Y-130817678D01*
X161790374Y-130987685D01*
X161778759Y-131003673D01*
X161713055Y-131080603D01*
X161649268Y-131155288D01*
X161635290Y-131169266D01*
X161483673Y-131298759D01*
X161467685Y-131310374D01*
X161297678Y-131414555D01*
X161280067Y-131423529D01*
X161095854Y-131499833D01*
X161077059Y-131505940D01*
X160883182Y-131552486D01*
X160863653Y-131555579D01*
X160695987Y-131568774D01*
X160679119Y-131568133D01*
X160679117Y-131568305D01*
X160670141Y-131568195D01*
X160661270Y-131566814D01*
X160652368Y-131567978D01*
X160652365Y-131567978D01*
X160629749Y-131570936D01*
X160613411Y-131572000D01*
X150088452Y-131572000D01*
X150020331Y-131551998D01*
X149973838Y-131498342D01*
X149963734Y-131428068D01*
X149978038Y-131385299D01*
X150028002Y-131294415D01*
X150032834Y-131283142D01*
X150088880Y-131106462D01*
X150091430Y-131094468D01*
X150107607Y-130950239D01*
X150108000Y-130943215D01*
X150108000Y-130862115D01*
X150103525Y-130846876D01*
X150102135Y-130845671D01*
X150094452Y-130844000D01*
X148110115Y-130844000D01*
X148094876Y-130848475D01*
X148093671Y-130849865D01*
X148092000Y-130857548D01*
X148092000Y-130936657D01*
X148092301Y-130942805D01*
X148105812Y-131080603D01*
X148108195Y-131092638D01*
X148161767Y-131270076D01*
X148166441Y-131281416D01*
X148222499Y-131386847D01*
X148236818Y-131456385D01*
X148211270Y-131522625D01*
X148153965Y-131564538D01*
X148111247Y-131572000D01*
X141448452Y-131572000D01*
X141380331Y-131551998D01*
X141333838Y-131498342D01*
X141323734Y-131428068D01*
X141338038Y-131385299D01*
X141388002Y-131294415D01*
X141392834Y-131283142D01*
X141448880Y-131106462D01*
X141451430Y-131094468D01*
X141467607Y-130950239D01*
X141468000Y-130943215D01*
X141468000Y-130862115D01*
X141463525Y-130846876D01*
X141462135Y-130845671D01*
X141454452Y-130844000D01*
X139470115Y-130844000D01*
X139454876Y-130848475D01*
X139453671Y-130849865D01*
X139452000Y-130857548D01*
X139452000Y-130936657D01*
X139452301Y-130942805D01*
X139465812Y-131080603D01*
X139468195Y-131092638D01*
X139521767Y-131270076D01*
X139526441Y-131281416D01*
X139582499Y-131386847D01*
X139596818Y-131456385D01*
X139571270Y-131522625D01*
X139513965Y-131564538D01*
X139471247Y-131572000D01*
X128954328Y-131572000D01*
X128934943Y-131570500D01*
X128920142Y-131568195D01*
X128920139Y-131568195D01*
X128911270Y-131566814D01*
X128897231Y-131568650D01*
X128871011Y-131569325D01*
X128696346Y-131555579D01*
X128676818Y-131552486D01*
X128482941Y-131505940D01*
X128464146Y-131499833D01*
X128279933Y-131423529D01*
X128262322Y-131414555D01*
X128092315Y-131310374D01*
X128076327Y-131298759D01*
X127924710Y-131169266D01*
X127910732Y-131155288D01*
X127846945Y-131080603D01*
X127781241Y-131003673D01*
X127769626Y-130987685D01*
X127665445Y-130817678D01*
X127656471Y-130800067D01*
X127580167Y-130615854D01*
X127574059Y-130597055D01*
X127572944Y-130592408D01*
X127527514Y-130403181D01*
X127524421Y-130383653D01*
X127511226Y-130215987D01*
X127511867Y-130199119D01*
X127511695Y-130199117D01*
X127511805Y-130190141D01*
X127513186Y-130181270D01*
X127511715Y-130170016D01*
X127509064Y-130149749D01*
X127508000Y-130133411D01*
X127508000Y-129012655D01*
X128414858Y-129012655D01*
X128450104Y-129271638D01*
X128451412Y-129276124D01*
X128451412Y-129276126D01*
X128465745Y-129325299D01*
X128523243Y-129522567D01*
X128632668Y-129759928D01*
X128635231Y-129763837D01*
X128773410Y-129974596D01*
X128773414Y-129974601D01*
X128775976Y-129978509D01*
X128950018Y-130173506D01*
X129150970Y-130340637D01*
X129154973Y-130343066D01*
X129370422Y-130473804D01*
X129370426Y-130473806D01*
X129374419Y-130476229D01*
X129615455Y-130577303D01*
X129868783Y-130641641D01*
X129873434Y-130642109D01*
X129873438Y-130642110D01*
X130066308Y-130661531D01*
X130085867Y-130663500D01*
X130241354Y-130663500D01*
X130243679Y-130663327D01*
X130243685Y-130663327D01*
X130431000Y-130649407D01*
X130431004Y-130649406D01*
X130435652Y-130649061D01*
X130440200Y-130648032D01*
X130440206Y-130648031D01*
X130665484Y-130597055D01*
X130690577Y-130591377D01*
X130726769Y-130577303D01*
X130929824Y-130498340D01*
X130929827Y-130498339D01*
X130934177Y-130496647D01*
X131161098Y-130366951D01*
X131223338Y-130317885D01*
X139452000Y-130317885D01*
X139456475Y-130333124D01*
X139457865Y-130334329D01*
X139465548Y-130336000D01*
X140187885Y-130336000D01*
X140203124Y-130331525D01*
X140204329Y-130330135D01*
X140206000Y-130322452D01*
X140206000Y-130317885D01*
X140714000Y-130317885D01*
X140718475Y-130333124D01*
X140719865Y-130334329D01*
X140727548Y-130336000D01*
X141449885Y-130336000D01*
X141465124Y-130331525D01*
X141466329Y-130330135D01*
X141468000Y-130322452D01*
X141468000Y-130317885D01*
X148092000Y-130317885D01*
X148096475Y-130333124D01*
X148097865Y-130334329D01*
X148105548Y-130336000D01*
X148827885Y-130336000D01*
X148843124Y-130331525D01*
X148844329Y-130330135D01*
X148846000Y-130322452D01*
X148846000Y-130317885D01*
X149354000Y-130317885D01*
X149358475Y-130333124D01*
X149359865Y-130334329D01*
X149367548Y-130336000D01*
X150089885Y-130336000D01*
X150105124Y-130331525D01*
X150106329Y-130330135D01*
X150108000Y-130322452D01*
X150108000Y-130243343D01*
X150107699Y-130237195D01*
X150094188Y-130099397D01*
X150091805Y-130087362D01*
X150038233Y-129909924D01*
X150033559Y-129898584D01*
X149946540Y-129734923D01*
X149939751Y-129724706D01*
X149822603Y-129581067D01*
X149813959Y-129572363D01*
X149671144Y-129454216D01*
X149660973Y-129447356D01*
X149497924Y-129359196D01*
X149486619Y-129354444D01*
X149371308Y-129318750D01*
X149357205Y-129318544D01*
X149354000Y-129325299D01*
X149354000Y-130317885D01*
X148846000Y-130317885D01*
X148846000Y-129332076D01*
X148842027Y-129318545D01*
X148834232Y-129317425D01*
X148726479Y-129349138D01*
X148715111Y-129353731D01*
X148550846Y-129439607D01*
X148540585Y-129446321D01*
X148396127Y-129562468D01*
X148387368Y-129571046D01*
X148268222Y-129713039D01*
X148261292Y-129723159D01*
X148171998Y-129885585D01*
X148167166Y-129896858D01*
X148111120Y-130073538D01*
X148108570Y-130085532D01*
X148092393Y-130229761D01*
X148092000Y-130236785D01*
X148092000Y-130317885D01*
X141468000Y-130317885D01*
X141468000Y-130243343D01*
X141467699Y-130237195D01*
X141454188Y-130099397D01*
X141451805Y-130087362D01*
X141398233Y-129909924D01*
X141393559Y-129898584D01*
X141306540Y-129734923D01*
X141299751Y-129724706D01*
X141182603Y-129581067D01*
X141173959Y-129572363D01*
X141031144Y-129454216D01*
X141020973Y-129447356D01*
X140857924Y-129359196D01*
X140846619Y-129354444D01*
X140731308Y-129318750D01*
X140717205Y-129318544D01*
X140714000Y-129325299D01*
X140714000Y-130317885D01*
X140206000Y-130317885D01*
X140206000Y-129332076D01*
X140202027Y-129318545D01*
X140194232Y-129317425D01*
X140086479Y-129349138D01*
X140075111Y-129353731D01*
X139910846Y-129439607D01*
X139900585Y-129446321D01*
X139756127Y-129562468D01*
X139747368Y-129571046D01*
X139628222Y-129713039D01*
X139621292Y-129723159D01*
X139531998Y-129885585D01*
X139527166Y-129896858D01*
X139471120Y-130073538D01*
X139468570Y-130085532D01*
X139452393Y-130229761D01*
X139452000Y-130236785D01*
X139452000Y-130317885D01*
X131223338Y-130317885D01*
X131366357Y-130205138D01*
X131545443Y-130014763D01*
X131694424Y-129800009D01*
X131726521Y-129734923D01*
X131807960Y-129569781D01*
X131807961Y-129569778D01*
X131810025Y-129565593D01*
X131889707Y-129316665D01*
X131931721Y-129058693D01*
X131932324Y-129012655D01*
X157624858Y-129012655D01*
X157660104Y-129271638D01*
X157661412Y-129276124D01*
X157661412Y-129276126D01*
X157675745Y-129325299D01*
X157733243Y-129522567D01*
X157842668Y-129759928D01*
X157845231Y-129763837D01*
X157983410Y-129974596D01*
X157983414Y-129974601D01*
X157985976Y-129978509D01*
X158160018Y-130173506D01*
X158360970Y-130340637D01*
X158364973Y-130343066D01*
X158580422Y-130473804D01*
X158580426Y-130473806D01*
X158584419Y-130476229D01*
X158825455Y-130577303D01*
X159078783Y-130641641D01*
X159083434Y-130642109D01*
X159083438Y-130642110D01*
X159276308Y-130661531D01*
X159295867Y-130663500D01*
X159451354Y-130663500D01*
X159453679Y-130663327D01*
X159453685Y-130663327D01*
X159641000Y-130649407D01*
X159641004Y-130649406D01*
X159645652Y-130649061D01*
X159650200Y-130648032D01*
X159650206Y-130648031D01*
X159875484Y-130597055D01*
X159900577Y-130591377D01*
X159936769Y-130577303D01*
X160139824Y-130498340D01*
X160139827Y-130498339D01*
X160144177Y-130496647D01*
X160371098Y-130366951D01*
X160576357Y-130205138D01*
X160755443Y-130014763D01*
X160904424Y-129800009D01*
X160936521Y-129734923D01*
X161017960Y-129569781D01*
X161017961Y-129569778D01*
X161020025Y-129565593D01*
X161099707Y-129316665D01*
X161141721Y-129058693D01*
X161145142Y-128797345D01*
X161109896Y-128538362D01*
X161095473Y-128488877D01*
X161038068Y-128291932D01*
X161036757Y-128287433D01*
X160927332Y-128050072D01*
X160853034Y-127936749D01*
X160786590Y-127835404D01*
X160786586Y-127835399D01*
X160784024Y-127831491D01*
X160609982Y-127636494D01*
X160409030Y-127469363D01*
X160317770Y-127413985D01*
X160189578Y-127336196D01*
X160189574Y-127336194D01*
X160185581Y-127333771D01*
X159944545Y-127232697D01*
X159691217Y-127168359D01*
X159686566Y-127167891D01*
X159686562Y-127167890D01*
X159477271Y-127146816D01*
X159474133Y-127146500D01*
X159318646Y-127146500D01*
X159316321Y-127146673D01*
X159316315Y-127146673D01*
X159129000Y-127160593D01*
X159128996Y-127160594D01*
X159124348Y-127160939D01*
X159119800Y-127161968D01*
X159119794Y-127161969D01*
X158933399Y-127204147D01*
X158869423Y-127218623D01*
X158865071Y-127220315D01*
X158865069Y-127220316D01*
X158630176Y-127311660D01*
X158630173Y-127311661D01*
X158625823Y-127313353D01*
X158621769Y-127315670D01*
X158621767Y-127315671D01*
X158556207Y-127353142D01*
X158398902Y-127443049D01*
X158193643Y-127604862D01*
X158014557Y-127795237D01*
X157865576Y-128009991D01*
X157863510Y-128014181D01*
X157863508Y-128014184D01*
X157791044Y-128161128D01*
X157749975Y-128244407D01*
X157670293Y-128493335D01*
X157628279Y-128751307D01*
X157624858Y-129012655D01*
X131932324Y-129012655D01*
X131935142Y-128797345D01*
X131899896Y-128538362D01*
X131885473Y-128488877D01*
X131828068Y-128291932D01*
X131826757Y-128287433D01*
X131717332Y-128050072D01*
X131643034Y-127936749D01*
X131576590Y-127835404D01*
X131576586Y-127835399D01*
X131574024Y-127831491D01*
X131399982Y-127636494D01*
X131199030Y-127469363D01*
X131107770Y-127413985D01*
X130979578Y-127336196D01*
X130979574Y-127336194D01*
X130975581Y-127333771D01*
X130734545Y-127232697D01*
X130481217Y-127168359D01*
X130476566Y-127167891D01*
X130476562Y-127167890D01*
X130267271Y-127146816D01*
X130264133Y-127146500D01*
X130108646Y-127146500D01*
X130106321Y-127146673D01*
X130106315Y-127146673D01*
X129919000Y-127160593D01*
X129918996Y-127160594D01*
X129914348Y-127160939D01*
X129909800Y-127161968D01*
X129909794Y-127161969D01*
X129723399Y-127204147D01*
X129659423Y-127218623D01*
X129655071Y-127220315D01*
X129655069Y-127220316D01*
X129420176Y-127311660D01*
X129420173Y-127311661D01*
X129415823Y-127313353D01*
X129411769Y-127315670D01*
X129411767Y-127315671D01*
X129346207Y-127353142D01*
X129188902Y-127443049D01*
X128983643Y-127604862D01*
X128804557Y-127795237D01*
X128655576Y-128009991D01*
X128653510Y-128014181D01*
X128653508Y-128014184D01*
X128581044Y-128161128D01*
X128539975Y-128244407D01*
X128460293Y-128493335D01*
X128418279Y-128751307D01*
X128414858Y-129012655D01*
X127508000Y-129012655D01*
X127508000Y-127006657D01*
X139452000Y-127006657D01*
X139452301Y-127012805D01*
X139465812Y-127150603D01*
X139468195Y-127162638D01*
X139521767Y-127340076D01*
X139526441Y-127351416D01*
X139613460Y-127515077D01*
X139620249Y-127525294D01*
X139737397Y-127668933D01*
X139746041Y-127677637D01*
X139888856Y-127795784D01*
X139899027Y-127802644D01*
X140062076Y-127890804D01*
X140073381Y-127895556D01*
X140188692Y-127931250D01*
X140202795Y-127931456D01*
X140206000Y-127924701D01*
X140206000Y-127917924D01*
X140714000Y-127917924D01*
X140717973Y-127931455D01*
X140725768Y-127932575D01*
X140833521Y-127900862D01*
X140844889Y-127896269D01*
X141009154Y-127810393D01*
X141019415Y-127803679D01*
X141163873Y-127687532D01*
X141172632Y-127678954D01*
X141217000Y-127626079D01*
X141276110Y-127586752D01*
X141347098Y-127585626D01*
X141390048Y-127606972D01*
X141455678Y-127657150D01*
X141542372Y-127697576D01*
X141613631Y-127730805D01*
X141613634Y-127730806D01*
X141619808Y-127733685D01*
X141626456Y-127735171D01*
X141626459Y-127735172D01*
X141732421Y-127758857D01*
X141796543Y-127773190D01*
X141802088Y-127773500D01*
X141935244Y-127773500D01*
X142070037Y-127758857D01*
X142188190Y-127719094D01*
X142235204Y-127703272D01*
X142235206Y-127703271D01*
X142241675Y-127701094D01*
X142396905Y-127607823D01*
X142401862Y-127603135D01*
X142401865Y-127603133D01*
X142523527Y-127488082D01*
X142523529Y-127488080D01*
X142528485Y-127483393D01*
X142532317Y-127477755D01*
X142532320Y-127477751D01*
X142626442Y-127339255D01*
X142630277Y-127333612D01*
X142662119Y-127254000D01*
X143612496Y-127254000D01*
X143613186Y-127260565D01*
X143621457Y-127339255D01*
X143632458Y-127443928D01*
X143691473Y-127625556D01*
X143786960Y-127790944D01*
X143791378Y-127795851D01*
X143791379Y-127795852D01*
X143890949Y-127906436D01*
X143914747Y-127932866D01*
X144069248Y-128045118D01*
X144075276Y-128047802D01*
X144075278Y-128047803D01*
X144237681Y-128120109D01*
X144243712Y-128122794D01*
X144337113Y-128142647D01*
X144424056Y-128161128D01*
X144424061Y-128161128D01*
X144430513Y-128162500D01*
X144621487Y-128162500D01*
X144627939Y-128161128D01*
X144627944Y-128161128D01*
X144714887Y-128142647D01*
X144808288Y-128122794D01*
X144814319Y-128120109D01*
X144976722Y-128047803D01*
X144976724Y-128047802D01*
X144982752Y-128045118D01*
X145137253Y-127932866D01*
X145141355Y-127928310D01*
X145205206Y-127897670D01*
X145275659Y-127906436D01*
X145309602Y-127928250D01*
X145313758Y-127932866D01*
X145468259Y-128045118D01*
X145474287Y-128047802D01*
X145474289Y-128047803D01*
X145636692Y-128120109D01*
X145642723Y-128122794D01*
X145736124Y-128142647D01*
X145823067Y-128161128D01*
X145823072Y-128161128D01*
X145829524Y-128162500D01*
X146020498Y-128162500D01*
X146026950Y-128161128D01*
X146026955Y-128161128D01*
X146113898Y-128142647D01*
X146207299Y-128122794D01*
X146213330Y-128120109D01*
X146375733Y-128047803D01*
X146375735Y-128047802D01*
X146381763Y-128045118D01*
X146536264Y-127932866D01*
X146560062Y-127906436D01*
X146659632Y-127795852D01*
X146659633Y-127795851D01*
X146664051Y-127790944D01*
X146759538Y-127625556D01*
X146800260Y-127500226D01*
X146840334Y-127441622D01*
X146905731Y-127413985D01*
X146975687Y-127426092D01*
X147016329Y-127457835D01*
X147091813Y-127547157D01*
X147097237Y-127551304D01*
X147097238Y-127551305D01*
X147230257Y-127653006D01*
X147230261Y-127653009D01*
X147235678Y-127657150D01*
X147322372Y-127697576D01*
X147393631Y-127730805D01*
X147393634Y-127730806D01*
X147399808Y-127733685D01*
X147406456Y-127735171D01*
X147406459Y-127735172D01*
X147512421Y-127758857D01*
X147576543Y-127773190D01*
X147582088Y-127773500D01*
X147715244Y-127773500D01*
X147850037Y-127758857D01*
X147968190Y-127719094D01*
X148015204Y-127703272D01*
X148015206Y-127703271D01*
X148021675Y-127701094D01*
X148173651Y-127609778D01*
X148173654Y-127609777D01*
X148176905Y-127607823D01*
X148177255Y-127608406D01*
X148238917Y-127584935D01*
X148308391Y-127599561D01*
X148346391Y-127630915D01*
X148377397Y-127668933D01*
X148386041Y-127677637D01*
X148528856Y-127795784D01*
X148539027Y-127802644D01*
X148702076Y-127890804D01*
X148713381Y-127895556D01*
X148828692Y-127931250D01*
X148842795Y-127931456D01*
X148846000Y-127924701D01*
X148846000Y-127917924D01*
X149354000Y-127917924D01*
X149357973Y-127931455D01*
X149365768Y-127932575D01*
X149473521Y-127900862D01*
X149484889Y-127896269D01*
X149649154Y-127810393D01*
X149659415Y-127803679D01*
X149803873Y-127687532D01*
X149812632Y-127678954D01*
X149931778Y-127536961D01*
X149938708Y-127526841D01*
X150028002Y-127364415D01*
X150032834Y-127353142D01*
X150088880Y-127176462D01*
X150091430Y-127164468D01*
X150107607Y-127020239D01*
X150108000Y-127013215D01*
X150108000Y-126682115D01*
X150103525Y-126666876D01*
X150102135Y-126665671D01*
X150094452Y-126664000D01*
X149372115Y-126664000D01*
X149356876Y-126668475D01*
X149355671Y-126669865D01*
X149354000Y-126677548D01*
X149354000Y-127917924D01*
X148846000Y-127917924D01*
X148846000Y-126137885D01*
X149354000Y-126137885D01*
X149358475Y-126153124D01*
X149359865Y-126154329D01*
X149367548Y-126156000D01*
X150089885Y-126156000D01*
X150105124Y-126151525D01*
X150106329Y-126150135D01*
X150108000Y-126142452D01*
X150108000Y-125813343D01*
X150107699Y-125807195D01*
X150094188Y-125669397D01*
X150091805Y-125657362D01*
X150038233Y-125479924D01*
X150033559Y-125468584D01*
X149946540Y-125304923D01*
X149939751Y-125294706D01*
X149822603Y-125151067D01*
X149813959Y-125142363D01*
X149671144Y-125024216D01*
X149660973Y-125017356D01*
X149497924Y-124929196D01*
X149486619Y-124924444D01*
X149371308Y-124888750D01*
X149357205Y-124888544D01*
X149354000Y-124895299D01*
X149354000Y-126137885D01*
X148846000Y-126137885D01*
X148846000Y-124902076D01*
X148842027Y-124888545D01*
X148834232Y-124887425D01*
X148726479Y-124919138D01*
X148715111Y-124923731D01*
X148550846Y-125009607D01*
X148540585Y-125016321D01*
X148396127Y-125132468D01*
X148387368Y-125141046D01*
X148268222Y-125283039D01*
X148261292Y-125293159D01*
X148171998Y-125455585D01*
X148167166Y-125466858D01*
X148111120Y-125643538D01*
X148108570Y-125655532D01*
X148092393Y-125799761D01*
X148092000Y-125806785D01*
X148092000Y-126022974D01*
X148071998Y-126091095D01*
X148018342Y-126137588D01*
X147948068Y-126147692D01*
X147938514Y-126145939D01*
X147768506Y-126107938D01*
X147768499Y-126107937D01*
X147763457Y-126106810D01*
X147757912Y-126106500D01*
X147624756Y-126106500D01*
X147621359Y-126106869D01*
X147588761Y-126110410D01*
X147489963Y-126121143D01*
X147371810Y-126160906D01*
X147324796Y-126176728D01*
X147324794Y-126176729D01*
X147318325Y-126178906D01*
X147163095Y-126272177D01*
X147158138Y-126276865D01*
X147158135Y-126276867D01*
X147036473Y-126391918D01*
X147031515Y-126396607D01*
X147027683Y-126402245D01*
X147027680Y-126402249D01*
X146976740Y-126477205D01*
X146929723Y-126546388D01*
X146927190Y-126552722D01*
X146927188Y-126552725D01*
X146875831Y-126681128D01*
X146831962Y-126736949D01*
X146764877Y-126760191D01*
X146695877Y-126743475D01*
X146665290Y-126715941D01*
X146664051Y-126717056D01*
X146540686Y-126580045D01*
X146540685Y-126580044D01*
X146536264Y-126575134D01*
X146381763Y-126462882D01*
X146375735Y-126460198D01*
X146375733Y-126460197D01*
X146213330Y-126387891D01*
X146213329Y-126387891D01*
X146207299Y-126385206D01*
X146111471Y-126364837D01*
X146026955Y-126346872D01*
X146026950Y-126346872D01*
X146020498Y-126345500D01*
X145829524Y-126345500D01*
X145823072Y-126346872D01*
X145823067Y-126346872D01*
X145738551Y-126364837D01*
X145642723Y-126385206D01*
X145636693Y-126387891D01*
X145636692Y-126387891D01*
X145474289Y-126460197D01*
X145474287Y-126460198D01*
X145468259Y-126462882D01*
X145462918Y-126466762D01*
X145462917Y-126466763D01*
X145438191Y-126484728D01*
X145313758Y-126575134D01*
X145309658Y-126579688D01*
X145245811Y-126610329D01*
X145175357Y-126601566D01*
X145141410Y-126579751D01*
X145137253Y-126575134D01*
X145012821Y-126484728D01*
X144988094Y-126466763D01*
X144988093Y-126466762D01*
X144982752Y-126462882D01*
X144976724Y-126460198D01*
X144976722Y-126460197D01*
X144814319Y-126387891D01*
X144814318Y-126387891D01*
X144808288Y-126385206D01*
X144712460Y-126364837D01*
X144627944Y-126346872D01*
X144627939Y-126346872D01*
X144621487Y-126345500D01*
X144430513Y-126345500D01*
X144424061Y-126346872D01*
X144424056Y-126346872D01*
X144339540Y-126364837D01*
X144243712Y-126385206D01*
X144237682Y-126387891D01*
X144237681Y-126387891D01*
X144075278Y-126460197D01*
X144075276Y-126460198D01*
X144069248Y-126462882D01*
X143914747Y-126575134D01*
X143910326Y-126580044D01*
X143910325Y-126580045D01*
X143890948Y-126601566D01*
X143786960Y-126717056D01*
X143691473Y-126882444D01*
X143632458Y-127064072D01*
X143631768Y-127070633D01*
X143631768Y-127070635D01*
X143623776Y-127146673D01*
X143612496Y-127254000D01*
X142662119Y-127254000D01*
X142697530Y-127165466D01*
X142698644Y-127158738D01*
X142698645Y-127158734D01*
X142725993Y-126993539D01*
X142725993Y-126993536D01*
X142727108Y-126986802D01*
X142722203Y-126893198D01*
X142717987Y-126812766D01*
X142717630Y-126805953D01*
X142683520Y-126682115D01*
X142671352Y-126637941D01*
X142669539Y-126631359D01*
X142585078Y-126471164D01*
X142580673Y-126465951D01*
X142580670Y-126465947D01*
X142472594Y-126338057D01*
X142472590Y-126338053D01*
X142468187Y-126332843D01*
X142418956Y-126295203D01*
X142329743Y-126226994D01*
X142329739Y-126226991D01*
X142324322Y-126222850D01*
X142180962Y-126156000D01*
X142166369Y-126149195D01*
X142166366Y-126149194D01*
X142160192Y-126146315D01*
X142153544Y-126144829D01*
X142153541Y-126144828D01*
X141988494Y-126107936D01*
X141988495Y-126107936D01*
X141983457Y-126106810D01*
X141977912Y-126106500D01*
X141844756Y-126106500D01*
X141841359Y-126106869D01*
X141808761Y-126110410D01*
X141709963Y-126121143D01*
X141703499Y-126123318D01*
X141703496Y-126123319D01*
X141646645Y-126142452D01*
X141635167Y-126146315D01*
X141634189Y-126146644D01*
X141563247Y-126149414D01*
X141502068Y-126113391D01*
X141470077Y-126050010D01*
X141468000Y-126027225D01*
X141468000Y-125813343D01*
X141467699Y-125807195D01*
X141454188Y-125669397D01*
X141451805Y-125657362D01*
X141398233Y-125479924D01*
X141393559Y-125468584D01*
X141306540Y-125304923D01*
X141299751Y-125294706D01*
X141182603Y-125151067D01*
X141173959Y-125142363D01*
X141031144Y-125024216D01*
X141020973Y-125017356D01*
X140857924Y-124929196D01*
X140846619Y-124924444D01*
X140731308Y-124888750D01*
X140717205Y-124888544D01*
X140714000Y-124895299D01*
X140714000Y-127917924D01*
X140206000Y-127917924D01*
X140206000Y-126682115D01*
X140201525Y-126666876D01*
X140200135Y-126665671D01*
X140192452Y-126664000D01*
X139470115Y-126664000D01*
X139454876Y-126668475D01*
X139453671Y-126669865D01*
X139452000Y-126677548D01*
X139452000Y-127006657D01*
X127508000Y-127006657D01*
X127508000Y-114591352D01*
X129284475Y-114591352D01*
X129285780Y-114598829D01*
X129285780Y-114598830D01*
X129295461Y-114654299D01*
X129296423Y-114660821D01*
X129304098Y-114724242D01*
X129306781Y-114731343D01*
X129307422Y-114733952D01*
X129311885Y-114750262D01*
X129312650Y-114752798D01*
X129313957Y-114760284D01*
X129317011Y-114767241D01*
X129339642Y-114818795D01*
X129342133Y-114824899D01*
X129364713Y-114884656D01*
X129369017Y-114890919D01*
X129370254Y-114893285D01*
X129378499Y-114908097D01*
X129379832Y-114910351D01*
X129382885Y-114917305D01*
X129418877Y-114964209D01*
X129421779Y-114967991D01*
X129425659Y-114973332D01*
X129457539Y-115019720D01*
X129457544Y-115019725D01*
X129461843Y-115025981D01*
X129467512Y-115031031D01*
X129467512Y-115031032D01*
X129508369Y-115067434D01*
X129513646Y-115072416D01*
X129831421Y-115390192D01*
X129831440Y-115390210D01*
X130491750Y-116050520D01*
X130497604Y-116056785D01*
X130535639Y-116100385D01*
X130541857Y-116104755D01*
X130587897Y-116137112D01*
X130593193Y-116141045D01*
X130643482Y-116180477D01*
X130650404Y-116183602D01*
X130652652Y-116184964D01*
X130667385Y-116193368D01*
X130669724Y-116194622D01*
X130675939Y-116198990D01*
X130683015Y-116201749D01*
X130683019Y-116201751D01*
X130735469Y-116222200D01*
X130741534Y-116224749D01*
X130799773Y-116251045D01*
X130807238Y-116252429D01*
X130809782Y-116253226D01*
X130826048Y-116257859D01*
X130828628Y-116258521D01*
X130835709Y-116261282D01*
X130843242Y-116262274D01*
X130843243Y-116262274D01*
X130865804Y-116265244D01*
X130899057Y-116269622D01*
X130905555Y-116270650D01*
X130968387Y-116282296D01*
X130975967Y-116281859D01*
X130975968Y-116281859D01*
X131030598Y-116278709D01*
X131037851Y-116278500D01*
X137271540Y-116278500D01*
X137339661Y-116298502D01*
X137360635Y-116315405D01*
X137749335Y-116704105D01*
X137783361Y-116766417D01*
X137785550Y-116780028D01*
X137790458Y-116826728D01*
X137792498Y-116833005D01*
X137792498Y-116833007D01*
X137809533Y-116885434D01*
X137849473Y-117008356D01*
X137852776Y-117014078D01*
X137852777Y-117014079D01*
X137941658Y-117168025D01*
X137944960Y-117173744D01*
X137949379Y-117178652D01*
X137951436Y-117181483D01*
X137975295Y-117248351D01*
X137975500Y-117255544D01*
X137975500Y-123707940D01*
X137955498Y-123776061D01*
X137938595Y-123797035D01*
X137093467Y-124642163D01*
X137030569Y-124676315D01*
X136877712Y-124708806D01*
X136871682Y-124711491D01*
X136871681Y-124711491D01*
X136709278Y-124783797D01*
X136709276Y-124783798D01*
X136703248Y-124786482D01*
X136548747Y-124898734D01*
X136544326Y-124903644D01*
X136544325Y-124903645D01*
X136435763Y-125024216D01*
X136420960Y-125040656D01*
X136325473Y-125206044D01*
X136266458Y-125387672D01*
X136246496Y-125577600D01*
X136266458Y-125767528D01*
X136325473Y-125949156D01*
X136420960Y-126114544D01*
X136425378Y-126119451D01*
X136425379Y-126119452D01*
X136515884Y-126219968D01*
X136548747Y-126256466D01*
X136703248Y-126368718D01*
X136709276Y-126371402D01*
X136709278Y-126371403D01*
X136871681Y-126443709D01*
X136877712Y-126446394D01*
X136942650Y-126460197D01*
X137058056Y-126484728D01*
X137058061Y-126484728D01*
X137064513Y-126486100D01*
X137255487Y-126486100D01*
X137261939Y-126484728D01*
X137261944Y-126484728D01*
X137377350Y-126460197D01*
X137442288Y-126446394D01*
X137448319Y-126443709D01*
X137610722Y-126371403D01*
X137610724Y-126371402D01*
X137616752Y-126368718D01*
X137771253Y-126256466D01*
X137804116Y-126219968D01*
X137878024Y-126137885D01*
X139452000Y-126137885D01*
X139456475Y-126153124D01*
X139457865Y-126154329D01*
X139465548Y-126156000D01*
X140187885Y-126156000D01*
X140203124Y-126151525D01*
X140204329Y-126150135D01*
X140206000Y-126142452D01*
X140206000Y-124902076D01*
X140202027Y-124888545D01*
X140194232Y-124887425D01*
X140086479Y-124919138D01*
X140075111Y-124923731D01*
X139910846Y-125009607D01*
X139900585Y-125016321D01*
X139756127Y-125132468D01*
X139747368Y-125141046D01*
X139628222Y-125283039D01*
X139621292Y-125293159D01*
X139531998Y-125455585D01*
X139527166Y-125466858D01*
X139471120Y-125643538D01*
X139468570Y-125655532D01*
X139452393Y-125799761D01*
X139452000Y-125806785D01*
X139452000Y-126137885D01*
X137878024Y-126137885D01*
X137894621Y-126119452D01*
X137894622Y-126119451D01*
X137899040Y-126114544D01*
X137994527Y-125949156D01*
X138053542Y-125767528D01*
X138058450Y-125720830D01*
X138085463Y-125655173D01*
X138094665Y-125644905D01*
X138615450Y-125124121D01*
X139164528Y-124575043D01*
X139170793Y-124569189D01*
X139208664Y-124536152D01*
X139208665Y-124536151D01*
X139214385Y-124531161D01*
X139251136Y-124478871D01*
X139255028Y-124473629D01*
X139294476Y-124423318D01*
X139297600Y-124416399D01*
X139298988Y-124414107D01*
X139307357Y-124399435D01*
X139308622Y-124397075D01*
X139312990Y-124390861D01*
X139336203Y-124331323D01*
X139338759Y-124325242D01*
X139361918Y-124273952D01*
X139365045Y-124267027D01*
X139366430Y-124259554D01*
X139367234Y-124256988D01*
X139371855Y-124240765D01*
X139372520Y-124238173D01*
X139375282Y-124231091D01*
X139383622Y-124167739D01*
X139384654Y-124161223D01*
X139394911Y-124105881D01*
X139396295Y-124098414D01*
X139392709Y-124036220D01*
X139392500Y-124028967D01*
X139392500Y-123274370D01*
X139412502Y-123206249D01*
X139466158Y-123159756D01*
X139536432Y-123149652D01*
X139601012Y-123179146D01*
X139638333Y-123235434D01*
X139678273Y-123358356D01*
X139773760Y-123523744D01*
X139901547Y-123665666D01*
X140056048Y-123777918D01*
X140062076Y-123780602D01*
X140062078Y-123780603D01*
X140224481Y-123852909D01*
X140230512Y-123855594D01*
X140323912Y-123875447D01*
X140410856Y-123893928D01*
X140410861Y-123893928D01*
X140417313Y-123895300D01*
X140608287Y-123895300D01*
X140614739Y-123893928D01*
X140614744Y-123893928D01*
X140701688Y-123875447D01*
X140795088Y-123855594D01*
X140801119Y-123852909D01*
X140963522Y-123780603D01*
X140963524Y-123780602D01*
X140969552Y-123777918D01*
X141124053Y-123665666D01*
X141251840Y-123523744D01*
X141347327Y-123358356D01*
X141406342Y-123176728D01*
X141426304Y-122986800D01*
X141406342Y-122796872D01*
X141347327Y-122615244D01*
X141251840Y-122449856D01*
X141247421Y-122444948D01*
X141245364Y-122442117D01*
X141221505Y-122375249D01*
X141221300Y-122368056D01*
X141221300Y-119989600D01*
X142393296Y-119989600D01*
X142413258Y-120179528D01*
X142472273Y-120361156D01*
X142567760Y-120526544D01*
X142695547Y-120668466D01*
X142850048Y-120780718D01*
X142856076Y-120783402D01*
X142856078Y-120783403D01*
X143018481Y-120855709D01*
X143024512Y-120858394D01*
X143117913Y-120878247D01*
X143204856Y-120896728D01*
X143204861Y-120896728D01*
X143211313Y-120898100D01*
X143402287Y-120898100D01*
X143408739Y-120896728D01*
X143408744Y-120896728D01*
X143495687Y-120878247D01*
X143589088Y-120858394D01*
X143595119Y-120855709D01*
X143757522Y-120783403D01*
X143757524Y-120783402D01*
X143763552Y-120780718D01*
X143918053Y-120668466D01*
X143922468Y-120663563D01*
X143927380Y-120659140D01*
X143928505Y-120660389D01*
X143981814Y-120627549D01*
X144015000Y-120623100D01*
X145037000Y-120623100D01*
X145105121Y-120643102D01*
X145124347Y-120659443D01*
X145124620Y-120659140D01*
X145129532Y-120663563D01*
X145133947Y-120668466D01*
X145288448Y-120780718D01*
X145294476Y-120783402D01*
X145294478Y-120783403D01*
X145456881Y-120855709D01*
X145462912Y-120858394D01*
X145556313Y-120878247D01*
X145643256Y-120896728D01*
X145643261Y-120896728D01*
X145649713Y-120898100D01*
X145840687Y-120898100D01*
X145847139Y-120896728D01*
X145847144Y-120896728D01*
X145934087Y-120878247D01*
X146027488Y-120858394D01*
X146033519Y-120855709D01*
X146195922Y-120783403D01*
X146195924Y-120783402D01*
X146201952Y-120780718D01*
X146356453Y-120668466D01*
X146484240Y-120526544D01*
X146579727Y-120361156D01*
X146638742Y-120179528D01*
X146658704Y-119989600D01*
X146638742Y-119799672D01*
X146579727Y-119618044D01*
X146574181Y-119608437D01*
X146496968Y-119474702D01*
X146484240Y-119452656D01*
X146356453Y-119310734D01*
X146201952Y-119198482D01*
X146195924Y-119195798D01*
X146195922Y-119195797D01*
X146033519Y-119123491D01*
X146033518Y-119123491D01*
X146027488Y-119120806D01*
X145934088Y-119100953D01*
X145847144Y-119082472D01*
X145847139Y-119082472D01*
X145840687Y-119081100D01*
X145649713Y-119081100D01*
X145643261Y-119082472D01*
X145643256Y-119082472D01*
X145556312Y-119100953D01*
X145462912Y-119120806D01*
X145456882Y-119123491D01*
X145456881Y-119123491D01*
X145294478Y-119195797D01*
X145294476Y-119195798D01*
X145288448Y-119198482D01*
X145133947Y-119310734D01*
X145129532Y-119315637D01*
X145124620Y-119320060D01*
X145123495Y-119318811D01*
X145070186Y-119351651D01*
X145037000Y-119356100D01*
X144015000Y-119356100D01*
X143946879Y-119336098D01*
X143927653Y-119319757D01*
X143927380Y-119320060D01*
X143922468Y-119315637D01*
X143918053Y-119310734D01*
X143763552Y-119198482D01*
X143757524Y-119195798D01*
X143757522Y-119195797D01*
X143595119Y-119123491D01*
X143595118Y-119123491D01*
X143589088Y-119120806D01*
X143495688Y-119100953D01*
X143408744Y-119082472D01*
X143408739Y-119082472D01*
X143402287Y-119081100D01*
X143211313Y-119081100D01*
X143204861Y-119082472D01*
X143204856Y-119082472D01*
X143117912Y-119100953D01*
X143024512Y-119120806D01*
X143018482Y-119123491D01*
X143018481Y-119123491D01*
X142856078Y-119195797D01*
X142856076Y-119195798D01*
X142850048Y-119198482D01*
X142695547Y-119310734D01*
X142567760Y-119452656D01*
X142555032Y-119474702D01*
X142477820Y-119608437D01*
X142472273Y-119618044D01*
X142413258Y-119799672D01*
X142393296Y-119989600D01*
X141221300Y-119989600D01*
X141221300Y-116789200D01*
X142139296Y-116789200D01*
X142159258Y-116979128D01*
X142218273Y-117160756D01*
X142221576Y-117166478D01*
X142221577Y-117166479D01*
X142230240Y-117181483D01*
X142313760Y-117326144D01*
X142318178Y-117331051D01*
X142318179Y-117331052D01*
X142377222Y-117396626D01*
X142441547Y-117468066D01*
X142540643Y-117540064D01*
X142585376Y-117572564D01*
X142596048Y-117580318D01*
X142602076Y-117583002D01*
X142602078Y-117583003D01*
X142758480Y-117652637D01*
X142770512Y-117657994D01*
X142863913Y-117677847D01*
X142950856Y-117696328D01*
X142950861Y-117696328D01*
X142957313Y-117697700D01*
X143148287Y-117697700D01*
X143154739Y-117696328D01*
X143154744Y-117696328D01*
X143241687Y-117677847D01*
X143335088Y-117657994D01*
X143347120Y-117652637D01*
X143503522Y-117583003D01*
X143503524Y-117583002D01*
X143509552Y-117580318D01*
X143520228Y-117572562D01*
X143594286Y-117548500D01*
X145540195Y-117548500D01*
X145608316Y-117568502D01*
X145614253Y-117572562D01*
X145694848Y-117631118D01*
X145700876Y-117633802D01*
X145700878Y-117633803D01*
X145844394Y-117697700D01*
X145869312Y-117708794D01*
X145962713Y-117728647D01*
X146049656Y-117747128D01*
X146049661Y-117747128D01*
X146056113Y-117748500D01*
X146247087Y-117748500D01*
X146253539Y-117747128D01*
X146253544Y-117747128D01*
X146340487Y-117728647D01*
X146433888Y-117708794D01*
X146458806Y-117697700D01*
X146602322Y-117633803D01*
X146602324Y-117633802D01*
X146608352Y-117631118D01*
X146762853Y-117518866D01*
X146805097Y-117471949D01*
X146886221Y-117381852D01*
X146886222Y-117381851D01*
X146890640Y-117376944D01*
X146948914Y-117276010D01*
X146982823Y-117217279D01*
X146982824Y-117217278D01*
X146986127Y-117211556D01*
X147045142Y-117029928D01*
X147047381Y-117008630D01*
X147064414Y-116846565D01*
X147065104Y-116840000D01*
X147050821Y-116704105D01*
X147045832Y-116656635D01*
X147045832Y-116656633D01*
X147045142Y-116650072D01*
X146986127Y-116468444D01*
X146973673Y-116446872D01*
X146939778Y-116388166D01*
X146890640Y-116303056D01*
X146870702Y-116280912D01*
X146767275Y-116166045D01*
X146767274Y-116166044D01*
X146762853Y-116161134D01*
X146643312Y-116074282D01*
X146613694Y-116052763D01*
X146613693Y-116052762D01*
X146608352Y-116048882D01*
X146602324Y-116046198D01*
X146602322Y-116046197D01*
X146439919Y-115973891D01*
X146439918Y-115973891D01*
X146433888Y-115971206D01*
X146340488Y-115951353D01*
X146253544Y-115932872D01*
X146253539Y-115932872D01*
X146247087Y-115931500D01*
X146056113Y-115931500D01*
X146049661Y-115932872D01*
X146049656Y-115932872D01*
X145962712Y-115951353D01*
X145869312Y-115971206D01*
X145863282Y-115973891D01*
X145863281Y-115973891D01*
X145700878Y-116046197D01*
X145700876Y-116046198D01*
X145694848Y-116048882D01*
X145689507Y-116052762D01*
X145689506Y-116052763D01*
X145614256Y-116107436D01*
X145547389Y-116131294D01*
X145540195Y-116131500D01*
X143734125Y-116131500D01*
X143666004Y-116111498D01*
X143660064Y-116107436D01*
X143658709Y-116106451D01*
X143590349Y-116056785D01*
X143514894Y-116001963D01*
X143514893Y-116001962D01*
X143509552Y-115998082D01*
X143503524Y-115995398D01*
X143503522Y-115995397D01*
X143341119Y-115923091D01*
X143341118Y-115923091D01*
X143335088Y-115920406D01*
X143241687Y-115900553D01*
X143154744Y-115882072D01*
X143154739Y-115882072D01*
X143148287Y-115880700D01*
X142957313Y-115880700D01*
X142950861Y-115882072D01*
X142950856Y-115882072D01*
X142863913Y-115900553D01*
X142770512Y-115920406D01*
X142764482Y-115923091D01*
X142764481Y-115923091D01*
X142602078Y-115995397D01*
X142602076Y-115995398D01*
X142596048Y-115998082D01*
X142441547Y-116110334D01*
X142437126Y-116115244D01*
X142437125Y-116115245D01*
X142340823Y-116222200D01*
X142313760Y-116252256D01*
X142218273Y-116417644D01*
X142159258Y-116599272D01*
X142158568Y-116605833D01*
X142158568Y-116605835D01*
X142153919Y-116650072D01*
X142139296Y-116789200D01*
X141221300Y-116789200D01*
X141221300Y-115243312D01*
X141221592Y-115234742D01*
X141225009Y-115184624D01*
X141225009Y-115184620D01*
X141225525Y-115177048D01*
X141214538Y-115114097D01*
X141213576Y-115107575D01*
X141210628Y-115083215D01*
X141205902Y-115044158D01*
X141203219Y-115037057D01*
X141202578Y-115034448D01*
X141198115Y-115018138D01*
X141197350Y-115015602D01*
X141196043Y-115008116D01*
X141170356Y-114949600D01*
X141167865Y-114943496D01*
X141165883Y-114938249D01*
X141145287Y-114883744D01*
X141140983Y-114877481D01*
X141139746Y-114875115D01*
X141131501Y-114860303D01*
X141130168Y-114858049D01*
X141127115Y-114851095D01*
X141088213Y-114800398D01*
X141084341Y-114795068D01*
X141052461Y-114748680D01*
X141052456Y-114748675D01*
X141048157Y-114742419D01*
X141001629Y-114700964D01*
X140996354Y-114695984D01*
X139313865Y-113013495D01*
X139279839Y-112951183D01*
X139277650Y-112937570D01*
X139273432Y-112897437D01*
X139273432Y-112897435D01*
X139272742Y-112890872D01*
X139213727Y-112709244D01*
X139118240Y-112543856D01*
X138990453Y-112401934D01*
X138835952Y-112289682D01*
X138829924Y-112286998D01*
X138829922Y-112286997D01*
X138667519Y-112214691D01*
X138667518Y-112214691D01*
X138661488Y-112212006D01*
X138568087Y-112192153D01*
X138481144Y-112173672D01*
X138481139Y-112173672D01*
X138474687Y-112172300D01*
X138283713Y-112172300D01*
X138277261Y-112173672D01*
X138277256Y-112173672D01*
X138190312Y-112192153D01*
X138096912Y-112212006D01*
X138090882Y-112214691D01*
X138090881Y-112214691D01*
X137928478Y-112286997D01*
X137928476Y-112286998D01*
X137922448Y-112289682D01*
X137767947Y-112401934D01*
X137640160Y-112543856D01*
X137544673Y-112709244D01*
X137485658Y-112890872D01*
X137465696Y-113080800D01*
X137485658Y-113270728D01*
X137544673Y-113452356D01*
X137640160Y-113617744D01*
X137767947Y-113759666D01*
X137922448Y-113871918D01*
X137928476Y-113874602D01*
X137928478Y-113874603D01*
X138090881Y-113946909D01*
X138096912Y-113949594D01*
X138233611Y-113978650D01*
X138249769Y-113982085D01*
X138312667Y-114016237D01*
X139767395Y-115470965D01*
X139801421Y-115533277D01*
X139804300Y-115560060D01*
X139804300Y-116349230D01*
X139784298Y-116417351D01*
X139730642Y-116463844D01*
X139660368Y-116473948D01*
X139595788Y-116444454D01*
X139558467Y-116388166D01*
X139529218Y-116298148D01*
X139518527Y-116265244D01*
X139511589Y-116253226D01*
X139475919Y-116191445D01*
X139423040Y-116099856D01*
X139381360Y-116053565D01*
X139299675Y-115962845D01*
X139299674Y-115962844D01*
X139295253Y-115957934D01*
X139140752Y-115845682D01*
X139134724Y-115842998D01*
X139134722Y-115842997D01*
X138972319Y-115770691D01*
X138972318Y-115770691D01*
X138966288Y-115768006D01*
X138813431Y-115735515D01*
X138750533Y-115701363D01*
X138138650Y-115089480D01*
X138132796Y-115083215D01*
X138123375Y-115072416D01*
X138094761Y-115039615D01*
X138042480Y-115002871D01*
X138037186Y-114998939D01*
X137992893Y-114964209D01*
X137986918Y-114959524D01*
X137980002Y-114956401D01*
X137977716Y-114955017D01*
X137963035Y-114946643D01*
X137960675Y-114945378D01*
X137954461Y-114941010D01*
X137947382Y-114938250D01*
X137947380Y-114938249D01*
X137894925Y-114917798D01*
X137888856Y-114915247D01*
X137830627Y-114888955D01*
X137823160Y-114887571D01*
X137820605Y-114886770D01*
X137804352Y-114882141D01*
X137801772Y-114881478D01*
X137794691Y-114878718D01*
X137787160Y-114877727D01*
X137787158Y-114877726D01*
X137757539Y-114873827D01*
X137731339Y-114870378D01*
X137724841Y-114869348D01*
X137662014Y-114857704D01*
X137654434Y-114858141D01*
X137654433Y-114858141D01*
X137599808Y-114861291D01*
X137592554Y-114861500D01*
X131358862Y-114861500D01*
X131290741Y-114841498D01*
X131269767Y-114824596D01*
X130772577Y-114327407D01*
X130742605Y-114297435D01*
X130708580Y-114235122D01*
X130705700Y-114208339D01*
X130705700Y-111078897D01*
X130725702Y-111010776D01*
X130760012Y-110978052D01*
X130758752Y-110976318D01*
X130913253Y-110864066D01*
X131041040Y-110722144D01*
X131136527Y-110556756D01*
X131195542Y-110375128D01*
X131202124Y-110312509D01*
X131214814Y-110191765D01*
X131215504Y-110185200D01*
X131214814Y-110178635D01*
X131196232Y-110001835D01*
X131196232Y-110001833D01*
X131195542Y-109995272D01*
X131136527Y-109813644D01*
X131041040Y-109648256D01*
X131011882Y-109615872D01*
X130917675Y-109511245D01*
X130917674Y-109511244D01*
X130913253Y-109506334D01*
X130799117Y-109423409D01*
X130764094Y-109397963D01*
X130764093Y-109397962D01*
X130758752Y-109394082D01*
X130752724Y-109391398D01*
X130752722Y-109391397D01*
X130590319Y-109319091D01*
X130590318Y-109319091D01*
X130584288Y-109316406D01*
X130490888Y-109296553D01*
X130403944Y-109278072D01*
X130403939Y-109278072D01*
X130397487Y-109276700D01*
X130206513Y-109276700D01*
X130200061Y-109278072D01*
X130200056Y-109278072D01*
X130113113Y-109296553D01*
X130019712Y-109316406D01*
X130013682Y-109319091D01*
X130013681Y-109319091D01*
X129851278Y-109391397D01*
X129851276Y-109391398D01*
X129845248Y-109394082D01*
X129839907Y-109397962D01*
X129839906Y-109397963D01*
X129804883Y-109423409D01*
X129690747Y-109506334D01*
X129686326Y-109511244D01*
X129686325Y-109511245D01*
X129592119Y-109615872D01*
X129562960Y-109648256D01*
X129467473Y-109813644D01*
X129408458Y-109995272D01*
X129407768Y-110001833D01*
X129407768Y-110001835D01*
X129399844Y-110077230D01*
X129385537Y-110119745D01*
X129386724Y-110120281D01*
X129383904Y-110126527D01*
X129382322Y-110129301D01*
X129382314Y-110129324D01*
X129382221Y-110129477D01*
X129373843Y-110144165D01*
X129372578Y-110146525D01*
X129368210Y-110152739D01*
X129365450Y-110159818D01*
X129365449Y-110159820D01*
X129344998Y-110212275D01*
X129342447Y-110218344D01*
X129316155Y-110276573D01*
X129314771Y-110284040D01*
X129313970Y-110286595D01*
X129309341Y-110302848D01*
X129308678Y-110305428D01*
X129305918Y-110312509D01*
X129304927Y-110320040D01*
X129304926Y-110320042D01*
X129297579Y-110375852D01*
X129296548Y-110382359D01*
X129284904Y-110445186D01*
X129285341Y-110452766D01*
X129285341Y-110452767D01*
X129288491Y-110507392D01*
X129288700Y-110514646D01*
X129288700Y-114525088D01*
X129288408Y-114533658D01*
X129284475Y-114591352D01*
X127508000Y-114591352D01*
X127508000Y-99293184D01*
X127528002Y-99225063D01*
X127581658Y-99178570D01*
X127651932Y-99168466D01*
X127660197Y-99169937D01*
X127825756Y-99205128D01*
X127825761Y-99205128D01*
X127832213Y-99206500D01*
X128023187Y-99206500D01*
X128029639Y-99205128D01*
X128029644Y-99205128D01*
X128116587Y-99186647D01*
X128209988Y-99166794D01*
X128216019Y-99164109D01*
X128378422Y-99091803D01*
X128378424Y-99091802D01*
X128384452Y-99089118D01*
X128415717Y-99066403D01*
X128456146Y-99037029D01*
X128538953Y-98976866D01*
X128575730Y-98936021D01*
X128662321Y-98839852D01*
X128662322Y-98839851D01*
X128666740Y-98834944D01*
X128762227Y-98669556D01*
X128821242Y-98487928D01*
X128824602Y-98455965D01*
X128840514Y-98304565D01*
X128841204Y-98298000D01*
X128828237Y-98174623D01*
X128821932Y-98114635D01*
X128821932Y-98114633D01*
X128821242Y-98108072D01*
X128762227Y-97926444D01*
X128756073Y-97915784D01*
X128670041Y-97766774D01*
X128666740Y-97761056D01*
X128593563Y-97679785D01*
X128562847Y-97615779D01*
X128561200Y-97595476D01*
X128561200Y-93671695D01*
X128581202Y-93603574D01*
X128598105Y-93582599D01*
X128857116Y-93323589D01*
X128919428Y-93289564D01*
X128990244Y-93294629D01*
X129047079Y-93337176D01*
X129071890Y-93403697D01*
X129072211Y-93412685D01*
X129072211Y-96175862D01*
X129071684Y-96187045D01*
X129070009Y-96194538D01*
X129070258Y-96202464D01*
X129070258Y-96202465D01*
X129072149Y-96262615D01*
X129072211Y-96266574D01*
X129072211Y-96294485D01*
X129072708Y-96298419D01*
X129072708Y-96298420D01*
X129072716Y-96298485D01*
X129073649Y-96310322D01*
X129075038Y-96354518D01*
X129080689Y-96373968D01*
X129084698Y-96393329D01*
X129087237Y-96413426D01*
X129090156Y-96420797D01*
X129090156Y-96420799D01*
X129103515Y-96454541D01*
X129107360Y-96465771D01*
X129119693Y-96508222D01*
X129123726Y-96515041D01*
X129123728Y-96515046D01*
X129130004Y-96525657D01*
X129138699Y-96543405D01*
X129146159Y-96562246D01*
X129150821Y-96568662D01*
X129150821Y-96568663D01*
X129172147Y-96598016D01*
X129178663Y-96607936D01*
X129201169Y-96645991D01*
X129215490Y-96660312D01*
X129228330Y-96675345D01*
X129240239Y-96691736D01*
X129246345Y-96696787D01*
X129274316Y-96719927D01*
X129283095Y-96727917D01*
X133074230Y-100519053D01*
X133081770Y-100527339D01*
X133085882Y-100533818D01*
X133091659Y-100539243D01*
X133135533Y-100580443D01*
X133138375Y-100583198D01*
X133158112Y-100602935D01*
X133161309Y-100605415D01*
X133170329Y-100613118D01*
X133202561Y-100643386D01*
X133209507Y-100647205D01*
X133209510Y-100647207D01*
X133220316Y-100653148D01*
X133236835Y-100663999D01*
X133252841Y-100676414D01*
X133260110Y-100679559D01*
X133260114Y-100679562D01*
X133293419Y-100693974D01*
X133304069Y-100699191D01*
X133342822Y-100720495D01*
X133350497Y-100722466D01*
X133350498Y-100722466D01*
X133362444Y-100725533D01*
X133381149Y-100731937D01*
X133399737Y-100739981D01*
X133407560Y-100741220D01*
X133407570Y-100741223D01*
X133443406Y-100746899D01*
X133455026Y-100749305D01*
X133490171Y-100758328D01*
X133497852Y-100760300D01*
X133518106Y-100760300D01*
X133537816Y-100761851D01*
X133557825Y-100765020D01*
X133565717Y-100764274D01*
X133601843Y-100760859D01*
X133613701Y-100760300D01*
X135131000Y-100760300D01*
X135199121Y-100780302D01*
X135218347Y-100796643D01*
X135218620Y-100796340D01*
X135223532Y-100800763D01*
X135227947Y-100805666D01*
X135382448Y-100917918D01*
X135388476Y-100920602D01*
X135388478Y-100920603D01*
X135550881Y-100992909D01*
X135556912Y-100995594D01*
X135650313Y-101015447D01*
X135737256Y-101033928D01*
X135737261Y-101033928D01*
X135743713Y-101035300D01*
X135934687Y-101035300D01*
X135941139Y-101033928D01*
X135941144Y-101033928D01*
X136028087Y-101015447D01*
X136121488Y-100995594D01*
X136127519Y-100992909D01*
X136289922Y-100920603D01*
X136289924Y-100920602D01*
X136295952Y-100917918D01*
X136450453Y-100805666D01*
X136487051Y-100765020D01*
X136573821Y-100668652D01*
X136573822Y-100668651D01*
X136578240Y-100663744D01*
X136673727Y-100498356D01*
X136732742Y-100316728D01*
X136740376Y-100244100D01*
X136752014Y-100133365D01*
X136752704Y-100126800D01*
X136743300Y-100037328D01*
X136733432Y-99943435D01*
X136733432Y-99943433D01*
X136732742Y-99936872D01*
X136673727Y-99755244D01*
X136578240Y-99589856D01*
X136461768Y-99460500D01*
X136454875Y-99452845D01*
X136454874Y-99452844D01*
X136450453Y-99447934D01*
X136351357Y-99375936D01*
X136301294Y-99339563D01*
X136301293Y-99339562D01*
X136295952Y-99335682D01*
X136289924Y-99332998D01*
X136289922Y-99332997D01*
X136127519Y-99260691D01*
X136127518Y-99260691D01*
X136121488Y-99258006D01*
X136115035Y-99256634D01*
X136115031Y-99256633D01*
X136013114Y-99234970D01*
X135950640Y-99201241D01*
X135919478Y-99150659D01*
X135898221Y-99085237D01*
X135880515Y-99030744D01*
X135871965Y-99015934D01*
X135827489Y-98938900D01*
X135785028Y-98865356D01*
X135752497Y-98829226D01*
X135661663Y-98728345D01*
X135661662Y-98728344D01*
X135657241Y-98723434D01*
X135502740Y-98611182D01*
X135496712Y-98608498D01*
X135496710Y-98608497D01*
X135334307Y-98536191D01*
X135334306Y-98536191D01*
X135328276Y-98533506D01*
X135234876Y-98513653D01*
X135147932Y-98495172D01*
X135147927Y-98495172D01*
X135141475Y-98493800D01*
X134950501Y-98493800D01*
X134944049Y-98495172D01*
X134944044Y-98495172D01*
X134857100Y-98513653D01*
X134763700Y-98533506D01*
X134757670Y-98536191D01*
X134757669Y-98536191D01*
X134595266Y-98608497D01*
X134595264Y-98608498D01*
X134589236Y-98611182D01*
X134434735Y-98723434D01*
X134430320Y-98728337D01*
X134425408Y-98732760D01*
X134424283Y-98731511D01*
X134370974Y-98764351D01*
X134337788Y-98768800D01*
X133874072Y-98768800D01*
X133842737Y-98764841D01*
X133840226Y-98764196D01*
X133811030Y-98756700D01*
X133791594Y-98756700D01*
X133723473Y-98736698D01*
X133702499Y-98719795D01*
X130825636Y-95842931D01*
X130791610Y-95780619D01*
X130788731Y-95753836D01*
X130788731Y-93939625D01*
X130808733Y-93871504D01*
X130862389Y-93825011D01*
X130932663Y-93814907D01*
X130997243Y-93844401D01*
X131003826Y-93850530D01*
X131830343Y-94677047D01*
X131837887Y-94685337D01*
X131842000Y-94691818D01*
X131847777Y-94697243D01*
X131891667Y-94738458D01*
X131894509Y-94741213D01*
X131914230Y-94760934D01*
X131917425Y-94763412D01*
X131926447Y-94771118D01*
X131958679Y-94801386D01*
X131965628Y-94805206D01*
X131976432Y-94811146D01*
X131992956Y-94821999D01*
X132008959Y-94834413D01*
X132049543Y-94851976D01*
X132060173Y-94857183D01*
X132098940Y-94878495D01*
X132106617Y-94880466D01*
X132106622Y-94880468D01*
X132118558Y-94883532D01*
X132137266Y-94889937D01*
X132155855Y-94897981D01*
X132163680Y-94899220D01*
X132163682Y-94899221D01*
X132199519Y-94904897D01*
X132211140Y-94907304D01*
X132246009Y-94916256D01*
X132253970Y-94918300D01*
X132274231Y-94918300D01*
X132293940Y-94919851D01*
X132313943Y-94923019D01*
X132321835Y-94922273D01*
X132324999Y-94921974D01*
X132357954Y-94918859D01*
X132369811Y-94918300D01*
X133657800Y-94918300D01*
X133725921Y-94938302D01*
X133745147Y-94954643D01*
X133745420Y-94954340D01*
X133750332Y-94958763D01*
X133754747Y-94963666D01*
X133909248Y-95075918D01*
X133915276Y-95078602D01*
X133915278Y-95078603D01*
X134077681Y-95150909D01*
X134083712Y-95153594D01*
X134173758Y-95172734D01*
X134264056Y-95191928D01*
X134264061Y-95191928D01*
X134270513Y-95193300D01*
X134461487Y-95193300D01*
X134467939Y-95191928D01*
X134467944Y-95191928D01*
X134558242Y-95172734D01*
X134648288Y-95153594D01*
X134654319Y-95150909D01*
X134816722Y-95078603D01*
X134816724Y-95078602D01*
X134822752Y-95075918D01*
X134977253Y-94963666D01*
X135013852Y-94923019D01*
X135100621Y-94826652D01*
X135100622Y-94826651D01*
X135105040Y-94821744D01*
X135180053Y-94691818D01*
X135197223Y-94662079D01*
X135197224Y-94662078D01*
X135200527Y-94656356D01*
X135259542Y-94474728D01*
X135279504Y-94284800D01*
X135273545Y-94228100D01*
X135260232Y-94101435D01*
X135260232Y-94101433D01*
X135259542Y-94094872D01*
X135200527Y-93913244D01*
X135105040Y-93747856D01*
X135036465Y-93671695D01*
X134981675Y-93610845D01*
X134981674Y-93610844D01*
X134977253Y-93605934D01*
X134822752Y-93493682D01*
X134816724Y-93490998D01*
X134816722Y-93490997D01*
X134654319Y-93418691D01*
X134654318Y-93418691D01*
X134648288Y-93416006D01*
X134554887Y-93396153D01*
X134467944Y-93377672D01*
X134467939Y-93377672D01*
X134461487Y-93376300D01*
X134270513Y-93376300D01*
X134264061Y-93377672D01*
X134264056Y-93377672D01*
X134177113Y-93396153D01*
X134083712Y-93416006D01*
X134077682Y-93418691D01*
X134077681Y-93418691D01*
X133915278Y-93490997D01*
X133915276Y-93490998D01*
X133909248Y-93493682D01*
X133754747Y-93605934D01*
X133750332Y-93610837D01*
X133745420Y-93615260D01*
X133744295Y-93614011D01*
X133690986Y-93646851D01*
X133657800Y-93651300D01*
X132648595Y-93651300D01*
X132580474Y-93631298D01*
X132559500Y-93614395D01*
X131275156Y-92330051D01*
X131241130Y-92267739D01*
X131238251Y-92240956D01*
X131238251Y-91529999D01*
X131258253Y-91461878D01*
X131311909Y-91415385D01*
X131382183Y-91405281D01*
X131445000Y-91433969D01*
X131445000Y-91440000D01*
X146958105Y-91440000D01*
X147026226Y-91460002D01*
X147072719Y-91513658D01*
X147082823Y-91583932D01*
X147053329Y-91648512D01*
X147047200Y-91655095D01*
X146648347Y-92053948D01*
X146640061Y-92061488D01*
X146633582Y-92065600D01*
X146628157Y-92071377D01*
X146586957Y-92115251D01*
X146584202Y-92118093D01*
X146564465Y-92137830D01*
X146561985Y-92141027D01*
X146554282Y-92150047D01*
X146524014Y-92182279D01*
X146520195Y-92189225D01*
X146520193Y-92189228D01*
X146514252Y-92200034D01*
X146503401Y-92216553D01*
X146490986Y-92232559D01*
X146487841Y-92239828D01*
X146487838Y-92239832D01*
X146473426Y-92273137D01*
X146468209Y-92283787D01*
X146446905Y-92322540D01*
X146444934Y-92330215D01*
X146444934Y-92330216D01*
X146441867Y-92342162D01*
X146435463Y-92360866D01*
X146427419Y-92379455D01*
X146426180Y-92387278D01*
X146426177Y-92387288D01*
X146420501Y-92423124D01*
X146418095Y-92434744D01*
X146407100Y-92477570D01*
X146407100Y-92497824D01*
X146405549Y-92517534D01*
X146402380Y-92537543D01*
X146403126Y-92545435D01*
X146406541Y-92581561D01*
X146407100Y-92593419D01*
X146407100Y-97373806D01*
X146387098Y-97441927D01*
X146370195Y-97462901D01*
X144931100Y-98901995D01*
X144868788Y-98936021D01*
X144842005Y-98938900D01*
X144786113Y-98938900D01*
X144779661Y-98940272D01*
X144779656Y-98940272D01*
X144708727Y-98955349D01*
X144599312Y-98978606D01*
X144593282Y-98981291D01*
X144593281Y-98981291D01*
X144430878Y-99053597D01*
X144430876Y-99053598D01*
X144424848Y-99056282D01*
X144419507Y-99060162D01*
X144419506Y-99060163D01*
X144387763Y-99083226D01*
X144270347Y-99168534D01*
X144265926Y-99173444D01*
X144265925Y-99173445D01*
X144187369Y-99260691D01*
X144142560Y-99310456D01*
X144116915Y-99354874D01*
X144060352Y-99452845D01*
X144047073Y-99475844D01*
X143988058Y-99657472D01*
X143987368Y-99664033D01*
X143987368Y-99664035D01*
X143983301Y-99702735D01*
X143968096Y-99847400D01*
X143968786Y-99853965D01*
X143978190Y-99943435D01*
X143988058Y-100037328D01*
X144047073Y-100218956D01*
X144050376Y-100224678D01*
X144050377Y-100224679D01*
X144061590Y-100244100D01*
X144078328Y-100313095D01*
X144055108Y-100380187D01*
X143999301Y-100424074D01*
X143952471Y-100433100D01*
X143106167Y-100433100D01*
X143094984Y-100432573D01*
X143087491Y-100430898D01*
X143079565Y-100431147D01*
X143079564Y-100431147D01*
X143019414Y-100433038D01*
X143015455Y-100433100D01*
X142987544Y-100433100D01*
X142983610Y-100433597D01*
X142983609Y-100433597D01*
X142983544Y-100433605D01*
X142971707Y-100434538D01*
X142939890Y-100435538D01*
X142935429Y-100435678D01*
X142927510Y-100435927D01*
X142909854Y-100441056D01*
X142908058Y-100441578D01*
X142888706Y-100445586D01*
X142881635Y-100446480D01*
X142868603Y-100448126D01*
X142861234Y-100451043D01*
X142861232Y-100451044D01*
X142827497Y-100464400D01*
X142816269Y-100468245D01*
X142773807Y-100480582D01*
X142766985Y-100484616D01*
X142766979Y-100484619D01*
X142756368Y-100490894D01*
X142738618Y-100499590D01*
X142727156Y-100504128D01*
X142727151Y-100504131D01*
X142719783Y-100507048D01*
X142713368Y-100511709D01*
X142684025Y-100533027D01*
X142674107Y-100539543D01*
X142655419Y-100550595D01*
X142636037Y-100562058D01*
X142621713Y-100576382D01*
X142606681Y-100589221D01*
X142590293Y-100601128D01*
X142562112Y-100635193D01*
X142554122Y-100643973D01*
X141770295Y-101427800D01*
X141707983Y-101461826D01*
X141637168Y-101456761D01*
X141592105Y-101427800D01*
X138431356Y-98267051D01*
X138397330Y-98204739D01*
X138395141Y-98191126D01*
X138393407Y-98174623D01*
X138383742Y-98082672D01*
X138381102Y-98074545D01*
X138326769Y-97907329D01*
X138324727Y-97901044D01*
X138229240Y-97735656D01*
X138179857Y-97680810D01*
X138105875Y-97598645D01*
X138105874Y-97598644D01*
X138101453Y-97593734D01*
X137946952Y-97481482D01*
X137940924Y-97478798D01*
X137940922Y-97478797D01*
X137778519Y-97406491D01*
X137778518Y-97406491D01*
X137772488Y-97403806D01*
X137679088Y-97383953D01*
X137592144Y-97365472D01*
X137592139Y-97365472D01*
X137585687Y-97364100D01*
X137394713Y-97364100D01*
X137388261Y-97365472D01*
X137388256Y-97365472D01*
X137301312Y-97383953D01*
X137207912Y-97403806D01*
X137201882Y-97406491D01*
X137201881Y-97406491D01*
X137039478Y-97478797D01*
X137039476Y-97478798D01*
X137033448Y-97481482D01*
X136878947Y-97593734D01*
X136874526Y-97598644D01*
X136874525Y-97598645D01*
X136800544Y-97680810D01*
X136751160Y-97735656D01*
X136655673Y-97901044D01*
X136596658Y-98082672D01*
X136595968Y-98089233D01*
X136595968Y-98089235D01*
X136585818Y-98185807D01*
X136576696Y-98272600D01*
X136596658Y-98462528D01*
X136655673Y-98644156D01*
X136658976Y-98649878D01*
X136658977Y-98649879D01*
X136670338Y-98669556D01*
X136751160Y-98809544D01*
X136755578Y-98814451D01*
X136755579Y-98814452D01*
X136868868Y-98940272D01*
X136878947Y-98951466D01*
X136922412Y-98983045D01*
X137019518Y-99053597D01*
X137033448Y-99063718D01*
X137039476Y-99066402D01*
X137039478Y-99066403D01*
X137171016Y-99124967D01*
X137207912Y-99141394D01*
X137301312Y-99161247D01*
X137388256Y-99179728D01*
X137388261Y-99179728D01*
X137394713Y-99181100D01*
X137501406Y-99181100D01*
X137569527Y-99201102D01*
X137590501Y-99218005D01*
X141010795Y-102638300D01*
X141044821Y-102700612D01*
X141047700Y-102727395D01*
X141047700Y-109607047D01*
X141047173Y-109618230D01*
X141045498Y-109625723D01*
X141045747Y-109633649D01*
X141045747Y-109633650D01*
X141047638Y-109693800D01*
X141047700Y-109697759D01*
X141047700Y-109725670D01*
X141048197Y-109729604D01*
X141048197Y-109729605D01*
X141048205Y-109729670D01*
X141049138Y-109741507D01*
X141050527Y-109785703D01*
X141056178Y-109805153D01*
X141060187Y-109824514D01*
X141062726Y-109844611D01*
X141065645Y-109851982D01*
X141065645Y-109851984D01*
X141079004Y-109885726D01*
X141082849Y-109896956D01*
X141095182Y-109939407D01*
X141099215Y-109946226D01*
X141099217Y-109946231D01*
X141105493Y-109956842D01*
X141114188Y-109974590D01*
X141121648Y-109993431D01*
X141126310Y-109999847D01*
X141126310Y-109999848D01*
X141147636Y-110029201D01*
X141154152Y-110039121D01*
X141176658Y-110077176D01*
X141190979Y-110091497D01*
X141203819Y-110106530D01*
X141215728Y-110122921D01*
X141221834Y-110127972D01*
X141249805Y-110151112D01*
X141258584Y-110159102D01*
X152770995Y-121671513D01*
X152805021Y-121733825D01*
X152807900Y-121760608D01*
X152807900Y-124798876D01*
X152787898Y-124866997D01*
X152775542Y-124883179D01*
X152702360Y-124964456D01*
X152606873Y-125129844D01*
X152547858Y-125311472D01*
X152527896Y-125501400D01*
X152547858Y-125691328D01*
X152606873Y-125872956D01*
X152702360Y-126038344D01*
X152706778Y-126043251D01*
X152706779Y-126043252D01*
X152805708Y-126153124D01*
X152830147Y-126180266D01*
X152984648Y-126292518D01*
X152990676Y-126295202D01*
X152990678Y-126295203D01*
X153147080Y-126364837D01*
X153159112Y-126370194D01*
X153252513Y-126390047D01*
X153339456Y-126408528D01*
X153339461Y-126408528D01*
X153345913Y-126409900D01*
X153536887Y-126409900D01*
X153543339Y-126408528D01*
X153543344Y-126408528D01*
X153630287Y-126390047D01*
X153723688Y-126370194D01*
X153735720Y-126364837D01*
X153892122Y-126295203D01*
X153892124Y-126295202D01*
X153898152Y-126292518D01*
X154052653Y-126180266D01*
X154077092Y-126153124D01*
X154176021Y-126043252D01*
X154176022Y-126043251D01*
X154180440Y-126038344D01*
X154275927Y-125872956D01*
X154334942Y-125691328D01*
X154354904Y-125501400D01*
X154334942Y-125311472D01*
X154275927Y-125129844D01*
X154180440Y-124964456D01*
X154107263Y-124883185D01*
X154076547Y-124819179D01*
X154074900Y-124798876D01*
X154074900Y-121524777D01*
X154075427Y-121513593D01*
X154077101Y-121506105D01*
X154074962Y-121438046D01*
X154074900Y-121434089D01*
X154074900Y-121406158D01*
X154074394Y-121402152D01*
X154073461Y-121390306D01*
X154072322Y-121354051D01*
X154072073Y-121346124D01*
X154066422Y-121326672D01*
X154062414Y-121307320D01*
X154060867Y-121295077D01*
X154059874Y-121287217D01*
X154056956Y-121279846D01*
X154043600Y-121246111D01*
X154039755Y-121234884D01*
X154039121Y-121232701D01*
X154027418Y-121192421D01*
X154023384Y-121185599D01*
X154023381Y-121185593D01*
X154017106Y-121174982D01*
X154008410Y-121157232D01*
X154003872Y-121145770D01*
X154003869Y-121145765D01*
X154000952Y-121138397D01*
X153974973Y-121102639D01*
X153968457Y-121092721D01*
X153949975Y-121061471D01*
X153945942Y-121054651D01*
X153931618Y-121040327D01*
X153918776Y-121025292D01*
X153906872Y-121008907D01*
X153872806Y-120980725D01*
X153864027Y-120972736D01*
X151712491Y-118821200D01*
X154077296Y-118821200D01*
X154097258Y-119011128D01*
X154156273Y-119192756D01*
X154159576Y-119198478D01*
X154159577Y-119198479D01*
X154181974Y-119237271D01*
X154251760Y-119358144D01*
X154256178Y-119363051D01*
X154256179Y-119363052D01*
X154332440Y-119447748D01*
X154379547Y-119500066D01*
X154534048Y-119612318D01*
X154540076Y-119615002D01*
X154540078Y-119615003D01*
X154702481Y-119687309D01*
X154708512Y-119689994D01*
X154801913Y-119709847D01*
X154888856Y-119728328D01*
X154888861Y-119728328D01*
X154895313Y-119729700D01*
X155086287Y-119729700D01*
X155092739Y-119728328D01*
X155092744Y-119728328D01*
X155179687Y-119709847D01*
X155273088Y-119689994D01*
X155279119Y-119687309D01*
X155441522Y-119615003D01*
X155441524Y-119615002D01*
X155447552Y-119612318D01*
X155538893Y-119545955D01*
X155580471Y-119515746D01*
X155602053Y-119500066D01*
X155606468Y-119495163D01*
X155611380Y-119490740D01*
X155612505Y-119491989D01*
X155665814Y-119459149D01*
X155699000Y-119454700D01*
X157284861Y-119454700D01*
X157352982Y-119474702D01*
X157378493Y-119496385D01*
X157427547Y-119550866D01*
X157582048Y-119663118D01*
X157588076Y-119665802D01*
X157588078Y-119665803D01*
X157731594Y-119729700D01*
X157756512Y-119740794D01*
X157849913Y-119760647D01*
X157936856Y-119779128D01*
X157936861Y-119779128D01*
X157943313Y-119780500D01*
X158134287Y-119780500D01*
X158140739Y-119779128D01*
X158140744Y-119779128D01*
X158227687Y-119760647D01*
X158321088Y-119740794D01*
X158346006Y-119729700D01*
X158489522Y-119665803D01*
X158489524Y-119665802D01*
X158495552Y-119663118D01*
X158650053Y-119550866D01*
X158692301Y-119503945D01*
X158773421Y-119413852D01*
X158773422Y-119413851D01*
X158777840Y-119408944D01*
X158873327Y-119243556D01*
X158932342Y-119061928D01*
X158937022Y-119017406D01*
X158951614Y-118878565D01*
X158952304Y-118872000D01*
X158932342Y-118682072D01*
X158873327Y-118500444D01*
X158777840Y-118335056D01*
X158727681Y-118279348D01*
X158654475Y-118198045D01*
X158654474Y-118198044D01*
X158650053Y-118193134D01*
X158495552Y-118080882D01*
X158489524Y-118078198D01*
X158489522Y-118078197D01*
X158327119Y-118005891D01*
X158327118Y-118005891D01*
X158321088Y-118003206D01*
X158227688Y-117983353D01*
X158140744Y-117964872D01*
X158140739Y-117964872D01*
X158134287Y-117963500D01*
X157943313Y-117963500D01*
X157936861Y-117964872D01*
X157936856Y-117964872D01*
X157849912Y-117983353D01*
X157756512Y-118003206D01*
X157750482Y-118005891D01*
X157750481Y-118005891D01*
X157588078Y-118078197D01*
X157588076Y-118078198D01*
X157582048Y-118080882D01*
X157576707Y-118084762D01*
X157576706Y-118084763D01*
X157468147Y-118163636D01*
X157401279Y-118187495D01*
X157394086Y-118187700D01*
X155699000Y-118187700D01*
X155630879Y-118167698D01*
X155611653Y-118151357D01*
X155611380Y-118151660D01*
X155606468Y-118147237D01*
X155602053Y-118142334D01*
X155447552Y-118030082D01*
X155441524Y-118027398D01*
X155441522Y-118027397D01*
X155279119Y-117955091D01*
X155279118Y-117955091D01*
X155273088Y-117952406D01*
X155179687Y-117932553D01*
X155092744Y-117914072D01*
X155092739Y-117914072D01*
X155086287Y-117912700D01*
X154895313Y-117912700D01*
X154888861Y-117914072D01*
X154888856Y-117914072D01*
X154801913Y-117932553D01*
X154708512Y-117952406D01*
X154702482Y-117955091D01*
X154702481Y-117955091D01*
X154540078Y-118027397D01*
X154540076Y-118027398D01*
X154534048Y-118030082D01*
X154379547Y-118142334D01*
X154375126Y-118147244D01*
X154375125Y-118147245D01*
X154333807Y-118193134D01*
X154251760Y-118284256D01*
X154156273Y-118449644D01*
X154097258Y-118631272D01*
X154096568Y-118637833D01*
X154096568Y-118637835D01*
X154091919Y-118682072D01*
X154077296Y-118821200D01*
X151712491Y-118821200D01*
X142351605Y-109460314D01*
X142317579Y-109398002D01*
X142314700Y-109371219D01*
X142314700Y-102727394D01*
X142334702Y-102659273D01*
X142351605Y-102638299D01*
X143252899Y-101737005D01*
X143315211Y-101702979D01*
X143341994Y-101700100D01*
X143783858Y-101700100D01*
X143851979Y-101720102D01*
X143898472Y-101773758D01*
X143908576Y-101844032D01*
X143903693Y-101865029D01*
X143886458Y-101918072D01*
X143885768Y-101924633D01*
X143885768Y-101924635D01*
X143875086Y-102026269D01*
X143866496Y-102108000D01*
X143886458Y-102297928D01*
X143945473Y-102479556D01*
X143948776Y-102485278D01*
X143948777Y-102485279D01*
X144017205Y-102603800D01*
X144033943Y-102672796D01*
X144017205Y-102729800D01*
X143965054Y-102820129D01*
X143913672Y-102869122D01*
X143843958Y-102882559D01*
X143829752Y-102880378D01*
X143808687Y-102875900D01*
X143617713Y-102875900D01*
X143611261Y-102877272D01*
X143611256Y-102877272D01*
X143524312Y-102895753D01*
X143430912Y-102915606D01*
X143424882Y-102918291D01*
X143424881Y-102918291D01*
X143262478Y-102990597D01*
X143262476Y-102990598D01*
X143256448Y-102993282D01*
X143101947Y-103105534D01*
X142974160Y-103247456D01*
X142878673Y-103412844D01*
X142819658Y-103594472D01*
X142818968Y-103601033D01*
X142818968Y-103601035D01*
X142809439Y-103691696D01*
X142799696Y-103784400D01*
X142819658Y-103974328D01*
X142878673Y-104155956D01*
X142881976Y-104161678D01*
X142881977Y-104161679D01*
X142910155Y-104210484D01*
X142974160Y-104321344D01*
X143101947Y-104463266D01*
X143132548Y-104485499D01*
X143250402Y-104571125D01*
X143256448Y-104575518D01*
X143262476Y-104578202D01*
X143262478Y-104578203D01*
X143424879Y-104650508D01*
X143430912Y-104653194D01*
X143524312Y-104673047D01*
X143611256Y-104691528D01*
X143611261Y-104691528D01*
X143617713Y-104692900D01*
X143808687Y-104692900D01*
X143815139Y-104691528D01*
X143815144Y-104691528D01*
X143902087Y-104673047D01*
X143995488Y-104653194D01*
X144001515Y-104650511D01*
X144001523Y-104650508D01*
X144127310Y-104594504D01*
X144178558Y-104583611D01*
X149132922Y-104583611D01*
X149144105Y-104584138D01*
X149151598Y-104585813D01*
X149159524Y-104585564D01*
X149159525Y-104585564D01*
X149219675Y-104583673D01*
X149223634Y-104583611D01*
X149251545Y-104583611D01*
X149255480Y-104583114D01*
X149255545Y-104583106D01*
X149267382Y-104582173D01*
X149299199Y-104581173D01*
X149303660Y-104581033D01*
X149311579Y-104580784D01*
X149331031Y-104575133D01*
X149350383Y-104571125D01*
X149357454Y-104570231D01*
X149370486Y-104568585D01*
X149377855Y-104565668D01*
X149377857Y-104565667D01*
X149411592Y-104552311D01*
X149422819Y-104548466D01*
X149425002Y-104547832D01*
X149465282Y-104536129D01*
X149472105Y-104532094D01*
X149472107Y-104532093D01*
X149482717Y-104525818D01*
X149500465Y-104517123D01*
X149519306Y-104509663D01*
X149525724Y-104505000D01*
X149532668Y-104501183D01*
X149534105Y-104503797D01*
X149587778Y-104484663D01*
X149656925Y-104500763D01*
X149706391Y-104551691D01*
X149720245Y-104597288D01*
X149728458Y-104675427D01*
X149787473Y-104857055D01*
X149790776Y-104862777D01*
X149790777Y-104862778D01*
X149821001Y-104915127D01*
X149882960Y-105022443D01*
X149956137Y-105103714D01*
X149986853Y-105167720D01*
X149988500Y-105188023D01*
X149988500Y-105825076D01*
X149968498Y-105893197D01*
X149956142Y-105909379D01*
X149882960Y-105990656D01*
X149879659Y-105996374D01*
X149815154Y-106108100D01*
X149787473Y-106156044D01*
X149728458Y-106337672D01*
X149708496Y-106527600D01*
X149728458Y-106717528D01*
X149787473Y-106899156D01*
X149882960Y-107064544D01*
X149887378Y-107069451D01*
X149887379Y-107069452D01*
X150006325Y-107201555D01*
X150010747Y-107206466D01*
X150165248Y-107318718D01*
X150171276Y-107321402D01*
X150171278Y-107321403D01*
X150333681Y-107393709D01*
X150339712Y-107396394D01*
X150433113Y-107416247D01*
X150520056Y-107434728D01*
X150520061Y-107434728D01*
X150526513Y-107436100D01*
X150717487Y-107436100D01*
X150723939Y-107434728D01*
X150723944Y-107434728D01*
X150810887Y-107416247D01*
X150904288Y-107396394D01*
X150910319Y-107393709D01*
X151072722Y-107321403D01*
X151072724Y-107321402D01*
X151078752Y-107318718D01*
X151233253Y-107206466D01*
X151237675Y-107201555D01*
X151356621Y-107069452D01*
X151356622Y-107069451D01*
X151361040Y-107064544D01*
X151456527Y-106899156D01*
X151515542Y-106717528D01*
X151535504Y-106527600D01*
X151515542Y-106337672D01*
X151456527Y-106156044D01*
X151428847Y-106108100D01*
X151364341Y-105996374D01*
X151361040Y-105990656D01*
X151287863Y-105909385D01*
X151257147Y-105845379D01*
X151255500Y-105825076D01*
X151255500Y-105188023D01*
X151275502Y-105119902D01*
X151287858Y-105103720D01*
X151361040Y-105022443D01*
X151422999Y-104915127D01*
X151453223Y-104862778D01*
X151453224Y-104862777D01*
X151456527Y-104857055D01*
X151515542Y-104675427D01*
X151523755Y-104597290D01*
X151534814Y-104492064D01*
X151535504Y-104485499D01*
X151518251Y-104321344D01*
X151516232Y-104302134D01*
X151516232Y-104302132D01*
X151515542Y-104295571D01*
X151456527Y-104113943D01*
X151361040Y-103948555D01*
X151233253Y-103806633D01*
X151078752Y-103694381D01*
X151072724Y-103691697D01*
X151072722Y-103691696D01*
X150910319Y-103619390D01*
X150910318Y-103619390D01*
X150904288Y-103616705D01*
X150749201Y-103583740D01*
X150686730Y-103550013D01*
X150652408Y-103487863D01*
X150657136Y-103417024D01*
X150686305Y-103371399D01*
X154216868Y-99840835D01*
X155406045Y-98651657D01*
X155468357Y-98617632D01*
X155539172Y-98622696D01*
X155596008Y-98665243D01*
X155620450Y-98727580D01*
X155621958Y-98741928D01*
X155680973Y-98923556D01*
X155684276Y-98929278D01*
X155684277Y-98929279D01*
X155713993Y-98980749D01*
X155776460Y-99088944D01*
X155780878Y-99093851D01*
X155780879Y-99093852D01*
X155887595Y-99212372D01*
X155904247Y-99230866D01*
X155990020Y-99293184D01*
X156044818Y-99332997D01*
X156058748Y-99343118D01*
X156064776Y-99345802D01*
X156064778Y-99345803D01*
X156227181Y-99418109D01*
X156233212Y-99420794D01*
X156326612Y-99440647D01*
X156413556Y-99459128D01*
X156413561Y-99459128D01*
X156420013Y-99460500D01*
X156610987Y-99460500D01*
X156617439Y-99459128D01*
X156617444Y-99459128D01*
X156704388Y-99440647D01*
X156797788Y-99420794D01*
X156803819Y-99418109D01*
X156966222Y-99345803D01*
X156966224Y-99345802D01*
X156972252Y-99343118D01*
X156986183Y-99332997D01*
X157040980Y-99293184D01*
X157126753Y-99230866D01*
X157143405Y-99212372D01*
X157250121Y-99093852D01*
X157250122Y-99093851D01*
X157254540Y-99088944D01*
X157317007Y-98980749D01*
X157346723Y-98929279D01*
X157346724Y-98929278D01*
X157350027Y-98923556D01*
X157409042Y-98741928D01*
X157411394Y-98719555D01*
X157423978Y-98599818D01*
X157450991Y-98534161D01*
X157460193Y-98523893D01*
X158264999Y-97719087D01*
X158327311Y-97685061D01*
X158354094Y-97682182D01*
X158409987Y-97682182D01*
X158416439Y-97680810D01*
X158416444Y-97680810D01*
X158519689Y-97658864D01*
X158596788Y-97642476D01*
X158695235Y-97598645D01*
X158765222Y-97567485D01*
X158765224Y-97567484D01*
X158771252Y-97564800D01*
X158925753Y-97452548D01*
X158967223Y-97406491D01*
X159049121Y-97315534D01*
X159049122Y-97315533D01*
X159053540Y-97310626D01*
X159149027Y-97145238D01*
X159208042Y-96963610D01*
X159228004Y-96773682D01*
X159216826Y-96667326D01*
X159208732Y-96590317D01*
X159208732Y-96590315D01*
X159208042Y-96583754D01*
X159149027Y-96402126D01*
X159138268Y-96383490D01*
X159070766Y-96266574D01*
X159053540Y-96236738D01*
X159022681Y-96202465D01*
X158930175Y-96099727D01*
X158930174Y-96099726D01*
X158925753Y-96094816D01*
X158771252Y-95982564D01*
X158765224Y-95979880D01*
X158765222Y-95979879D01*
X158602819Y-95907573D01*
X158602818Y-95907573D01*
X158596788Y-95904888D01*
X158590327Y-95903515D01*
X158590322Y-95903513D01*
X158457633Y-95875308D01*
X158395159Y-95841580D01*
X158360838Y-95779430D01*
X158365566Y-95708591D01*
X158394735Y-95662967D01*
X158441087Y-95616615D01*
X158449377Y-95609071D01*
X158455858Y-95604958D01*
X158502499Y-95555290D01*
X158505253Y-95552449D01*
X158524974Y-95532728D01*
X158527452Y-95529533D01*
X158535158Y-95520511D01*
X158559998Y-95494059D01*
X158565426Y-95488279D01*
X158575186Y-95470526D01*
X158586039Y-95454003D01*
X158593593Y-95444264D01*
X158598453Y-95437999D01*
X158616016Y-95397415D01*
X158621223Y-95386785D01*
X158642535Y-95348018D01*
X158644506Y-95340341D01*
X158644508Y-95340336D01*
X158647572Y-95328400D01*
X158653978Y-95309688D01*
X158658873Y-95298377D01*
X158662021Y-95291103D01*
X158663261Y-95283275D01*
X158663263Y-95283268D01*
X158668939Y-95247434D01*
X158671345Y-95235814D01*
X158680368Y-95200669D01*
X158680368Y-95200668D01*
X158682340Y-95192988D01*
X158682340Y-95172734D01*
X158683891Y-95153023D01*
X158685820Y-95140844D01*
X158687060Y-95133015D01*
X158682899Y-95088996D01*
X158682340Y-95077139D01*
X158682340Y-91265766D01*
X159297857Y-91265766D01*
X159328165Y-91400246D01*
X159331245Y-91410075D01*
X159411370Y-91607403D01*
X159416013Y-91616594D01*
X159527294Y-91798188D01*
X159533377Y-91806499D01*
X159672813Y-91967467D01*
X159680180Y-91974683D01*
X159844034Y-92110716D01*
X159852481Y-92116631D01*
X160036356Y-92224079D01*
X160045642Y-92228529D01*
X160244601Y-92304503D01*
X160254499Y-92307379D01*
X160357850Y-92328406D01*
X160371899Y-92327210D01*
X160375600Y-92316865D01*
X160375600Y-91269915D01*
X160371125Y-91254676D01*
X160369735Y-91253471D01*
X160362052Y-91251800D01*
X159312825Y-91251800D01*
X159299294Y-91255773D01*
X159297857Y-91265766D01*
X158682340Y-91265766D01*
X158682340Y-83423405D01*
X158702342Y-83355284D01*
X158719245Y-83334310D01*
X161731004Y-80322549D01*
X161739290Y-80315009D01*
X161745769Y-80310897D01*
X161760246Y-80295481D01*
X161792394Y-80261246D01*
X161795149Y-80258404D01*
X161814886Y-80238667D01*
X161817366Y-80235470D01*
X161825072Y-80226447D01*
X161834151Y-80216779D01*
X161895364Y-80180814D01*
X161966303Y-80183653D01*
G37*
%TD.AperFunction*%
%TA.AperFunction,Conductor*%
G36*
X162015145Y-105905197D02*
G01*
X162049135Y-105967528D01*
X162052000Y-105994243D01*
X162052000Y-106666128D01*
X162031998Y-106734249D01*
X161978342Y-106780742D01*
X161908068Y-106790846D01*
X161843488Y-106761352D01*
X161810450Y-106716370D01*
X161781772Y-106650414D01*
X161776905Y-106641339D01*
X161661226Y-106462526D01*
X161654936Y-106454357D01*
X161511093Y-106296277D01*
X161480041Y-106232431D01*
X161488435Y-106161933D01*
X161533612Y-106107164D01*
X161560056Y-106093495D01*
X161667097Y-106053367D01*
X161675505Y-106050215D01*
X161792061Y-105962861D01*
X161825176Y-105918676D01*
X161882033Y-105876163D01*
X161952851Y-105871137D01*
X162015145Y-105905197D01*
G37*
%TD.AperFunction*%
%TA.AperFunction,Conductor*%
G36*
X161963791Y-96088057D02*
G01*
X162022777Y-96127570D01*
X162051036Y-96192700D01*
X162052000Y-96208256D01*
X162052000Y-103504957D01*
X162031998Y-103573078D01*
X161978342Y-103619571D01*
X161908068Y-103629675D01*
X161843488Y-103600181D01*
X161825180Y-103580530D01*
X161792061Y-103536339D01*
X161675505Y-103448985D01*
X161539116Y-103397855D01*
X161476934Y-103391100D01*
X160157741Y-103391100D01*
X160089620Y-103371098D01*
X160043127Y-103317442D01*
X160033023Y-103247168D01*
X160062517Y-103182588D01*
X160068646Y-103176005D01*
X161122239Y-102122412D01*
X161128504Y-102116558D01*
X161166375Y-102083521D01*
X161166376Y-102083520D01*
X161172096Y-102078530D01*
X161208847Y-102026240D01*
X161212739Y-102020998D01*
X161252187Y-101970687D01*
X161255311Y-101963768D01*
X161256699Y-101961476D01*
X161265068Y-101946804D01*
X161266333Y-101944444D01*
X161270701Y-101938230D01*
X161276002Y-101924635D01*
X161293913Y-101878694D01*
X161296470Y-101872611D01*
X161309375Y-101844032D01*
X161322756Y-101814396D01*
X161324141Y-101806923D01*
X161324945Y-101804357D01*
X161329566Y-101788134D01*
X161330231Y-101785542D01*
X161332993Y-101778460D01*
X161341333Y-101715108D01*
X161342365Y-101708592D01*
X161352622Y-101653250D01*
X161354006Y-101645783D01*
X161350420Y-101583589D01*
X161350211Y-101576336D01*
X161350211Y-96455034D01*
X161370213Y-96386913D01*
X161423869Y-96340420D01*
X161450015Y-96331787D01*
X161489630Y-96323367D01*
X161489633Y-96323366D01*
X161496088Y-96321994D01*
X161502119Y-96319309D01*
X161664522Y-96247003D01*
X161664524Y-96247002D01*
X161670552Y-96244318D01*
X161825053Y-96132066D01*
X161832365Y-96123945D01*
X161892808Y-96086707D01*
X161963791Y-96088057D01*
G37*
%TD.AperFunction*%
%TA.AperFunction,Conductor*%
G36*
X160625057Y-46864500D02*
G01*
X160639858Y-46866805D01*
X160639861Y-46866805D01*
X160648730Y-46868186D01*
X160662769Y-46866350D01*
X160688989Y-46865675D01*
X160863654Y-46879421D01*
X160883181Y-46882514D01*
X161077059Y-46929060D01*
X161095854Y-46935167D01*
X161280067Y-47011471D01*
X161297678Y-47020445D01*
X161467685Y-47124626D01*
X161483673Y-47136241D01*
X161635288Y-47265732D01*
X161649266Y-47279710D01*
X161778759Y-47431327D01*
X161790374Y-47447315D01*
X161894555Y-47617322D01*
X161903529Y-47634933D01*
X161979831Y-47819141D01*
X161985940Y-47837941D01*
X162014949Y-47958771D01*
X162032486Y-48031818D01*
X162035579Y-48051347D01*
X162048774Y-48219013D01*
X162048133Y-48235881D01*
X162048305Y-48235883D01*
X162048195Y-48244859D01*
X162046814Y-48253730D01*
X162047978Y-48262632D01*
X162047978Y-48262635D01*
X162050936Y-48285251D01*
X162052000Y-48301589D01*
X162052000Y-67062405D01*
X162031998Y-67130526D01*
X161978342Y-67177019D01*
X161908068Y-67187123D01*
X161843488Y-67157629D01*
X161836905Y-67151500D01*
X161828969Y-67143564D01*
X161816127Y-67128529D01*
X161804223Y-67112144D01*
X161770157Y-67083962D01*
X161761378Y-67075973D01*
X157488126Y-62802721D01*
X157454100Y-62740409D01*
X157455515Y-62681014D01*
X157464553Y-62647283D01*
X157464554Y-62647276D01*
X157465978Y-62641963D01*
X157485353Y-62420500D01*
X157465978Y-62199037D01*
X157408440Y-61984304D01*
X157318459Y-61791339D01*
X157316814Y-61787811D01*
X157316811Y-61787806D01*
X157314488Y-61782824D01*
X157302314Y-61765438D01*
X157190136Y-61605230D01*
X157190134Y-61605227D01*
X157186977Y-61600719D01*
X157029781Y-61443523D01*
X157025273Y-61440366D01*
X157025270Y-61440364D01*
X156945215Y-61384309D01*
X156847677Y-61316012D01*
X156842695Y-61313689D01*
X156842690Y-61313686D01*
X156737627Y-61264695D01*
X156684342Y-61217778D01*
X156664881Y-61149501D01*
X156685423Y-61081541D01*
X156737627Y-61036305D01*
X156842690Y-60987314D01*
X156842695Y-60987311D01*
X156847677Y-60984988D01*
X156949505Y-60913687D01*
X157025270Y-60860636D01*
X157025273Y-60860634D01*
X157029781Y-60857477D01*
X157186977Y-60700281D01*
X157192195Y-60692830D01*
X157311331Y-60522685D01*
X157311332Y-60522683D01*
X157314488Y-60518176D01*
X157316811Y-60513194D01*
X157316814Y-60513189D01*
X157406117Y-60321678D01*
X157406118Y-60321677D01*
X157408440Y-60316696D01*
X157465978Y-60101963D01*
X157485353Y-59880500D01*
X157465978Y-59659037D01*
X157408440Y-59444304D01*
X157348212Y-59315145D01*
X157316814Y-59247811D01*
X157316811Y-59247806D01*
X157314488Y-59242824D01*
X157294980Y-59214963D01*
X157190136Y-59065230D01*
X157190134Y-59065227D01*
X157186977Y-59060719D01*
X157029781Y-58903523D01*
X157025273Y-58900366D01*
X157025270Y-58900364D01*
X156860900Y-58785271D01*
X156847677Y-58776012D01*
X156842695Y-58773689D01*
X156842690Y-58773686D01*
X156737035Y-58724419D01*
X156683750Y-58677502D01*
X156664289Y-58609225D01*
X156684831Y-58541265D01*
X156737035Y-58496029D01*
X156842445Y-58446876D01*
X156851931Y-58441398D01*
X156895764Y-58410707D01*
X156904139Y-58400229D01*
X156897071Y-58386781D01*
X156222812Y-57712522D01*
X156208868Y-57704908D01*
X156207035Y-57705039D01*
X156200420Y-57709290D01*
X155522207Y-58387503D01*
X155515777Y-58399277D01*
X155525074Y-58411293D01*
X155568069Y-58441398D01*
X155577555Y-58446876D01*
X155682965Y-58496029D01*
X155736250Y-58542946D01*
X155755711Y-58611223D01*
X155735169Y-58679183D01*
X155682965Y-58724419D01*
X155577311Y-58773686D01*
X155577306Y-58773689D01*
X155572324Y-58776012D01*
X155567817Y-58779168D01*
X155567815Y-58779169D01*
X155394730Y-58900364D01*
X155394727Y-58900366D01*
X155390219Y-58903523D01*
X155233023Y-59060719D01*
X155229866Y-59065227D01*
X155229864Y-59065230D01*
X155125020Y-59214963D01*
X155105512Y-59242824D01*
X155103189Y-59247806D01*
X155103186Y-59247811D01*
X155071788Y-59315145D01*
X155011560Y-59444304D01*
X154954022Y-59659037D01*
X154934647Y-59880500D01*
X154954022Y-60101963D01*
X155011560Y-60316696D01*
X155013882Y-60321677D01*
X155013883Y-60321678D01*
X155103186Y-60513189D01*
X155103189Y-60513194D01*
X155105512Y-60518176D01*
X155108668Y-60522683D01*
X155108669Y-60522685D01*
X155227806Y-60692830D01*
X155233023Y-60700281D01*
X155390219Y-60857477D01*
X155394727Y-60860634D01*
X155394730Y-60860636D01*
X155470495Y-60913687D01*
X155572323Y-60984988D01*
X155577305Y-60987311D01*
X155577310Y-60987314D01*
X155682373Y-61036305D01*
X155735658Y-61083222D01*
X155755119Y-61151499D01*
X155734577Y-61219459D01*
X155682373Y-61264695D01*
X155577311Y-61313686D01*
X155577306Y-61313689D01*
X155572324Y-61316012D01*
X155567817Y-61319168D01*
X155567815Y-61319169D01*
X155394730Y-61440364D01*
X155394727Y-61440366D01*
X155390219Y-61443523D01*
X155233023Y-61600719D01*
X155229866Y-61605227D01*
X155229864Y-61605230D01*
X155117686Y-61765438D01*
X155105512Y-61782824D01*
X155103189Y-61787806D01*
X155103186Y-61787811D01*
X155101541Y-61791339D01*
X155011560Y-61984304D01*
X154954022Y-62199037D01*
X154934647Y-62420500D01*
X154954022Y-62641963D01*
X155011560Y-62856696D01*
X155013882Y-62861677D01*
X155013883Y-62861678D01*
X155103186Y-63053189D01*
X155103189Y-63053194D01*
X155105512Y-63058176D01*
X155108668Y-63062683D01*
X155108669Y-63062685D01*
X155180662Y-63165501D01*
X155233023Y-63240281D01*
X155390219Y-63397477D01*
X155394727Y-63400634D01*
X155394730Y-63400636D01*
X155470495Y-63453687D01*
X155572323Y-63524988D01*
X155577305Y-63527311D01*
X155577310Y-63527314D01*
X155682373Y-63576305D01*
X155735658Y-63623222D01*
X155755119Y-63691499D01*
X155734577Y-63759459D01*
X155682373Y-63804695D01*
X155577311Y-63853686D01*
X155577306Y-63853689D01*
X155572324Y-63856012D01*
X155567817Y-63859168D01*
X155567815Y-63859169D01*
X155394730Y-63980364D01*
X155394727Y-63980366D01*
X155390219Y-63983523D01*
X155233023Y-64140719D01*
X155105512Y-64322824D01*
X155103189Y-64327806D01*
X155103186Y-64327811D01*
X155089759Y-64356606D01*
X155011560Y-64524304D01*
X155010138Y-64529612D01*
X155010137Y-64529614D01*
X155007976Y-64537679D01*
X154954022Y-64739037D01*
X154934647Y-64960500D01*
X154954022Y-65181963D01*
X155011560Y-65396696D01*
X155013882Y-65401677D01*
X155013883Y-65401678D01*
X155103186Y-65593189D01*
X155103189Y-65593194D01*
X155105512Y-65598176D01*
X155233023Y-65780281D01*
X155390219Y-65937477D01*
X155394727Y-65940634D01*
X155394730Y-65940636D01*
X155470495Y-65993687D01*
X155572323Y-66064988D01*
X155577305Y-66067311D01*
X155577310Y-66067314D01*
X155682373Y-66116305D01*
X155735658Y-66163222D01*
X155755119Y-66231499D01*
X155734577Y-66299459D01*
X155682373Y-66344695D01*
X155577311Y-66393686D01*
X155577306Y-66393689D01*
X155572324Y-66396012D01*
X155567817Y-66399168D01*
X155567815Y-66399169D01*
X155394730Y-66520364D01*
X155394727Y-66520366D01*
X155390219Y-66523523D01*
X155233023Y-66680719D01*
X155229866Y-66685227D01*
X155229864Y-66685230D01*
X155129941Y-66827935D01*
X155105512Y-66862824D01*
X155103189Y-66867806D01*
X155103186Y-66867811D01*
X155019825Y-67046579D01*
X155011560Y-67064304D01*
X154954022Y-67279037D01*
X154934647Y-67500500D01*
X154954022Y-67721963D01*
X155011560Y-67936696D01*
X155013882Y-67941677D01*
X155013883Y-67941678D01*
X155103186Y-68133189D01*
X155103189Y-68133194D01*
X155105512Y-68138176D01*
X155108668Y-68142683D01*
X155108669Y-68142685D01*
X155200790Y-68274247D01*
X155233023Y-68320281D01*
X155390219Y-68477477D01*
X155394727Y-68480634D01*
X155394730Y-68480636D01*
X155470495Y-68533687D01*
X155572323Y-68604988D01*
X155577305Y-68607311D01*
X155577310Y-68607314D01*
X155682373Y-68656305D01*
X155735658Y-68703222D01*
X155755119Y-68771499D01*
X155734577Y-68839459D01*
X155682373Y-68884695D01*
X155577311Y-68933686D01*
X155577306Y-68933689D01*
X155572324Y-68936012D01*
X155567817Y-68939168D01*
X155567815Y-68939169D01*
X155394730Y-69060364D01*
X155394727Y-69060366D01*
X155390219Y-69063523D01*
X155233023Y-69220719D01*
X155105512Y-69402824D01*
X155103189Y-69407806D01*
X155103186Y-69407811D01*
X155019826Y-69586578D01*
X155011560Y-69604304D01*
X154954022Y-69819037D01*
X154934647Y-70040500D01*
X154954022Y-70261963D01*
X154955446Y-70267276D01*
X155007288Y-70460751D01*
X155011560Y-70476696D01*
X155013882Y-70481677D01*
X155013883Y-70481678D01*
X155103186Y-70673189D01*
X155103189Y-70673194D01*
X155105512Y-70678176D01*
X155233023Y-70860281D01*
X155390219Y-71017477D01*
X155394727Y-71020634D01*
X155394730Y-71020636D01*
X155470495Y-71073687D01*
X155572323Y-71144988D01*
X155577305Y-71147311D01*
X155577310Y-71147314D01*
X155682373Y-71196305D01*
X155735658Y-71243222D01*
X155755119Y-71311499D01*
X155734577Y-71379459D01*
X155682373Y-71424695D01*
X155577311Y-71473686D01*
X155577306Y-71473689D01*
X155572324Y-71476012D01*
X155567817Y-71479168D01*
X155567815Y-71479169D01*
X155394730Y-71600364D01*
X155394727Y-71600366D01*
X155390219Y-71603523D01*
X155233023Y-71760719D01*
X155229866Y-71765227D01*
X155229864Y-71765230D01*
X155197698Y-71811168D01*
X155105512Y-71942824D01*
X155103189Y-71947806D01*
X155103186Y-71947811D01*
X155046516Y-72069341D01*
X155011560Y-72144304D01*
X154954022Y-72359037D01*
X154934647Y-72580500D01*
X154954022Y-72801963D01*
X155011560Y-73016696D01*
X155013882Y-73021677D01*
X155013883Y-73021678D01*
X155103186Y-73213189D01*
X155103189Y-73213194D01*
X155105512Y-73218176D01*
X155108668Y-73222683D01*
X155108669Y-73222685D01*
X155196560Y-73348206D01*
X155233023Y-73400281D01*
X155390219Y-73557477D01*
X155389143Y-73558553D01*
X155424541Y-73611766D01*
X155425663Y-73682754D01*
X155388228Y-73743079D01*
X155317829Y-73774434D01*
X155309312Y-73775359D01*
X155261484Y-73780555D01*
X155125095Y-73831685D01*
X155008539Y-73919039D01*
X154921185Y-74035595D01*
X154870055Y-74171984D01*
X154863300Y-74234166D01*
X154863300Y-76006834D01*
X154870055Y-76069016D01*
X154921185Y-76205405D01*
X155008539Y-76321961D01*
X155125095Y-76409315D01*
X155261484Y-76460445D01*
X155323666Y-76467200D01*
X157096334Y-76467200D01*
X157158516Y-76460445D01*
X157294905Y-76409315D01*
X157411461Y-76321961D01*
X157498815Y-76205405D01*
X157549945Y-76069016D01*
X157556700Y-76006834D01*
X157556700Y-74234166D01*
X157549945Y-74171984D01*
X157498815Y-74035595D01*
X157411461Y-73919039D01*
X157294905Y-73831685D01*
X157158516Y-73780555D01*
X157110688Y-73775359D01*
X157102171Y-73774434D01*
X157036609Y-73747192D01*
X156996183Y-73688829D01*
X156993728Y-73617875D01*
X157030987Y-73558683D01*
X157029781Y-73557477D01*
X157186977Y-73400281D01*
X157223441Y-73348206D01*
X157279791Y-73267729D01*
X157335248Y-73223401D01*
X157383004Y-73214000D01*
X158194106Y-73214000D01*
X158262227Y-73234002D01*
X158283201Y-73250905D01*
X159070195Y-74037899D01*
X159104221Y-74100211D01*
X159107100Y-74126994D01*
X159107100Y-79187406D01*
X159087098Y-79255527D01*
X159070195Y-79276501D01*
X157139116Y-81207579D01*
X157076804Y-81241605D01*
X157005988Y-81236540D01*
X156956387Y-81202796D01*
X156872053Y-81109134D01*
X156740840Y-81013802D01*
X156722894Y-81000763D01*
X156722893Y-81000762D01*
X156717552Y-80996882D01*
X156711524Y-80994198D01*
X156711522Y-80994197D01*
X156549119Y-80921891D01*
X156549118Y-80921891D01*
X156543088Y-80919206D01*
X156449688Y-80899353D01*
X156362744Y-80880872D01*
X156362739Y-80880872D01*
X156356287Y-80879500D01*
X156165313Y-80879500D01*
X156158861Y-80880872D01*
X156158856Y-80880872D01*
X156071912Y-80899353D01*
X155978512Y-80919206D01*
X155972482Y-80921891D01*
X155972481Y-80921891D01*
X155810078Y-80994197D01*
X155810076Y-80994198D01*
X155804048Y-80996882D01*
X155798707Y-81000762D01*
X155798706Y-81000763D01*
X155780760Y-81013802D01*
X155649547Y-81109134D01*
X155645129Y-81114041D01*
X155645125Y-81114045D01*
X155582815Y-81183248D01*
X155521760Y-81251056D01*
X155498910Y-81290633D01*
X155446531Y-81381357D01*
X155426273Y-81416444D01*
X155367258Y-81598072D01*
X155366568Y-81604633D01*
X155366568Y-81604635D01*
X155347986Y-81781435D01*
X155347296Y-81788000D01*
X155367258Y-81977928D01*
X155426273Y-82159556D01*
X155521760Y-82324944D01*
X155526178Y-82329851D01*
X155526179Y-82329852D01*
X155584896Y-82395064D01*
X155615614Y-82459071D01*
X155617260Y-82479374D01*
X155617260Y-87969619D01*
X155597258Y-88037740D01*
X155543602Y-88084233D01*
X155478093Y-88094929D01*
X155473740Y-88094472D01*
X155467287Y-88093100D01*
X155406789Y-88093100D01*
X155338668Y-88073098D01*
X155292175Y-88019442D01*
X155280789Y-87967100D01*
X155280789Y-83995666D01*
X155281316Y-83984482D01*
X155282990Y-83976994D01*
X155280851Y-83908935D01*
X155280789Y-83904978D01*
X155280789Y-83877047D01*
X155280283Y-83873041D01*
X155279350Y-83861195D01*
X155278474Y-83833295D01*
X155277962Y-83817013D01*
X155272311Y-83797561D01*
X155268303Y-83778209D01*
X155266757Y-83765971D01*
X155266756Y-83765969D01*
X155265763Y-83758106D01*
X155249483Y-83716989D01*
X155245648Y-83705788D01*
X155233307Y-83663309D01*
X155229274Y-83656490D01*
X155229272Y-83656485D01*
X155222996Y-83645874D01*
X155214299Y-83628124D01*
X155206841Y-83609286D01*
X155180860Y-83573526D01*
X155174342Y-83563604D01*
X155155867Y-83532363D01*
X155155863Y-83532358D01*
X155151831Y-83525540D01*
X155137507Y-83511216D01*
X155124665Y-83496181D01*
X155112761Y-83479796D01*
X155078695Y-83451614D01*
X155069916Y-83443625D01*
X154885894Y-83259603D01*
X154851868Y-83197291D01*
X154848989Y-83170508D01*
X154848989Y-81381357D01*
X154849516Y-81370174D01*
X154851191Y-81362681D01*
X154849051Y-81294590D01*
X154848989Y-81290633D01*
X154848989Y-81262733D01*
X154848485Y-81258742D01*
X154847552Y-81246900D01*
X154847529Y-81246148D01*
X154846163Y-81202700D01*
X154843951Y-81195086D01*
X154843950Y-81195081D01*
X154840512Y-81183248D01*
X154836501Y-81163884D01*
X154834956Y-81151653D01*
X154833963Y-81143792D01*
X154831046Y-81136425D01*
X154831045Y-81136420D01*
X154817687Y-81102681D01*
X154813843Y-81091454D01*
X154803719Y-81056611D01*
X154801507Y-81048996D01*
X154791196Y-81031561D01*
X154782501Y-81013813D01*
X154775041Y-80994972D01*
X154764650Y-80980669D01*
X154749053Y-80959202D01*
X154742537Y-80949282D01*
X154724069Y-80918054D01*
X154724067Y-80918051D01*
X154720031Y-80911227D01*
X154705710Y-80896906D01*
X154692869Y-80881872D01*
X154680961Y-80865482D01*
X154646884Y-80837291D01*
X154638105Y-80829301D01*
X154022422Y-80213618D01*
X153988396Y-80151306D01*
X153986207Y-80137693D01*
X153969532Y-79979035D01*
X153969532Y-79979033D01*
X153968842Y-79972472D01*
X153909827Y-79790844D01*
X153814340Y-79625456D01*
X153734952Y-79537286D01*
X153690975Y-79488445D01*
X153690974Y-79488444D01*
X153686553Y-79483534D01*
X153532052Y-79371282D01*
X153526024Y-79368598D01*
X153526022Y-79368597D01*
X153363619Y-79296291D01*
X153363618Y-79296291D01*
X153357588Y-79293606D01*
X153264188Y-79273753D01*
X153177244Y-79255272D01*
X153177239Y-79255272D01*
X153170787Y-79253900D01*
X152979813Y-79253900D01*
X152973361Y-79255272D01*
X152973356Y-79255272D01*
X152886412Y-79273753D01*
X152793012Y-79293606D01*
X152786982Y-79296291D01*
X152786981Y-79296291D01*
X152624578Y-79368597D01*
X152624576Y-79368598D01*
X152618548Y-79371282D01*
X152464047Y-79483534D01*
X152459626Y-79488444D01*
X152459625Y-79488445D01*
X152415649Y-79537286D01*
X152336260Y-79625456D01*
X152240773Y-79790844D01*
X152181758Y-79972472D01*
X152181068Y-79979033D01*
X152181068Y-79979035D01*
X152176265Y-80024731D01*
X152161796Y-80162400D01*
X152162486Y-80168965D01*
X152178348Y-80319880D01*
X152181758Y-80352328D01*
X152240773Y-80533956D01*
X152336260Y-80699344D01*
X152340678Y-80704251D01*
X152340679Y-80704252D01*
X152410978Y-80782327D01*
X152464047Y-80841266D01*
X152518560Y-80880872D01*
X152612718Y-80949282D01*
X152618548Y-80953518D01*
X152624576Y-80956202D01*
X152624578Y-80956203D01*
X152774666Y-81023026D01*
X152793012Y-81031194D01*
X152886413Y-81051047D01*
X152973356Y-81069528D01*
X152973361Y-81069528D01*
X152979813Y-81070900D01*
X153035705Y-81070900D01*
X153103826Y-81090902D01*
X153124801Y-81107805D01*
X153545085Y-81528090D01*
X153579110Y-81590402D01*
X153581989Y-81617185D01*
X153581989Y-83406336D01*
X153581462Y-83417519D01*
X153579787Y-83425012D01*
X153580036Y-83432938D01*
X153580036Y-83432939D01*
X153581927Y-83493089D01*
X153581989Y-83497048D01*
X153581989Y-83524959D01*
X153582486Y-83528893D01*
X153582486Y-83528894D01*
X153582494Y-83528959D01*
X153583427Y-83540796D01*
X153584816Y-83584992D01*
X153590010Y-83602869D01*
X153590467Y-83604442D01*
X153594476Y-83623803D01*
X153597015Y-83643900D01*
X153599934Y-83651271D01*
X153599934Y-83651273D01*
X153613293Y-83685015D01*
X153617138Y-83696245D01*
X153629471Y-83738696D01*
X153633504Y-83745515D01*
X153633506Y-83745520D01*
X153639782Y-83756131D01*
X153648477Y-83773879D01*
X153655937Y-83792720D01*
X153660599Y-83799136D01*
X153660599Y-83799137D01*
X153681925Y-83828490D01*
X153688441Y-83838410D01*
X153710947Y-83876465D01*
X153725268Y-83890786D01*
X153738108Y-83905819D01*
X153750017Y-83922210D01*
X153756123Y-83927261D01*
X153784094Y-83950401D01*
X153792873Y-83958391D01*
X153976884Y-84142402D01*
X154010910Y-84204714D01*
X154013789Y-84231497D01*
X154013789Y-91458136D01*
X154013262Y-91469319D01*
X154011587Y-91476812D01*
X154011836Y-91484738D01*
X154011836Y-91484739D01*
X154013727Y-91544889D01*
X154013789Y-91548848D01*
X154013789Y-91576759D01*
X154014286Y-91580693D01*
X154014286Y-91580694D01*
X154014294Y-91580759D01*
X154015227Y-91592596D01*
X154016616Y-91636792D01*
X154022267Y-91656242D01*
X154026276Y-91675603D01*
X154028815Y-91695700D01*
X154031734Y-91703071D01*
X154031734Y-91703073D01*
X154045093Y-91736815D01*
X154048938Y-91748045D01*
X154061271Y-91790496D01*
X154065304Y-91797315D01*
X154065306Y-91797320D01*
X154071582Y-91807931D01*
X154080277Y-91825679D01*
X154087737Y-91844520D01*
X154092399Y-91850936D01*
X154092399Y-91850937D01*
X154113725Y-91880290D01*
X154120241Y-91890210D01*
X154138553Y-91921173D01*
X154142747Y-91928265D01*
X154157068Y-91942586D01*
X154169908Y-91957619D01*
X154181817Y-91974010D01*
X154187923Y-91979061D01*
X154215894Y-92002201D01*
X154224673Y-92010191D01*
X155130835Y-92916353D01*
X155164861Y-92978665D01*
X155167740Y-93005448D01*
X155167740Y-93405168D01*
X155147738Y-93473289D01*
X155130835Y-93494263D01*
X151124401Y-97500696D01*
X151062089Y-97534722D01*
X151035306Y-97537601D01*
X150979414Y-97537601D01*
X150972962Y-97538973D01*
X150972957Y-97538973D01*
X150886013Y-97557454D01*
X150792613Y-97577307D01*
X150786583Y-97579992D01*
X150786582Y-97579992D01*
X150624179Y-97652298D01*
X150624177Y-97652299D01*
X150618149Y-97654983D01*
X150463648Y-97767235D01*
X150459227Y-97772145D01*
X150459226Y-97772146D01*
X150367679Y-97873820D01*
X150335861Y-97909157D01*
X150240374Y-98074545D01*
X150181359Y-98256173D01*
X150180669Y-98262734D01*
X150180669Y-98262736D01*
X150179632Y-98272600D01*
X150161397Y-98446101D01*
X150162087Y-98452666D01*
X150179958Y-98622696D01*
X150181359Y-98636029D01*
X150240374Y-98817657D01*
X150243677Y-98823379D01*
X150243678Y-98823380D01*
X150297083Y-98915879D01*
X150313821Y-98984874D01*
X150290601Y-99051966D01*
X150234794Y-99095853D01*
X150164119Y-99102602D01*
X150136715Y-99093986D01*
X149970519Y-99019991D01*
X149970518Y-99019991D01*
X149964488Y-99017306D01*
X149871088Y-98997453D01*
X149784144Y-98978972D01*
X149784139Y-98978972D01*
X149777687Y-98977600D01*
X149586713Y-98977600D01*
X149580261Y-98978972D01*
X149580256Y-98978972D01*
X149493312Y-98997453D01*
X149399912Y-99017306D01*
X149393882Y-99019991D01*
X149393881Y-99019991D01*
X149231478Y-99092297D01*
X149231476Y-99092298D01*
X149225448Y-99094982D01*
X149070947Y-99207234D01*
X149066526Y-99212144D01*
X149066525Y-99212145D01*
X148948597Y-99343118D01*
X148943160Y-99349156D01*
X148939859Y-99354874D01*
X148870017Y-99475844D01*
X148847673Y-99514544D01*
X148788658Y-99696172D01*
X148768696Y-99886100D01*
X148769386Y-99892665D01*
X148784591Y-100037328D01*
X148788658Y-100076028D01*
X148790698Y-100082306D01*
X148835099Y-100218956D01*
X148847673Y-100257656D01*
X148847927Y-100258097D01*
X148857058Y-100326223D01*
X148826950Y-100390519D01*
X148766859Y-100428330D01*
X148732518Y-100433100D01*
X145810729Y-100433100D01*
X145742608Y-100413098D01*
X145696115Y-100359442D01*
X145686011Y-100289168D01*
X145701610Y-100244100D01*
X145712823Y-100224679D01*
X145712824Y-100224678D01*
X145716127Y-100218956D01*
X145775142Y-100037328D01*
X145792507Y-99872106D01*
X145819520Y-99806450D01*
X145828722Y-99796182D01*
X147432853Y-98192052D01*
X147441139Y-98184512D01*
X147447618Y-98180400D01*
X147494244Y-98130748D01*
X147496998Y-98127907D01*
X147516735Y-98108170D01*
X147519215Y-98104973D01*
X147526920Y-98095951D01*
X147539390Y-98082672D01*
X147557186Y-98063721D01*
X147561005Y-98056775D01*
X147561007Y-98056772D01*
X147566948Y-98045966D01*
X147577799Y-98029447D01*
X147585358Y-98019701D01*
X147590214Y-98013441D01*
X147593359Y-98006172D01*
X147593362Y-98006168D01*
X147607774Y-97972863D01*
X147612991Y-97962213D01*
X147634295Y-97923460D01*
X147639333Y-97903837D01*
X147645737Y-97885134D01*
X147650633Y-97873820D01*
X147650633Y-97873819D01*
X147653781Y-97866545D01*
X147655020Y-97858722D01*
X147655023Y-97858712D01*
X147660699Y-97822876D01*
X147663105Y-97811256D01*
X147672128Y-97776111D01*
X147672128Y-97776110D01*
X147674100Y-97768430D01*
X147674100Y-97748176D01*
X147675651Y-97728465D01*
X147677580Y-97716286D01*
X147678820Y-97708457D01*
X147674659Y-97664438D01*
X147674100Y-97652581D01*
X147674100Y-92872194D01*
X147694102Y-92804073D01*
X147711005Y-92783099D01*
X148538905Y-91955199D01*
X148601217Y-91921173D01*
X148672032Y-91926238D01*
X148728868Y-91968785D01*
X148753679Y-92035305D01*
X148754000Y-92044294D01*
X148754000Y-92634068D01*
X148733998Y-92702189D01*
X148721636Y-92718378D01*
X148663760Y-92782656D01*
X148568273Y-92948044D01*
X148509258Y-93129672D01*
X148508568Y-93136233D01*
X148508568Y-93136235D01*
X148492453Y-93289564D01*
X148489296Y-93319600D01*
X148489986Y-93326165D01*
X148507654Y-93494263D01*
X148509258Y-93509528D01*
X148568273Y-93691156D01*
X148663760Y-93856544D01*
X148791547Y-93998466D01*
X148946048Y-94110718D01*
X148952076Y-94113402D01*
X148952078Y-94113403D01*
X149114481Y-94185709D01*
X149120512Y-94188394D01*
X149213912Y-94208247D01*
X149300856Y-94226728D01*
X149300861Y-94226728D01*
X149307313Y-94228100D01*
X149498287Y-94228100D01*
X149504739Y-94226728D01*
X149504744Y-94226728D01*
X149591688Y-94208247D01*
X149685088Y-94188394D01*
X149691119Y-94185709D01*
X149853522Y-94113403D01*
X149853524Y-94113402D01*
X149859552Y-94110718D01*
X150014053Y-93998466D01*
X150141840Y-93856544D01*
X150237327Y-93691156D01*
X150296342Y-93509528D01*
X150297947Y-93494263D01*
X150315614Y-93326165D01*
X150316304Y-93319600D01*
X150313147Y-93289564D01*
X150297032Y-93136235D01*
X150297032Y-93136233D01*
X150296342Y-93129672D01*
X150237327Y-92948044D01*
X150141840Y-92782656D01*
X150053364Y-92684393D01*
X150022646Y-92620386D01*
X150021000Y-92600083D01*
X150021000Y-92111921D01*
X150041002Y-92043800D01*
X150061459Y-92019732D01*
X150064853Y-92017266D01*
X150103801Y-91974010D01*
X150188221Y-91880252D01*
X150188222Y-91880251D01*
X150192640Y-91875344D01*
X150288127Y-91709956D01*
X150347142Y-91528328D01*
X150348808Y-91512482D01*
X150366414Y-91344965D01*
X150367104Y-91338400D01*
X150347142Y-91148472D01*
X150305150Y-91019235D01*
X150303122Y-90948269D01*
X150339785Y-90887471D01*
X150403497Y-90856146D01*
X150424983Y-90854300D01*
X151412400Y-90854300D01*
X151480521Y-90874302D01*
X151499747Y-90890643D01*
X151500020Y-90890340D01*
X151504932Y-90894763D01*
X151509347Y-90899666D01*
X151663848Y-91011918D01*
X151669876Y-91014602D01*
X151669878Y-91014603D01*
X151832281Y-91086909D01*
X151838312Y-91089594D01*
X151931712Y-91109447D01*
X152018656Y-91127928D01*
X152018661Y-91127928D01*
X152025113Y-91129300D01*
X152216087Y-91129300D01*
X152222539Y-91127928D01*
X152222544Y-91127928D01*
X152309488Y-91109447D01*
X152402888Y-91089594D01*
X152408919Y-91086909D01*
X152571322Y-91014603D01*
X152571324Y-91014602D01*
X152577352Y-91011918D01*
X152731853Y-90899666D01*
X152740250Y-90890340D01*
X152855221Y-90762652D01*
X152855222Y-90762651D01*
X152859640Y-90757744D01*
X152955127Y-90592356D01*
X153014142Y-90410728D01*
X153015877Y-90394227D01*
X153033414Y-90227365D01*
X153034104Y-90220800D01*
X153028279Y-90165378D01*
X153014832Y-90037435D01*
X153014832Y-90037433D01*
X153014142Y-90030872D01*
X152955127Y-89849244D01*
X152951145Y-89842346D01*
X152907545Y-89766830D01*
X152859640Y-89683856D01*
X152846455Y-89669212D01*
X152736275Y-89546845D01*
X152736274Y-89546844D01*
X152731853Y-89541934D01*
X152577352Y-89429682D01*
X152571324Y-89426998D01*
X152571322Y-89426997D01*
X152408919Y-89354691D01*
X152408918Y-89354691D01*
X152402888Y-89352006D01*
X152309488Y-89332153D01*
X152222544Y-89313672D01*
X152222539Y-89313672D01*
X152216087Y-89312300D01*
X152025113Y-89312300D01*
X152018661Y-89313672D01*
X152018656Y-89313672D01*
X151931713Y-89332153D01*
X151838312Y-89352006D01*
X151832282Y-89354691D01*
X151832281Y-89354691D01*
X151669878Y-89426997D01*
X151669876Y-89426998D01*
X151663848Y-89429682D01*
X151658507Y-89433562D01*
X151658506Y-89433563D01*
X151564351Y-89501971D01*
X151509347Y-89541934D01*
X151504932Y-89546837D01*
X151500020Y-89551260D01*
X151498895Y-89550011D01*
X151445586Y-89582851D01*
X151412400Y-89587300D01*
X150161800Y-89587300D01*
X150093679Y-89567298D01*
X150074453Y-89550957D01*
X150074180Y-89551260D01*
X150069268Y-89546837D01*
X150064853Y-89541934D01*
X150009849Y-89501971D01*
X149915694Y-89433563D01*
X149915693Y-89433562D01*
X149910352Y-89429682D01*
X149904324Y-89426998D01*
X149904322Y-89426997D01*
X149741919Y-89354691D01*
X149741918Y-89354691D01*
X149735888Y-89352006D01*
X149642488Y-89332153D01*
X149555544Y-89313672D01*
X149555539Y-89313672D01*
X149549087Y-89312300D01*
X149358113Y-89312300D01*
X149351661Y-89313672D01*
X149351656Y-89313672D01*
X149264713Y-89332153D01*
X149171312Y-89352006D01*
X149165282Y-89354691D01*
X149165281Y-89354691D01*
X149002878Y-89426997D01*
X149002876Y-89426998D01*
X148996848Y-89429682D01*
X148842347Y-89541934D01*
X148837926Y-89546844D01*
X148837925Y-89546845D01*
X148727746Y-89669212D01*
X148714560Y-89683856D01*
X148666655Y-89766830D01*
X148623056Y-89842346D01*
X148619073Y-89849244D01*
X148560058Y-90030872D01*
X148559368Y-90037433D01*
X148559368Y-90037435D01*
X148556907Y-90060856D01*
X148552004Y-90107509D01*
X148551643Y-90110942D01*
X148524630Y-90176599D01*
X148515428Y-90186867D01*
X148170095Y-90532200D01*
X148107783Y-90566226D01*
X148036968Y-90561161D01*
X147980132Y-90518614D01*
X147955321Y-90452094D01*
X147955000Y-90443105D01*
X147955000Y-83185000D01*
X147947207Y-83185000D01*
X147938361Y-83177335D01*
X147899978Y-83117609D01*
X147899978Y-83046612D01*
X147938362Y-82986886D01*
X147976645Y-82964129D01*
X148042695Y-82939368D01*
X148042696Y-82939367D01*
X148051105Y-82936215D01*
X148167661Y-82848861D01*
X148255015Y-82732305D01*
X148306145Y-82595916D01*
X148312900Y-82533734D01*
X148312900Y-80737466D01*
X148306145Y-80675284D01*
X148255015Y-80538895D01*
X148167661Y-80422339D01*
X148051105Y-80334985D01*
X147914716Y-80283855D01*
X147852534Y-80277100D01*
X146056266Y-80277100D01*
X145994084Y-80283855D01*
X145857695Y-80334985D01*
X145741139Y-80422339D01*
X145653785Y-80538895D01*
X145650633Y-80547303D01*
X145609319Y-80657507D01*
X145566677Y-80714271D01*
X145500116Y-80738971D01*
X145430767Y-80723763D01*
X145398143Y-80698076D01*
X145347551Y-80642475D01*
X145347542Y-80642466D01*
X145344070Y-80638651D01*
X145340019Y-80635452D01*
X145340015Y-80635448D01*
X145172814Y-80503400D01*
X145172810Y-80503398D01*
X145168759Y-80500198D01*
X145132428Y-80480142D01*
X145116536Y-80471369D01*
X144973189Y-80392238D01*
X144968320Y-80390514D01*
X144968316Y-80390512D01*
X144767487Y-80319395D01*
X144767483Y-80319394D01*
X144762612Y-80317669D01*
X144689086Y-80304572D01*
X144638051Y-80295481D01*
X144574494Y-80263843D01*
X144538131Y-80202865D01*
X144540508Y-80131908D01*
X144571053Y-80082339D01*
X147114876Y-77538516D01*
X147177188Y-77504490D01*
X147203971Y-77501611D01*
X149092810Y-77501611D01*
X149227455Y-77486508D01*
X149241598Y-77481583D01*
X149312504Y-77478067D01*
X149334282Y-77485465D01*
X149425312Y-77525994D01*
X149518712Y-77545847D01*
X149605656Y-77564328D01*
X149605661Y-77564328D01*
X149612113Y-77565700D01*
X149803087Y-77565700D01*
X149809539Y-77564328D01*
X149809544Y-77564328D01*
X149896488Y-77545847D01*
X149989888Y-77525994D01*
X150038187Y-77504490D01*
X150158322Y-77451003D01*
X150158324Y-77451002D01*
X150164352Y-77448318D01*
X150318853Y-77336066D01*
X150446640Y-77194144D01*
X150542127Y-77028756D01*
X150601142Y-76847128D01*
X150605216Y-76808371D01*
X150620414Y-76663765D01*
X150621104Y-76657200D01*
X150608644Y-76538652D01*
X150601832Y-76473835D01*
X150601832Y-76473833D01*
X150601142Y-76467272D01*
X150542127Y-76285644D01*
X150532980Y-76269802D01*
X150516100Y-76206803D01*
X150516100Y-68741565D01*
X150516107Y-68740246D01*
X150516976Y-68657221D01*
X150517050Y-68650179D01*
X150515563Y-68643301D01*
X150515562Y-68643291D01*
X150507891Y-68607813D01*
X150505830Y-68595231D01*
X150501782Y-68559143D01*
X150500997Y-68552145D01*
X150489968Y-68520474D01*
X150485805Y-68505665D01*
X150480207Y-68479771D01*
X150480206Y-68479768D01*
X150478719Y-68472890D01*
X150460392Y-68433587D01*
X150455610Y-68421811D01*
X150441345Y-68380848D01*
X150434736Y-68370271D01*
X150423573Y-68352405D01*
X150416234Y-68338888D01*
X150405041Y-68314886D01*
X150405040Y-68314885D01*
X150402062Y-68308498D01*
X150375494Y-68274247D01*
X150368198Y-68263788D01*
X150348958Y-68232996D01*
X150348956Y-68232993D01*
X150345226Y-68227024D01*
X150316624Y-68198221D01*
X150316039Y-68197596D01*
X150315522Y-68196930D01*
X150289532Y-68170940D01*
X150217415Y-68098318D01*
X150216378Y-68097660D01*
X150215149Y-68096557D01*
X144073993Y-61955401D01*
X144039967Y-61893089D01*
X144045032Y-61822274D01*
X144087579Y-61765438D01*
X144154099Y-61740627D01*
X144181167Y-61741610D01*
X144193016Y-61743328D01*
X144227664Y-61748352D01*
X144227667Y-61748352D01*
X144233604Y-61749213D01*
X144444899Y-61739433D01*
X144576077Y-61707819D01*
X144644701Y-61691281D01*
X144644703Y-61691280D01*
X144650534Y-61689875D01*
X144655992Y-61687393D01*
X144655996Y-61687392D01*
X144786103Y-61628235D01*
X144843087Y-61602326D01*
X145015611Y-61479946D01*
X145161881Y-61327150D01*
X145169073Y-61316012D01*
X145182746Y-61294837D01*
X145236501Y-61248460D01*
X145306797Y-61238507D01*
X145371314Y-61268139D01*
X145387681Y-61285351D01*
X145481604Y-61404920D01*
X145486135Y-61408852D01*
X145486138Y-61408855D01*
X145568422Y-61480257D01*
X145641363Y-61543552D01*
X145646549Y-61546552D01*
X145646553Y-61546555D01*
X145742957Y-61602326D01*
X145824454Y-61649473D01*
X146024271Y-61718861D01*
X146030206Y-61719722D01*
X146030208Y-61719722D01*
X146227664Y-61748352D01*
X146227667Y-61748352D01*
X146233604Y-61749213D01*
X146444899Y-61739433D01*
X146576077Y-61707819D01*
X146644701Y-61691281D01*
X146644703Y-61691280D01*
X146650534Y-61689875D01*
X146655992Y-61687393D01*
X146655996Y-61687392D01*
X146786103Y-61628235D01*
X146843087Y-61602326D01*
X147015611Y-61479946D01*
X147019749Y-61475623D01*
X147019754Y-61475619D01*
X147107164Y-61384309D01*
X147168720Y-61348933D01*
X147239629Y-61352452D01*
X147297379Y-61393749D01*
X147305326Y-61405137D01*
X147336063Y-61454807D01*
X147345099Y-61466208D01*
X147459829Y-61580739D01*
X147471240Y-61589751D01*
X147609243Y-61674816D01*
X147622424Y-61680963D01*
X147776710Y-61732138D01*
X147790086Y-61735005D01*
X147884438Y-61744672D01*
X147890854Y-61745000D01*
X148015885Y-61745000D01*
X148031124Y-61740525D01*
X148032329Y-61739135D01*
X148034000Y-61731452D01*
X148034000Y-61726884D01*
X148542000Y-61726884D01*
X148546475Y-61742123D01*
X148547865Y-61743328D01*
X148555548Y-61744999D01*
X148685095Y-61744999D01*
X148691614Y-61744662D01*
X148787206Y-61734743D01*
X148800600Y-61731851D01*
X148954784Y-61680412D01*
X148967962Y-61674239D01*
X149105807Y-61588937D01*
X149117208Y-61579901D01*
X149231739Y-61465171D01*
X149240751Y-61453760D01*
X149325816Y-61315757D01*
X149331963Y-61302576D01*
X149383138Y-61148290D01*
X149386005Y-61134914D01*
X149395672Y-61040562D01*
X149396000Y-61034146D01*
X149396000Y-60634115D01*
X149391525Y-60618876D01*
X149390135Y-60617671D01*
X149382452Y-60616000D01*
X148560115Y-60616000D01*
X148544876Y-60620475D01*
X148543671Y-60621865D01*
X148542000Y-60629548D01*
X148542000Y-61726884D01*
X148034000Y-61726884D01*
X148034000Y-60234000D01*
X148054002Y-60165879D01*
X148107658Y-60119386D01*
X148160000Y-60108000D01*
X149377884Y-60108000D01*
X149393123Y-60103525D01*
X149394328Y-60102135D01*
X149395999Y-60094452D01*
X149395999Y-59689905D01*
X149395662Y-59683386D01*
X149385743Y-59587794D01*
X149382851Y-59574400D01*
X149331412Y-59420216D01*
X149325239Y-59407038D01*
X149239937Y-59269193D01*
X149230900Y-59257791D01*
X149215154Y-59242072D01*
X149181076Y-59179789D01*
X149186079Y-59108969D01*
X149228577Y-59052097D01*
X149295076Y-59027229D01*
X149304173Y-59026900D01*
X152785450Y-59026900D01*
X152853571Y-59046902D01*
X152879087Y-59068591D01*
X152901923Y-59093954D01*
X152901930Y-59093960D01*
X152906347Y-59098866D01*
X152911689Y-59102747D01*
X152911691Y-59102749D01*
X153024045Y-59184379D01*
X153060848Y-59211118D01*
X153066876Y-59213802D01*
X153066878Y-59213803D01*
X153167535Y-59258618D01*
X153235312Y-59288794D01*
X153328713Y-59308647D01*
X153415656Y-59327128D01*
X153415661Y-59327128D01*
X153422113Y-59328500D01*
X153613087Y-59328500D01*
X153619539Y-59327128D01*
X153619544Y-59327128D01*
X153706487Y-59308647D01*
X153799888Y-59288794D01*
X153867665Y-59258618D01*
X153968322Y-59213803D01*
X153968324Y-59213802D01*
X153974352Y-59211118D01*
X154016566Y-59180448D01*
X154114947Y-59108969D01*
X154128853Y-59098866D01*
X154193355Y-59027229D01*
X154252221Y-58961852D01*
X154252222Y-58961851D01*
X154256640Y-58956944D01*
X154352127Y-58791556D01*
X154411142Y-58609928D01*
X154431104Y-58420000D01*
X154411142Y-58230072D01*
X154352127Y-58048444D01*
X154256640Y-57883056D01*
X154233982Y-57857891D01*
X154133275Y-57746045D01*
X154133274Y-57746044D01*
X154128853Y-57741134D01*
X153994322Y-57643391D01*
X153979694Y-57632763D01*
X153979693Y-57632762D01*
X153974352Y-57628882D01*
X153968324Y-57626198D01*
X153968322Y-57626197D01*
X153805919Y-57553891D01*
X153805918Y-57553891D01*
X153799888Y-57551206D01*
X153700583Y-57530098D01*
X153619544Y-57512872D01*
X153619539Y-57512872D01*
X153613087Y-57511500D01*
X153422113Y-57511500D01*
X153415661Y-57512872D01*
X153415656Y-57512872D01*
X153276940Y-57542358D01*
X153235312Y-57551206D01*
X153229279Y-57553892D01*
X153229276Y-57553893D01*
X153127948Y-57599007D01*
X153076700Y-57609900D01*
X147653727Y-57609900D01*
X147645158Y-57609608D01*
X147595025Y-57606190D01*
X147595021Y-57606190D01*
X147587448Y-57605674D01*
X147524481Y-57616664D01*
X147517969Y-57617624D01*
X147454558Y-57625298D01*
X147447457Y-57627981D01*
X147444848Y-57628622D01*
X147428515Y-57633091D01*
X147425995Y-57633852D01*
X147418517Y-57635157D01*
X147411565Y-57638209D01*
X147411564Y-57638209D01*
X147360004Y-57660841D01*
X147353899Y-57663332D01*
X147301256Y-57683225D01*
X147301252Y-57683227D01*
X147294144Y-57685913D01*
X147287883Y-57690216D01*
X147285517Y-57691453D01*
X147270738Y-57699679D01*
X147268450Y-57701032D01*
X147261495Y-57704085D01*
X147210775Y-57743003D01*
X147205465Y-57746860D01*
X147197004Y-57752675D01*
X147129535Y-57774775D01*
X147060828Y-57756889D01*
X147012698Y-57704697D01*
X147000537Y-57658207D01*
X147000725Y-57655448D01*
X146997717Y-57638209D01*
X146989739Y-57592501D01*
X146988776Y-57585975D01*
X146986503Y-57567191D01*
X146981102Y-57522558D01*
X146978419Y-57515457D01*
X146977778Y-57512848D01*
X146973315Y-57496538D01*
X146972550Y-57494002D01*
X146971243Y-57486516D01*
X146945556Y-57428000D01*
X146943065Y-57421896D01*
X146923173Y-57369252D01*
X146923172Y-57369251D01*
X146920487Y-57362144D01*
X146916183Y-57355881D01*
X146914946Y-57353515D01*
X146910749Y-57345975D01*
X154935628Y-57345975D01*
X154954038Y-57556396D01*
X154955941Y-57567191D01*
X155010609Y-57771215D01*
X155014355Y-57781507D01*
X155103623Y-57972941D01*
X155109103Y-57982432D01*
X155139794Y-58026265D01*
X155150271Y-58034640D01*
X155163718Y-58027572D01*
X155837978Y-57353312D01*
X155844356Y-57341632D01*
X156574408Y-57341632D01*
X156574539Y-57343465D01*
X156578790Y-57350080D01*
X157257003Y-58028293D01*
X157268777Y-58034723D01*
X157280793Y-58025426D01*
X157310897Y-57982432D01*
X157316377Y-57972941D01*
X157405645Y-57781507D01*
X157409391Y-57771215D01*
X157464059Y-57567191D01*
X157465962Y-57556396D01*
X157484372Y-57345975D01*
X157484372Y-57335025D01*
X157465962Y-57124604D01*
X157464059Y-57113809D01*
X157409391Y-56909785D01*
X157405645Y-56899493D01*
X157316377Y-56708059D01*
X157310897Y-56698568D01*
X157280206Y-56654735D01*
X157269729Y-56646360D01*
X157256282Y-56653428D01*
X156582022Y-57327688D01*
X156574408Y-57341632D01*
X155844356Y-57341632D01*
X155845592Y-57339368D01*
X155845461Y-57337535D01*
X155841210Y-57330920D01*
X155162997Y-56652707D01*
X155151223Y-56646277D01*
X155139207Y-56655574D01*
X155109103Y-56698568D01*
X155103623Y-56708059D01*
X155014355Y-56899493D01*
X155010609Y-56909785D01*
X154955941Y-57113809D01*
X154954038Y-57124604D01*
X154935628Y-57335025D01*
X154935628Y-57345975D01*
X146910749Y-57345975D01*
X146906701Y-57338703D01*
X146905368Y-57336449D01*
X146902315Y-57329495D01*
X146863413Y-57278798D01*
X146859541Y-57273468D01*
X146827661Y-57227080D01*
X146827656Y-57227075D01*
X146823357Y-57220819D01*
X146776829Y-57179364D01*
X146771554Y-57174384D01*
X145877941Y-56280771D01*
X155515860Y-56280771D01*
X155522928Y-56294218D01*
X156197188Y-56968478D01*
X156211132Y-56976092D01*
X156212965Y-56975961D01*
X156219580Y-56971710D01*
X156897793Y-56293497D01*
X156904223Y-56281723D01*
X156894926Y-56269707D01*
X156851931Y-56239602D01*
X156842445Y-56234124D01*
X156651007Y-56144855D01*
X156640715Y-56141109D01*
X156436691Y-56086441D01*
X156425896Y-56084538D01*
X156215475Y-56066128D01*
X156204525Y-56066128D01*
X155994104Y-56084538D01*
X155983309Y-56086441D01*
X155779285Y-56141109D01*
X155768993Y-56144855D01*
X155577559Y-56234123D01*
X155568068Y-56239603D01*
X155524235Y-56270294D01*
X155515860Y-56280771D01*
X145877941Y-56280771D01*
X145663865Y-56066695D01*
X145629839Y-56004383D01*
X145627650Y-55990770D01*
X145623432Y-55950637D01*
X145622742Y-55944072D01*
X145563727Y-55762444D01*
X145468240Y-55597056D01*
X145340453Y-55455134D01*
X145185952Y-55342882D01*
X145179924Y-55340198D01*
X145179922Y-55340197D01*
X145017519Y-55267891D01*
X145017518Y-55267891D01*
X145011488Y-55265206D01*
X144918087Y-55245353D01*
X144831144Y-55226872D01*
X144831139Y-55226872D01*
X144824687Y-55225500D01*
X144633713Y-55225500D01*
X144627261Y-55226872D01*
X144627256Y-55226872D01*
X144540313Y-55245353D01*
X144446912Y-55265206D01*
X144440882Y-55267891D01*
X144440881Y-55267891D01*
X144278478Y-55340197D01*
X144278476Y-55340198D01*
X144272448Y-55342882D01*
X144117947Y-55455134D01*
X143990160Y-55597056D01*
X143986859Y-55602774D01*
X143972219Y-55628131D01*
X143920837Y-55677124D01*
X143851123Y-55690561D01*
X143785212Y-55664174D01*
X143744030Y-55606342D01*
X143737100Y-55565131D01*
X143737100Y-55432594D01*
X143757102Y-55364473D01*
X143774005Y-55343499D01*
X145086099Y-54031405D01*
X145148411Y-53997379D01*
X145175194Y-53994500D01*
X145231087Y-53994500D01*
X145237539Y-53993128D01*
X145237544Y-53993128D01*
X145324487Y-53974647D01*
X145417888Y-53954794D01*
X145423919Y-53952109D01*
X145586322Y-53879803D01*
X145586324Y-53879802D01*
X145592352Y-53877118D01*
X145746853Y-53764866D01*
X145874640Y-53622944D01*
X145970127Y-53457556D01*
X146029142Y-53275928D01*
X146039821Y-53174328D01*
X146048414Y-53092565D01*
X146049104Y-53086000D01*
X146035031Y-52952101D01*
X146029832Y-52902635D01*
X146029832Y-52902633D01*
X146029142Y-52896072D01*
X145970127Y-52714444D01*
X145874640Y-52549056D01*
X145746853Y-52407134D01*
X145592352Y-52294882D01*
X145586324Y-52292198D01*
X145586322Y-52292197D01*
X145423919Y-52219891D01*
X145423918Y-52219891D01*
X145417888Y-52217206D01*
X145323594Y-52197163D01*
X145237544Y-52178872D01*
X145237539Y-52178872D01*
X145231087Y-52177500D01*
X145040113Y-52177500D01*
X145033661Y-52178872D01*
X145033656Y-52178872D01*
X144947606Y-52197163D01*
X144853312Y-52217206D01*
X144847285Y-52219889D01*
X144847277Y-52219892D01*
X144787948Y-52246307D01*
X144717581Y-52255741D01*
X144653284Y-52225634D01*
X144615471Y-52165545D01*
X144610700Y-52131200D01*
X144610700Y-51267627D01*
X144630702Y-51199506D01*
X144671818Y-51159750D01*
X144675194Y-51158096D01*
X144857060Y-51028373D01*
X144891283Y-50994270D01*
X145000816Y-50885118D01*
X145015296Y-50870689D01*
X145067165Y-50798506D01*
X145145653Y-50689277D01*
X145146976Y-50690228D01*
X145193845Y-50647057D01*
X145263780Y-50634825D01*
X145329226Y-50662344D01*
X145357075Y-50694194D01*
X145417187Y-50792288D01*
X145420567Y-50796190D01*
X145431552Y-50808871D01*
X145563450Y-50961138D01*
X145735326Y-51103832D01*
X145928200Y-51216538D01*
X146136892Y-51296230D01*
X146141960Y-51297261D01*
X146141963Y-51297262D01*
X146237062Y-51316610D01*
X146355797Y-51340767D01*
X146360972Y-51340957D01*
X146360974Y-51340957D01*
X146573873Y-51348764D01*
X146573877Y-51348764D01*
X146579037Y-51348953D01*
X146584157Y-51348297D01*
X146584159Y-51348297D01*
X146795488Y-51321225D01*
X146795489Y-51321225D01*
X146800616Y-51320568D01*
X146805566Y-51319083D01*
X147009629Y-51257861D01*
X147009634Y-51257859D01*
X147014584Y-51256374D01*
X147215194Y-51158096D01*
X147397060Y-51028373D01*
X147431283Y-50994270D01*
X147540816Y-50885118D01*
X147555296Y-50870689D01*
X147607165Y-50798506D01*
X147685653Y-50689277D01*
X147686840Y-50690130D01*
X147734160Y-50646562D01*
X147804097Y-50634345D01*
X147869538Y-50661878D01*
X147897366Y-50693711D01*
X147954894Y-50787588D01*
X147960977Y-50795899D01*
X148100413Y-50956867D01*
X148107780Y-50964083D01*
X148271634Y-51100116D01*
X148280081Y-51106031D01*
X148463956Y-51213479D01*
X148473242Y-51217929D01*
X148672201Y-51293903D01*
X148682099Y-51296779D01*
X148785450Y-51317806D01*
X148799499Y-51316610D01*
X148803200Y-51306265D01*
X148803200Y-51305717D01*
X149311200Y-51305717D01*
X149315264Y-51319559D01*
X149328678Y-51321593D01*
X149335384Y-51320734D01*
X149345462Y-51318592D01*
X149549455Y-51257391D01*
X149559042Y-51253633D01*
X149750295Y-51159939D01*
X149759145Y-51154664D01*
X149932528Y-51030992D01*
X149940400Y-51024339D01*
X150091252Y-50874012D01*
X150097930Y-50866165D01*
X150222203Y-50693220D01*
X150227513Y-50684383D01*
X150321870Y-50493467D01*
X150325669Y-50483872D01*
X150387577Y-50280110D01*
X150389755Y-50270037D01*
X150391186Y-50259162D01*
X150388975Y-50244978D01*
X150375817Y-50241200D01*
X149329315Y-50241200D01*
X149314076Y-50245675D01*
X149312871Y-50247065D01*
X149311200Y-50254748D01*
X149311200Y-51305717D01*
X148803200Y-51305717D01*
X148803200Y-49715085D01*
X149311200Y-49715085D01*
X149315675Y-49730324D01*
X149317065Y-49731529D01*
X149324748Y-49733200D01*
X150375544Y-49733200D01*
X150389075Y-49729227D01*
X150390380Y-49720147D01*
X150369659Y-49637655D01*
X157624858Y-49637655D01*
X157660104Y-49896638D01*
X157661412Y-49901124D01*
X157661412Y-49901126D01*
X157681098Y-49968664D01*
X157733243Y-50147567D01*
X157842668Y-50384928D01*
X157845231Y-50388837D01*
X157983410Y-50599596D01*
X157983414Y-50599601D01*
X157985976Y-50603509D01*
X158160018Y-50798506D01*
X158360970Y-50965637D01*
X158364973Y-50968066D01*
X158580422Y-51098804D01*
X158580426Y-51098806D01*
X158584419Y-51101229D01*
X158825455Y-51202303D01*
X159078783Y-51266641D01*
X159083434Y-51267109D01*
X159083438Y-51267110D01*
X159235575Y-51282429D01*
X159295867Y-51288500D01*
X159451354Y-51288500D01*
X159453679Y-51288327D01*
X159453685Y-51288327D01*
X159641000Y-51274407D01*
X159641004Y-51274406D01*
X159645652Y-51274061D01*
X159650200Y-51273032D01*
X159650206Y-51273031D01*
X159836601Y-51230853D01*
X159900577Y-51216377D01*
X159906867Y-51213931D01*
X160139824Y-51123340D01*
X160139827Y-51123339D01*
X160144177Y-51121647D01*
X160171500Y-51106031D01*
X160302790Y-51030992D01*
X160371098Y-50991951D01*
X160576357Y-50830138D01*
X160755443Y-50639763D01*
X160904424Y-50425009D01*
X160975880Y-50280110D01*
X161017960Y-50194781D01*
X161017961Y-50194778D01*
X161020025Y-50190593D01*
X161099707Y-49941665D01*
X161141721Y-49683693D01*
X161143431Y-49553075D01*
X161145081Y-49427022D01*
X161145081Y-49427019D01*
X161145142Y-49422345D01*
X161109896Y-49163362D01*
X161095473Y-49113877D01*
X161054104Y-48971948D01*
X161036757Y-48912433D01*
X161026644Y-48890495D01*
X161008804Y-48851798D01*
X160927332Y-48675072D01*
X160894519Y-48625024D01*
X160786590Y-48460404D01*
X160786586Y-48460399D01*
X160784024Y-48456491D01*
X160609982Y-48261494D01*
X160409030Y-48094363D01*
X160305959Y-48031818D01*
X160189578Y-47961196D01*
X160189574Y-47961194D01*
X160185581Y-47958771D01*
X159944545Y-47857697D01*
X159691217Y-47793359D01*
X159686566Y-47792891D01*
X159686562Y-47792890D01*
X159477271Y-47771816D01*
X159474133Y-47771500D01*
X159318646Y-47771500D01*
X159316321Y-47771673D01*
X159316315Y-47771673D01*
X159129000Y-47785593D01*
X159128996Y-47785594D01*
X159124348Y-47785939D01*
X159119800Y-47786968D01*
X159119794Y-47786969D01*
X158977617Y-47819141D01*
X158869423Y-47843623D01*
X158865071Y-47845315D01*
X158865069Y-47845316D01*
X158630176Y-47936660D01*
X158630173Y-47936661D01*
X158625823Y-47938353D01*
X158398902Y-48068049D01*
X158193643Y-48229862D01*
X158014557Y-48420237D01*
X157908884Y-48572563D01*
X157868345Y-48631000D01*
X157865576Y-48634991D01*
X157863510Y-48639181D01*
X157863508Y-48639184D01*
X157756872Y-48855422D01*
X157749975Y-48869407D01*
X157748553Y-48873850D01*
X157748552Y-48873852D01*
X157697052Y-49034740D01*
X157670293Y-49118335D01*
X157628279Y-49376307D01*
X157624858Y-49637655D01*
X150369659Y-49637655D01*
X150348414Y-49553075D01*
X150345094Y-49543324D01*
X150260172Y-49348014D01*
X150255305Y-49338939D01*
X150139626Y-49160126D01*
X150133336Y-49151957D01*
X149990006Y-48994440D01*
X149982473Y-48987415D01*
X149815339Y-48855422D01*
X149806752Y-48849717D01*
X149620317Y-48746799D01*
X149610905Y-48742569D01*
X149410159Y-48671480D01*
X149400188Y-48668846D01*
X149329037Y-48656172D01*
X149315740Y-48657632D01*
X149311200Y-48672189D01*
X149311200Y-49715085D01*
X148803200Y-49715085D01*
X148803200Y-48670302D01*
X148799282Y-48656958D01*
X148785006Y-48654971D01*
X148746524Y-48660860D01*
X148736488Y-48663251D01*
X148534068Y-48729412D01*
X148524559Y-48733409D01*
X148335663Y-48831742D01*
X148326938Y-48837236D01*
X148156633Y-48965105D01*
X148148926Y-48971948D01*
X148001790Y-49125917D01*
X147995309Y-49133922D01*
X147890698Y-49287274D01*
X147835787Y-49332276D01*
X147765262Y-49340447D01*
X147701515Y-49309193D01*
X147680818Y-49284709D01*
X147600022Y-49159817D01*
X147600020Y-49159814D01*
X147597214Y-49155477D01*
X147446870Y-48990251D01*
X147442819Y-48987052D01*
X147442815Y-48987048D01*
X147275614Y-48855000D01*
X147275610Y-48854998D01*
X147271559Y-48851798D01*
X147235228Y-48831742D01*
X147219336Y-48822969D01*
X147075989Y-48743838D01*
X147071120Y-48742114D01*
X147071116Y-48742112D01*
X146870287Y-48670995D01*
X146870283Y-48670994D01*
X146865412Y-48669269D01*
X146860319Y-48668362D01*
X146860316Y-48668361D01*
X146650573Y-48631000D01*
X146650567Y-48630999D01*
X146645484Y-48630094D01*
X146571652Y-48629192D01*
X146427281Y-48627428D01*
X146427279Y-48627428D01*
X146422111Y-48627365D01*
X146201291Y-48661155D01*
X145988956Y-48730557D01*
X145790807Y-48833707D01*
X145786674Y-48836810D01*
X145786671Y-48836812D01*
X145616300Y-48964730D01*
X145612165Y-48967835D01*
X145608593Y-48971573D01*
X145500929Y-49084237D01*
X145457829Y-49129338D01*
X145350401Y-49286821D01*
X145295493Y-49331821D01*
X145224968Y-49339992D01*
X145161221Y-49308738D01*
X145140524Y-49284254D01*
X145060022Y-49159817D01*
X145060020Y-49159814D01*
X145057214Y-49155477D01*
X144906870Y-48990251D01*
X144902819Y-48987052D01*
X144902815Y-48987048D01*
X144735614Y-48855000D01*
X144735610Y-48854998D01*
X144731559Y-48851798D01*
X144695228Y-48831742D01*
X144679336Y-48822969D01*
X144535989Y-48743838D01*
X144531120Y-48742114D01*
X144531116Y-48742112D01*
X144330287Y-48670995D01*
X144330283Y-48670994D01*
X144325412Y-48669269D01*
X144320319Y-48668362D01*
X144320316Y-48668361D01*
X144110573Y-48631000D01*
X144110567Y-48630999D01*
X144105484Y-48630094D01*
X144031652Y-48629192D01*
X143887281Y-48627428D01*
X143887279Y-48627428D01*
X143882111Y-48627365D01*
X143661291Y-48661155D01*
X143448956Y-48730557D01*
X143250807Y-48833707D01*
X143246674Y-48836810D01*
X143246671Y-48836812D01*
X143076300Y-48964730D01*
X143072165Y-48967835D01*
X143015737Y-49026884D01*
X142991483Y-49052264D01*
X142929959Y-49087694D01*
X142859046Y-49084237D01*
X142801260Y-49042991D01*
X142782407Y-49009443D01*
X142740967Y-48898903D01*
X142737815Y-48890495D01*
X142650461Y-48773939D01*
X142533905Y-48686585D01*
X142397516Y-48635455D01*
X142335334Y-48628700D01*
X140539066Y-48628700D01*
X140476884Y-48635455D01*
X140340495Y-48686585D01*
X140223939Y-48773939D01*
X140136585Y-48890495D01*
X140085455Y-49026884D01*
X140078700Y-49089066D01*
X140078700Y-50885334D01*
X140085455Y-50947516D01*
X140136585Y-51083905D01*
X140223939Y-51200461D01*
X140340495Y-51287815D01*
X140476884Y-51338945D01*
X140539066Y-51345700D01*
X142335334Y-51345700D01*
X142397516Y-51338945D01*
X142533905Y-51287815D01*
X142650461Y-51200461D01*
X142737815Y-51083905D01*
X142759999Y-51024729D01*
X142781798Y-50966582D01*
X142824440Y-50909818D01*
X142891002Y-50885118D01*
X142960350Y-50900326D01*
X142995017Y-50928314D01*
X143023450Y-50961138D01*
X143195326Y-51103832D01*
X143281270Y-51154053D01*
X143329994Y-51205691D01*
X143343700Y-51262841D01*
X143343700Y-52863006D01*
X143323698Y-52931127D01*
X143306795Y-52952101D01*
X141895747Y-54363148D01*
X141887461Y-54370688D01*
X141880982Y-54374800D01*
X141875557Y-54380577D01*
X141834357Y-54424451D01*
X141831602Y-54427293D01*
X141811865Y-54447030D01*
X141809385Y-54450227D01*
X141801682Y-54459247D01*
X141771414Y-54491479D01*
X141767595Y-54498425D01*
X141767593Y-54498428D01*
X141761652Y-54509234D01*
X141750801Y-54525753D01*
X141738386Y-54541759D01*
X141735241Y-54549028D01*
X141735238Y-54549032D01*
X141720826Y-54582337D01*
X141715609Y-54592987D01*
X141694305Y-54631740D01*
X141692334Y-54639415D01*
X141692334Y-54639416D01*
X141689267Y-54651362D01*
X141682863Y-54670066D01*
X141674819Y-54688655D01*
X141673580Y-54696478D01*
X141673577Y-54696488D01*
X141667901Y-54732324D01*
X141665495Y-54743944D01*
X141654500Y-54786770D01*
X141654500Y-54807024D01*
X141652949Y-54826734D01*
X141649780Y-54846743D01*
X141650526Y-54854635D01*
X141653941Y-54890761D01*
X141654500Y-54902619D01*
X141654500Y-59112193D01*
X141634498Y-59180314D01*
X141601399Y-59214963D01*
X141565280Y-59240584D01*
X141565276Y-59240587D01*
X141560389Y-59244054D01*
X141414119Y-59396850D01*
X141299380Y-59574548D01*
X141220314Y-59770737D01*
X141179772Y-59978337D01*
X141179500Y-59983899D01*
X141179500Y-60689846D01*
X141194548Y-60847566D01*
X141254092Y-61050534D01*
X141256836Y-61055861D01*
X141256836Y-61055862D01*
X141342434Y-61222060D01*
X141350942Y-61238580D01*
X141434243Y-61344626D01*
X141434275Y-61344667D01*
X141460625Y-61410592D01*
X141447150Y-61480298D01*
X141398129Y-61531654D01*
X141335189Y-61548500D01*
X137369282Y-61548500D01*
X137301161Y-61528498D01*
X137280187Y-61511595D01*
X135160337Y-59391745D01*
X135126311Y-59329433D01*
X135131376Y-59258618D01*
X135160337Y-59213555D01*
X136201158Y-58172734D01*
X136202095Y-58171806D01*
X136261475Y-58113657D01*
X136261476Y-58113656D01*
X136266507Y-58108729D01*
X136289998Y-58072279D01*
X136297417Y-58061954D01*
X136324476Y-58028057D01*
X136339073Y-57997862D01*
X136346602Y-57984445D01*
X136360948Y-57962184D01*
X136364765Y-57956262D01*
X136367173Y-57949645D01*
X136367176Y-57949640D01*
X136379592Y-57915527D01*
X136384553Y-57903784D01*
X136400354Y-57871097D01*
X136400356Y-57871092D01*
X136403421Y-57864751D01*
X136410965Y-57832072D01*
X136415332Y-57817331D01*
X136426803Y-57785815D01*
X136427686Y-57778825D01*
X136427688Y-57778817D01*
X136432238Y-57742799D01*
X136434474Y-57730247D01*
X136442638Y-57694886D01*
X136442638Y-57694883D01*
X136444224Y-57688015D01*
X136444311Y-57663332D01*
X136444366Y-57647444D01*
X136444395Y-57646562D01*
X136444500Y-57645731D01*
X136444500Y-57608928D01*
X136444692Y-57553891D01*
X136444845Y-57510157D01*
X136444845Y-57510152D01*
X136444857Y-57506630D01*
X136444589Y-57505430D01*
X136444500Y-57503793D01*
X136444500Y-53434797D01*
X136461380Y-53371798D01*
X136470527Y-53355956D01*
X136529542Y-53174328D01*
X136549504Y-52984400D01*
X136543905Y-52931127D01*
X136530232Y-52801035D01*
X136530232Y-52801033D01*
X136529542Y-52794472D01*
X136470527Y-52612844D01*
X136375040Y-52447456D01*
X136247253Y-52305534D01*
X136129376Y-52219891D01*
X136098094Y-52197163D01*
X136098093Y-52197162D01*
X136092752Y-52193282D01*
X136086724Y-52190598D01*
X136086722Y-52190597D01*
X135924319Y-52118291D01*
X135924318Y-52118291D01*
X135918288Y-52115606D01*
X135824887Y-52095753D01*
X135737944Y-52077272D01*
X135737939Y-52077272D01*
X135731487Y-52075900D01*
X135540513Y-52075900D01*
X135534061Y-52077272D01*
X135534056Y-52077272D01*
X135447113Y-52095753D01*
X135353712Y-52115606D01*
X135347682Y-52118291D01*
X135347681Y-52118291D01*
X135185278Y-52190597D01*
X135185276Y-52190598D01*
X135179248Y-52193282D01*
X135173907Y-52197162D01*
X135173906Y-52197163D01*
X135142624Y-52219891D01*
X135024747Y-52305534D01*
X134896960Y-52447456D01*
X134801473Y-52612844D01*
X134742458Y-52794472D01*
X134741768Y-52801033D01*
X134741768Y-52801035D01*
X134728095Y-52931127D01*
X134722496Y-52984400D01*
X134742458Y-53174328D01*
X134801473Y-53355956D01*
X134810620Y-53371798D01*
X134827500Y-53434797D01*
X134827500Y-56990637D01*
X134807498Y-57058758D01*
X134753842Y-57105251D01*
X134683568Y-57115355D01*
X134618988Y-57085861D01*
X134579793Y-57023248D01*
X134549391Y-56909785D01*
X134545645Y-56899493D01*
X134456377Y-56708059D01*
X134450897Y-56698568D01*
X134420206Y-56654735D01*
X134409729Y-56646360D01*
X134396282Y-56653428D01*
X132662207Y-58387503D01*
X132655777Y-58399277D01*
X132665074Y-58411293D01*
X132708069Y-58441398D01*
X132717555Y-58446876D01*
X132822965Y-58496029D01*
X132876250Y-58542946D01*
X132895711Y-58611223D01*
X132875169Y-58679183D01*
X132822965Y-58724419D01*
X132717311Y-58773686D01*
X132717306Y-58773689D01*
X132712324Y-58776012D01*
X132707817Y-58779168D01*
X132707815Y-58779169D01*
X132534730Y-58900364D01*
X132534727Y-58900366D01*
X132530219Y-58903523D01*
X132373023Y-59060719D01*
X132369866Y-59065227D01*
X132369864Y-59065230D01*
X132265020Y-59214963D01*
X132245512Y-59242824D01*
X132243189Y-59247806D01*
X132243186Y-59247811D01*
X132211788Y-59315145D01*
X132151560Y-59444304D01*
X132094022Y-59659037D01*
X132074647Y-59880500D01*
X132094022Y-60101963D01*
X132151560Y-60316696D01*
X132153882Y-60321677D01*
X132153883Y-60321678D01*
X132243186Y-60513189D01*
X132243189Y-60513194D01*
X132245512Y-60518176D01*
X132248668Y-60522683D01*
X132248669Y-60522685D01*
X132367806Y-60692830D01*
X132373023Y-60700281D01*
X132530219Y-60857477D01*
X132534727Y-60860634D01*
X132534730Y-60860636D01*
X132610495Y-60913687D01*
X132712323Y-60984988D01*
X132717305Y-60987311D01*
X132717310Y-60987314D01*
X132822373Y-61036305D01*
X132875658Y-61083222D01*
X132895119Y-61151499D01*
X132874577Y-61219459D01*
X132822373Y-61264695D01*
X132717311Y-61313686D01*
X132717306Y-61313689D01*
X132712324Y-61316012D01*
X132707817Y-61319168D01*
X132707815Y-61319169D01*
X132534730Y-61440364D01*
X132534727Y-61440366D01*
X132530219Y-61443523D01*
X132373023Y-61600719D01*
X132369866Y-61605227D01*
X132369864Y-61605230D01*
X132257686Y-61765438D01*
X132245512Y-61782824D01*
X132243189Y-61787806D01*
X132243186Y-61787811D01*
X132241541Y-61791339D01*
X132151560Y-61984304D01*
X132094022Y-62199037D01*
X132074647Y-62420500D01*
X132094022Y-62641963D01*
X132095446Y-62647276D01*
X132095447Y-62647283D01*
X132104485Y-62681014D01*
X132102796Y-62751990D01*
X132071874Y-62802721D01*
X128538147Y-66336448D01*
X128529861Y-66343988D01*
X128523382Y-66348100D01*
X128517957Y-66353877D01*
X128476757Y-66397751D01*
X128474002Y-66400593D01*
X128454265Y-66420330D01*
X128451785Y-66423527D01*
X128444082Y-66432547D01*
X128413814Y-66464779D01*
X128409995Y-66471725D01*
X128409993Y-66471728D01*
X128404052Y-66482534D01*
X128393201Y-66499053D01*
X128380786Y-66515059D01*
X128377641Y-66522328D01*
X128377638Y-66522332D01*
X128363226Y-66555637D01*
X128358009Y-66566287D01*
X128336705Y-66605040D01*
X128334734Y-66612715D01*
X128334734Y-66612716D01*
X128331667Y-66624662D01*
X128325263Y-66643366D01*
X128317219Y-66661955D01*
X128315980Y-66669778D01*
X128315977Y-66669788D01*
X128310301Y-66705624D01*
X128307895Y-66717244D01*
X128296900Y-66760070D01*
X128296900Y-66780324D01*
X128295349Y-66800034D01*
X128292180Y-66820043D01*
X128292926Y-66827935D01*
X128296341Y-66864061D01*
X128296900Y-66875919D01*
X128296900Y-78160207D01*
X128294668Y-78183816D01*
X128293125Y-78191906D01*
X128296081Y-78238898D01*
X128296651Y-78247951D01*
X128296900Y-78255862D01*
X128296900Y-82323392D01*
X128292943Y-82354720D01*
X128286860Y-82378411D01*
X128286860Y-82398685D01*
X128285310Y-82418387D01*
X128282139Y-82438416D01*
X128282885Y-82446305D01*
X128282885Y-82446308D01*
X128286300Y-82482411D01*
X128286860Y-82494275D01*
X128286860Y-89869377D01*
X128286333Y-89880560D01*
X128284658Y-89888053D01*
X128284907Y-89895979D01*
X128284907Y-89895980D01*
X128286798Y-89956143D01*
X128286860Y-89960101D01*
X128286860Y-89988001D01*
X128287357Y-89991934D01*
X128287364Y-89991991D01*
X128288296Y-90003825D01*
X128289686Y-90048034D01*
X128291898Y-90055648D01*
X128291899Y-90055653D01*
X128295337Y-90067486D01*
X128299348Y-90086849D01*
X128301886Y-90106942D01*
X128304803Y-90114309D01*
X128304804Y-90114314D01*
X128318162Y-90148053D01*
X128322006Y-90159280D01*
X128334342Y-90201738D01*
X128338379Y-90208564D01*
X128344653Y-90219173D01*
X128353348Y-90236921D01*
X128360808Y-90255762D01*
X128365470Y-90262178D01*
X128365470Y-90262179D01*
X128386796Y-90291532D01*
X128393312Y-90301452D01*
X128415818Y-90339507D01*
X128421424Y-90345114D01*
X128430140Y-90353830D01*
X128442980Y-90368863D01*
X128454888Y-90385252D01*
X128460995Y-90390304D01*
X128488953Y-90413433D01*
X128497734Y-90421423D01*
X129035307Y-90958998D01*
X129069332Y-91021310D01*
X129072211Y-91048093D01*
X129072211Y-91269100D01*
X129052209Y-91337221D01*
X128998553Y-91383714D01*
X128946211Y-91395100D01*
X128885713Y-91395100D01*
X128879261Y-91396472D01*
X128879256Y-91396472D01*
X128792312Y-91414953D01*
X128698912Y-91434806D01*
X128692882Y-91437491D01*
X128692881Y-91437491D01*
X128530478Y-91509797D01*
X128530476Y-91509798D01*
X128524448Y-91512482D01*
X128369947Y-91624734D01*
X128365526Y-91629644D01*
X128365525Y-91629645D01*
X128264060Y-91742334D01*
X128242160Y-91766656D01*
X128146673Y-91932044D01*
X128087658Y-92113672D01*
X128086968Y-92120233D01*
X128086968Y-92120235D01*
X128070293Y-92278892D01*
X128043280Y-92344549D01*
X128034078Y-92354818D01*
X127723095Y-92665800D01*
X127660783Y-92699825D01*
X127589967Y-92694760D01*
X127533132Y-92652213D01*
X127508321Y-92585693D01*
X127508000Y-92576704D01*
X127508000Y-57345975D01*
X132075628Y-57345975D01*
X132094038Y-57556396D01*
X132095941Y-57567191D01*
X132150609Y-57771215D01*
X132154355Y-57781507D01*
X132243623Y-57972941D01*
X132249103Y-57982432D01*
X132279794Y-58026265D01*
X132290271Y-58034640D01*
X132303718Y-58027572D01*
X132977978Y-57353312D01*
X132985592Y-57339368D01*
X132985461Y-57337535D01*
X132981210Y-57330920D01*
X132302997Y-56652707D01*
X132291223Y-56646277D01*
X132279207Y-56655574D01*
X132249103Y-56698568D01*
X132243623Y-56708059D01*
X132154355Y-56899493D01*
X132150609Y-56909785D01*
X132095941Y-57113809D01*
X132094038Y-57124604D01*
X132075628Y-57335025D01*
X132075628Y-57345975D01*
X127508000Y-57345975D01*
X127508000Y-56280771D01*
X132655860Y-56280771D01*
X132662928Y-56294218D01*
X133337188Y-56968478D01*
X133351132Y-56976092D01*
X133352965Y-56975961D01*
X133359580Y-56971710D01*
X134037793Y-56293497D01*
X134044223Y-56281723D01*
X134034926Y-56269707D01*
X133991931Y-56239602D01*
X133982445Y-56234124D01*
X133791007Y-56144855D01*
X133780715Y-56141109D01*
X133576691Y-56086441D01*
X133565896Y-56084538D01*
X133355475Y-56066128D01*
X133344525Y-56066128D01*
X133134104Y-56084538D01*
X133123309Y-56086441D01*
X132919285Y-56141109D01*
X132908993Y-56144855D01*
X132717559Y-56234123D01*
X132708068Y-56239603D01*
X132664235Y-56270294D01*
X132655860Y-56280771D01*
X127508000Y-56280771D01*
X127508000Y-49637655D01*
X128414858Y-49637655D01*
X128450104Y-49896638D01*
X128451412Y-49901124D01*
X128451412Y-49901126D01*
X128471098Y-49968664D01*
X128523243Y-50147567D01*
X128632668Y-50384928D01*
X128635231Y-50388837D01*
X128773410Y-50599596D01*
X128773414Y-50599601D01*
X128775976Y-50603509D01*
X128950018Y-50798506D01*
X129150970Y-50965637D01*
X129154973Y-50968066D01*
X129370422Y-51098804D01*
X129370426Y-51098806D01*
X129374419Y-51101229D01*
X129615455Y-51202303D01*
X129868783Y-51266641D01*
X129873434Y-51267109D01*
X129873438Y-51267110D01*
X130025575Y-51282429D01*
X130085867Y-51288500D01*
X130241354Y-51288500D01*
X130243679Y-51288327D01*
X130243685Y-51288327D01*
X130431000Y-51274407D01*
X130431004Y-51274406D01*
X130435652Y-51274061D01*
X130440200Y-51273032D01*
X130440206Y-51273031D01*
X130626601Y-51230853D01*
X130690577Y-51216377D01*
X130696867Y-51213931D01*
X130929824Y-51123340D01*
X130929827Y-51123339D01*
X130934177Y-51121647D01*
X130961500Y-51106031D01*
X131092790Y-51030992D01*
X131161098Y-50991951D01*
X131366357Y-50830138D01*
X131545443Y-50639763D01*
X131694424Y-50425009D01*
X131765880Y-50280110D01*
X131807960Y-50194781D01*
X131807961Y-50194778D01*
X131810025Y-50190593D01*
X131889707Y-49941665D01*
X131931721Y-49683693D01*
X131933431Y-49553075D01*
X131935081Y-49427022D01*
X131935081Y-49427019D01*
X131935142Y-49422345D01*
X131899896Y-49163362D01*
X131885473Y-49113877D01*
X131844104Y-48971948D01*
X131826757Y-48912433D01*
X131816644Y-48890495D01*
X131798804Y-48851798D01*
X131717332Y-48675072D01*
X131684519Y-48625024D01*
X131576590Y-48460404D01*
X131576586Y-48460399D01*
X131574024Y-48456491D01*
X131399982Y-48261494D01*
X131199030Y-48094363D01*
X131095959Y-48031818D01*
X130979578Y-47961196D01*
X130979574Y-47961194D01*
X130975581Y-47958771D01*
X130734545Y-47857697D01*
X130481217Y-47793359D01*
X130476566Y-47792891D01*
X130476562Y-47792890D01*
X130267271Y-47771816D01*
X130264133Y-47771500D01*
X130108646Y-47771500D01*
X130106321Y-47771673D01*
X130106315Y-47771673D01*
X129919000Y-47785593D01*
X129918996Y-47785594D01*
X129914348Y-47785939D01*
X129909800Y-47786968D01*
X129909794Y-47786969D01*
X129767617Y-47819141D01*
X129659423Y-47843623D01*
X129655071Y-47845315D01*
X129655069Y-47845316D01*
X129420176Y-47936660D01*
X129420173Y-47936661D01*
X129415823Y-47938353D01*
X129188902Y-48068049D01*
X128983643Y-48229862D01*
X128804557Y-48420237D01*
X128698884Y-48572563D01*
X128658345Y-48631000D01*
X128655576Y-48634991D01*
X128653510Y-48639181D01*
X128653508Y-48639184D01*
X128546872Y-48855422D01*
X128539975Y-48869407D01*
X128538553Y-48873850D01*
X128538552Y-48873852D01*
X128487052Y-49034740D01*
X128460293Y-49118335D01*
X128418279Y-49376307D01*
X128414858Y-49637655D01*
X127508000Y-49637655D01*
X127508000Y-48309328D01*
X127509500Y-48289943D01*
X127511805Y-48275142D01*
X127511805Y-48275139D01*
X127513186Y-48266270D01*
X127511350Y-48252231D01*
X127510675Y-48226011D01*
X127524421Y-48051346D01*
X127527514Y-48031818D01*
X127545051Y-47958771D01*
X127574060Y-47837941D01*
X127580169Y-47819141D01*
X127656471Y-47634933D01*
X127665445Y-47617322D01*
X127769626Y-47447315D01*
X127781241Y-47431327D01*
X127910734Y-47279710D01*
X127924712Y-47265732D01*
X128076327Y-47136241D01*
X128092315Y-47124626D01*
X128262322Y-47020445D01*
X128279933Y-47011471D01*
X128464146Y-46935167D01*
X128482941Y-46929060D01*
X128676819Y-46882514D01*
X128696347Y-46879421D01*
X128864013Y-46866226D01*
X128880881Y-46866867D01*
X128880883Y-46866695D01*
X128889859Y-46866805D01*
X128898730Y-46868186D01*
X128907632Y-46867022D01*
X128907635Y-46867022D01*
X128930251Y-46864064D01*
X128946589Y-46863000D01*
X160605672Y-46863000D01*
X160625057Y-46864500D01*
G37*
%TD.AperFunction*%
%TA.AperFunction,Conductor*%
G36*
X131998340Y-67312230D02*
G01*
X132055176Y-67354777D01*
X132079987Y-67421297D01*
X132079829Y-67441267D01*
X132074647Y-67500500D01*
X132094022Y-67721963D01*
X132151560Y-67936696D01*
X132153882Y-67941677D01*
X132153883Y-67941678D01*
X132243186Y-68133189D01*
X132243189Y-68133194D01*
X132245512Y-68138176D01*
X132248668Y-68142683D01*
X132248669Y-68142685D01*
X132340790Y-68274247D01*
X132373023Y-68320281D01*
X132530219Y-68477477D01*
X132534727Y-68480634D01*
X132534730Y-68480636D01*
X132610495Y-68533687D01*
X132712323Y-68604988D01*
X132717305Y-68607311D01*
X132717310Y-68607314D01*
X132822373Y-68656305D01*
X132875658Y-68703222D01*
X132895119Y-68771499D01*
X132874577Y-68839459D01*
X132822373Y-68884695D01*
X132717311Y-68933686D01*
X132717306Y-68933689D01*
X132712324Y-68936012D01*
X132707817Y-68939168D01*
X132707815Y-68939169D01*
X132534730Y-69060364D01*
X132534727Y-69060366D01*
X132530219Y-69063523D01*
X132373023Y-69220719D01*
X132245512Y-69402824D01*
X132243189Y-69407806D01*
X132243186Y-69407811D01*
X132159826Y-69586578D01*
X132151560Y-69604304D01*
X132094022Y-69819037D01*
X132074647Y-70040500D01*
X132094022Y-70261963D01*
X132095446Y-70267276D01*
X132147288Y-70460751D01*
X132151560Y-70476696D01*
X132153882Y-70481677D01*
X132153883Y-70481678D01*
X132243186Y-70673189D01*
X132243189Y-70673194D01*
X132245512Y-70678176D01*
X132373023Y-70860281D01*
X132530219Y-71017477D01*
X132534727Y-71020634D01*
X132534730Y-71020636D01*
X132610495Y-71073687D01*
X132712323Y-71144988D01*
X132717305Y-71147311D01*
X132717310Y-71147314D01*
X132822373Y-71196305D01*
X132875658Y-71243222D01*
X132895119Y-71311499D01*
X132874577Y-71379459D01*
X132822373Y-71424695D01*
X132717311Y-71473686D01*
X132717306Y-71473689D01*
X132712324Y-71476012D01*
X132707817Y-71479168D01*
X132707815Y-71479169D01*
X132534730Y-71600364D01*
X132534727Y-71600366D01*
X132530219Y-71603523D01*
X132373023Y-71760719D01*
X132369866Y-71765227D01*
X132369864Y-71765230D01*
X132337698Y-71811168D01*
X132245512Y-71942824D01*
X132243189Y-71947806D01*
X132243186Y-71947811D01*
X132186516Y-72069341D01*
X132151560Y-72144304D01*
X132094022Y-72359037D01*
X132074647Y-72580500D01*
X132094022Y-72801963D01*
X132151560Y-73016696D01*
X132153882Y-73021677D01*
X132153883Y-73021678D01*
X132243186Y-73213189D01*
X132243189Y-73213194D01*
X132245512Y-73218176D01*
X132248668Y-73222683D01*
X132248669Y-73222685D01*
X132336560Y-73348206D01*
X132373023Y-73400281D01*
X132530219Y-73557477D01*
X132534727Y-73560634D01*
X132534730Y-73560636D01*
X132593131Y-73601529D01*
X132607752Y-73611766D01*
X132620635Y-73620787D01*
X132664963Y-73676244D01*
X132672272Y-73746863D01*
X132640241Y-73810224D01*
X132579040Y-73846209D01*
X132548364Y-73850000D01*
X132539866Y-73850000D01*
X132477684Y-73856755D01*
X132341295Y-73907885D01*
X132224739Y-73995239D01*
X132137385Y-74111795D01*
X132086255Y-74248184D01*
X132079500Y-74310366D01*
X132079500Y-75930634D01*
X132086255Y-75992816D01*
X132137385Y-76129205D01*
X132224739Y-76245761D01*
X132341295Y-76333115D01*
X132477684Y-76384245D01*
X132539866Y-76391000D01*
X134160134Y-76391000D01*
X134222316Y-76384245D01*
X134358705Y-76333115D01*
X134475261Y-76245761D01*
X134562615Y-76129205D01*
X134613745Y-75992816D01*
X134620500Y-75930634D01*
X134620500Y-74310366D01*
X134613745Y-74248184D01*
X134562615Y-74111795D01*
X134475261Y-73995239D01*
X134358705Y-73907885D01*
X134222316Y-73856755D01*
X134160134Y-73850000D01*
X134151636Y-73850000D01*
X134083515Y-73829998D01*
X134037022Y-73776342D01*
X134026918Y-73706068D01*
X134056412Y-73641488D01*
X134079365Y-73620787D01*
X134092249Y-73611766D01*
X134106869Y-73601529D01*
X134165270Y-73560636D01*
X134165273Y-73560634D01*
X134169781Y-73557477D01*
X134326977Y-73400281D01*
X134363441Y-73348206D01*
X134419791Y-73267729D01*
X134475248Y-73223401D01*
X134523004Y-73214000D01*
X135544533Y-73214000D01*
X135555716Y-73214527D01*
X135563209Y-73216202D01*
X135571135Y-73215953D01*
X135571136Y-73215953D01*
X135631286Y-73214062D01*
X135635245Y-73214000D01*
X135663156Y-73214000D01*
X135667091Y-73213503D01*
X135667156Y-73213495D01*
X135678993Y-73212562D01*
X135711251Y-73211548D01*
X135715270Y-73211422D01*
X135723189Y-73211173D01*
X135742643Y-73205521D01*
X135762000Y-73201513D01*
X135774230Y-73199968D01*
X135774231Y-73199968D01*
X135782097Y-73198974D01*
X135789468Y-73196055D01*
X135789470Y-73196055D01*
X135823212Y-73182696D01*
X135834442Y-73178851D01*
X135869283Y-73168729D01*
X135869284Y-73168729D01*
X135876893Y-73166518D01*
X135883712Y-73162485D01*
X135883717Y-73162483D01*
X135894328Y-73156207D01*
X135912076Y-73147512D01*
X135930917Y-73140052D01*
X135966687Y-73114064D01*
X135976607Y-73107548D01*
X135987341Y-73101200D01*
X136014662Y-73085042D01*
X136020269Y-73079436D01*
X136028985Y-73070720D01*
X136044019Y-73057879D01*
X136053995Y-73050631D01*
X136053996Y-73050630D01*
X136060407Y-73045972D01*
X136088588Y-73011907D01*
X136096577Y-73003127D01*
X136217101Y-72882604D01*
X136279413Y-72848579D01*
X136306196Y-72845700D01*
X137911413Y-72845700D01*
X137979534Y-72865702D01*
X138026027Y-72919358D01*
X138036723Y-72984869D01*
X138024496Y-73101200D01*
X138025186Y-73107765D01*
X138036791Y-73218176D01*
X138044458Y-73291128D01*
X138103473Y-73472756D01*
X138198960Y-73638144D01*
X138272137Y-73719415D01*
X138302853Y-73783421D01*
X138304500Y-73803724D01*
X138304500Y-76121233D01*
X138303973Y-76132416D01*
X138302298Y-76139909D01*
X138302547Y-76147835D01*
X138302547Y-76147836D01*
X138304438Y-76207986D01*
X138304500Y-76211945D01*
X138304500Y-76239856D01*
X138304997Y-76243790D01*
X138304997Y-76243791D01*
X138305005Y-76243856D01*
X138305938Y-76255693D01*
X138307327Y-76299889D01*
X138312525Y-76317781D01*
X138312978Y-76319339D01*
X138316987Y-76338700D01*
X138319526Y-76358797D01*
X138322445Y-76366168D01*
X138322445Y-76366170D01*
X138335804Y-76399912D01*
X138339649Y-76411142D01*
X138351982Y-76453593D01*
X138356015Y-76460412D01*
X138356017Y-76460417D01*
X138362293Y-76471028D01*
X138370988Y-76488776D01*
X138378448Y-76507617D01*
X138383110Y-76514033D01*
X138383110Y-76514034D01*
X138404436Y-76543387D01*
X138410952Y-76553307D01*
X138433458Y-76591362D01*
X138447779Y-76605683D01*
X138460619Y-76620716D01*
X138472528Y-76637107D01*
X138478634Y-76642158D01*
X138506605Y-76665298D01*
X138515384Y-76673288D01*
X138549678Y-76707582D01*
X138583704Y-76769894D01*
X138585892Y-76783503D01*
X138586639Y-76790603D01*
X138598694Y-76905300D01*
X138603258Y-76948728D01*
X138662273Y-77130356D01*
X138757760Y-77295744D01*
X138885547Y-77437666D01*
X138973559Y-77501611D01*
X139024355Y-77538516D01*
X139040048Y-77549918D01*
X139046076Y-77552602D01*
X139046078Y-77552603D01*
X139075495Y-77565700D01*
X139214512Y-77627594D01*
X139307912Y-77647447D01*
X139394856Y-77665928D01*
X139394861Y-77665928D01*
X139401313Y-77667300D01*
X139592287Y-77667300D01*
X139598739Y-77665928D01*
X139598744Y-77665928D01*
X139685688Y-77647447D01*
X139779088Y-77627594D01*
X139918105Y-77565700D01*
X139947522Y-77552603D01*
X139947524Y-77552602D01*
X139953552Y-77549918D01*
X139969246Y-77538516D01*
X140020041Y-77501611D01*
X140108053Y-77437666D01*
X140235840Y-77295744D01*
X140331327Y-77130356D01*
X140336291Y-77115079D01*
X140376362Y-77056473D01*
X140429926Y-77030766D01*
X140559568Y-77003210D01*
X140565599Y-77000525D01*
X140728002Y-76928219D01*
X140728004Y-76928218D01*
X140734032Y-76925534D01*
X140888533Y-76813282D01*
X141016320Y-76671360D01*
X141099074Y-76528026D01*
X141108503Y-76511695D01*
X141108504Y-76511694D01*
X141111807Y-76505972D01*
X141170822Y-76324344D01*
X141174890Y-76285644D01*
X141190094Y-76140981D01*
X141190784Y-76134416D01*
X141176679Y-76000215D01*
X141171512Y-75951051D01*
X141171512Y-75951049D01*
X141170822Y-75944488D01*
X141111807Y-75762860D01*
X141016320Y-75597472D01*
X140888533Y-75455550D01*
X140734032Y-75343298D01*
X140728004Y-75340614D01*
X140728002Y-75340613D01*
X140662251Y-75311339D01*
X140608155Y-75265359D01*
X140587500Y-75196232D01*
X140587500Y-73854524D01*
X140607502Y-73786403D01*
X140619858Y-73770221D01*
X140693040Y-73688944D01*
X140768246Y-73558683D01*
X140785223Y-73529279D01*
X140785224Y-73529278D01*
X140788527Y-73523556D01*
X140847542Y-73341928D01*
X140852222Y-73297406D01*
X140866814Y-73158565D01*
X140867504Y-73152000D01*
X140849938Y-72984870D01*
X140862710Y-72915032D01*
X140911212Y-72863185D01*
X140975248Y-72845700D01*
X144236806Y-72845700D01*
X144304927Y-72865702D01*
X144325901Y-72882605D01*
X147112812Y-75669516D01*
X147146838Y-75731828D01*
X147141773Y-75802643D01*
X147099226Y-75859479D01*
X147032706Y-75884290D01*
X147023717Y-75884611D01*
X146826103Y-75884611D01*
X146824783Y-75884604D01*
X146823708Y-75884593D01*
X146734668Y-75883660D01*
X146692292Y-75892822D01*
X146679726Y-75894880D01*
X146636634Y-75899714D01*
X146629983Y-75902030D01*
X146629979Y-75902031D01*
X146604959Y-75910744D01*
X146590146Y-75914907D01*
X146557379Y-75921992D01*
X146518076Y-75940319D01*
X146506300Y-75945101D01*
X146465337Y-75959366D01*
X146459362Y-75963100D01*
X146459359Y-75963101D01*
X146436894Y-75977138D01*
X146423377Y-75984477D01*
X146399375Y-75995670D01*
X146392987Y-75998649D01*
X146387422Y-76002966D01*
X146387420Y-76002967D01*
X146358736Y-76025217D01*
X146348277Y-76032513D01*
X146317485Y-76051753D01*
X146317482Y-76051755D01*
X146311513Y-76055485D01*
X146306518Y-76060445D01*
X146306517Y-76060446D01*
X146282710Y-76084087D01*
X146282085Y-76084672D01*
X146281419Y-76085189D01*
X146255429Y-76111179D01*
X146182807Y-76183296D01*
X146182149Y-76184333D01*
X146181046Y-76185562D01*
X142121676Y-80244932D01*
X142059364Y-80278958D01*
X142012924Y-80279837D01*
X142012919Y-80279887D01*
X142012476Y-80279845D01*
X142010481Y-80279883D01*
X142002684Y-80278494D01*
X141928852Y-80277592D01*
X141784481Y-80275828D01*
X141784479Y-80275828D01*
X141779311Y-80275765D01*
X141558491Y-80309555D01*
X141346156Y-80378957D01*
X141148007Y-80482107D01*
X141143874Y-80485210D01*
X141143871Y-80485212D01*
X140973500Y-80613130D01*
X140969365Y-80616235D01*
X140943941Y-80642840D01*
X140875680Y-80714271D01*
X140815029Y-80777738D01*
X140812115Y-80782010D01*
X140812114Y-80782011D01*
X140707298Y-80935666D01*
X140652387Y-80980669D01*
X140581862Y-80988840D01*
X140518115Y-80957586D01*
X140497418Y-80933102D01*
X140416826Y-80808526D01*
X140410536Y-80800357D01*
X140267206Y-80642840D01*
X140259673Y-80635815D01*
X140092539Y-80503822D01*
X140083952Y-80498117D01*
X139897517Y-80395199D01*
X139888105Y-80390969D01*
X139687359Y-80319880D01*
X139677388Y-80317246D01*
X139606237Y-80304572D01*
X139592940Y-80306032D01*
X139588400Y-80320589D01*
X139588400Y-81763600D01*
X139568398Y-81831721D01*
X139514742Y-81878214D01*
X139462400Y-81889600D01*
X138017625Y-81889600D01*
X138004094Y-81893573D01*
X138002657Y-81903566D01*
X138032965Y-82038046D01*
X138036045Y-82047875D01*
X138116170Y-82245203D01*
X138120813Y-82254394D01*
X138232094Y-82435988D01*
X138238177Y-82444299D01*
X138377613Y-82605267D01*
X138384980Y-82612483D01*
X138548834Y-82748516D01*
X138557281Y-82754431D01*
X138741156Y-82861879D01*
X138750442Y-82866329D01*
X138946748Y-82941290D01*
X139003251Y-82984277D01*
X139027544Y-83050988D01*
X139011914Y-83120243D01*
X138961323Y-83170054D01*
X138901799Y-83185000D01*
X131445000Y-83185000D01*
X131445000Y-90097257D01*
X131424998Y-90165378D01*
X131371342Y-90211871D01*
X131301068Y-90221975D01*
X131236488Y-90192481D01*
X131198003Y-90132409D01*
X131192980Y-90115121D01*
X131190769Y-90107509D01*
X131186736Y-90100690D01*
X131186734Y-90100685D01*
X131180458Y-90090074D01*
X131171763Y-90072326D01*
X131164303Y-90053485D01*
X131138315Y-90017715D01*
X131131799Y-90007795D01*
X131113331Y-89976567D01*
X131113329Y-89976564D01*
X131109293Y-89969740D01*
X131094972Y-89955419D01*
X131082131Y-89940385D01*
X131074882Y-89930408D01*
X131070223Y-89923995D01*
X131064118Y-89918944D01*
X131064113Y-89918939D01*
X131036147Y-89895803D01*
X131027369Y-89887815D01*
X130489805Y-89350251D01*
X130455779Y-89287939D01*
X130452900Y-89261156D01*
X130452900Y-83145429D01*
X130472902Y-83077308D01*
X130489805Y-83056334D01*
X132176356Y-81369783D01*
X137998789Y-81369783D01*
X138000312Y-81378207D01*
X138012692Y-81381600D01*
X139062285Y-81381600D01*
X139077524Y-81377125D01*
X139078729Y-81375735D01*
X139080400Y-81368052D01*
X139080400Y-80318702D01*
X139076482Y-80305358D01*
X139062206Y-80303371D01*
X139023724Y-80309260D01*
X139013688Y-80311651D01*
X138811268Y-80377812D01*
X138801759Y-80381809D01*
X138612863Y-80480142D01*
X138604138Y-80485636D01*
X138433833Y-80613505D01*
X138426126Y-80620348D01*
X138278990Y-80774317D01*
X138272504Y-80782327D01*
X138152498Y-80958249D01*
X138147400Y-80967223D01*
X138057738Y-81160383D01*
X138054175Y-81170070D01*
X137998789Y-81369783D01*
X132176356Y-81369783D01*
X136588482Y-76957657D01*
X136596772Y-76950113D01*
X136603253Y-76946000D01*
X136608678Y-76940223D01*
X136614787Y-76935169D01*
X136616805Y-76937609D01*
X136665366Y-76909080D01*
X136695998Y-76905300D01*
X136747487Y-76905300D01*
X136753939Y-76903928D01*
X136753944Y-76903928D01*
X136840887Y-76885447D01*
X136934288Y-76865594D01*
X136975764Y-76847128D01*
X137102722Y-76790603D01*
X137102724Y-76790602D01*
X137108752Y-76787918D01*
X137263253Y-76675666D01*
X137272279Y-76665642D01*
X137386621Y-76538652D01*
X137386622Y-76538651D01*
X137391040Y-76533744D01*
X137449314Y-76432810D01*
X137483223Y-76374079D01*
X137483224Y-76374078D01*
X137486527Y-76368356D01*
X137545542Y-76186728D01*
X137553483Y-76111179D01*
X137564814Y-76003365D01*
X137565504Y-75996800D01*
X137557954Y-75924969D01*
X137546232Y-75813435D01*
X137546232Y-75813433D01*
X137545542Y-75806872D01*
X137486527Y-75625244D01*
X137391040Y-75459856D01*
X137263253Y-75317934D01*
X137108752Y-75205682D01*
X137102724Y-75202998D01*
X137102722Y-75202997D01*
X136940319Y-75130691D01*
X136940318Y-75130691D01*
X136934288Y-75128006D01*
X136840887Y-75108153D01*
X136753944Y-75089672D01*
X136753939Y-75089672D01*
X136747487Y-75088300D01*
X136556513Y-75088300D01*
X136550061Y-75089672D01*
X136550056Y-75089672D01*
X136463113Y-75108153D01*
X136369712Y-75128006D01*
X136363682Y-75130691D01*
X136363681Y-75130691D01*
X136201278Y-75202997D01*
X136201276Y-75202998D01*
X136195248Y-75205682D01*
X136040747Y-75317934D01*
X135912960Y-75459856D01*
X135817473Y-75625244D01*
X135758458Y-75806872D01*
X135757769Y-75813431D01*
X135757768Y-75813434D01*
X135740924Y-75973698D01*
X135713911Y-76039354D01*
X135704709Y-76049622D01*
X132983202Y-78771129D01*
X132920890Y-78805155D01*
X132850075Y-78800090D01*
X132793239Y-78757543D01*
X132770973Y-78708480D01*
X132770342Y-78702472D01*
X132711327Y-78520844D01*
X132615840Y-78355456D01*
X132488053Y-78213534D01*
X132333552Y-78101282D01*
X132327524Y-78098598D01*
X132327522Y-78098597D01*
X132165119Y-78026291D01*
X132165118Y-78026291D01*
X132159088Y-78023606D01*
X132065687Y-78003753D01*
X131978744Y-77985272D01*
X131978739Y-77985272D01*
X131972287Y-77983900D01*
X131781313Y-77983900D01*
X131774861Y-77985272D01*
X131774856Y-77985272D01*
X131687913Y-78003753D01*
X131594512Y-78023606D01*
X131588482Y-78026291D01*
X131588481Y-78026291D01*
X131426078Y-78098597D01*
X131426076Y-78098598D01*
X131420048Y-78101282D01*
X131265547Y-78213534D01*
X131261132Y-78218437D01*
X131256220Y-78222860D01*
X131255095Y-78221611D01*
X131201786Y-78254451D01*
X131168600Y-78258900D01*
X131163100Y-78258900D01*
X131094979Y-78238898D01*
X131048486Y-78185242D01*
X131037100Y-78132900D01*
X131037100Y-68221494D01*
X131057102Y-68153373D01*
X131074005Y-68132399D01*
X131865213Y-67341191D01*
X131927525Y-67307165D01*
X131998340Y-67312230D01*
G37*
%TD.AperFunction*%
%TA.AperFunction,Conductor*%
G36*
X140686151Y-82310278D02*
G01*
X140713979Y-82342111D01*
X140774387Y-82440688D01*
X140920650Y-82609538D01*
X141092526Y-82752232D01*
X141285400Y-82864938D01*
X141290225Y-82866780D01*
X141290226Y-82866781D01*
X141485345Y-82941290D01*
X141541848Y-82984278D01*
X141566141Y-83050989D01*
X141550511Y-83120244D01*
X141499920Y-83170054D01*
X141440396Y-83185000D01*
X139754458Y-83185000D01*
X139686337Y-83164998D01*
X139639844Y-83111342D01*
X139629740Y-83041068D01*
X139659234Y-82976488D01*
X139718251Y-82938314D01*
X139826652Y-82905792D01*
X139836242Y-82902033D01*
X140027495Y-82808339D01*
X140036345Y-82803064D01*
X140209728Y-82679392D01*
X140217600Y-82672739D01*
X140368452Y-82522412D01*
X140375130Y-82514565D01*
X140502422Y-82337419D01*
X140503679Y-82338322D01*
X140550773Y-82294962D01*
X140620711Y-82282745D01*
X140686151Y-82310278D01*
G37*
%TD.AperFunction*%
%TA.AperFunction,Conductor*%
G36*
X134308301Y-60836763D02*
G01*
X134343248Y-60861440D01*
X136403966Y-62922158D01*
X136404894Y-62923095D01*
X136467971Y-62987507D01*
X136504421Y-63010998D01*
X136514746Y-63018417D01*
X136548643Y-63045476D01*
X136554984Y-63048541D01*
X136554985Y-63048542D01*
X136578837Y-63060072D01*
X136592254Y-63067601D01*
X136620438Y-63085765D01*
X136627055Y-63088173D01*
X136627060Y-63088176D01*
X136661173Y-63100592D01*
X136672916Y-63105553D01*
X136705600Y-63121353D01*
X136705609Y-63121356D01*
X136711949Y-63124421D01*
X136718814Y-63126006D01*
X136744628Y-63131966D01*
X136759368Y-63136332D01*
X136790885Y-63147803D01*
X136797870Y-63148685D01*
X136797877Y-63148687D01*
X136833892Y-63153237D01*
X136846443Y-63155472D01*
X136888685Y-63165225D01*
X136895729Y-63165250D01*
X136895733Y-63165250D01*
X136929272Y-63165367D01*
X136930142Y-63165396D01*
X136930969Y-63165500D01*
X136967458Y-63165500D01*
X136967897Y-63165501D01*
X137066543Y-63165845D01*
X137066548Y-63165845D01*
X137070070Y-63165857D01*
X137071270Y-63165589D01*
X137072908Y-63165500D01*
X138577142Y-63165500D01*
X138645263Y-63185502D01*
X138691756Y-63239158D01*
X138701860Y-63309432D01*
X138672366Y-63374012D01*
X138651203Y-63393436D01*
X138529947Y-63481534D01*
X138525526Y-63486444D01*
X138525525Y-63486445D01*
X138488727Y-63527314D01*
X138402160Y-63623456D01*
X138306673Y-63788844D01*
X138247658Y-63970472D01*
X138227696Y-64160400D01*
X138247658Y-64350328D01*
X138306673Y-64531956D01*
X138402160Y-64697344D01*
X138406578Y-64702251D01*
X138406579Y-64702252D01*
X138477187Y-64780670D01*
X138529947Y-64839266D01*
X138684448Y-64951518D01*
X138690476Y-64954202D01*
X138690478Y-64954203D01*
X138716919Y-64965975D01*
X138858912Y-65029194D01*
X138952313Y-65049047D01*
X139039256Y-65067528D01*
X139039261Y-65067528D01*
X139045713Y-65068900D01*
X139236687Y-65068900D01*
X139243139Y-65067528D01*
X139243144Y-65067528D01*
X139330087Y-65049047D01*
X139423488Y-65029194D01*
X139565481Y-64965975D01*
X139591922Y-64954203D01*
X139591924Y-64954202D01*
X139597952Y-64951518D01*
X139752453Y-64839266D01*
X139756868Y-64834363D01*
X139761780Y-64829940D01*
X139762905Y-64831189D01*
X139816214Y-64798349D01*
X139849400Y-64793900D01*
X140566600Y-64793900D01*
X140634721Y-64813902D01*
X140653947Y-64830243D01*
X140654220Y-64829940D01*
X140659132Y-64834363D01*
X140663547Y-64839266D01*
X140818048Y-64951518D01*
X140824076Y-64954202D01*
X140824078Y-64954203D01*
X140850519Y-64965975D01*
X140992512Y-65029194D01*
X141085913Y-65049047D01*
X141172856Y-65067528D01*
X141172861Y-65067528D01*
X141179313Y-65068900D01*
X141370287Y-65068900D01*
X141376739Y-65067528D01*
X141376744Y-65067528D01*
X141463687Y-65049047D01*
X141557088Y-65029194D01*
X141699081Y-64965975D01*
X141725522Y-64954203D01*
X141725524Y-64954202D01*
X141731552Y-64951518D01*
X141886053Y-64839266D01*
X141938813Y-64780670D01*
X142009421Y-64702252D01*
X142009422Y-64702251D01*
X142013840Y-64697344D01*
X142109327Y-64531956D01*
X142168342Y-64350328D01*
X142188304Y-64160400D01*
X142168342Y-63970472D01*
X142109327Y-63788844D01*
X142013840Y-63623456D01*
X141927274Y-63527314D01*
X141890475Y-63486445D01*
X141890474Y-63486444D01*
X141886053Y-63481534D01*
X141764797Y-63393436D01*
X141721443Y-63337214D01*
X141715368Y-63266477D01*
X141748500Y-63203686D01*
X141810320Y-63168774D01*
X141838858Y-63165500D01*
X142945118Y-63165500D01*
X143013239Y-63185502D01*
X143034213Y-63202405D01*
X148862195Y-69030387D01*
X148896221Y-69092699D01*
X148899100Y-69119482D01*
X148899100Y-74759100D01*
X148879098Y-74827221D01*
X148825442Y-74873714D01*
X148773100Y-74885100D01*
X148646913Y-74885100D01*
X148640461Y-74886472D01*
X148640456Y-74886472D01*
X148585701Y-74898111D01*
X148460112Y-74924806D01*
X148454082Y-74927491D01*
X148454081Y-74927491D01*
X148331503Y-74982066D01*
X148261136Y-74991500D01*
X148196839Y-74961393D01*
X148191159Y-74956054D01*
X145055052Y-71819947D01*
X145047512Y-71811661D01*
X145043400Y-71805182D01*
X144993748Y-71758556D01*
X144990907Y-71755802D01*
X144971170Y-71736065D01*
X144967973Y-71733585D01*
X144958951Y-71725880D01*
X144954798Y-71721980D01*
X144926721Y-71695614D01*
X144919775Y-71691795D01*
X144919772Y-71691793D01*
X144908966Y-71685852D01*
X144892447Y-71675001D01*
X144891983Y-71674641D01*
X144876441Y-71662586D01*
X144869172Y-71659441D01*
X144869168Y-71659438D01*
X144835863Y-71645026D01*
X144825213Y-71639809D01*
X144786460Y-71618505D01*
X144766837Y-71613467D01*
X144748134Y-71607063D01*
X144736820Y-71602167D01*
X144736819Y-71602167D01*
X144729545Y-71599019D01*
X144721722Y-71597780D01*
X144721712Y-71597777D01*
X144685876Y-71592101D01*
X144674256Y-71589695D01*
X144639111Y-71580672D01*
X144639110Y-71580672D01*
X144631430Y-71578700D01*
X144611176Y-71578700D01*
X144591465Y-71577149D01*
X144579286Y-71575220D01*
X144571457Y-71573980D01*
X144542186Y-71576747D01*
X144527439Y-71578141D01*
X144515581Y-71578700D01*
X136070367Y-71578700D01*
X136059184Y-71578173D01*
X136051691Y-71576498D01*
X136043765Y-71576747D01*
X136043764Y-71576747D01*
X135983601Y-71578638D01*
X135979643Y-71578700D01*
X135951744Y-71578700D01*
X135947754Y-71579204D01*
X135935920Y-71580136D01*
X135891711Y-71581526D01*
X135884097Y-71583738D01*
X135884092Y-71583739D01*
X135872259Y-71587177D01*
X135852896Y-71591188D01*
X135832803Y-71593726D01*
X135825436Y-71596643D01*
X135825431Y-71596644D01*
X135791692Y-71610002D01*
X135780465Y-71613846D01*
X135738007Y-71626182D01*
X135731181Y-71630219D01*
X135720572Y-71636493D01*
X135702824Y-71645188D01*
X135683983Y-71652648D01*
X135677567Y-71657310D01*
X135677566Y-71657310D01*
X135648213Y-71678636D01*
X135638292Y-71685152D01*
X135600238Y-71707658D01*
X135594631Y-71713264D01*
X135585915Y-71721980D01*
X135570882Y-71734820D01*
X135554493Y-71746728D01*
X135549441Y-71752835D01*
X135526313Y-71780792D01*
X135518323Y-71789573D01*
X135397799Y-71910096D01*
X135335487Y-71944121D01*
X135308704Y-71947000D01*
X134523004Y-71947000D01*
X134454883Y-71926998D01*
X134419791Y-71893271D01*
X134330136Y-71765230D01*
X134330134Y-71765227D01*
X134326977Y-71760719D01*
X134169781Y-71603523D01*
X134165273Y-71600366D01*
X134165270Y-71600364D01*
X134089505Y-71547313D01*
X133987677Y-71476012D01*
X133982695Y-71473689D01*
X133982690Y-71473686D01*
X133877627Y-71424695D01*
X133824342Y-71377778D01*
X133804881Y-71309501D01*
X133825423Y-71241541D01*
X133877627Y-71196305D01*
X133982690Y-71147314D01*
X133982695Y-71147311D01*
X133987677Y-71144988D01*
X134089505Y-71073687D01*
X134165270Y-71020636D01*
X134165273Y-71020634D01*
X134169781Y-71017477D01*
X134326977Y-70860281D01*
X134454488Y-70678176D01*
X134456811Y-70673194D01*
X134456814Y-70673189D01*
X134546117Y-70481678D01*
X134546118Y-70481677D01*
X134548440Y-70476696D01*
X134552713Y-70460751D01*
X134604554Y-70267276D01*
X134605978Y-70261963D01*
X134625353Y-70040500D01*
X134605978Y-69819037D01*
X134548440Y-69604304D01*
X134540174Y-69586578D01*
X134456814Y-69407811D01*
X134456811Y-69407806D01*
X134454488Y-69402824D01*
X134326977Y-69220719D01*
X134169781Y-69063523D01*
X134165273Y-69060366D01*
X134165270Y-69060364D01*
X134089505Y-69007313D01*
X133987677Y-68936012D01*
X133982695Y-68933689D01*
X133982690Y-68933686D01*
X133877627Y-68884695D01*
X133824342Y-68837778D01*
X133804881Y-68769501D01*
X133825423Y-68701541D01*
X133877627Y-68656305D01*
X133982690Y-68607314D01*
X133982695Y-68607311D01*
X133987677Y-68604988D01*
X134089505Y-68533687D01*
X134165270Y-68480636D01*
X134165273Y-68480634D01*
X134169781Y-68477477D01*
X134326977Y-68320281D01*
X134359211Y-68274247D01*
X134451331Y-68142685D01*
X134451332Y-68142683D01*
X134454488Y-68138176D01*
X134456811Y-68133194D01*
X134456814Y-68133189D01*
X134546117Y-67941678D01*
X134546118Y-67941677D01*
X134548440Y-67936696D01*
X134605978Y-67721963D01*
X134625353Y-67500500D01*
X134605978Y-67279037D01*
X134548440Y-67064304D01*
X134540175Y-67046579D01*
X134456814Y-66867811D01*
X134456811Y-66867806D01*
X134454488Y-66862824D01*
X134430059Y-66827935D01*
X134330136Y-66685230D01*
X134330134Y-66685227D01*
X134326977Y-66680719D01*
X134169781Y-66523523D01*
X134165273Y-66520366D01*
X134165270Y-66520364D01*
X134039857Y-66432549D01*
X133987677Y-66396012D01*
X133982695Y-66393689D01*
X133982690Y-66393686D01*
X133877627Y-66344695D01*
X133824342Y-66297778D01*
X133804881Y-66229501D01*
X133825423Y-66161541D01*
X133877627Y-66116305D01*
X133982690Y-66067314D01*
X133982695Y-66067311D01*
X133987677Y-66064988D01*
X134089505Y-65993687D01*
X134165270Y-65940636D01*
X134165273Y-65940634D01*
X134169781Y-65937477D01*
X134326977Y-65780281D01*
X134454488Y-65598176D01*
X134456811Y-65593194D01*
X134456814Y-65593189D01*
X134546117Y-65401678D01*
X134546118Y-65401677D01*
X134548440Y-65396696D01*
X134605978Y-65181963D01*
X134625353Y-64960500D01*
X134605978Y-64739037D01*
X134552024Y-64537679D01*
X134549863Y-64529614D01*
X134549862Y-64529612D01*
X134548440Y-64524304D01*
X134470241Y-64356606D01*
X134456814Y-64327811D01*
X134456811Y-64327806D01*
X134454488Y-64322824D01*
X134326977Y-64140719D01*
X134169781Y-63983523D01*
X134165273Y-63980366D01*
X134165270Y-63980364D01*
X134089505Y-63927313D01*
X133987677Y-63856012D01*
X133982695Y-63853689D01*
X133982690Y-63853686D01*
X133877627Y-63804695D01*
X133824342Y-63757778D01*
X133804881Y-63689501D01*
X133825423Y-63621541D01*
X133877627Y-63576305D01*
X133982690Y-63527314D01*
X133982695Y-63527311D01*
X133987677Y-63524988D01*
X134089505Y-63453687D01*
X134165270Y-63400636D01*
X134165273Y-63400634D01*
X134169781Y-63397477D01*
X134326977Y-63240281D01*
X134379339Y-63165501D01*
X134451331Y-63062685D01*
X134451332Y-63062683D01*
X134454488Y-63058176D01*
X134456811Y-63053194D01*
X134456814Y-63053189D01*
X134546117Y-62861678D01*
X134546118Y-62861677D01*
X134548440Y-62856696D01*
X134605978Y-62641963D01*
X134625353Y-62420500D01*
X134605978Y-62199037D01*
X134548440Y-61984304D01*
X134458459Y-61791339D01*
X134456814Y-61787811D01*
X134456811Y-61787806D01*
X134454488Y-61782824D01*
X134442314Y-61765438D01*
X134330136Y-61605230D01*
X134330134Y-61605227D01*
X134326977Y-61600719D01*
X134169781Y-61443523D01*
X134165273Y-61440366D01*
X134165270Y-61440364D01*
X134085215Y-61384309D01*
X133987677Y-61316012D01*
X133982695Y-61313689D01*
X133982690Y-61313686D01*
X133877627Y-61264695D01*
X133824342Y-61217778D01*
X133804881Y-61149501D01*
X133825423Y-61081541D01*
X133877627Y-61036305D01*
X133982690Y-60987314D01*
X133982695Y-60987311D01*
X133987677Y-60984988D01*
X134103023Y-60904221D01*
X134165277Y-60860631D01*
X134165279Y-60860629D01*
X134169781Y-60857477D01*
X134173305Y-60853953D01*
X134238196Y-60825550D01*
X134308301Y-60836763D01*
G37*
%TD.AperFunction*%
%TD*%
M02*
