%TF.GenerationSoftware,KiCad,Pcbnew,(6.0.1)*%
%TF.CreationDate,2022-08-04T18:09:42+02:00*%
%TF.ProjectId,Ganimede_Esp8266,47616e69-6d65-4646-955f-457370383236,rev?*%
%TF.SameCoordinates,Original*%
%TF.FileFunction,Soldermask,Bot*%
%TF.FilePolarity,Negative*%
%FSLAX46Y46*%
G04 Gerber Fmt 4.6, Leading zero omitted, Abs format (unit mm)*
G04 Created by KiCad (PCBNEW (6.0.1)) date 2022-08-04 18:09:42*
%MOMM*%
%LPD*%
G01*
G04 APERTURE LIST*
G04 Aperture macros list*
%AMRoundRect*
0 Rectangle with rounded corners*
0 $1 Rounding radius*
0 $2 $3 $4 $5 $6 $7 $8 $9 X,Y pos of 4 corners*
0 Add a 4 corners polygon primitive as box body*
4,1,4,$2,$3,$4,$5,$6,$7,$8,$9,$2,$3,0*
0 Add four circle primitives for the rounded corners*
1,1,$1+$1,$2,$3*
1,1,$1+$1,$4,$5*
1,1,$1+$1,$6,$7*
1,1,$1+$1,$8,$9*
0 Add four rect primitives between the rounded corners*
20,1,$1+$1,$2,$3,$4,$5,0*
20,1,$1+$1,$4,$5,$6,$7,0*
20,1,$1+$1,$6,$7,$8,$9,0*
20,1,$1+$1,$8,$9,$2,$3,0*%
G04 Aperture macros list end*
%ADD10R,1.700000X1.700000*%
%ADD11O,1.700000X1.700000*%
%ADD12C,2.500000*%
%ADD13C,0.650000*%
%ADD14O,1.000000X2.100000*%
%ADD15O,1.000000X1.600000*%
%ADD16RoundRect,0.250000X0.350000X0.625000X-0.350000X0.625000X-0.350000X-0.625000X0.350000X-0.625000X0*%
%ADD17O,1.200000X1.750000*%
%ADD18R,1.676400X1.676400*%
%ADD19C,1.524000*%
%ADD20R,1.524000X1.524000*%
G04 APERTURE END LIST*
D10*
%TO.C,CN5*%
X160578800Y-104749600D03*
D11*
X160578800Y-107289600D03*
%TD*%
D12*
%TO.C,REF\u002A\u002A*%
X159385000Y-128905000D03*
%TD*%
D13*
%TO.C,CN1*%
X141890000Y-126940000D03*
X147670000Y-126940000D03*
D14*
X140460000Y-126410000D03*
X149100000Y-126410000D03*
D15*
X140460000Y-130590000D03*
X149100000Y-130590000D03*
%TD*%
D12*
%TO.C,REF\u002A\u002A*%
X159385000Y-49530000D03*
%TD*%
D16*
%TO.C,CN3*%
X148288000Y-60362000D03*
D17*
X146288000Y-60362000D03*
X144288000Y-60362000D03*
X142288000Y-60362000D03*
%TD*%
D18*
%TO.C,CN2*%
X156210000Y-75120500D03*
D19*
X156210000Y-72580500D03*
X156210000Y-70040500D03*
X156210000Y-67500500D03*
X156210000Y-64960500D03*
X156210000Y-62420500D03*
X156210000Y-59880500D03*
X156210000Y-57340500D03*
X133350000Y-57340500D03*
X133350000Y-59880500D03*
X133350000Y-62420500D03*
X133350000Y-64960500D03*
X133350000Y-67500500D03*
X133350000Y-70040500D03*
X133350000Y-72580500D03*
D20*
X133350000Y-75120500D03*
%TD*%
D12*
%TO.C,REF\u002A\u002A*%
X130175000Y-49530000D03*
%TD*%
D10*
%TO.C,CN7*%
X141437200Y-49987200D03*
D11*
X143977200Y-49987200D03*
X146517200Y-49987200D03*
X149057200Y-49987200D03*
%TD*%
D12*
%TO.C,REF\u002A\u002A*%
X130175000Y-128905000D03*
%TD*%
D10*
%TO.C,CN4*%
X160629600Y-85917800D03*
D11*
X160629600Y-88457800D03*
X160629600Y-90997800D03*
%TD*%
D10*
%TO.C,CN6*%
X146954400Y-81635600D03*
D11*
X144414400Y-81635600D03*
X141874400Y-81635600D03*
X139334400Y-81635600D03*
%TD*%
M02*
