%TF.GenerationSoftware,KiCad,Pcbnew,(6.0.1)*%
%TF.CreationDate,2022-05-29T12:12:57+02:00*%
%TF.ProjectId,Ganimede_Esp8266,47616e69-6d65-4646-955f-457370383236,rev?*%
%TF.SameCoordinates,Original*%
%TF.FileFunction,Other,Comment*%
%FSLAX46Y46*%
G04 Gerber Fmt 4.6, Leading zero omitted, Abs format (unit mm)*
G04 Created by KiCad (PCBNEW (6.0.1)) date 2022-05-29 12:12:57*
%MOMM*%
%LPD*%
G01*
G04 APERTURE LIST*
%ADD10C,0.150000*%
G04 APERTURE END LIST*
D10*
%TO.C,SW1*%
X155289428Y-120832571D02*
X154956095Y-120832571D01*
X154956095Y-121356380D02*
X154956095Y-120356380D01*
X155432285Y-120356380D01*
X155956095Y-121356380D02*
X155860857Y-121308761D01*
X155813238Y-121213523D01*
X155813238Y-120356380D01*
X156765619Y-121356380D02*
X156765619Y-120832571D01*
X156718000Y-120737333D01*
X156622761Y-120689714D01*
X156432285Y-120689714D01*
X156337047Y-120737333D01*
X156765619Y-121308761D02*
X156670380Y-121356380D01*
X156432285Y-121356380D01*
X156337047Y-121308761D01*
X156289428Y-121213523D01*
X156289428Y-121118285D01*
X156337047Y-121023047D01*
X156432285Y-120975428D01*
X156670380Y-120975428D01*
X156765619Y-120927809D01*
X157194190Y-121308761D02*
X157289428Y-121356380D01*
X157479904Y-121356380D01*
X157575142Y-121308761D01*
X157622761Y-121213523D01*
X157622761Y-121165904D01*
X157575142Y-121070666D01*
X157479904Y-121023047D01*
X157337047Y-121023047D01*
X157241809Y-120975428D01*
X157194190Y-120880190D01*
X157194190Y-120832571D01*
X157241809Y-120737333D01*
X157337047Y-120689714D01*
X157479904Y-120689714D01*
X157575142Y-120737333D01*
X158051333Y-121356380D02*
X158051333Y-120356380D01*
X158479904Y-121356380D02*
X158479904Y-120832571D01*
X158432285Y-120737333D01*
X158337047Y-120689714D01*
X158194190Y-120689714D01*
X158098952Y-120737333D01*
X158051333Y-120784952D01*
%TO.C,SW2*%
X131476904Y-121483380D02*
X131143571Y-121007190D01*
X130905476Y-121483380D02*
X130905476Y-120483380D01*
X131286428Y-120483380D01*
X131381666Y-120531000D01*
X131429285Y-120578619D01*
X131476904Y-120673857D01*
X131476904Y-120816714D01*
X131429285Y-120911952D01*
X131381666Y-120959571D01*
X131286428Y-121007190D01*
X130905476Y-121007190D01*
X132286428Y-121435761D02*
X132191190Y-121483380D01*
X132000714Y-121483380D01*
X131905476Y-121435761D01*
X131857857Y-121340523D01*
X131857857Y-120959571D01*
X131905476Y-120864333D01*
X132000714Y-120816714D01*
X132191190Y-120816714D01*
X132286428Y-120864333D01*
X132334047Y-120959571D01*
X132334047Y-121054809D01*
X131857857Y-121150047D01*
X132715000Y-121435761D02*
X132810238Y-121483380D01*
X133000714Y-121483380D01*
X133095952Y-121435761D01*
X133143571Y-121340523D01*
X133143571Y-121292904D01*
X133095952Y-121197666D01*
X133000714Y-121150047D01*
X132857857Y-121150047D01*
X132762619Y-121102428D01*
X132715000Y-121007190D01*
X132715000Y-120959571D01*
X132762619Y-120864333D01*
X132857857Y-120816714D01*
X133000714Y-120816714D01*
X133095952Y-120864333D01*
X133953095Y-121435761D02*
X133857857Y-121483380D01*
X133667380Y-121483380D01*
X133572142Y-121435761D01*
X133524523Y-121340523D01*
X133524523Y-120959571D01*
X133572142Y-120864333D01*
X133667380Y-120816714D01*
X133857857Y-120816714D01*
X133953095Y-120864333D01*
X134000714Y-120959571D01*
X134000714Y-121054809D01*
X133524523Y-121150047D01*
X134286428Y-120816714D02*
X134667380Y-120816714D01*
X134429285Y-120483380D02*
X134429285Y-121340523D01*
X134476904Y-121435761D01*
X134572142Y-121483380D01*
X134667380Y-121483380D01*
%TO.C,U1*%
X136878095Y-88982666D02*
X137354285Y-88982666D01*
X136782857Y-89268380D02*
X137116190Y-88268380D01*
X137449523Y-89268380D01*
X137782857Y-88601714D02*
X137782857Y-89268380D01*
X137782857Y-88696952D02*
X137830476Y-88649333D01*
X137925714Y-88601714D01*
X138068571Y-88601714D01*
X138163809Y-88649333D01*
X138211428Y-88744571D01*
X138211428Y-89268380D01*
X138544761Y-88601714D02*
X138925714Y-88601714D01*
X138687619Y-88268380D02*
X138687619Y-89125523D01*
X138735238Y-89220761D01*
X138830476Y-89268380D01*
X138925714Y-89268380D01*
X139640000Y-89220761D02*
X139544761Y-89268380D01*
X139354285Y-89268380D01*
X139259047Y-89220761D01*
X139211428Y-89125523D01*
X139211428Y-88744571D01*
X139259047Y-88649333D01*
X139354285Y-88601714D01*
X139544761Y-88601714D01*
X139640000Y-88649333D01*
X139687619Y-88744571D01*
X139687619Y-88839809D01*
X139211428Y-88935047D01*
X140116190Y-88601714D02*
X140116190Y-89268380D01*
X140116190Y-88696952D02*
X140163809Y-88649333D01*
X140259047Y-88601714D01*
X140401904Y-88601714D01*
X140497142Y-88649333D01*
X140544761Y-88744571D01*
X140544761Y-89268380D01*
X141020952Y-88601714D02*
X141020952Y-89268380D01*
X141020952Y-88696952D02*
X141068571Y-88649333D01*
X141163809Y-88601714D01*
X141306666Y-88601714D01*
X141401904Y-88649333D01*
X141449523Y-88744571D01*
X141449523Y-89268380D01*
X142354285Y-89268380D02*
X142354285Y-88744571D01*
X142306666Y-88649333D01*
X142211428Y-88601714D01*
X142020952Y-88601714D01*
X141925714Y-88649333D01*
X142354285Y-89220761D02*
X142259047Y-89268380D01*
X142020952Y-89268380D01*
X141925714Y-89220761D01*
X141878095Y-89125523D01*
X141878095Y-89030285D01*
X141925714Y-88935047D01*
X142020952Y-88887428D01*
X142259047Y-88887428D01*
X142354285Y-88839809D01*
X133658571Y-86718380D02*
X133658571Y-85718380D01*
X134230000Y-86718380D02*
X133801428Y-86146952D01*
X134230000Y-85718380D02*
X133658571Y-86289809D01*
X134658571Y-86194571D02*
X134991904Y-86194571D01*
X135134761Y-86718380D02*
X134658571Y-86718380D01*
X134658571Y-85718380D01*
X135134761Y-85718380D01*
X135563333Y-86194571D02*
X135896666Y-86194571D01*
X136039523Y-86718380D02*
X135563333Y-86718380D01*
X135563333Y-85718380D01*
X136039523Y-85718380D01*
X136468095Y-86718380D02*
X136468095Y-85718380D01*
X136849047Y-85718380D01*
X136944285Y-85766000D01*
X136991904Y-85813619D01*
X137039523Y-85908857D01*
X137039523Y-86051714D01*
X136991904Y-86146952D01*
X136944285Y-86194571D01*
X136849047Y-86242190D01*
X136468095Y-86242190D01*
X137468095Y-86337428D02*
X138230000Y-86337428D01*
X138896666Y-85718380D02*
X139087142Y-85718380D01*
X139182380Y-85766000D01*
X139277619Y-85861238D01*
X139325238Y-86051714D01*
X139325238Y-86385047D01*
X139277619Y-86575523D01*
X139182380Y-86670761D01*
X139087142Y-86718380D01*
X138896666Y-86718380D01*
X138801428Y-86670761D01*
X138706190Y-86575523D01*
X138658571Y-86385047D01*
X138658571Y-86051714D01*
X138706190Y-85861238D01*
X138801428Y-85766000D01*
X138896666Y-85718380D01*
X139753809Y-85718380D02*
X139753809Y-86527904D01*
X139801428Y-86623142D01*
X139849047Y-86670761D01*
X139944285Y-86718380D01*
X140134761Y-86718380D01*
X140230000Y-86670761D01*
X140277619Y-86623142D01*
X140325238Y-86527904D01*
X140325238Y-85718380D01*
X140658571Y-85718380D02*
X141230000Y-85718380D01*
X140944285Y-86718380D02*
X140944285Y-85718380D01*
X142230000Y-85718380D02*
X142896666Y-85718380D01*
X142230000Y-86718380D01*
X142896666Y-86718380D01*
X143468095Y-85718380D02*
X143658571Y-85718380D01*
X143753809Y-85766000D01*
X143849047Y-85861238D01*
X143896666Y-86051714D01*
X143896666Y-86385047D01*
X143849047Y-86575523D01*
X143753809Y-86670761D01*
X143658571Y-86718380D01*
X143468095Y-86718380D01*
X143372857Y-86670761D01*
X143277619Y-86575523D01*
X143230000Y-86385047D01*
X143230000Y-86051714D01*
X143277619Y-85861238D01*
X143372857Y-85766000D01*
X143468095Y-85718380D01*
X144325238Y-86718380D02*
X144325238Y-85718380D01*
X144896666Y-86718380D01*
X144896666Y-85718380D01*
X145372857Y-86194571D02*
X145706190Y-86194571D01*
X145849047Y-86718380D02*
X145372857Y-86718380D01*
X145372857Y-85718380D01*
X145849047Y-85718380D01*
%TO.C,REF\u002A\u002A*%
X161885000Y-128905000D02*
G75*
G03*
X161885000Y-128905000I-2500000J0D01*
G01*
X161885000Y-49530000D02*
G75*
G03*
X161885000Y-49530000I-2500000J0D01*
G01*
X132675000Y-49530000D02*
G75*
G03*
X132675000Y-49530000I-2500000J0D01*
G01*
X132675000Y-128905000D02*
G75*
G03*
X132675000Y-128905000I-2500000J0D01*
G01*
%TD*%
M02*
