M48
; DRILL file {KiCad (6.0.1)} date Sun May 29 12:12:57 2022
; FORMAT={-:-/ absolute / inch / decimal}
; #@! TF.CreationDate,2022-05-29T12:12:57+02:00
; #@! TF.GenerationSoftware,Kicad,Pcbnew,(6.0.1)
; #@! TF.FileFunction,Plated,1,2,PTH
FMAT,2
INCH
; #@! TA.AperFunction,Plated,PTH,ViaDrill
T1C0.0157
; #@! TA.AperFunction,Plated,PTH,ComponentDrill
T2C0.0236
; #@! TA.AperFunction,Plated,PTH,ComponentDrill
T3C0.0295
; #@! TA.AperFunction,Plated,PTH,ComponentDrill
T4C0.0350
; #@! TA.AperFunction,Plated,PTH,ComponentDrill
T5C0.0394
%
G90
G05
T1
X5.0365Y-3.87
X5.072Y-3.726
X5.078Y-3.634
X5.1Y-2.1
X5.1055Y-3.078
X5.12Y-3.98
X5.12Y-4.12
X5.13Y-4.338
X5.14Y-3.34
X5.14Y-3.42
X5.14Y-3.5
X5.15Y-4.925
X5.166Y-3.0295
X5.174Y-2.806
X5.192Y-3.106
X5.225Y-4.925
X5.225Y-5.0
X5.29Y-3.712
X5.3Y-3.8
X5.3168Y-3.9135
X5.34Y-2.086
X5.348Y-3.942
X5.35Y-2.9
X5.3568Y-3.0592
X5.38Y-2.992
X5.4Y-3.7
X5.4Y-4.944
X5.413Y-3.869
X5.425Y-2.9
X5.448Y-4.452
X5.46Y-4.592
X5.47Y-2.878
X5.475Y-4.15
X5.475Y-4.325
X5.478Y-2.526
X5.492Y-3.022
X5.5Y-2.7
X5.5Y-3.8
X5.51Y-2.88
X5.5227Y-2.9974
X5.532Y-4.842
X5.55Y-4.375
X5.562Y-2.526
X5.57Y-4.66
X5.572Y-4.533
X5.6Y-2.8
X5.6Y-3.7
X5.625Y-3.825
X5.632Y-4.598
X5.642Y-4.724
X5.65Y-4.15
X5.658Y-4.086
X5.675Y-4.325
X5.69Y-5.01
X5.698Y-2.21
X5.7Y-2.7
X5.7Y-3.75
X5.7Y-4.02
X5.7Y-4.064
X5.704Y-3.931
X5.714Y-2.09
X5.738Y-4.724
X5.7451Y-5.01
X5.754Y-4.6
X5.8Y-2.8
X5.825Y-4.525
X5.825Y-4.65
X5.825Y-4.75
X5.84Y-4.338
X5.856Y-2.984
X5.875Y-4.55
X5.875Y-4.7
X5.88Y-3.34
X5.88Y-3.4
X5.88Y-3.46
X5.882Y-3.674
X5.884Y-3.552
X5.884Y-3.596
X5.893Y-3.9325
X5.894Y-3.018
X5.9Y-3.825
X5.93Y-4.1136
X5.93Y-4.194
X5.931Y-3.673
X5.9478Y-3.8758
X5.95Y-3.8
X5.968Y-4.601
X5.97Y-4.338
X5.989Y-3.552
X6.0Y-2.91
X6.0Y-3.24
X6.0Y-3.32
X6.0Y-3.4
X6.0Y-3.475
X6.0Y-3.75
X6.025Y-3.6
X6.025Y-3.65
X6.0266Y-3.156
X6.041Y-4.941
X6.044Y-2.3
X6.05Y-3.5
X6.07Y-3.94
X6.1Y-1.95
X6.1Y-3.175
X6.1Y-3.275
X6.1Y-4.15
X6.1Y-4.225
X6.102Y-4.678
X6.117Y-3.504
X6.117Y-3.592
X6.152Y-3.22
X6.162Y-3.88
X6.175Y-4.925
X6.175Y-5.0
X6.209Y-3.125
X6.216Y-4.474
X6.222Y-4.68
X6.2329Y-3.81
X6.238Y-3.849
X6.25Y-4.925
X6.253Y-3.765
X6.275Y-3.725
X6.3Y-2.1
X6.347Y-3.758
X6.35Y-4.5
X6.35Y-4.55
X6.35Y-4.6
X6.37Y-3.896
T3
X5.6019Y-2.3765
X5.6806Y-2.3765
X5.7594Y-2.3765
X5.8381Y-2.3765
T4
X5.25Y-2.2575
X5.25Y-2.3575
X5.25Y-2.4575
X5.25Y-2.5575
X5.25Y-2.6575
X5.25Y-2.7575
X5.25Y-2.8575
X5.25Y-2.9575
X6.15Y-2.2575
X6.15Y-2.3575
X6.15Y-2.4575
X6.15Y-2.5575
X6.15Y-2.6575
X6.15Y-2.7575
X6.15Y-2.8575
X6.15Y-2.9575
T5
X5.4856Y-3.214
X5.5684Y-1.968
X5.5856Y-3.214
X5.6684Y-1.968
X5.6856Y-3.214
X5.7684Y-1.968
X5.7856Y-3.214
X5.8684Y-1.968
X6.322Y-4.124
X6.322Y-4.224
X6.324Y-3.3826
X6.324Y-3.4826
X6.324Y-3.5826
T2
G00X5.5299Y-4.9551
M15
G01X5.5299Y-4.9984
M16
G05
G00X5.5299Y-5.1295
M15
G01X5.5299Y-5.1531
M16
G05
G00X5.8701Y-4.9551
M15
G01X5.8701Y-4.9984
M16
G05
G00X5.8701Y-5.1295
M15
G01X5.8701Y-5.1531
M16
G05
T0
M30
